<svg xmlns="http://www.w3.org/2000/svg" width="800" height="310" viewBox="0 0 800 310">
    <g>
        <g fill="rgb(155, 65, 65)">
            <g>
                <rect stroke-width="8" fill="rgb(255, 255, 255)" stroke="#021818" x="11.3" y="9.3" width="283.6"
                    height="174" />
                <rect fill="#021818" x="127.2" y="186.6" width="50" height="49.4" />
                <rect fill="#021818" x="93.5" y="234.7" width="119.4" height="29.4" />
            </g>
            <g>
                <ellipse cx="152.6" cy="67.2" rx="15" ry="15" fill="#021818" />
                <polyline points="147.8,78.8 142.7,136.2 165.1,136.2 158.6,78.4" fill="#021818" />
                <rect x="112.3" y="141.5" width="82" height="18" fill="#2b8b3b" rx="10" ry="10" />
            </g>
            <g transform="matrix(0.9,0.4,-0.4,0.9,33.6,-78.4)">
                <rect rx="4" ry="4" x="171" y="76.9" width="84" height="7.8" fill="#ffff00" />
                <g>
                    <rect x="175" y="84.1" width="2.4" height="9.2" fill="rgb(252, 255, 0)" />
                    <rect x="176.6" y="82.1" width="3" height="9.2" fill="rgb(252, 255, 0)" />
                    <rect x="179.1" y="84.1" width="2.2" height="9.8" fill="rgb(252, 255, 0)" />
                    <rect x="180.9" y="81" width="3.2" height="9.2" fill="rgb(252, 255, 0)" />
                    <rect x="182.8" y="82.7" width="2.4" height="10" fill="rgb(252, 255, 0)" />
                    <rect x="185" y="82.7" width="2.4" height="9.2" fill="rgb(252, 255, 0)" />
                    <rect x="186.6" y="81.6" width="2.2" height="9.2" fill="rgb(252, 255, 0)" />
                    <rect x="188.5" y="84.1" width="2.4" height="10" fill="rgb(252, 255, 0)" />
                </g>
                <g>
                    <ellipse cx="262.4" cy="80.6" rx="13.5" ry="16.8" fill="rgb(252, 255, 0)" />
                    <ellipse cx="262.7" cy="75.6" rx="8.1" ry="7.4" fill="rgb(255, 255, 255)" />
                    <ellipse fill="rgb(255, 255, 255)" cx="262.7" cy="85.6" rx="8.1" ry="7.4" />
                </g>
                <rect x="243.3" y="74.4" width="4.2" height="12.4" rx="3" ry="3" fill="rgb(255, 255, 0)" />
            </g>
        </g>
        <g>
            <path
                d="M 277.2 215 L 329.3 221.8 L 318.9 294.3 L 308.4 293.5 L 303.2 216.7 L 292.8 242.3 L 298 291.3 L 287.6 293.5 L 272 244.5 Q 266.8 221.8 273.6 200"
                fill="#021818" />
            <path transform="matrix(1,0,0,1,-10.1,11.2)"
                d="M 329.3 290.3 C 329.3 290.3 310 291.9 310 291.9 S 309 287.8 309 287.8 S 318.7 283.8 318.7 283.8 S 328.7 284.7 328.7 284.7"
                fill="#021818" />
            <path transform="matrix(1,-0.3,0.3,1,-77.8,104.8)"
                d="M 294.5 281.2 C 294.5 281.2 275.1 282.8 275.1 282.8 S 274.1 278.7 274.1 278.7 S 283.8 274.7 283.8 274.7 S 293.8 275.6 293.8 275.6"
                fill="#021818" />
            <polyline points="304.5,122.3 302.8,140.7 271.6,138.2 250.4,101.5 251.2,97.8 279.1,124"
                fill="rgba(163, 102, 82, 0.9)" />
            <path d="M 286.5 108.5 L 309.5 106.5 Q 359.5 168.5 335.5 224.5 L 264.5 213.5 Z" fill="rgb(163, 102, 82)" />
            <polyline transform="matrix(1,-0.1,0.1,1,-16.2,46.4)"
                points="304.3,113.1 302.6,131.4 271.3,128.9 247.6,92.2 250.9,88.5 278.8,114.7"
                fill="rgb(173, 102, 82)" />
            <polyline points="243.2,110.6 241,109.1 239.2,110.6 241,113.5" fill="rgb(237, 208, 179)" />
            <polyline points="247.7,96 246.7,96.4 246.6,96.9 246.7,97.4 246.9,97.9 247.1,98"
                fill="rgb(237, 208, 179)" />
            <path
                d="M 299.6 102.5 C 284.1 104.2 284 86.8 284 86.8 S 285.4 85.3 285.4 85.3 S 307 85.1 307 85.1 S 306.9 101 307 101"
                fill="rgb(237, 208, 179)" />
            <path
                d="M 308.4 88.8 C 308.4 88.8 314.5 89.4 314.5 89.4 S 315 76.9 315 76.9 S 282.6 74.5 282.6 74.5 S 279.8 77.9 279.8 77.9 S 279.6 81.3 279.6 81.3 S 284 86.7 284 86.7"
                fill="rgb(193, 20, 20)" />
            <path d="M 307.1 88.3 C 306.9 87.3 305.9 101.2 305.9 101.2 S 313.8 100 313.8 100 S 314.6 88.7 314.6 88.3"
                fill="rgb(193, 20, 20)" />
        </g>
        <g>
            <text y="36.4" textLength="90" font-size="20" x="19.1" fill="#7fdf48">
                01100101
            </text>
            <text y="56.4" textLength="90" font-size="20" x="19.1" fill="#7fdf48">
                11001001
            </text>
            <text y="76.4" textLength="90" font-size="20" x="19.1" fill="#7fdf48">
                00110101
            </text>
            <text y="96.4" textLength="90" font-size="20" x="19.1" fill="#7fdf48">
                11001100
            </text>
            <text y="116.4" textLength="90" font-size="20" x="19.1" fill="#7fdf48">
                01010001
            </text>
            <text y="136.4" textLength="90" font-size="20" x="19.1" fill="#7fdf48">
                11110010
            </text>
            <text y="156.4" textLength="90" font-size="20" x="19.1" fill="#7fdf48">
                00111101
            </text>
            <text y="176.4" textLength="90" font-size="20" x="19.1" fill="#7fdf48">
                10110001
            </text>
        </g>
        <g>
            <text textLength="180" font-weight="600" font-size="28" x="383.1" y="51.9" fill="#021818">
                AN EFFECTIVE
            </text>
            <text x="383.1" textLength="180" font-weight="900" font-size="45" y="91.9" fill="#034d24">
                SOCIAL
            </text>
            <text x="383.1" textLength="405" font-weight="900" font-size="45" y="141.9" fill="#034d24">
                AUTHENTICATION
            </text>
            <text x="383.1" textLength="250" font-weight="900" font-size="45" y="191.9" fill="#034d24">
                SOLUTION
            </text>
            <text textLength="180" font-weight="600" font-size="28" x="383.1" y="221.9" fill="#021818">
                WITH AUTH0
            </text>
        </g>
    </g>
</svg>