<?xml version="1.0" encoding="iso-8859-1"?>
<!-- Generator: Adobe Illustrator 18.0.0, SVG Export Plug-In . SVG Version: 6.00 Build 0)  -->
<!DOCTYPE svg PUBLIC "-//W3C//DTD SVG 1.1//EN" "http://www.w3.org/Graphics/SVG/1.1/DTD/svg11.dtd">
<svg version="1.1" id="Capa_1" xmlns="http://www.w3.org/2000/svg" xmlns:xlink="http://www.w3.org/1999/xlink" x="0px" y="0px"
	 viewBox="0 0 452.373 452.373" style="enable-background:new 0 0 452.373 452.373;" xml:space="preserve">
<g>
	<g>
		<path style="fill:#3D6889;" d="M349.127,176.868c-1.223,0-2.447,0.022-3.673,0.065c-6.007-60.509-57.204-107.921-119.267-107.921
			c-62.064,0-113.26,47.413-119.267,107.921c-1.227-0.044-2.452-0.066-3.675-0.066C46.316,176.868,0,223.184,0,280.114
			c0,56.93,46.316,103.246,103.246,103.246h245.881c56.931,0,103.246-46.316,103.246-103.246
			C452.373,223.184,406.058,176.868,349.127,176.868z M349.127,359.36H103.246C59.55,359.36,24,323.81,24,280.114
			s35.55-79.246,79.246-79.246c4.372,0,8.791,0.366,13.134,1.088c3.505,0.582,7.09-0.418,9.785-2.734
			c2.696-2.315,4.228-5.706,4.182-9.26l-0.008-0.464c-0.003-0.209-0.008-0.419-0.008-0.63c0-52.855,43.001-95.855,95.857-95.855
			c52.854,0,95.855,43.001,95.855,95.855c0,0.209-0.004,0.418-0.008,0.626l-0.007,0.47c-0.046,3.554,1.486,6.945,4.184,9.26
			c2.697,2.315,6.28,3.315,9.787,2.731c4.329-0.721,8.746-1.087,13.128-1.087c43.696,0,79.246,35.55,79.246,79.246
			S392.823,359.36,349.127,359.36z"/>
		<path style="fill:#3D6889;" d="M220.479,109.012c-41.685,0-75.597,33.912-75.597,75.596c0,6.627,5.373,12,12,12
			c6.628,0,12-5.373,12-12c0-28.45,23.146-51.596,51.597-51.596c6.627,0,12-5.373,12-12
			C232.479,114.384,227.105,109.012,220.479,109.012z"/>
	</g>
</g>
<g>
</g>
<g>
</g>
<g>
</g>
<g>
</g>
<g>
</g>
<g>
</g>
<g>
</g>
<g>
</g>
<g>
</g>
<g>
</g>
<g>
</g>
<g>
</g>
<g>
</g>
<g>
</g>
<g>
</g>
</svg>
