<?xml version="1.0" encoding="iso-8859-1"?>
<!-- Generator: Adobe Illustrator 19.0.0, SVG Export Plug-In . SVG Version: 6.00 Build 0)  -->
<svg version="1.1" id="Layer_1" xmlns="http://www.w3.org/2000/svg" xmlns:xlink="http://www.w3.org/1999/xlink" x="0px" y="0px"
	 viewBox="0 0 489.338 489.338" style="enable-background:new 0 0 489.338 489.338;" xml:space="preserve">
<path style="fill:#049696;" d="M480.977,479.571c0,5.396-4.38,9.767-9.759,9.767H191.232c-5.419,0-9.775-4.38-9.775-9.767V372.949
	c0-5.388,4.356-9.767,9.775-9.767h279.985c5.388,0,9.759,4.387,9.759,9.767L480.977,479.571L480.977,479.571z"/>
<path style="fill:#02D1B8;" d="M480.977,479.571V372.949c0-5.388-4.38-9.767-9.759-9.767h-92.625c-5.404,0-9.783,4.387-9.783,9.767
	v106.622c0,5.396,4.38,9.767,9.783,9.767h92.625C476.597,489.346,480.977,484.966,480.977,479.571z"/>
<g>
	<path style="fill:#00B7A5;" d="M378.592,363.181c-5.404,0-9.783,4.387-9.783,9.767v106.622c0,5.396,4.38,9.767,9.783,9.767h92.625
		c5.388,0,9.759-4.38,9.759-9.767"/>
	<path style="fill:#00B7A5;" d="M205.403,463.73c0,1.394-1.119,2.497-2.497,2.497l0,0c-1.386,0-2.497-1.111-2.497-2.497v-74.949
		c0-1.371,1.111-2.489,2.497-2.489l0,0c1.378,0,2.497,1.126,2.497,2.489V463.73z"/>
	<path style="fill:#00B7A5;" d="M223.732,463.73c0,1.394-1.134,2.497-2.505,2.497l0,0c-1.386,0-2.505-1.111-2.505-2.497v-74.949
		c0-1.371,1.126-2.489,2.505-2.489l0,0c1.371,0,2.505,1.126,2.505,2.489V463.73z"/>
	<path style="fill:#00B7A5;" d="M242.046,463.73c0,1.394-1.118,2.497-2.505,2.497l0,0c-1.363,0-2.497-1.111-2.497-2.497v-74.949
		c0-1.371,1.134-2.489,2.497-2.489l0,0c1.386,0,2.505,1.126,2.505,2.489V463.73z"/>
	<path style="fill:#00B7A5;" d="M260.368,463.73c0,1.394-1.111,2.497-2.505,2.497l0,0c-1.371,0-2.481-1.111-2.481-2.497v-74.949
		c0-1.371,1.111-2.489,2.481-2.489l0,0c1.394,0,2.505,1.126,2.505,2.489V463.73z"/>
	<path style="fill:#00B7A5;" d="M278.689,463.73c0,1.394-1.126,2.497-2.513,2.497l0,0c-1.355,0-2.489-1.111-2.489-2.497v-74.949
		c0-1.371,1.134-2.489,2.489-2.489l0,0c1.386,0,2.513,1.126,2.513,2.489V463.73z"/>
	<path style="fill:#00B7A5;" d="M297.011,463.73c0,1.394-1.118,2.497-2.497,2.497l0,0c-1.386,0-2.489-1.111-2.489-2.497v-74.949
		c0-1.371,1.103-2.489,2.489-2.489l0,0c1.378,0,2.497,1.126,2.497,2.489V463.73z"/>
	<path style="fill:#00B7A5;" d="M315.325,463.73c0,1.394-1.119,2.497-2.497,2.497l0,0c-1.371,0-2.497-1.111-2.497-2.497v-74.949
		c0-1.371,1.126-2.489,2.497-2.489l0,0c1.378,0,2.497,1.126,2.497,2.489V463.73z"/>
	<path style="fill:#00B7A5;" d="M333.647,463.73c0,1.394-1.118,2.497-2.497,2.497l0,0c-1.386,0-2.497-1.111-2.497-2.497v-74.949
		c0-1.371,1.111-2.489,2.497-2.489l0,0c1.378,0,2.497,1.126,2.497,2.489V463.73z"/>
	<path style="fill:#00B7A5;" d="M351.969,463.73c0,1.394-1.118,2.497-2.489,2.497l0,0c-1.371,0-2.505-1.111-2.505-2.497v-74.949
		c0-1.371,1.134-2.489,2.505-2.489l0,0c1.371,0,2.489,1.126,2.489,2.489V463.73z"/>
</g>
<path style="fill:#F76A00;" d="M89.667,210.456c-16.384,16.384-42.945,16.384-59.337,0c-16.4-16.392-16.4-42.945,0-59.337
	c16.384-16.4,173.93-147.369,190.33-130.985C237.036,36.51,106.059,194.064,89.667,210.456z"/>
<path style="fill:#F44B00;" d="M220.66,20.133c16.384,16.376-114.601,173.93-130.985,190.322c-16.384,16.384-42.945,16.384-59.337,0
	"/>
<path style="fill:#8C5834;" d="M231.664,218.592c0,4.805-3.899,8.712-8.704,8.712l0,0c-4.805,0-8.72-3.907-8.72-8.712V22.284
	c0-4.821,3.915-8.712,8.72-8.712l0,0c4.813,0,8.704,3.891,8.704,8.712V218.592z"/>
<path id="SVGCleanerId_0" style="fill:#91ADB5;" d="M228.663,356.612v-47.529c0-3.151-2.56-5.719-5.727-5.719
	c-3.151,0-5.703,2.56-5.703,5.719v52.901c0,3.143,2.552,5.711,5.703,5.711c0.354,0,0.733-0.032,1.063-0.095
	c12.257,0.543,22.063,10.665,22.063,23.056c0,12.737-10.366,23.119-23.127,23.119c-12.745,0-23.103-10.374-23.103-23.119h-11.437
	c0,19.046,15.502,34.556,34.54,34.556c19.07,0,34.564-15.51,34.564-34.556C257.501,373.547,245,359.337,228.663,356.612z"/>
<g>
	<path id="SVGCleanerId_0_1_" style="fill:#91ADB5;" d="M228.663,356.612v-47.529c0-3.151-2.56-5.719-5.727-5.719
		c-3.151,0-5.703,2.56-5.703,5.719v52.901c0,3.143,2.552,5.711,5.703,5.711c0.354,0,0.733-0.032,1.063-0.095
		c12.257,0.543,22.063,10.665,22.063,23.056c0,12.737-10.366,23.119-23.127,23.119c-12.745,0-23.103-10.374-23.103-23.119h-11.437
		c0,19.046,15.502,34.556,34.54,34.556c19.07,0,34.564-15.51,34.564-34.556C257.501,373.547,245,359.337,228.663,356.612z"/>
</g>
<g>
	<path style="fill:#A8C6CC;" d="M222.945,355.927c0.354,0,0.733-0.032,1.063-0.095c1.607,0.079,3.167,0.315,4.663,0.693v-11.658
		v-35.785c0-3.151-2.56-5.719-5.727-5.719c-3.151,0-5.703,2.56-5.703,5.719v41.141C217.242,353.375,219.794,355.927,222.945,355.927
		z"/>
	<path style="fill:#A8C6CC;" d="M256.965,384.701c-2.458-14.052-13.43-25.159-27.38-27.892c9.515,2.851,16.479,11.65,16.479,22.087
		c0,2.032-0.291,3.994-0.788,5.876c0.488,1.867,0.788,3.844,0.788,5.876c0,10.468-7.01,19.322-16.597,22.158
		C243.535,410.096,254.57,398.864,256.965,384.701z"/>
	<path style="fill:#A8C6CC;" d="M199.841,390.648h-9.334c4.096,11.288,13.887,19.85,25.915,22.158
		C206.86,409.97,199.841,401.117,199.841,390.648z"/>
</g>
<path style="fill:#608387;" d="M244.622,317.661c0,2.119-1.701,3.82-3.797,3.82H205.08c-2.103,0-3.812-1.709-3.812-3.82v-12.863
	c0-2.127,1.709-3.82,3.812-3.82h35.745c2.095,0,3.797,1.701,3.797,3.82V317.661z"/>
<path style="fill:#86AAB2;" d="M287.716,248.123l-28.908-50.058c-1.434-2.497-4.088-4.017-6.955-4.017h-57.809
	c-2.883,0-5.522,1.512-6.947,4.017l-28.893,50.058c-1.441,2.473-1.441,5.537,0,8.019l28.893,50.074
	c1.426,2.481,4.072,4.017,6.947,4.017h57.809c2.875,0,5.522-1.528,6.955-4.017l28.908-50.074
	C289.15,253.668,289.15,250.604,287.716,248.123z"/>
<path style="fill:#71989E;" d="M258.808,198.065c-1.434-2.497-4.088-4.017-6.955-4.017h-57.809c-2.883,0-5.522,1.512-6.947,4.017
	l-14.423,24.97l84.834,84.85c0.504-0.488,0.937-1.063,1.3-1.67l28.908-50.074c1.434-2.473,1.434-5.537,0-8.019L258.808,198.065z"/>
<path style="fill:#FFA522;" d="M106.886,464.408c0,24.261-19.677,16.62-43.945,16.62l0,0c-24.261,0-43.93,7.641-43.93-16.62V171.11
	c0-24.269,19.677-43.945,43.93-43.945l0,0c24.269,0,43.945,19.677,43.945,43.945C106.886,171.11,106.886,464.408,106.886,464.408z"
	/>
<path style="fill:#FFBB24;" d="M19.011,464.408V171.11c0-24.269,19.677-43.945,43.93-43.945l0,0
	c24.269,0,43.945,19.677,43.945,43.945"/>
<circle style="fill:#F76A00;" cx="62.948" cy="178.271" r="17.81"/>
<path style="fill:#F98E00;" d="M80.758,178.231c0,9.83-7.971,17.802-17.818,17.802s-17.802-7.971-17.802-17.802
	c0-9.846,7.964-10.689,17.802-10.689S80.758,168.385,80.758,178.231z"/>
<path style="fill:#F44B00;" d="M117.536,486.849c0,1.371-1.111,2.489-2.505,2.489H10.835c-1.363,0-2.473-1.126-2.473-2.489v-21.15
	c0-1.378,1.111-2.481,2.473-2.481h104.196c1.394,0,2.505,1.111,2.505,2.481V486.849z"/>
<path style="fill:#F76A00;" d="M115.031,463.218H10.835c-1.363,0-2.473,1.111-2.473,2.481v8.68c0,1.371,1.111,2.489,2.473,2.489
	h104.196c1.394,0,2.505-1.126,2.505-2.489v-8.68C117.536,464.329,116.425,463.218,115.031,463.218z"/>
<circle style="fill:#86AAB2;" cx="219.384" cy="21.37" r="21.37"/>
<path style="fill:#71989E;" d="M219.408,0c11.808,0,21.378,9.57,21.378,21.37c0,11.792-9.578,21.37-21.378,21.37"/>
<g>
	<path style="fill:#F98E00;" d="M76.607,242.538c0,2.284-1.851,4.143-4.159,4.143H53.449c-2.3,0-4.167-1.859-4.167-4.143l0,0
		c0-2.3,1.867-4.151,4.167-4.151h18.999C74.756,238.387,76.607,240.246,76.607,242.538L76.607,242.538z"/>
	<path style="fill:#F98E00;" d="M76.607,259.159c0,2.3-1.851,4.167-4.159,4.167H53.449c-2.3,0-4.167-1.867-4.167-4.167l0,0
		c0-2.276,1.867-4.143,4.167-4.143h18.999C74.756,255.008,76.607,256.882,76.607,259.159L76.607,259.159z"/>
	<path style="fill:#F98E00;" d="M76.607,275.779c0,2.3-1.851,4.167-4.159,4.167H53.449c-2.3,0-4.167-1.867-4.167-4.167l0,0
		c0-2.284,1.867-4.143,4.167-4.143h18.999C74.756,271.636,76.607,273.495,76.607,275.779L76.607,275.779z"/>
	<path style="fill:#F98E00;" d="M76.607,292.423c0,2.284-1.851,4.151-4.159,4.151H53.449c-2.3,0-4.167-1.867-4.167-4.151l0,0
		c0-2.3,1.867-4.167,4.167-4.167h18.999C74.756,288.248,76.607,290.123,76.607,292.423L76.607,292.423z"/>
</g>
<g>
</g>
<g>
</g>
<g>
</g>
<g>
</g>
<g>
</g>
<g>
</g>
<g>
</g>
<g>
</g>
<g>
</g>
<g>
</g>
<g>
</g>
<g>
</g>
<g>
</g>
<g>
</g>
<g>
</g>
</svg>
