<?xml version="1.0" encoding="iso-8859-1"?>
<!-- Generator: Adobe Illustrator 19.0.0, SVG Export Plug-In . SVG Version: 6.00 Build 0)  -->
<svg version="1.1" id="Layer_1" xmlns="http://www.w3.org/2000/svg" xmlns:xlink="http://www.w3.org/1999/xlink" x="0px" y="0px"
	 viewBox="0 0 512.427 512.427" style="enable-background:new 0 0 512.427 512.427;" xml:space="preserve">
<g transform="translate(1 1)">
	<g>
		<polygon style="fill:#FDCC00;" points="443.16,366.147 357.827,366.147 357.827,93.08 385.987,7.747 415,7.747 443.16,93.08 		"/>
		<polygon style="fill:#FDCC00;" points="7.96,93.08 357.827,93.08 357.827,178.413 59.16,178.413 		"/>
	</g>
	<polygon style="fill:#FFFFFF;" points="7.96,93.08 59.16,178.413 84.76,178.413 33.56,93.08 	"/>
	<polygon style="fill:#FFE100;" points="33.56,468.547 187.16,468.547 187.16,400.28 33.56,400.28 	"/>
	<polygon style="fill:#FFA800;" points="33.56,468.547 50.627,468.547 50.627,400.28 33.56,400.28 	"/>
	<g>
		<polygon style="fill:#FFE100;" points="315.16,502.68 485.827,502.68 485.827,434.413 315.16,434.413 		"/>
		<polygon style="fill:#FFE100;" points="332.227,434.413 468.76,434.413 468.76,366.147 332.227,366.147 		"/>
	</g>
	<g>
		<polygon style="fill:#FFA800;" points="415,7.747 397.933,7.747 426.093,93.08 426.093,366.147 443.16,366.147 443.16,93.08 		"/>
		<polygon style="fill:#FFA800;" points="468.76,502.68 485.827,502.68 485.827,434.413 468.76,434.413 		"/>
		<polygon style="fill:#FFA800;" points="451.693,434.413 468.76,434.413 468.76,366.147 451.693,366.147 		"/>
	</g>
	<path style="fill:#00DA6C;" d="M93.293,255.213h34.133v-10.24c0-15.36-5.973-29.867-17.067-40.96l0,0l0,0
		c-11.093,11.093-17.067,25.6-17.067,40.96V255.213z"/>
	<g>
		<path style="fill:#FFE100;" d="M118.893,212.547c-5.12,0-8.533-3.413-8.533-8.533v-25.6c0-5.12,3.413-8.533,8.533-8.533
			s8.533,3.413,8.533,8.533v25.6C127.427,209.133,124.013,212.547,118.893,212.547z"/>
		<path style="fill:#FFE100;" d="M118.893,289.347c-5.12,0-8.533-3.413-8.533-8.533v-25.6c0-5.12,3.413-8.533,8.533-8.533
			s8.533,3.413,8.533,8.533v25.6C127.427,285.933,124.013,289.347,118.893,289.347z"/>
		<path style="fill:#FFE100;" d="M118.893,340.547c-18.773,0-34.133-15.36-34.133-34.133c0-18.773,15.36-34.133,34.133-34.133
			c5.12,0,8.533,3.413,8.533,8.533s-3.413,8.533-8.533,8.533c-9.387,0-17.067,7.68-17.067,17.067s7.68,17.067,17.067,17.067
			c5.12,0,8.533,3.413,8.533,8.533C127.427,337.133,124.013,340.547,118.893,340.547z"/>
		<path style="fill:#FFE100;" d="M170.093,408.813h-102.4c-3.413,0-5.973-1.707-7.68-5.12c-1.707-3.413-0.853-5.973,0.853-8.533
			l51.2-68.267c3.413-4.267,10.24-4.267,13.653,0l51.2,68.267c1.707,2.56,2.56,5.973,0.853,8.533
			C176.067,406.253,173.507,408.813,170.093,408.813z M84.76,391.747h68.267l-34.133-45.227L84.76,391.747z"/>
	</g>
	<path d="M443.16,374.68h-85.333c-5.12,0-8.533-3.413-8.533-8.533V93.08c0-0.853,0-1.707,0.853-2.56l28.16-85.333
		c0.853-3.413,4.267-5.973,7.68-5.973h28.16c3.413,0,6.827,2.56,7.68,5.973l28.16,85.333c1.707,0.853,1.707,1.707,1.707,2.56
		v273.067C451.693,371.267,448.28,374.68,443.16,374.68z M366.36,357.613h68.267V94.787L408.173,16.28H391.96l-25.6,78.507V357.613z
		"/>
	<path d="M502.893,511.213H255.427c-5.12,0-8.533-3.413-8.533-8.533s3.413-8.533,8.533-8.533h247.467
		c5.12,0,8.533,3.413,8.533,8.533S508.013,511.213,502.893,511.213z"/>
	<path d="M443.16,161.347c-1.707,0-3.413-0.853-5.12-1.707l-85.333-59.733c-4.267-2.56-5.12-7.68-1.707-11.947
		c2.56-4.267,7.68-5.12,11.947-1.707l85.333,59.733c4.267,2.56,5.12,7.68,1.707,11.947
		C448.28,160.493,445.72,161.347,443.16,161.347z"/>
	<path d="M357.827,161.347c-2.56,0-5.12-0.853-6.827-3.413c-2.56-4.267-1.707-9.387,1.707-11.947l85.333-59.733
		c4.267-2.56,9.387-1.707,11.947,1.707c2.56,4.267,1.707,9.387-1.707,11.947l-85.333,59.733
		C361.24,160.493,359.533,161.347,357.827,161.347z"/>
	<path d="M443.16,221.08c-1.707,0-3.413-0.853-5.12-1.707l-85.333-59.733c-4.267-2.56-5.12-7.68-1.707-11.947
		c2.56-4.267,7.68-5.12,11.947-1.707l85.333,59.733c4.267,2.56,5.12,7.68,1.707,11.947C448.28,220.227,445.72,221.08,443.16,221.08z
		"/>
	<path d="M357.827,221.08c-2.56,0-5.12-0.853-6.827-3.413c-2.56-4.267-1.707-9.387,1.707-11.947l85.333-59.733
		c4.267-2.56,9.387-1.707,11.947,1.707c2.56,4.267,1.707,9.387-1.707,11.947l-85.333,59.733
		C361.24,220.227,359.533,221.08,357.827,221.08z"/>
	<path d="M443.16,280.813c-1.707,0-3.413-0.853-5.12-1.707l-85.333-59.733c-4.267-2.56-5.12-7.68-1.707-11.947
		c2.56-4.267,7.68-5.12,11.947-1.707l85.333,59.733c4.267,2.56,5.12,7.68,1.707,11.947C448.28,279.96,445.72,280.813,443.16,280.813
		z"/>
	<path d="M357.827,280.813c-2.56,0-5.12-0.853-6.827-3.413c-2.56-4.267-1.707-9.387,1.707-11.947l85.333-59.733
		c4.267-2.56,9.387-1.707,11.947,1.707c2.56,4.267,1.707,9.387-1.707,11.947l-85.333,59.733
		C361.24,279.96,359.533,280.813,357.827,280.813z"/>
	<path d="M443.16,340.547c-1.707,0-3.413-0.853-5.12-1.707l-85.333-59.733c-4.267-2.56-5.12-7.68-1.707-11.947
		c2.56-4.267,7.68-5.12,11.947-1.707l85.333,59.733c4.267,2.56,5.12,7.68,1.707,11.947
		C448.28,339.693,445.72,340.547,443.16,340.547z"/>
	<path d="M357.827,340.547c-2.56,0-5.12-0.853-6.827-3.413c-2.56-4.267-1.707-9.387,1.707-11.947l85.333-59.733
		c4.267-2.56,9.387-1.707,11.947,1.707c2.56,4.267,1.707,9.387-1.707,11.947l-85.333,59.733
		C361.24,339.693,359.533,340.547,357.827,340.547z"/>
	<path d="M357.827,186.947H59.16c-3.413,0-5.973-1.707-7.68-4.267L0.28,97.347c-1.707-2.56-1.707-5.973,0-8.533
		c1.707-2.56,4.267-4.267,7.68-4.267h349.867c5.12,0,8.533,3.413,8.533,8.533v85.333
		C366.36,183.533,362.947,186.947,357.827,186.947z M64.28,169.88h285.013v-68.267H23.32L64.28,169.88z"/>
	<path d="M84.76,186.947c-1.707,0-3.413-0.853-5.12-1.707c-3.413-2.56-4.267-8.533-1.707-11.947L146.2,87.96
		c3.413-4.267,10.24-4.267,13.653,0l61.44,76.8l61.44-76.8c2.56-3.413,8.533-4.267,11.947-1.707
		c3.413,2.56,4.267,8.533,1.707,11.947l-68.267,85.333c-3.413,4.267-10.24,4.267-13.653,0l-61.44-76.8l-61.44,76.8
		C89.88,186.093,87.32,186.947,84.76,186.947z"/>
	<path d="M289.56,186.947c-2.56,0-5.12-0.853-6.827-3.413l-61.44-76.8l-61.44,76.8c-3.413,4.267-10.24,4.267-13.653,0L77.933,98.2
		c-2.56-3.413-2.56-9.387,1.707-11.947c3.413-2.56,9.387-2.56,11.947,1.707l61.44,76.8l61.44-76.8c3.413-4.267,10.24-4.267,13.653,0
		l68.267,85.333c2.56,3.413,2.56,9.387-1.707,11.947C292.973,186.093,291.267,186.947,289.56,186.947z"/>
	<path d="M289.56,186.947c-2.56,0-5.12-0.853-6.827-3.413L214.467,98.2c-2.56-3.413-2.56-9.387,1.707-11.947
		c3.413-2.56,9.387-2.56,11.947,1.707l61.44,76.8L351,87.96c2.56-3.413,8.533-4.267,11.947-1.707
		c3.413,2.56,4.267,8.533,1.707,11.947l-68.267,85.333C294.68,186.093,292.12,186.947,289.56,186.947z"/>
	<path d="M357.827,186.947c-2.56,0-5.12-0.853-6.827-3.413l-61.44-76.8l-61.44,76.8c-2.56,3.413-8.533,4.267-11.947,1.707
		s-4.267-8.533-1.707-11.947l68.267-85.333c3.413-4.267,10.24-4.267,13.653,0l68.267,85.333c2.56,3.413,2.56,9.387-1.707,11.947
		C361.24,186.093,359.533,186.947,357.827,186.947z"/>
	<path d="M110.36,212.547c-5.12,0-8.533-3.413-8.533-8.533v-25.6c0-5.12,3.413-8.533,8.533-8.533s8.533,3.413,8.533,8.533v25.6
		C118.893,209.133,115.48,212.547,110.36,212.547z"/>
	<path d="M127.427,263.747H93.293c-5.12,0-8.533-3.413-8.533-8.533v-10.24c0-17.92,6.827-34.987,19.627-46.933
		c3.413-3.413,8.533-3.413,11.947,0c12.8,12.8,19.627,29.013,19.627,46.933v10.24C135.96,260.333,132.547,263.747,127.427,263.747z
		 M101.827,246.68h17.067v-1.707c0-10.24-2.56-19.627-8.533-28.16c-5.973,8.533-8.533,17.92-8.533,28.16V246.68z"/>
	<path d="M110.36,289.347c-5.12,0-8.533-3.413-8.533-8.533v-25.6c0-5.12,3.413-8.533,8.533-8.533s8.533,3.413,8.533,8.533v25.6
		C118.893,285.933,115.48,289.347,110.36,289.347z"/>
	<path d="M110.36,340.547c-18.773,0-34.133-15.36-34.133-34.133c0-18.773,15.36-34.133,34.133-34.133
		c5.12,0,8.533,3.413,8.533,8.533s-3.413,8.533-8.533,8.533c-9.387,0-17.067,7.68-17.067,17.067s7.68,17.067,17.067,17.067
		c5.12,0,8.533,3.413,8.533,8.533C118.893,337.133,115.48,340.547,110.36,340.547z"/>
	<path d="M187.16,477.08H33.56c-5.12,0-8.533-3.413-8.533-8.533V400.28c0-5.12,3.413-8.533,8.533-8.533h153.6
		c5.12,0,8.533,3.413,8.533,8.533v68.267C195.693,473.667,192.28,477.08,187.16,477.08z M42.093,460.013h136.533v-51.2H42.093
		V460.013z"/>
	<path d="M161.56,408.813H59.16c-3.413,0-5.973-1.707-7.68-5.12c-1.707-3.413-0.853-5.973,0.853-8.533l51.2-68.267
		c3.413-4.267,10.24-4.267,13.653,0l51.2,68.267c1.707,2.56,2.56,5.973,0.853,8.533C167.533,406.253,164.973,408.813,161.56,408.813
		z M76.227,391.747h68.267L110.36,346.52L76.227,391.747z"/>
	<path d="M485.827,511.213H315.16c-5.12,0-8.533-3.413-8.533-8.533v-68.267c0-5.12,3.413-8.533,8.533-8.533h170.667
		c5.12,0,8.533,3.413,8.533,8.533v68.267C494.36,507.8,490.947,511.213,485.827,511.213z M323.693,494.147h153.6v-51.2h-153.6
		V494.147z"/>
	<path d="M468.76,442.947H332.227c-5.12,0-8.533-3.413-8.533-8.533v-68.267c0-5.12,3.413-8.533,8.533-8.533H468.76
		c5.12,0,8.533,3.413,8.533,8.533v68.267C477.293,439.533,473.88,442.947,468.76,442.947z M340.76,425.88h119.467v-51.2H340.76
		V425.88z"/>
</g>
<g>
</g>
<g>
</g>
<g>
</g>
<g>
</g>
<g>
</g>
<g>
</g>
<g>
</g>
<g>
</g>
<g>
</g>
<g>
</g>
<g>
</g>
<g>
</g>
<g>
</g>
<g>
</g>
<g>
</g>
</svg>
