<?xml version="1.0" encoding="iso-8859-1"?>
<!-- Generator: Adobe Illustrator 19.0.0, SVG Export Plug-In . SVG Version: 6.00 Build 0)  -->
<svg version="1.1" id="Layer_1" xmlns="http://www.w3.org/2000/svg" xmlns:xlink="http://www.w3.org/1999/xlink" x="0px" y="0px"
	 viewBox="0 0 512 512" style="enable-background:new 0 0 512 512;" xml:space="preserve">
<path style="fill:#7C7A75;" d="M77.245,384.318c-7.174,0-14.205-2.463-19.799-6.938c-3.639-2.911-4.23-8.222-1.319-11.862
	c2.912-3.639,8.224-4.23,11.863-1.319c2.649,2.119,5.849,3.24,9.255,3.24c8.183,0,14.84-6.658,14.84-14.841
	c0-8.184-6.657-14.841-14.84-14.841c-4.662,0-8.44-3.778-8.44-8.44v-21.861c0-4.661,3.778-8.44,8.44-8.44
	c4.661,0,8.44,3.779,8.44,8.44v14.561c13.407,3.704,23.28,16.012,23.28,30.58C108.963,370.089,94.735,384.318,77.245,384.318z"/>
<path style="fill:#DFDBCC;" d="M77.778,82.206c-4.662,0-8.44,3.778-8.44,8.44v21.38v143.931v21.38c0,4.662,3.778,8.44,8.44,8.44
	c4.661,0,8.44-3.778,8.44-8.44v-21.38V112.026v-21.38C86.218,85.983,82.439,82.206,77.778,82.206z"/>
<polygon style="fill:#7C7A75;" points="272.64,116.488 272.64,116.488 272.64,61.572 215.959,61.572 "/>
<g>
	<path style="fill:#ADABA6;" d="M310.021,457.094c-2.189,0-4.375-0.846-6.027-2.532c-3.262-3.329-3.21-8.672,0.119-11.936
		l80.776-79.172l-80.776-79.17c-1.619-1.588-2.532-3.76-2.532-6.028c0-2.269,0.913-4.439,2.532-6.027l86.925-85.2
		c3.329-3.263,8.673-3.207,11.934,0.12c3.262,3.329,3.209,8.673-0.119,11.935l-80.776,79.172l80.776,79.171
		c1.619,1.588,2.533,3.76,2.533,6.027c0,2.269-0.913,4.439-2.533,6.028l-86.925,85.2
		C314.285,456.292,312.152,457.094,310.021,457.094z"/>
	<path style="fill:#ADABA6;" d="M396.945,457.094c-2.132,0-4.265-0.802-5.907-2.413l-86.925-85.2
		c-1.619-1.588-2.532-3.76-2.532-6.028c0-2.269,0.913-4.439,2.532-6.027l80.776-79.171l-80.776-79.172
		c-3.33-3.262-3.383-8.606-0.119-11.935c3.262-3.327,8.605-3.383,11.934-0.12l86.925,85.2c1.619,1.588,2.533,3.76,2.533,6.027
		c0,2.269-0.913,4.439-2.533,6.028l-80.776,79.17l80.776,79.172c3.329,3.262,3.383,8.607,0.119,11.936
		C401.32,456.248,399.132,457.094,396.945,457.094z"/>
</g>
<path style="fill:#7C7A75;" d="M445.301,485.424l-14.807-26.047c-1-1.759-2.868-2.845-4.893-2.845H281.363
	c-2.024,0-3.892,1.087-4.893,2.846l-14.805,26.046c-0.99,1.742-0.979,3.878,0.027,5.609c1.007,1.732,2.86,2.796,4.863,2.796h173.853
	c2.003,0,3.856-1.065,4.863-2.796C446.28,489.302,446.291,487.165,445.301,485.424z"/>
<path style="fill:#FFB92E;" d="M424.199,49.456H282.768c-7.459,0-13.503,6.046-13.503,13.503v14.507v8.602v14.507v33.393v14.507v8.6
	v14.507c0,7.457,6.044,13.503,13.503,13.503h141.431c7.457,0,13.503-6.046,13.503-13.503v-14.507v-8.6v-14.507v-33.394V86.067
	v-8.602V62.959C437.702,55.502,431.656,49.456,424.199,49.456z"/>
<path style="fill:#36A1CB;" d="M335.848,94.687c-7.458,0-13.503,6.046-13.503,13.503v32.663c0,7.457,6.045,13.503,13.503,13.503
	h101.854v-59.67H335.848z"/>
<g>
	<path style="fill:#CCC3A8;" d="M396.946,457.094h-86.925c-4.662,0-8.44-3.778-8.44-8.44v-85.2c0-4.662,3.778-8.44,8.44-8.44h86.925
		c4.661,0,8.44,3.778,8.44,8.44v85.2C405.385,453.317,401.607,457.094,396.946,457.094z M318.46,440.215h70.046v-68.321H318.46
		L318.46,440.215L318.46,440.215z"/>
	<path style="fill:#CCC3A8;" d="M396.946,371.894h-86.925c-4.662,0-8.44-3.778-8.44-8.44v-85.198c0-4.662,3.778-8.44,8.44-8.44
		h86.925c4.661,0,8.44,3.778,8.44,8.44v85.198C405.385,368.117,401.607,371.894,396.946,371.894z M318.46,355.015h70.046v-68.319
		H318.46L318.46,355.015L318.46,355.015z"/>
	<path style="fill:#CCC3A8;" d="M396.946,286.696h-86.925c-4.662,0-8.44-3.778-8.44-8.44v-85.2c0-4.662,3.778-8.44,8.44-8.44h86.925
		c4.661,0,8.44,3.778,8.44,8.44v85.2C405.385,282.919,401.607,286.696,396.946,286.696z M318.46,269.817h70.046v-68.321H318.46
		L318.46,269.817L318.46,269.817z"/>
</g>
<path style="fill:#7C7A75;" d="M62.045,43.999v9.539v10.285v2.731v6.808v2.73v10.286v9.538c0,7.789,6.314,14.103,14.103,14.103
	h3.466c7.789,0,14.103-6.314,14.103-14.103v-9.54V76.09v-2.73v-6.808v-2.731V53.536v-9.539H62.045V43.999z"/>
<path style="fill:#FFB92E;" d="M77.778,315.896c-12.959,0-23.501-10.543-23.501-23.501c0-12.958,10.543-23.499,23.501-23.499
	c12.958,0,23.499,10.542,23.499,23.499C101.278,305.353,90.736,315.896,77.778,315.896z M77.778,285.776
	c-3.652,0-6.622,2.97-6.622,6.62c0,3.651,2.971,6.622,6.622,6.622c3.65,0,6.62-2.971,6.62-6.622
	C84.398,288.746,81.429,285.776,77.778,285.776z"/>
<rect x="380.017" y="94.692" style="fill:#52C6EB;" width="57.682" height="59.673"/>
<path style="fill:#6B6861;" d="M284.199,491.034c-1.007-1.732-1.017-3.869-0.027-5.609l14.805-26.046
	c1-1.759,2.868-2.846,4.893-2.846h-22.505c-2.024,0-3.892,1.087-4.893,2.846l-14.805,26.046c-0.99,1.742-0.979,3.878,0.027,5.609
	c1.007,1.732,2.86,2.796,4.863,2.796h22.505C287.059,493.83,285.206,492.766,284.199,491.034z"/>
<path style="fill:#EF9A1D;" d="M291.77,171.581v-14.507v-8.6v-14.507v-33.393V86.067v-8.602V62.959
	c0-7.457,6.044-13.503,13.503-13.503h-22.505c-7.459,0-13.503,6.046-13.503,13.503v14.507v8.602v14.507v33.393v14.507v8.6v14.507
	c0,7.457,6.044,13.503,13.503,13.503h22.505C297.814,185.084,291.77,179.037,291.77,171.581z"/>
<path style="fill:#7C7A75;" d="M399.212,29.729L386.571,3.206C385.636,1.247,383.66,0,381.491,0h-56.016
	c-2.17,0-4.147,1.247-5.079,3.206l-12.64,26.523c-0.83,1.743-0.71,3.791,0.321,5.424c1.031,1.633,2.827,2.623,4.759,2.623h81.299
	c1.93,0,3.727-0.99,4.758-2.623C399.921,33.52,400.043,31.472,399.212,29.729z"/>
<path style="fill:#6B6861;" d="M330.58,35.152c-1.031-1.633-1.151-3.681-0.321-5.424L342.9,3.206C343.834,1.248,345.81,0,347.979,0
	h-22.505c-2.17,0-4.147,1.247-5.079,3.206l-12.64,26.523c-0.83,1.743-0.71,3.791,0.321,5.424c1.031,1.633,2.827,2.623,4.759,2.623
	h22.505C333.407,37.775,331.611,36.785,330.58,35.152z"/>
<path style="fill:#FFB92E;" d="M455.139,32.149H370.37h-99.798h-29.631h-99.31H56.862c-7.789,0-14.103,6.314-14.103,14.103v3.466
	c0,7.789,6.314,14.103,14.103,14.103h84.769h228.738h84.769c7.789,0,14.103-6.314,14.103-14.103v-3.466
	C469.242,38.464,462.928,32.149,455.139,32.149z"/>
<path style="fill:#EF9A1D;" d="M65.264,49.719v-3.466c0-7.789,6.314-14.103,14.103-14.103H56.862
	c-7.789,0-14.103,6.314-14.103,14.103v3.466c0,7.789,6.314,14.103,14.103,14.103h22.505C71.578,63.822,65.264,57.507,65.264,49.719z
	"/>
<path style="fill:#CCC3A8;" d="M416.108,480.327h39.03c7.789,0,14.103,6.314,14.103,14.103v3.466
	c0,7.789-6.314,14.103-14.103,14.103h-84.769h-33.774h-84.769c-7.789,0-14.103-6.314-14.103-14.103v-3.466
	c0-7.789,6.314-14.103,14.103-14.103h84.769h39.4h9.73"/>
<path style="fill:#C9B585;" d="M260.229,497.897v-3.466c0-7.789,6.314-14.103,14.103-14.103h-22.505
	c-7.789,0-14.103,6.314-14.103,14.103v3.466c0,7.789,6.314,14.103,14.103,14.103h22.505
	C266.543,512,260.229,505.686,260.229,497.897z"/>
<g>
</g>
<g>
</g>
<g>
</g>
<g>
</g>
<g>
</g>
<g>
</g>
<g>
</g>
<g>
</g>
<g>
</g>
<g>
</g>
<g>
</g>
<g>
</g>
<g>
</g>
<g>
</g>
<g>
</g>
</svg>
