<?xml version="1.0" encoding="utf-8"?>
<svg viewBox="0 0 800 310" xmlns="http://www.w3.org/2000/svg">
  <defs>
    <linearGradient gradientUnits="userSpaceOnUse" x1="504.313" y1="229.55" x2="504.313" y2="239.806" id="gradient-1" gradientTransform="matrix(1.418436, 0, 0, 1.246909, 32.000005, -58.564066)">
      <stop offset="0" style="stop-color: rgba(86, 83, 21, 1)"/>
      <stop offset="1" style="stop-color: rgba(4, 4, 1, 1)"/>
    </linearGradient>
  </defs>
  <rect x="32" y="227.663" width="730.871" height="12.788" style="fill-rule: evenodd; paint-order: fill; fill: url(#gradient-1); pointer-events: none;" id="harbour">
    <title>harbour</title>
  </rect>
  <g style="pointer-events: none;" id="sea">
    <title>sea</title>
    <g>
      <title>first_wave</title>
      <path style="fill: rgb(132, 181, 203);" d="M 153.964 249.349 C 149.461 246.947 146.665 242.468 146.665 237.664 C 146.665 236.601 145.731 235.738 144.58 235.738 C 134.99 235.738 127.07 242.424 125.963 251.015 C 118.831 250.134 113.308 244.491 113.308 237.664 C 113.308 236.601 112.374 235.738 111.223 235.738 C 101.633 235.738 93.713 242.424 92.606 251.015 C 85.473 250.134 79.951 244.491 79.951 237.664 C 79.951 236.601 79.017 235.738 77.866 235.738 C 68.276 235.738 60.356 242.424 59.249 251.015 C 52.116 250.134 46.594 244.491 46.594 237.664 C 46.594 236.601 45.66 235.738 44.509 235.738 C 40.256 235.738 36.09 237.086 32.782 239.537 C 31.883 240.201 31.737 241.415 32.459 242.243 C 32.869 242.719 33.476 242.965 34.087 242.965 C 34.543 242.965 35.004 242.826 35.39 242.541 C 37.489 240.989 39.949 240.057 42.574 239.737 C 43.687 248.322 51.604 255 61.187 255 C 62.338 255 63.272 254.137 63.272 253.074 C 63.272 246.247 68.795 240.606 75.927 239.723 C 77.034 248.314 84.954 255 94.545 255 C 95.695 255 96.629 254.137 96.629 253.074 C 96.629 246.247 102.152 240.606 109.284 239.723 C 110.391 248.314 118.311 255 127.902 255 C 129.052 255 129.986 254.137 129.986 253.074 C 129.986 246.247 135.511 240.604 142.643 239.723 C 143.344 245.096 146.74 249.942 151.877 252.683 C 152.204 252.858 152.563 252.941 152.917 252.941 C 153.639 252.941 154.339 252.596 154.725 251.978 C 155.302 251.059 154.961 249.88 153.964 249.349 Z"/>
      <path style="fill: rgb(132, 181, 203);" d="M 275.223 249.122 C 270.72 246.72 267.924 242.241 267.924 237.437 C 267.924 236.374 266.99 235.511 265.839 235.511 C 256.249 235.511 248.329 242.197 247.222 250.788 C 240.09 249.907 234.567 244.264 234.567 237.437 C 234.567 236.374 233.633 235.511 232.482 235.511 C 222.892 235.511 214.972 242.197 213.865 250.788 C 206.732 249.907 201.21 244.264 201.21 237.437 C 201.21 236.374 200.276 235.511 199.125 235.511 C 189.535 235.511 181.615 242.197 180.508 250.788 C 173.375 249.907 167.853 244.264 167.853 237.437 C 167.853 236.374 166.919 235.511 165.768 235.511 C 161.515 235.511 157.349 236.859 154.041 239.31 C 153.142 239.974 152.996 241.188 153.718 242.016 C 154.128 242.492 154.735 242.738 155.346 242.738 C 155.802 242.738 156.263 242.599 156.649 242.314 C 158.748 240.762 161.208 239.83 163.833 239.51 C 164.946 248.095 172.863 254.773 182.446 254.773 C 183.597 254.773 184.531 253.91 184.531 252.847 C 184.531 246.02 190.054 240.379 197.186 239.496 C 198.293 248.087 206.213 254.773 215.804 254.773 C 216.954 254.773 217.888 253.91 217.888 252.847 C 217.888 246.02 223.411 240.379 230.543 239.496 C 231.65 248.087 239.57 254.773 249.161 254.773 C 250.311 254.773 251.245 253.91 251.245 252.847 C 251.245 246.02 256.77 240.377 263.902 239.496 C 264.603 244.869 267.999 249.715 273.136 252.456 C 273.463 252.631 273.822 252.714 274.176 252.714 C 274.898 252.714 275.598 252.369 275.984 251.751 C 276.561 250.832 276.22 249.653 275.223 249.122 Z"/>
      <path style="fill: rgb(132, 181, 203);" d="M 396.387 249.594 C 391.884 247.192 389.088 242.713 389.088 237.909 C 389.088 236.846 388.154 235.983 387.003 235.983 C 377.413 235.983 369.493 242.669 368.386 251.26 C 361.254 250.379 355.731 244.736 355.731 237.909 C 355.731 236.846 354.797 235.983 353.646 235.983 C 344.056 235.983 336.136 242.669 335.029 251.26 C 327.896 250.379 322.374 244.736 322.374 237.909 C 322.374 236.846 321.44 235.983 320.289 235.983 C 310.699 235.983 302.779 242.669 301.672 251.26 C 294.539 250.379 289.017 244.736 289.017 237.909 C 289.017 236.846 288.083 235.983 286.932 235.983 C 282.679 235.983 278.513 237.331 275.205 239.782 C 274.306 240.446 274.16 241.66 274.882 242.488 C 275.292 242.964 275.899 243.21 276.51 243.21 C 276.966 243.21 277.427 243.071 277.813 242.786 C 279.912 241.234 282.372 240.302 284.997 239.982 C 286.11 248.567 294.027 255.245 303.61 255.245 C 304.761 255.245 305.695 254.382 305.695 253.319 C 305.695 246.492 311.218 240.851 318.35 239.968 C 319.457 248.559 327.377 255.245 336.968 255.245 C 338.118 255.245 339.052 254.382 339.052 253.319 C 339.052 246.492 344.575 240.851 351.707 239.968 C 352.814 248.559 360.734 255.245 370.325 255.245 C 371.475 255.245 372.409 254.382 372.409 253.319 C 372.409 246.492 377.934 240.849 385.066 239.968 C 385.767 245.341 389.163 250.187 394.3 252.928 C 394.627 253.103 394.986 253.186 395.34 253.186 C 396.062 253.186 396.762 252.841 397.148 252.223 C 397.725 251.304 397.384 250.125 396.387 249.594 Z"/>
      <path style="fill: rgb(132, 181, 203);" d="M 518.317 248.916 C 513.814 246.514 511.018 242.035 511.018 237.231 C 511.018 236.168 510.084 235.305 508.933 235.305 C 499.343 235.305 491.423 241.991 490.316 250.582 C 483.184 249.701 477.661 244.058 477.661 237.231 C 477.661 236.168 476.727 235.305 475.576 235.305 C 465.986 235.305 458.066 241.991 456.959 250.582 C 449.826 249.701 444.304 244.058 444.304 237.231 C 444.304 236.168 443.37 235.305 442.219 235.305 C 432.629 235.305 424.709 241.991 423.602 250.582 C 416.469 249.701 410.947 244.058 410.947 237.231 C 410.947 236.168 410.013 235.305 408.862 235.305 C 404.609 235.305 400.443 236.653 397.135 239.104 C 396.236 239.768 396.09 240.982 396.812 241.81 C 397.222 242.286 397.829 242.532 398.44 242.532 C 398.896 242.532 399.357 242.393 399.743 242.108 C 401.842 240.556 404.302 239.624 406.927 239.304 C 408.04 247.889 415.957 254.567 425.54 254.567 C 426.691 254.567 427.625 253.704 427.625 252.641 C 427.625 245.814 433.148 240.173 440.28 239.29 C 441.387 247.881 449.307 254.567 458.898 254.567 C 460.048 254.567 460.982 253.704 460.982 252.641 C 460.982 245.814 466.505 240.173 473.637 239.29 C 474.744 247.881 482.664 254.567 492.255 254.567 C 493.405 254.567 494.339 253.704 494.339 252.641 C 494.339 245.814 499.864 240.171 506.996 239.29 C 507.697 244.663 511.093 249.509 516.23 252.25 C 516.557 252.425 516.916 252.508 517.27 252.508 C 517.992 252.508 518.692 252.163 519.078 251.545 C 519.655 250.626 519.314 249.447 518.317 248.916 Z"/>
      <path style="fill: rgb(132, 181, 203);" d="M 639.855 248.748 C 635.352 246.346 632.556 241.867 632.556 237.063 C 632.556 236 631.622 235.137 630.471 235.137 C 620.881 235.137 612.961 241.823 611.854 250.414 C 604.722 249.533 599.199 243.89 599.199 237.063 C 599.199 236 598.265 235.137 597.114 235.137 C 587.524 235.137 579.604 241.823 578.497 250.414 C 571.364 249.533 565.842 243.89 565.842 237.063 C 565.842 236 564.908 235.137 563.757 235.137 C 554.167 235.137 546.247 241.823 545.14 250.414 C 538.007 249.533 532.485 243.89 532.485 237.063 C 532.485 236 531.551 235.137 530.4 235.137 C 526.147 235.137 521.981 236.485 518.673 238.936 C 517.774 239.6 517.628 240.814 518.35 241.642 C 518.76 242.118 519.367 242.364 519.978 242.364 C 520.434 242.364 520.895 242.225 521.281 241.94 C 523.38 240.388 525.84 239.456 528.465 239.136 C 529.578 247.721 537.495 254.399 547.078 254.399 C 548.229 254.399 549.163 253.536 549.163 252.473 C 549.163 245.646 554.686 240.005 561.818 239.122 C 562.925 247.713 570.845 254.399 580.436 254.399 C 581.586 254.399 582.52 253.536 582.52 252.473 C 582.52 245.646 588.043 240.005 595.175 239.122 C 596.282 247.713 604.202 254.399 613.793 254.399 C 614.943 254.399 615.877 253.536 615.877 252.473 C 615.877 245.646 621.402 240.003 628.534 239.122 C 629.235 244.495 632.631 249.341 637.768 252.082 C 638.095 252.257 638.454 252.34 638.808 252.34 C 639.53 252.34 640.23 251.995 640.616 251.377 C 641.193 250.458 640.852 249.279 639.855 248.748 Z"/>
      <path style="fill: rgb(132, 181, 203);" d="M 761.855 249.748 C 757.352 247.346 754.556 242.867 754.556 238.063 C 754.556 237 753.622 236.137 752.471 236.137 C 742.881 236.137 734.961 242.823 733.854 251.414 C 726.722 250.533 721.199 244.89 721.199 238.063 C 721.199 237 720.265 236.137 719.114 236.137 C 709.524 236.137 701.604 242.823 700.497 251.414 C 693.364 250.533 687.842 244.89 687.842 238.063 C 687.842 237 686.908 236.137 685.757 236.137 C 676.167 236.137 668.247 242.823 667.14 251.414 C 660.007 250.533 654.485 244.89 654.485 238.063 C 654.485 237 653.551 236.137 652.4 236.137 C 648.147 236.137 643.981 237.485 640.673 239.936 C 639.774 240.6 639.628 241.814 640.35 242.642 C 640.76 243.118 641.367 243.364 641.978 243.364 C 642.434 243.364 642.895 243.225 643.281 242.94 C 645.38 241.388 647.84 240.456 650.465 240.136 C 651.578 248.721 659.495 255.399 669.078 255.399 C 670.229 255.399 671.163 254.536 671.163 253.473 C 671.163 246.646 676.686 241.005 683.818 240.122 C 684.925 248.713 692.845 255.399 702.436 255.399 C 703.586 255.399 704.52 254.536 704.52 253.473 C 704.52 246.646 710.043 241.005 717.175 240.122 C 718.282 248.713 726.202 255.399 735.793 255.399 C 736.943 255.399 737.877 254.536 737.877 253.473 C 737.877 246.646 743.402 241.003 750.534 240.122 C 751.235 245.495 754.631 250.341 759.768 253.082 C 760.095 253.257 760.454 253.34 760.808 253.34 C 761.53 253.34 762.23 252.995 762.616 252.377 C 763.193 251.458 762.852 250.279 761.855 249.748 Z"/>
    </g>
    <g>
      <title>second_wave</title>
      <path style="fill: rgb(132, 181, 203);" d="M 153.964 264.529 C 149.461 262.127 146.665 257.649 146.665 252.845 C 146.665 251.782 145.731 250.919 144.58 250.919 C 134.99 250.919 127.07 257.605 125.963 266.196 C 118.831 265.315 113.308 259.672 113.308 252.845 C 113.308 251.782 112.374 250.919 111.223 250.919 C 101.633 250.919 93.713 257.605 92.606 266.196 C 85.473 265.315 79.951 259.672 79.951 252.845 C 79.951 251.782 79.017 250.919 77.866 250.919 C 68.276 250.919 60.356 257.605 59.249 266.196 C 52.116 265.315 46.594 259.672 46.594 252.845 C 46.594 251.782 45.66 250.919 44.509 250.919 C 40.256 250.919 36.09 252.267 32.782 254.717 C 31.883 255.382 31.737 256.595 32.459 257.424 C 32.869 257.899 33.476 258.146 34.087 258.146 C 34.543 258.146 35.004 258.007 35.39 257.722 C 37.489 256.17 39.949 255.237 42.574 254.918 C 43.687 263.503 51.604 270.181 61.187 270.181 C 62.338 270.181 63.272 269.318 63.272 268.255 C 63.272 261.428 68.795 255.786 75.927 254.904 C 77.034 263.495 84.954 270.181 94.545 270.181 C 95.695 270.181 96.629 269.318 96.629 268.255 C 96.629 261.428 102.152 255.786 109.284 254.904 C 110.391 263.495 118.311 270.181 127.902 270.181 C 129.052 270.181 129.986 269.318 129.986 268.255 C 129.986 261.428 135.511 255.784 142.643 254.904 C 143.344 260.276 146.74 265.123 151.877 267.864 C 152.204 268.039 152.563 268.122 152.917 268.122 C 153.639 268.122 154.339 267.777 154.725 267.159 C 155.302 266.24 154.961 265.061 153.964 264.529 Z"/>
      <path style="fill: rgb(132, 181, 203);" d="M 275.223 264.302 C 270.72 261.9 267.924 257.422 267.924 252.618 C 267.924 251.555 266.99 250.692 265.839 250.692 C 256.249 250.692 248.329 257.378 247.222 265.969 C 240.09 265.088 234.567 259.445 234.567 252.618 C 234.567 251.555 233.633 250.692 232.482 250.692 C 222.892 250.692 214.972 257.378 213.865 265.969 C 206.732 265.088 201.21 259.445 201.21 252.618 C 201.21 251.555 200.276 250.692 199.125 250.692 C 189.535 250.692 181.615 257.378 180.508 265.969 C 173.375 265.088 167.853 259.445 167.853 252.618 C 167.853 251.555 166.919 250.692 165.768 250.692 C 161.515 250.692 157.349 252.04 154.041 254.49 C 153.142 255.155 152.996 256.368 153.718 257.197 C 154.128 257.672 154.735 257.919 155.346 257.919 C 155.802 257.919 156.263 257.78 156.649 257.495 C 158.748 255.943 161.208 255.01 163.833 254.691 C 164.946 263.276 172.863 269.954 182.446 269.954 C 183.597 269.954 184.531 269.091 184.531 268.028 C 184.531 261.201 190.054 255.559 197.186 254.677 C 198.293 263.268 206.213 269.954 215.804 269.954 C 216.954 269.954 217.888 269.091 217.888 268.028 C 217.888 261.201 223.411 255.559 230.543 254.677 C 231.65 263.268 239.57 269.954 249.161 269.954 C 250.311 269.954 251.245 269.091 251.245 268.028 C 251.245 261.201 256.77 255.557 263.902 254.677 C 264.603 260.049 267.999 264.896 273.136 267.637 C 273.463 267.812 273.822 267.895 274.176 267.895 C 274.898 267.895 275.598 267.55 275.984 266.932 C 276.561 266.013 276.22 264.834 275.223 264.302 Z"/>
      <path style="fill: rgb(132, 181, 203);" d="M 396.387 264.774 C 391.884 262.372 389.088 257.894 389.088 253.09 C 389.088 252.027 388.154 251.164 387.003 251.164 C 377.413 251.164 369.493 257.85 368.386 266.441 C 361.254 265.56 355.731 259.917 355.731 253.09 C 355.731 252.027 354.797 251.164 353.646 251.164 C 344.056 251.164 336.136 257.85 335.029 266.441 C 327.896 265.56 322.374 259.917 322.374 253.09 C 322.374 252.027 321.44 251.164 320.289 251.164 C 310.699 251.164 302.779 257.85 301.672 266.441 C 294.539 265.56 289.017 259.917 289.017 253.09 C 289.017 252.027 288.083 251.164 286.932 251.164 C 282.679 251.164 278.513 252.512 275.205 254.962 C 274.306 255.627 274.16 256.84 274.882 257.669 C 275.292 258.144 275.899 258.391 276.51 258.391 C 276.966 258.391 277.427 258.252 277.813 257.967 C 279.912 256.415 282.372 255.482 284.997 255.163 C 286.11 263.748 294.027 270.426 303.61 270.426 C 304.761 270.426 305.695 269.563 305.695 268.5 C 305.695 261.673 311.218 256.031 318.35 255.149 C 319.457 263.74 327.377 270.426 336.968 270.426 C 338.118 270.426 339.052 269.563 339.052 268.5 C 339.052 261.673 344.575 256.031 351.707 255.149 C 352.814 263.74 360.734 270.426 370.325 270.426 C 371.475 270.426 372.409 269.563 372.409 268.5 C 372.409 261.673 377.934 256.029 385.066 255.149 C 385.767 260.521 389.163 265.368 394.3 268.109 C 394.627 268.284 394.986 268.367 395.34 268.367 C 396.062 268.367 396.762 268.022 397.148 267.404 C 397.725 266.485 397.384 265.306 396.387 264.774 Z"/>
      <path style="fill: rgb(132, 181, 203);" d="M 518.317 264.096 C 513.814 261.694 511.018 257.216 511.018 252.412 C 511.018 251.349 510.084 250.486 508.933 250.486 C 499.343 250.486 491.423 257.172 490.316 265.763 C 483.184 264.882 477.661 259.239 477.661 252.412 C 477.661 251.349 476.727 250.486 475.576 250.486 C 465.986 250.486 458.066 257.172 456.959 265.763 C 449.826 264.882 444.304 259.239 444.304 252.412 C 444.304 251.349 443.37 250.486 442.219 250.486 C 432.629 250.486 424.709 257.172 423.602 265.763 C 416.469 264.882 410.947 259.239 410.947 252.412 C 410.947 251.349 410.013 250.486 408.862 250.486 C 404.609 250.486 400.443 251.834 397.135 254.284 C 396.236 254.949 396.09 256.162 396.812 256.991 C 397.222 257.466 397.829 257.713 398.44 257.713 C 398.896 257.713 399.357 257.574 399.743 257.289 C 401.842 255.737 404.302 254.804 406.927 254.485 C 408.04 263.07 415.957 269.748 425.54 269.748 C 426.691 269.748 427.625 268.885 427.625 267.822 C 427.625 260.995 433.148 255.353 440.28 254.471 C 441.387 263.062 449.307 269.748 458.898 269.748 C 460.048 269.748 460.982 268.885 460.982 267.822 C 460.982 260.995 466.505 255.353 473.637 254.471 C 474.744 263.062 482.664 269.748 492.255 269.748 C 493.405 269.748 494.339 268.885 494.339 267.822 C 494.339 260.995 499.864 255.351 506.996 254.471 C 507.697 259.843 511.093 264.69 516.23 267.431 C 516.557 267.606 516.916 267.689 517.27 267.689 C 517.992 267.689 518.692 267.344 519.078 266.726 C 519.655 265.807 519.314 264.628 518.317 264.096 Z"/>
      <path style="fill: rgb(132, 181, 203);" d="M 639.855 263.928 C 635.352 261.526 632.556 257.048 632.556 252.244 C 632.556 251.181 631.622 250.318 630.471 250.318 C 620.881 250.318 612.961 257.004 611.854 265.595 C 604.722 264.714 599.199 259.071 599.199 252.244 C 599.199 251.181 598.265 250.318 597.114 250.318 C 587.524 250.318 579.604 257.004 578.497 265.595 C 571.364 264.714 565.842 259.071 565.842 252.244 C 565.842 251.181 564.908 250.318 563.757 250.318 C 554.167 250.318 546.247 257.004 545.14 265.595 C 538.007 264.714 532.485 259.071 532.485 252.244 C 532.485 251.181 531.551 250.318 530.4 250.318 C 526.147 250.318 521.981 251.666 518.673 254.116 C 517.774 254.781 517.628 255.994 518.35 256.823 C 518.76 257.298 519.367 257.545 519.978 257.545 C 520.434 257.545 520.895 257.406 521.281 257.121 C 523.38 255.569 525.84 254.636 528.465 254.317 C 529.578 262.902 537.495 269.58 547.078 269.58 C 548.229 269.58 549.163 268.717 549.163 267.654 C 549.163 260.827 554.686 255.185 561.818 254.303 C 562.925 262.894 570.845 269.58 580.436 269.58 C 581.586 269.58 582.52 268.717 582.52 267.654 C 582.52 260.827 588.043 255.185 595.175 254.303 C 596.282 262.894 604.202 269.58 613.793 269.58 C 614.943 269.58 615.877 268.717 615.877 267.654 C 615.877 260.827 621.402 255.183 628.534 254.303 C 629.235 259.675 632.631 264.522 637.768 267.263 C 638.095 267.438 638.454 267.521 638.808 267.521 C 639.53 267.521 640.23 267.176 640.616 266.558 C 641.193 265.639 640.852 264.46 639.855 263.928 Z"/>
      <path style="fill: rgb(132, 181, 203);" d="M 761.855 264.928 C 757.352 262.526 754.556 258.048 754.556 253.244 C 754.556 252.181 753.622 251.318 752.471 251.318 C 742.881 251.318 734.961 258.004 733.854 266.595 C 726.722 265.714 721.199 260.071 721.199 253.244 C 721.199 252.181 720.265 251.318 719.114 251.318 C 709.524 251.318 701.604 258.004 700.497 266.595 C 693.364 265.714 687.842 260.071 687.842 253.244 C 687.842 252.181 686.908 251.318 685.757 251.318 C 676.167 251.318 668.247 258.004 667.14 266.595 C 660.007 265.714 654.485 260.071 654.485 253.244 C 654.485 252.181 653.551 251.318 652.4 251.318 C 648.147 251.318 643.981 252.666 640.673 255.116 C 639.774 255.781 639.628 256.994 640.35 257.823 C 640.76 258.298 641.367 258.545 641.978 258.545 C 642.434 258.545 642.895 258.406 643.281 258.121 C 645.38 256.569 647.84 255.636 650.465 255.317 C 651.578 263.902 659.495 270.58 669.078 270.58 C 670.229 270.58 671.163 269.717 671.163 268.654 C 671.163 261.827 676.686 256.185 683.818 255.303 C 684.925 263.894 692.845 270.58 702.436 270.58 C 703.586 270.58 704.52 269.717 704.52 268.654 C 704.52 261.827 710.043 256.185 717.175 255.303 C 718.282 263.894 726.202 270.58 735.793 270.58 C 736.943 270.58 737.877 269.717 737.877 268.654 C 737.877 261.827 743.402 256.183 750.534 255.303 C 751.235 260.675 754.631 265.522 759.768 268.263 C 760.095 268.438 760.454 268.521 760.808 268.521 C 761.53 268.521 762.23 268.176 762.616 267.558 C 763.193 266.639 762.852 265.46 761.855 264.928 Z"/>
    </g>
    <g transform="matrix(1, 0, 0, 1, 11.684084, 58.855751)">
      <title>docker</title>
      <path d="M 119.381 187.432 L 132.378 187.432 L 132.378 174.139 L 138.958 174.139 C 142.031 174.152 145.083 174.663 147.993 175.652 C 149.522 176.158 150.995 176.823 152.386 177.635 C 150.605 180.1 149.548 183.012 149.334 186.044 C 148.789 190.468 149.929 194.936 152.526 198.559 L 153.894 200.139 L 155.521 198.829 C 159.836 195.664 162.759 190.953 163.679 185.681 C 168.698 187.224 174.123 186.72 178.771 184.277 L 180.558 183.241 L 179.62 181.407 C 175.732 174.847 168.266 171.287 160.721 172.393 C 149.464 144.35 124.975 131.073 95.229 131.073 C 80.139 130.175 65.767 137.608 57.779 150.443 L 57.649 150.666 L 56.478 153.044 C 53.831 159.051 52.797 165.646 53.48 172.175 L 53.66 174.144 L 64.763 174.144 L 64.763 187.432 L 77.766 187.432 L 77.766 200.435 L 103.771 200.435 L 103.771 213.438 L 119.375 213.438 L 119.375 187.432 L 119.381 187.432 Z" style="fill: rgb(58, 78, 85);" transform="matrix(-1, 0, 0, -1, 233.833412, 344.437943)"/>
      <path d="M 162.247 196.638 C 162.428 202.439 159.664 207.937 154.901 211.253 C 150.72 205.114 151.341 196.898 156.398 191.458 C 151.57 187.881 145.699 185.992 139.691 186.085 L 56.352 186.085 C 55.637 179.435 56.836 172.718 59.807 166.726 L 60.755 164.99 C 61.355 163.973 62.011 162.989 62.719 162.043 C 66.145 161.822 69.303 161.744 72.194 161.81 C 76.878 161.781 81.54 162.46 86.021 163.825 C 86.749 164.077 87.476 163.445 87.329 162.69 C 87.262 162.338 87.011 162.05 86.673 161.934 C 86.207 161.773 85.72 161.618 85.218 161.478 C 82.1 160.606 78.894 160.085 75.66 159.924 C 75.888 159.924 75.422 159.887 75.422 159.887 L 74.997 159.851 C 73.489 159.769 71.888 159.748 70.205 159.748 C 68.387 159.748 66.578 159.784 64.594 159.882 L 64.542 159.846 C 72.717 151.343 84.171 146.791 95.951 147.361 C 124.756 147.361 149.187 160.131 160.009 188.805 C 167.687 188.018 175.063 189.976 178.415 196.524 C 173.341 199.098 167.352 199.14 162.241 196.638" style="fill: rgb(0, 170, 218);" transform="matrix(-1, 0, 0, -1, 234.565735, 358.566223)"/>
      <path d="M 172.868 187.608 C 173.049 193.409 170.285 198.907 165.522 202.223 C 161.341 196.084 161.962 187.868 167.019 182.428 C 162.191 178.851 156.32 176.962 150.312 177.055 L 71.91 177.055 C 71.04 167.611 75.18 158.4 82.82 152.78 C 87.504 152.751 92.166 153.43 96.647 154.795 C 97.375 155.047 98.102 154.415 97.955 153.66 C 97.888 153.308 97.638 153.02 97.3 152.904 C 96.833 152.743 96.346 152.588 95.844 152.448 C 92.643 151.551 89.352 151.006 86.032 150.821 L 85.934 150.936 C 95.735 145.905 109.95 145.926 126.249 152.184 C 144.845 159.698 161.113 172.013 173.391 187.872 L 172.873 187.624" style="fill: rgb(39, 185, 236);" transform="matrix(-1, 0, 0, -1, 245.186691, 349.536224)"/>
      <path d="M 80.121 211.184 C 80.612 207.465 81.728 203.856 83.421 200.508 L 84.369 198.772 C 84.969 197.754 85.625 196.77 86.333 195.824 C 89.759 195.603 92.917 195.526 95.808 195.591 C 100.492 195.563 105.154 196.242 109.635 197.606 C 110.363 197.857 111.09 197.227 110.943 196.471 C 110.876 196.12 110.625 195.832 110.287 195.715 C 109.821 195.555 109.334 195.399 108.832 195.26 C 105.634 194.376 102.349 193.842 99.036 193.669 L 98.517 193.669 C 97.01 193.586 95.409 193.535 93.741 193.535 C 91.922 193.535 90.068 193.571 88.042 193.669 C 96.242 185.16 107.715 180.604 119.519 181.168 C 144.179 181.168 165.626 190.53 178.059 211.216 L 80.121 211.184 Z" style="fill: rgb(8, 140, 185);" transform="matrix(-1, 0, 0, -1, 258.180008, 392.337204)"/>
      <path d="M 91.067 202.261 C 92.323 195.951 95.961 190.367 101.226 186.668 C 105.91 186.64 110.572 187.319 115.053 188.683 C 115.781 188.934 116.508 188.304 116.361 187.548 C 116.294 187.197 116.043 186.909 115.705 186.792 C 115.239 186.632 114.752 186.476 114.25 186.337 C 111.035 185.454 107.735 184.922 104.406 184.746 C 114.209 179.716 128.383 179.789 144.675 186.051 C 154.73 190.011 164.122 195.479 172.531 202.266 L 91.067 202.261 Z" style="fill: rgb(3, 156, 199);" transform="matrix(-1, 0, 0, -1, 263.598007, 383.414215)"/>
      <path d="M 165.091 169.512 L 165.983 169.512 L 165.983 160.12 L 165.091 160.12 L 165.091 169.512 Z M 163.381 169.512 L 164.308 169.512 L 164.308 160.12 L 163.381 160.12 L 163.381 169.512 Z M 161.672 169.512 L 162.599 169.512 L 162.599 160.12 L 161.678 160.12 L 161.678 169.512 L 161.672 169.512 Z M 159.962 169.512 L 160.89 169.512 L 160.89 160.12 L 159.967 160.12 L 159.967 169.512 L 159.962 169.512 Z M 158.253 169.512 L 159.18 169.512 L 159.18 160.12 L 158.258 160.12 L 158.258 169.512 L 158.253 169.512 Z M 156.58 169.512 L 157.471 169.512 L 157.471 160.12 L 156.589 160.12 L 156.589 169.512 L 156.58 169.512 Z M 155.642 170.449 L 166.91 170.449 L 166.91 159.177 L 155.647 159.177 L 155.647 170.449 L 155.642 170.449 Z" style="fill: rgb(0, 172, 211);" transform="matrix(-1, 0, 0, -1, 322.552002, 329.626007)"/>
      <path d="M 152.079 156.503 L 152.97 156.503 L 152.97 147.111 L 152.079 147.111 L 152.079 156.503 Z M 150.369 156.503 L 151.297 156.503 L 151.297 147.111 L 150.369 147.111 L 150.369 156.503 Z M 148.659 156.503 L 149.586 156.503 L 149.586 147.111 L 148.659 147.111 L 148.659 156.503 Z M 146.949 156.503 L 147.877 156.503 L 147.877 147.111 L 146.949 147.111 L 146.949 156.503 Z M 145.24 156.503 L 146.162 156.503 L 146.162 147.111 L 145.24 147.111 L 145.24 156.503 Z M 143.567 156.503 L 144.458 156.503 L 144.458 147.111 L 143.567 147.111 L 143.567 156.503 Z M 142.629 157.44 L 153.902 157.44 L 153.902 146.168 L 142.635 146.168 L 142.635 157.446 L 142.629 157.44 Z" style="fill: rgb(0, 172, 211);" transform="matrix(-1, 0, 0, -1, 296.530991, 303.613998)"/>
      <path d="M 152.079 169.512 L 152.97 169.512 L 152.97 160.12 L 152.079 160.12 L 152.079 169.512 Z M 150.369 169.512 L 151.297 169.512 L 151.297 160.12 L 150.369 160.12 L 150.369 169.512 Z M 148.659 169.512 L 149.586 169.512 L 149.586 160.12 L 148.659 160.12 L 148.659 169.512 Z M 146.949 169.512 L 147.877 169.512 L 147.877 160.12 L 146.949 160.12 L 146.949 169.512 Z M 145.24 169.512 L 146.162 169.512 L 146.162 160.12 L 145.24 160.12 L 145.24 169.512 Z M 143.567 169.512 L 144.458 169.512 L 144.458 160.12 L 143.567 160.12 L 143.567 169.512 Z M 142.629 170.449 L 153.902 170.449 L 153.902 159.177 L 142.635 159.177 L 142.635 170.449 L 142.629 170.449 Z" style="fill: rgb(38, 194, 238);" transform="matrix(-1, 0, 0, -1, 296.530991, 329.626007)"/>
      <path d="M 139.08 169.512 L 139.971 169.512 L 139.971 160.12 L 139.08 160.12 L 139.08 169.512 Z M 137.371 169.512 L 138.298 169.512 L 138.298 160.12 L 137.376 160.12 L 137.376 169.512 L 137.371 169.512 Z M 135.661 169.512 L 136.588 169.512 L 136.588 160.12 L 135.666 160.12 L 135.666 169.512 L 135.661 169.512 Z M 133.952 169.512 L 134.889 169.512 L 134.889 160.12 L 133.962 160.12 L 133.962 169.512 L 133.952 169.512 Z M 132.242 169.512 L 133.17 169.512 L 133.17 160.12 L 132.242 160.12 L 132.242 169.512 Z M 130.569 169.512 L 131.46 169.512 L 131.46 160.12 L 130.569 160.12 L 130.569 169.512 Z M 129.631 170.449 L 140.904 170.449 L 140.904 159.177 L 129.642 159.177 L 129.642 170.449 L 129.631 170.449 Z" style="fill: rgb(0, 172, 211);" transform="matrix(-1, 0, 0, -1, 270.535004, 329.626007)"/>
      <path d="M 139.08 156.503 L 139.971 156.503 L 139.971 147.111 L 139.08 147.111 L 139.08 156.503 Z M 137.371 156.503 L 138.298 156.503 L 138.298 147.111 L 137.376 147.111 L 137.376 156.503 L 137.371 156.503 Z M 135.661 156.503 L 136.588 156.503 L 136.588 147.111 L 135.666 147.111 L 135.666 156.503 L 135.661 156.503 Z M 133.952 156.503 L 134.889 156.503 L 134.889 147.111 L 133.962 147.111 L 133.962 156.503 L 133.952 156.503 Z M 132.242 156.503 L 133.17 156.503 L 133.17 147.111 L 132.242 147.111 L 132.242 156.503 Z M 130.569 156.503 L 131.46 156.503 L 131.46 147.111 L 130.569 147.111 L 130.569 156.503 Z M 129.631 157.44 L 140.904 157.44 L 140.904 146.168 L 129.642 146.168 L 129.642 157.446 L 129.631 157.44 Z" style="fill: rgb(38, 194, 238);" transform="matrix(-1, 0, 0, -1, 270.535004, 303.613998)"/>
      <path d="M 126.03 169.512 L 126.921 169.512 L 126.921 160.12 L 126.03 160.12 L 126.03 169.512 Z M 124.321 169.512 L 125.248 169.512 L 125.248 160.12 L 124.321 160.12 L 124.321 169.512 Z M 122.611 169.512 L 123.539 169.512 L 123.539 160.12 L 122.611 160.12 L 122.611 169.512 Z M 120.902 169.512 L 121.829 169.512 L 121.829 160.12 L 120.902 160.12 L 120.902 169.512 Z M 119.192 169.512 L 120.12 169.512 L 120.12 160.12 L 119.192 160.12 L 119.192 169.512 Z M 117.519 169.512 L 118.41 169.512 L 118.41 160.12 L 117.519 160.12 L 117.519 169.512 Z M 116.602 170.449 L 127.875 170.449 L 127.875 159.177 L 116.602 159.177 L 116.602 170.449 Z" style="fill: rgb(38, 194, 238);" transform="matrix(-1, 0, 0, -1, 244.476997, 329.626007)"/>
      <path d="M 126.072 156.503 L 126.963 156.503 L 126.963 147.111 L 126.072 147.111 L 126.072 156.503 Z M 124.363 156.503 L 125.29 156.503 L 125.29 147.111 L 124.363 147.111 L 124.363 156.503 Z M 122.653 156.503 L 123.581 156.503 L 123.581 147.111 L 122.653 147.111 L 122.653 156.503 Z M 120.944 156.503 L 121.871 156.503 L 121.871 147.111 L 120.944 147.111 L 120.944 156.503 Z M 119.234 156.503 L 120.162 156.503 L 120.162 147.111 L 119.234 147.111 L 119.234 156.503 Z M 117.561 156.503 L 118.452 156.503 L 118.452 147.111 L 117.561 147.111 L 117.561 156.503 Z M 116.623 157.44 L 127.896 157.44 L 127.896 146.168 L 116.644 146.168 L 116.644 157.446 L 116.623 157.44 Z" style="fill: rgb(0, 172, 211);" transform="matrix(-1, 0, 0, -1, 244.519005, 303.613998)"/>
      <path d="M 126.03 143.5 L 126.921 143.5 L 126.921 134.108 L 126.03 134.108 L 126.03 143.5 Z M 124.321 143.5 L 125.248 143.5 L 125.248 134.108 L 124.321 134.108 L 124.321 143.5 Z M 122.611 143.5 L 123.539 143.5 L 123.539 134.108 L 122.611 134.108 L 122.611 143.5 Z M 120.902 143.5 L 121.829 143.5 L 121.829 134.108 L 120.902 134.108 L 120.902 143.5 Z M 119.192 143.5 L 120.12 143.5 L 120.12 134.108 L 119.192 134.108 L 119.192 143.5 Z M 117.519 143.5 L 118.41 143.5 L 118.41 134.108 L 117.519 134.108 L 117.519 143.5 Z M 116.602 144.438 L 127.875 144.438 L 127.875 133.165 L 116.602 133.165 L 116.602 144.438 Z" style="fill: rgb(38, 194, 238);" transform="matrix(-1, 0, 0, -1, 244.476997, 277.602997)"/>
      <path d="M 113.068 169.512 L 113.95 169.512 L 113.95 160.12 L 113.068 160.12 L 113.068 169.512 Z M 111.359 169.512 L 112.281 169.512 L 112.281 160.12 L 111.359 160.12 L 111.359 169.512 Z M 109.65 169.512 L 110.577 169.512 L 110.577 160.12 L 109.65 160.12 L 109.65 169.512 Z M 107.94 169.512 L 108.867 169.512 L 108.867 160.12 L 107.94 160.12 L 107.94 169.512 Z M 106.231 169.512 L 107.158 169.512 L 107.158 160.12 L 106.231 160.12 L 106.231 169.512 Z M 104.557 169.512 L 105.449 169.512 L 105.449 160.12 L 104.557 160.12 L 104.557 169.512 Z M 103.619 170.449 L 114.893 170.449 L 114.893 159.177 L 103.624 159.177 L 103.624 170.449 L 103.619 170.449 Z" style="fill: rgb(0, 172, 211);" transform="matrix(-1, 0, 0, -1, 218.512001, 329.626007)"/>
      <path d="M 143.329 194.938 C 145.722 194.938 147.218 192.347 146.021 190.276 C 144.825 188.203 141.834 188.203 140.638 190.276 C 140.365 190.748 140.221 191.283 140.221 191.83 C 140.221 193.546 141.613 194.938 143.329 194.938" style="fill: rgb(213, 238, 242);" transform="matrix(-1, 0, 0, -1, 286.66333, 383.659256)"/>
      <path d="M 143.334 194.058 C 143.611 194.059 143.885 194.008 144.143 193.908 C 143.539 193.557 143.54 192.686 144.146 192.338 C 144.585 192.085 145.146 192.242 145.391 192.686 C 146.049 191.102 144.746 189.4 143.045 189.622 C 141.345 189.844 140.522 191.823 141.565 193.185 C 141.983 193.731 142.631 194.053 143.319 194.058" style="fill: rgb(58, 78, 85);" transform="matrix(-1, 0, 0, -1, 286.668182, 383.660385)"/>
      <path d="M 170.443 197.197 C 164.082 199.908 158.981 204.925 156.166 211.241 C 152.802 210.349 149.35 209.828 145.872 209.688 C 144.367 209.604 142.783 209.561 141.122 209.558 C 139.208 209.558 137.191 209.615 135.071 209.729 C 143.35 201.107 154.968 196.513 166.905 197.14 C 168.093 197.14 169.272 197.162 170.443 197.207" style="fill: rgb(192, 219, 225);" transform="matrix(-1, 0, 0, -1, 305.513992, 408.324265)"/>
      <path d="M 159.642 197.083 C 158.513 198.644 157.554 200.322 156.783 202.087 C 153.419 201.195 149.967 200.674 146.489 200.534 C 150.585 198.479 155.066 197.307 159.642 197.093" style="fill: rgb(213, 238, 242);" transform="matrix(-1, 0, 0, -1, 306.130997, 399.169998)"/>
    </g>
    <g>
      <title>third_wave</title>
      <path style="fill: rgb(132, 181, 203);" d="M 153.964 279.939 C 149.461 277.537 146.665 273.059 146.665 268.255 C 146.665 267.191 145.731 266.328 144.58 266.328 C 134.99 266.328 127.07 273.014 125.963 281.605 C 118.831 280.725 113.308 275.081 113.308 268.255 C 113.308 267.191 112.374 266.328 111.223 266.328 C 101.633 266.328 93.713 273.014 92.606 281.605 C 85.473 280.725 79.951 275.081 79.951 268.255 C 79.951 267.191 79.017 266.328 77.866 266.328 C 68.276 266.328 60.356 273.014 59.249 281.605 C 52.116 280.725 46.594 275.081 46.594 268.255 C 46.594 267.191 45.66 266.328 44.509 266.328 C 40.256 266.328 36.09 267.677 32.782 270.127 C 31.883 270.791 31.737 272.005 32.459 272.833 C 32.869 273.309 33.476 273.556 34.087 273.556 C 34.543 273.556 35.004 273.417 35.39 273.132 C 37.489 271.579 39.949 270.647 42.574 270.327 C 43.687 278.912 51.604 285.59 61.187 285.59 C 62.338 285.59 63.272 284.728 63.272 283.664 C 63.272 276.838 68.795 271.196 75.927 270.314 C 77.034 278.905 84.954 285.59 94.545 285.59 C 95.695 285.59 96.629 284.728 96.629 283.664 C 96.629 276.838 102.152 271.196 109.284 270.314 C 110.391 278.905 118.311 285.59 127.902 285.59 C 129.052 285.59 129.986 284.728 129.986 283.664 C 129.986 276.838 135.511 271.194 142.643 270.314 C 143.344 275.686 146.74 280.532 151.877 283.273 C 152.204 283.449 152.563 283.531 152.917 283.531 C 153.639 283.531 154.339 283.187 154.725 282.568 C 155.302 281.649 154.961 280.471 153.964 279.939 Z"/>
      <path style="fill: rgb(132, 181, 203);" d="M 275.223 279.712 C 270.72 277.31 267.924 272.832 267.924 268.028 C 267.924 266.964 266.99 266.101 265.839 266.101 C 256.249 266.101 248.329 272.787 247.222 281.378 C 240.09 280.498 234.567 274.854 234.567 268.028 C 234.567 266.964 233.633 266.101 232.482 266.101 C 222.892 266.101 214.972 272.787 213.865 281.378 C 206.732 280.498 201.21 274.854 201.21 268.028 C 201.21 266.964 200.276 266.101 199.125 266.101 C 189.535 266.101 181.615 272.787 180.508 281.378 C 173.375 280.498 167.853 274.854 167.853 268.028 C 167.853 266.964 166.919 266.101 165.768 266.101 C 161.515 266.101 157.349 267.45 154.041 269.9 C 153.142 270.564 152.996 271.778 153.718 272.606 C 154.128 273.082 154.735 273.329 155.346 273.329 C 155.802 273.329 156.263 273.19 156.649 272.905 C 158.748 271.352 161.208 270.42 163.833 270.1 C 164.946 278.685 172.863 285.363 182.446 285.363 C 183.597 285.363 184.531 284.501 184.531 283.437 C 184.531 276.611 190.054 270.969 197.186 270.087 C 198.293 278.678 206.213 285.363 215.804 285.363 C 216.954 285.363 217.888 284.501 217.888 283.437 C 217.888 276.611 223.411 270.969 230.543 270.087 C 231.65 278.678 239.57 285.363 249.161 285.363 C 250.311 285.363 251.245 284.501 251.245 283.437 C 251.245 276.611 256.77 270.967 263.902 270.087 C 264.603 275.459 267.999 280.305 273.136 283.046 C 273.463 283.222 273.822 283.304 274.176 283.304 C 274.898 283.304 275.598 282.96 275.984 282.341 C 276.561 281.422 276.22 280.244 275.223 279.712 Z"/>
      <path style="fill: rgb(132, 181, 203);" d="M 396.387 280.184 C 391.884 277.782 389.088 273.304 389.088 268.5 C 389.088 267.436 388.154 266.573 387.003 266.573 C 377.413 266.573 369.493 273.259 368.386 281.85 C 361.254 280.97 355.731 275.326 355.731 268.5 C 355.731 267.436 354.797 266.573 353.646 266.573 C 344.056 266.573 336.136 273.259 335.029 281.85 C 327.896 280.97 322.374 275.326 322.374 268.5 C 322.374 267.436 321.44 266.573 320.289 266.573 C 310.699 266.573 302.779 273.259 301.672 281.85 C 294.539 280.97 289.017 275.326 289.017 268.5 C 289.017 267.436 288.083 266.573 286.932 266.573 C 282.679 266.573 278.513 267.922 275.205 270.372 C 274.306 271.036 274.16 272.25 274.882 273.078 C 275.292 273.554 275.899 273.801 276.51 273.801 C 276.966 273.801 277.427 273.662 277.813 273.377 C 279.912 271.824 282.372 270.892 284.997 270.572 C 286.11 279.157 294.027 285.835 303.61 285.835 C 304.761 285.835 305.695 284.973 305.695 283.909 C 305.695 277.083 311.218 271.441 318.35 270.559 C 319.457 279.15 327.377 285.835 336.968 285.835 C 338.118 285.835 339.052 284.973 339.052 283.909 C 339.052 277.083 344.575 271.441 351.707 270.559 C 352.814 279.15 360.734 285.835 370.325 285.835 C 371.475 285.835 372.409 284.973 372.409 283.909 C 372.409 277.083 377.934 271.439 385.066 270.559 C 385.767 275.931 389.163 280.777 394.3 283.518 C 394.627 283.694 394.986 283.776 395.34 283.776 C 396.062 283.776 396.762 283.432 397.148 282.813 C 397.725 281.894 397.384 280.716 396.387 280.184 Z"/>
      <path style="fill: rgb(132, 181, 203);" d="M 518.317 279.506 C 513.814 277.104 511.018 272.626 511.018 267.822 C 511.018 266.758 510.084 265.895 508.933 265.895 C 499.343 265.895 491.423 272.581 490.316 281.172 C 483.184 280.292 477.661 274.648 477.661 267.822 C 477.661 266.758 476.727 265.895 475.576 265.895 C 465.986 265.895 458.066 272.581 456.959 281.172 C 449.826 280.292 444.304 274.648 444.304 267.822 C 444.304 266.758 443.37 265.895 442.219 265.895 C 432.629 265.895 424.709 272.581 423.602 281.172 C 416.469 280.292 410.947 274.648 410.947 267.822 C 410.947 266.758 410.013 265.895 408.862 265.895 C 404.609 265.895 400.443 267.244 397.135 269.694 C 396.236 270.358 396.09 271.572 396.812 272.4 C 397.222 272.876 397.829 273.123 398.44 273.123 C 398.896 273.123 399.357 272.984 399.743 272.699 C 401.842 271.146 404.302 270.214 406.927 269.894 C 408.04 278.479 415.957 285.157 425.54 285.157 C 426.691 285.157 427.625 284.295 427.625 283.231 C 427.625 276.405 433.148 270.763 440.28 269.881 C 441.387 278.472 449.307 285.157 458.898 285.157 C 460.048 285.157 460.982 284.295 460.982 283.231 C 460.982 276.405 466.505 270.763 473.637 269.881 C 474.744 278.472 482.664 285.157 492.255 285.157 C 493.405 285.157 494.339 284.295 494.339 283.231 C 494.339 276.405 499.864 270.761 506.996 269.881 C 507.697 275.253 511.093 280.099 516.23 282.84 C 516.557 283.016 516.916 283.098 517.27 283.098 C 517.992 283.098 518.692 282.754 519.078 282.135 C 519.655 281.216 519.314 280.038 518.317 279.506 Z"/>
      <path style="fill: rgb(132, 181, 203);" d="M 639.855 279.338 C 635.352 276.936 632.556 272.458 632.556 267.654 C 632.556 266.59 631.622 265.727 630.471 265.727 C 620.881 265.727 612.961 272.413 611.854 281.004 C 604.722 280.124 599.199 274.48 599.199 267.654 C 599.199 266.59 598.265 265.727 597.114 265.727 C 587.524 265.727 579.604 272.413 578.497 281.004 C 571.364 280.124 565.842 274.48 565.842 267.654 C 565.842 266.59 564.908 265.727 563.757 265.727 C 554.167 265.727 546.247 272.413 545.14 281.004 C 538.007 280.124 532.485 274.48 532.485 267.654 C 532.485 266.59 531.551 265.727 530.4 265.727 C 526.147 265.727 521.981 267.076 518.673 269.526 C 517.774 270.19 517.628 271.404 518.35 272.232 C 518.76 272.708 519.367 272.955 519.978 272.955 C 520.434 272.955 520.895 272.816 521.281 272.531 C 523.38 270.978 525.84 270.046 528.465 269.726 C 529.578 278.311 537.495 284.989 547.078 284.989 C 548.229 284.989 549.163 284.127 549.163 283.063 C 549.163 276.237 554.686 270.595 561.818 269.713 C 562.925 278.304 570.845 284.989 580.436 284.989 C 581.586 284.989 582.52 284.127 582.52 283.063 C 582.52 276.237 588.043 270.595 595.175 269.713 C 596.282 278.304 604.202 284.989 613.793 284.989 C 614.943 284.989 615.877 284.127 615.877 283.063 C 615.877 276.237 621.402 270.593 628.534 269.713 C 629.235 275.085 632.631 279.931 637.768 282.672 C 638.095 282.848 638.454 282.93 638.808 282.93 C 639.53 282.93 640.23 282.586 640.616 281.967 C 641.193 281.048 640.852 279.87 639.855 279.338 Z"/>
      <path style="fill: rgb(132, 181, 203);" d="M 761.855 280.338 C 757.352 277.936 754.556 273.458 754.556 268.654 C 754.556 267.59 753.622 266.727 752.471 266.727 C 742.881 266.727 734.961 273.413 733.854 282.004 C 726.722 281.124 721.199 275.48 721.199 268.654 C 721.199 267.59 720.265 266.727 719.114 266.727 C 709.524 266.727 701.604 273.413 700.497 282.004 C 693.364 281.124 687.842 275.48 687.842 268.654 C 687.842 267.59 686.908 266.727 685.757 266.727 C 676.167 266.727 668.247 273.413 667.14 282.004 C 660.007 281.124 654.485 275.48 654.485 268.654 C 654.485 267.59 653.551 266.727 652.4 266.727 C 648.147 266.727 643.981 268.076 640.673 270.526 C 639.774 271.19 639.628 272.404 640.35 273.232 C 640.76 273.708 641.367 273.955 641.978 273.955 C 642.434 273.955 642.895 273.816 643.281 273.531 C 645.38 271.978 647.84 271.046 650.465 270.726 C 651.578 279.311 659.495 285.989 669.078 285.989 C 670.229 285.989 671.163 285.127 671.163 284.063 C 671.163 277.237 676.686 271.595 683.818 270.713 C 684.925 279.304 692.845 285.989 702.436 285.989 C 703.586 285.989 704.52 285.127 704.52 284.063 C 704.52 277.237 710.043 271.595 717.175 270.713 C 718.282 279.304 726.202 285.989 735.793 285.989 C 736.943 285.989 737.877 285.127 737.877 284.063 C 737.877 277.237 743.402 271.593 750.534 270.713 C 751.235 276.085 754.631 280.931 759.768 283.672 C 760.095 283.848 760.454 283.93 760.808 283.93 C 761.53 283.93 762.23 283.586 762.616 282.967 C 763.193 282.048 762.852 280.87 761.855 280.338 Z"/>
    </g>
    <g>
      <title>forth_wave</title>
      <path style="fill: rgb(132, 181, 203);" d="M 153.964 295.349 C 149.461 292.947 146.665 288.468 146.665 283.664 C 146.665 282.601 145.731 281.738 144.58 281.738 C 134.99 281.738 127.07 288.424 125.963 297.015 C 118.831 296.134 113.308 290.491 113.308 283.664 C 113.308 282.601 112.374 281.738 111.223 281.738 C 101.633 281.738 93.713 288.424 92.606 297.015 C 85.473 296.134 79.951 290.491 79.951 283.664 C 79.951 282.601 79.017 281.738 77.866 281.738 C 68.276 281.738 60.356 288.424 59.249 297.015 C 52.116 296.134 46.594 290.491 46.594 283.664 C 46.594 282.601 45.66 281.738 44.509 281.738 C 40.256 281.738 36.09 283.086 32.782 285.537 C 31.883 286.201 31.737 287.415 32.459 288.243 C 32.869 288.719 33.476 288.965 34.087 288.965 C 34.543 288.965 35.004 288.826 35.39 288.541 C 37.489 286.989 39.949 286.057 42.574 285.737 C 43.687 294.322 51.604 301 61.187 301 C 62.338 301 63.272 300.137 63.272 299.074 C 63.272 292.247 68.795 286.606 75.927 285.723 C 77.034 294.314 84.954 301 94.545 301 C 95.695 301 96.629 300.137 96.629 299.074 C 96.629 292.247 102.152 286.606 109.284 285.723 C 110.391 294.314 118.311 301 127.902 301 C 129.052 301 129.986 300.137 129.986 299.074 C 129.986 292.247 135.511 286.604 142.643 285.723 C 143.344 291.096 146.74 295.942 151.877 298.683 C 152.204 298.858 152.563 298.941 152.917 298.941 C 153.639 298.941 154.339 298.596 154.725 297.978 C 155.302 297.059 154.961 295.88 153.964 295.349 Z"/>
      <path style="fill: rgb(132, 181, 203);" d="M 275.223 295.122 C 270.72 292.72 267.924 288.241 267.924 283.437 C 267.924 282.374 266.99 281.511 265.839 281.511 C 256.249 281.511 248.329 288.197 247.222 296.788 C 240.09 295.907 234.567 290.264 234.567 283.437 C 234.567 282.374 233.633 281.511 232.482 281.511 C 222.892 281.511 214.972 288.197 213.865 296.788 C 206.732 295.907 201.21 290.264 201.21 283.437 C 201.21 282.374 200.276 281.511 199.125 281.511 C 189.535 281.511 181.615 288.197 180.508 296.788 C 173.375 295.907 167.853 290.264 167.853 283.437 C 167.853 282.374 166.919 281.511 165.768 281.511 C 161.515 281.511 157.349 282.859 154.041 285.31 C 153.142 285.974 152.996 287.188 153.718 288.016 C 154.128 288.492 154.735 288.738 155.346 288.738 C 155.802 288.738 156.263 288.599 156.649 288.314 C 158.748 286.762 161.208 285.83 163.833 285.51 C 164.946 294.095 172.863 300.773 182.446 300.773 C 183.597 300.773 184.531 299.91 184.531 298.847 C 184.531 292.02 190.054 286.379 197.186 285.496 C 198.293 294.087 206.213 300.773 215.804 300.773 C 216.954 300.773 217.888 299.91 217.888 298.847 C 217.888 292.02 223.411 286.379 230.543 285.496 C 231.65 294.087 239.57 300.773 249.161 300.773 C 250.311 300.773 251.245 299.91 251.245 298.847 C 251.245 292.02 256.77 286.377 263.902 285.496 C 264.603 290.869 267.999 295.715 273.136 298.456 C 273.463 298.631 273.822 298.714 274.176 298.714 C 274.898 298.714 275.598 298.369 275.984 297.751 C 276.561 296.832 276.22 295.653 275.223 295.122 Z"/>
      <path style="fill: rgb(132, 181, 203);" d="M 396.387 295.594 C 391.884 293.192 389.088 288.713 389.088 283.909 C 389.088 282.846 388.154 281.983 387.003 281.983 C 377.413 281.983 369.493 288.669 368.386 297.26 C 361.254 296.379 355.731 290.736 355.731 283.909 C 355.731 282.846 354.797 281.983 353.646 281.983 C 344.056 281.983 336.136 288.669 335.029 297.26 C 327.896 296.379 322.374 290.736 322.374 283.909 C 322.374 282.846 321.44 281.983 320.289 281.983 C 310.699 281.983 302.779 288.669 301.672 297.26 C 294.539 296.379 289.017 290.736 289.017 283.909 C 289.017 282.846 288.083 281.983 286.932 281.983 C 282.679 281.983 278.513 283.331 275.205 285.782 C 274.306 286.446 274.16 287.66 274.882 288.488 C 275.292 288.964 275.899 289.21 276.51 289.21 C 276.966 289.21 277.427 289.071 277.813 288.786 C 279.912 287.234 282.372 286.302 284.997 285.982 C 286.11 294.567 294.027 301.245 303.61 301.245 C 304.761 301.245 305.695 300.382 305.695 299.319 C 305.695 292.492 311.218 286.851 318.35 285.968 C 319.457 294.559 327.377 301.245 336.968 301.245 C 338.118 301.245 339.052 300.382 339.052 299.319 C 339.052 292.492 344.575 286.851 351.707 285.968 C 352.814 294.559 360.734 301.245 370.325 301.245 C 371.475 301.245 372.409 300.382 372.409 299.319 C 372.409 292.492 377.934 286.849 385.066 285.968 C 385.767 291.341 389.163 296.187 394.3 298.928 C 394.627 299.103 394.986 299.186 395.34 299.186 C 396.062 299.186 396.762 298.841 397.148 298.223 C 397.725 297.304 397.384 296.125 396.387 295.594 Z"/>
      <path style="fill: rgb(132, 181, 203);" d="M 518.317 294.916 C 513.814 292.514 511.018 288.035 511.018 283.231 C 511.018 282.168 510.084 281.305 508.933 281.305 C 499.343 281.305 491.423 287.991 490.316 296.582 C 483.184 295.701 477.661 290.058 477.661 283.231 C 477.661 282.168 476.727 281.305 475.576 281.305 C 465.986 281.305 458.066 287.991 456.959 296.582 C 449.826 295.701 444.304 290.058 444.304 283.231 C 444.304 282.168 443.37 281.305 442.219 281.305 C 432.629 281.305 424.709 287.991 423.602 296.582 C 416.469 295.701 410.947 290.058 410.947 283.231 C 410.947 282.168 410.013 281.305 408.862 281.305 C 404.609 281.305 400.443 282.653 397.135 285.104 C 396.236 285.768 396.09 286.982 396.812 287.81 C 397.222 288.286 397.829 288.532 398.44 288.532 C 398.896 288.532 399.357 288.393 399.743 288.108 C 401.842 286.556 404.302 285.624 406.927 285.304 C 408.04 293.889 415.957 300.567 425.54 300.567 C 426.691 300.567 427.625 299.704 427.625 298.641 C 427.625 291.814 433.148 286.173 440.28 285.29 C 441.387 293.881 449.307 300.567 458.898 300.567 C 460.048 300.567 460.982 299.704 460.982 298.641 C 460.982 291.814 466.505 286.173 473.637 285.29 C 474.744 293.881 482.664 300.567 492.255 300.567 C 493.405 300.567 494.339 299.704 494.339 298.641 C 494.339 291.814 499.864 286.171 506.996 285.29 C 507.697 290.663 511.093 295.509 516.23 298.25 C 516.557 298.425 516.916 298.508 517.27 298.508 C 517.992 298.508 518.692 298.163 519.078 297.545 C 519.655 296.626 519.314 295.447 518.317 294.916 Z"/>
      <path style="fill: rgb(132, 181, 203);" d="M 639.855 294.748 C 635.352 292.346 632.556 287.867 632.556 283.063 C 632.556 282 631.622 281.137 630.471 281.137 C 620.881 281.137 612.961 287.823 611.854 296.414 C 604.722 295.533 599.199 289.89 599.199 283.063 C 599.199 282 598.265 281.137 597.114 281.137 C 587.524 281.137 579.604 287.823 578.497 296.414 C 571.364 295.533 565.842 289.89 565.842 283.063 C 565.842 282 564.908 281.137 563.757 281.137 C 554.167 281.137 546.247 287.823 545.14 296.414 C 538.007 295.533 532.485 289.89 532.485 283.063 C 532.485 282 531.551 281.137 530.4 281.137 C 526.147 281.137 521.981 282.485 518.673 284.936 C 517.774 285.6 517.628 286.814 518.35 287.642 C 518.76 288.118 519.367 288.364 519.978 288.364 C 520.434 288.364 520.895 288.225 521.281 287.94 C 523.38 286.388 525.84 285.456 528.465 285.136 C 529.578 293.721 537.495 300.399 547.078 300.399 C 548.229 300.399 549.163 299.536 549.163 298.473 C 549.163 291.646 554.686 286.005 561.818 285.122 C 562.925 293.713 570.845 300.399 580.436 300.399 C 581.586 300.399 582.52 299.536 582.52 298.473 C 582.52 291.646 588.043 286.005 595.175 285.122 C 596.282 293.713 604.202 300.399 613.793 300.399 C 614.943 300.399 615.877 299.536 615.877 298.473 C 615.877 291.646 621.402 286.003 628.534 285.122 C 629.235 290.495 632.631 295.341 637.768 298.082 C 638.095 298.257 638.454 298.34 638.808 298.34 C 639.53 298.34 640.23 297.995 640.616 297.377 C 641.193 296.458 640.852 295.279 639.855 294.748 Z"/>
      <path style="fill: rgb(132, 181, 203);" d="M 761.855 295.748 C 757.352 293.346 754.556 288.867 754.556 284.063 C 754.556 283 753.622 282.137 752.471 282.137 C 742.881 282.137 734.961 288.823 733.854 297.414 C 726.722 296.533 721.199 290.89 721.199 284.063 C 721.199 283 720.265 282.137 719.114 282.137 C 709.524 282.137 701.604 288.823 700.497 297.414 C 693.364 296.533 687.842 290.89 687.842 284.063 C 687.842 283 686.908 282.137 685.757 282.137 C 676.167 282.137 668.247 288.823 667.14 297.414 C 660.007 296.533 654.485 290.89 654.485 284.063 C 654.485 283 653.551 282.137 652.4 282.137 C 648.147 282.137 643.981 283.485 640.673 285.936 C 639.774 286.6 639.628 287.814 640.35 288.642 C 640.76 289.118 641.367 289.364 641.978 289.364 C 642.434 289.364 642.895 289.225 643.281 288.94 C 645.38 287.388 647.84 286.456 650.465 286.136 C 651.578 294.721 659.495 301.399 669.078 301.399 C 670.229 301.399 671.163 300.536 671.163 299.473 C 671.163 292.646 676.686 287.005 683.818 286.122 C 684.925 294.713 692.845 301.399 702.436 301.399 C 703.586 301.399 704.52 300.536 704.52 299.473 C 704.52 292.646 710.043 287.005 717.175 286.122 C 718.282 294.713 726.202 301.399 735.793 301.399 C 736.943 301.399 737.877 300.536 737.877 299.473 C 737.877 292.646 743.402 287.003 750.534 286.122 C 751.235 291.495 754.631 296.341 759.768 299.082 C 760.095 299.257 760.454 299.34 760.808 299.34 C 761.53 299.34 762.23 298.995 762.616 298.377 C 763.193 297.458 762.852 296.279 761.855 295.748 Z"/>
    </g>
  </g>
  <title>file_type_docker</title>
  <g id="crane" style="" transform="matrix(0.287996, 0, 0, 0.287996, 436.59082, 69.68412)">
    <title>crane</title>
    <g id="crane_hook" transform="matrix(1, 0, 0, 1, -409.727539, 0)">
      <title>crane_hook</title>
      <path style="fill:#DFDBCC;" d="M 435.503 134.141 C 430.841 134.141 427.063 137.919 427.063 142.581 L 427.063 163.961 L 427.063 307.892 L 427.063 329.272 C 427.063 333.934 430.841 337.712 435.503 337.712 C 440.164 337.712 443.943 333.934 443.943 329.272 L 443.943 307.892 L 443.943 163.961 L 443.943 142.581 C 443.943 137.918 440.164 134.141 435.503 134.141 Z" id="hook_arm">
        <title>hook_arm</title>       
      </path>
      <g id="hook_head">
        <title>hook_head</title>
        <path style="fill:#7C7A75;" d="M 434.97 436.253 C 427.796 436.253 420.765 433.79 415.171 429.315 C 411.532 426.404 410.941 421.093 413.852 417.453 C 416.764 413.814 422.076 413.223 425.715 416.134 C 428.364 418.253 431.564 419.374 434.97 419.374 C 443.153 419.374 449.81 412.716 449.81 404.533 C 449.81 396.349 443.153 389.692 434.97 389.692 C 430.308 389.692 426.53 385.914 426.53 381.252 L 426.53 359.391 C 426.53 354.73 430.308 350.951 434.97 350.951 C 439.631 350.951 443.41 354.73 443.41 359.391 L 443.41 373.952 C 456.817 377.656 466.69 389.964 466.69 404.532 C 466.688 422.024 452.46 436.253 434.97 436.253 Z"/>
        <path style="fill:#FFB92E;" d="M 435.503 367.831 C 422.544 367.831 412.002 357.288 412.002 344.33 C 412.002 331.372 422.545 320.831 435.503 320.831 C 448.461 320.831 459.002 331.373 459.002 344.33 C 459.003 357.288 448.461 367.831 435.503 367.831 Z M 435.503 337.711 C 431.851 337.711 428.881 340.681 428.881 344.331 C 428.881 347.982 431.852 350.953 435.503 350.953 C 439.153 350.953 442.123 347.982 442.123 344.331 C 442.123 340.681 439.154 337.711 435.503 337.711 Z"/>
      </g>
      
      <path style="fill:#7C7A75;" d="M 419.77 95.934 L 419.77 105.473 L 419.77 115.758 L 419.77 118.489 L 419.77 125.297 L 419.77 128.027 L 419.77 138.313 L 419.77 147.851 C 419.77 155.64 426.084 161.954 433.873 161.954 L 437.339 161.954 C 445.128 161.954 451.442 155.64 451.442 147.851 L 451.442 138.311 L 451.442 128.025 L 451.442 125.295 L 451.442 118.487 L 451.442 115.756 L 451.442 105.471 L 451.442 95.932 L 419.77 95.932 L 419.77 95.934 Z" id="hook_gear">
        <title>hook_gear</title>
      </path>
    </g>
    <g id="crane_body">
      <title>crane_body</title>
      <polygon style="fill:#7C7A75;" points="630.365 168.423 630.365 168.423 630.365 113.507 573.684 113.507"/>
      <g transform="matrix(1, 0, 0, 1, 357.724701, 51.935432)">
        <path style="fill:#ADABA6;" d="M310.021,457.094c-2.189,0-4.375-0.846-6.027-2.532c-3.262-3.329-3.21-8.672,0.119-11.936 l80.776-79.172l-80.776-79.17c-1.619-1.588-2.532-3.76-2.532-6.028c0-2.269,0.913-4.439,2.532-6.027l86.925-85.2 c3.329-3.263,8.673-3.207,11.934,0.12c3.262,3.329,3.209,8.673-0.119,11.935l-80.776,79.172l80.776,79.171 c1.619,1.588,2.533,3.76,2.533,6.027c0,2.269-0.913,4.439-2.533,6.028l-86.925,85.2 C314.285,456.292,312.152,457.094,310.021,457.094z"/>
        <path style="fill:#ADABA6;" d="M396.945,457.094c-2.132,0-4.265-0.802-5.907-2.413l-86.925-85.2 c-1.619-1.588-2.532-3.76-2.532-6.028c0-2.269,0.913-4.439,2.532-6.027l80.776-79.171l-80.776-79.172 c-3.33-3.262-3.383-8.606-0.119-11.935c3.262-3.327,8.605-3.383,11.934-0.12l86.925,85.2c1.619,1.588,2.533,3.76,2.533,6.027 c0,2.269-0.913,4.439-2.533,6.028l-80.776,79.17l80.776,79.172c3.329,3.262,3.383,8.607,0.119,11.936 C401.32,456.248,399.132,457.094,396.945,457.094z"/>
      </g>
      <path style="fill:#7C7A75;" d="M 803.026 537.359 L 788.219 511.312 C 787.219 509.553 785.351 508.467 783.326 508.467 L 639.088 508.467 C 637.064 508.467 635.196 509.554 634.195 511.313 L 619.39 537.359 C 618.4 539.101 618.411 541.237 619.417 542.968 C 620.424 544.7 622.277 545.764 624.28 545.764 L 798.133 545.764 C 800.136 545.764 801.989 544.699 802.996 542.968 C 804.005 541.237 804.016 539.1 803.026 537.359 Z"/>
      <path style="fill:#FFB92E;" d="M 781.924 101.391 L 640.493 101.391 C 633.034 101.391 626.99 107.437 626.99 114.894 L 626.99 129.401 L 626.99 138.003 L 626.99 152.51 L 626.99 185.903 L 626.99 200.41 L 626.99 209.01 L 626.99 223.517 C 626.99 230.974 633.034 237.02 640.493 237.02 L 781.924 237.02 C 789.381 237.02 795.427 230.974 795.427 223.517 L 795.427 209.01 L 795.427 200.41 L 795.427 185.903 L 795.427 152.509 L 795.427 138.002 L 795.427 129.4 L 795.427 114.894 C 795.427 107.437 789.381 101.391 781.924 101.391 Z"/>
      <path style="fill:#36A1CB;" d="M 693.573 146.622 C 686.115 146.622 680.07 152.668 680.07 160.125 L 680.07 192.788 C 680.07 200.245 686.115 206.291 693.573 206.291 L 795.427 206.291 L 795.427 146.621 L 693.573 146.621 L 693.573 146.622 Z"/>
      <g transform="matrix(1, 0, 0, 1, 357.724701, 51.935432)">
        <path style="fill:#CCC3A8;" d="M396.946,457.094h-86.925c-4.662,0-8.44-3.778-8.44-8.44v-85.2c0-4.662,3.778-8.44,8.44-8.44h86.925 c4.661,0,8.44,3.778,8.44,8.44v85.2C405.385,453.317,401.607,457.094,396.946,457.094z M318.46,440.215h70.046v-68.321H318.46 L318.46,440.215L318.46,440.215z"/>
        <path style="fill:#CCC3A8;" d="M396.946,371.894h-86.925c-4.662,0-8.44-3.778-8.44-8.44v-85.198c0-4.662,3.778-8.44,8.44-8.44 h86.925c4.661,0,8.44,3.778,8.44,8.44v85.198C405.385,368.117,401.607,371.894,396.946,371.894z M318.46,355.015h70.046v-68.319 H318.46L318.46,355.015L318.46,355.015z"/>
        <path style="fill:#CCC3A8;" d="M396.946,286.696h-86.925c-4.662,0-8.44-3.778-8.44-8.44v-85.2c0-4.662,3.778-8.44,8.44-8.44h86.925 c4.661,0,8.44,3.778,8.44,8.44v85.2C405.385,282.919,401.607,286.696,396.946,286.696z M318.46,269.817h70.046v-68.321H318.46 L318.46,269.817L318.46,269.817z"/>
      </g>
      <rect x="737.742" y="146.627" style="fill:#52C6EB;" width="57.682" height="59.673"/>
      <path style="fill:#6B6861;" d="M 641.924 542.969 C 640.917 541.237 640.907 539.1 641.897 537.36 L 656.702 511.314 C 657.702 509.555 659.57 508.468 661.595 508.468 L 639.09 508.468 C 637.066 508.468 635.198 509.555 634.197 511.314 L 619.392 537.36 C 618.402 539.102 618.413 541.238 619.419 542.969 C 620.426 544.701 622.279 545.765 624.282 545.765 L 646.787 545.765 C 644.784 545.765 642.931 544.701 641.924 542.969 Z"/>
      <path style="fill:#EF9A1D;" d="M 649.495 223.516 L 649.495 209.009 L 649.495 200.409 L 649.495 185.902 L 649.495 152.509 L 649.495 138.002 L 649.495 129.4 L 649.495 114.894 C 649.495 107.437 655.539 101.391 662.998 101.391 L 640.493 101.391 C 633.034 101.391 626.99 107.437 626.99 114.894 L 626.99 129.401 L 626.99 138.003 L 626.99 152.51 L 626.99 185.903 L 626.99 200.41 L 626.99 209.01 L 626.99 223.517 C 626.99 230.974 633.034 237.02 640.493 237.02 L 662.998 237.02 C 655.539 237.019 649.495 230.972 649.495 223.516 Z"/>
      <path style="fill:#7C7A75;" d="M 756.937 81.664 L 744.296 55.141 C 743.361 53.182 741.385 51.935 739.216 51.935 L 683.2 51.935 C 681.03 51.935 679.053 53.182 678.121 55.141 L 665.481 81.664 C 664.651 83.407 664.771 85.455 665.802 87.088 C 666.833 88.721 668.629 89.711 670.561 89.711 L 751.86 89.711 C 753.79 89.711 755.587 88.721 756.618 87.088 C 757.646 85.455 757.768 83.407 756.937 81.664 Z"/>
      <path style="fill:#6B6861;" d="M 688.305 87.087 C 687.274 85.454 687.154 83.406 687.984 81.663 L 700.625 55.141 C 701.559 53.183 703.535 51.935 705.704 51.935 L 683.199 51.935 C 681.029 51.935 679.052 53.182 678.12 55.141 L 665.48 81.664 C 664.65 83.407 664.77 85.455 665.801 87.088 C 666.832 88.721 668.628 89.711 670.56 89.711 L 693.065 89.711 C 691.132 89.71 689.336 88.72 688.305 87.087 Z"/>
      <path style="fill: rgb(255, 185, 46);" d="M 799.496 84.084 L 634.365 84.084 L 439.957 84.084 L 382.237 84.084 L 188.78 84.084 L 23.649 84.084 C 8.476 84.084 -3.824 90.398 -3.824 98.187 L -3.824 101.653 C -3.824 109.442 8.476 115.756 23.649 115.756 L 188.78 115.756 L 634.364 115.756 L 799.493 115.756 C 814.667 115.756 826.966 109.442 826.966 101.653 L 826.966 98.187 C 826.968 90.399 814.668 84.084 799.496 84.084 Z"/>
      <path style="fill:#EF9A1D;" d="M 9.821 101.654 L 9.821 98.188 C 9.821 90.399 16.135 84.085 23.924 84.085 L 1.419 84.085 C -6.37 84.085 -12.684 90.399 -12.684 98.188 L -12.684 101.654 C -12.684 109.443 -6.37 115.757 1.419 115.757 L 23.924 115.757 C 16.135 115.757 9.821 109.442 9.821 101.654 Z"/>
      <path style="fill:#CCC3A8;" d="M 773.833 532.262 L 812.863 532.262 C 820.652 532.262 826.966 538.576 826.966 546.365 L 826.966 549.831 C 826.966 557.62 820.652 563.934 812.863 563.934 L 728.094 563.934 L 694.32 563.934 L 609.551 563.934 C 601.762 563.934 595.448 557.62 595.448 549.831 L 595.448 546.365 C 595.448 538.576 601.762 532.262 609.551 532.262 L 694.32 532.262 L 733.72 532.262 L 743.45 532.262"/>
      <path style="fill:#C9B585;" d="M 617.954 549.832 L 617.954 546.366 C 617.954 538.577 624.268 532.263 632.057 532.263 L 609.552 532.263 C 601.763 532.263 595.449 538.577 595.449 546.366 L 595.449 549.832 C 595.449 557.621 601.763 563.935 609.552 563.935 L 632.057 563.935 C 624.268 563.935 617.954 557.621 617.954 549.832 Z"/>
    </g>
  </g>
</svg>