<?xml version="1.0" encoding="utf-8"?>
<svg viewBox="0 0 800 310" xmlns="http://www.w3.org/2000/svg">
  <defs>
    <linearGradient gradientUnits="userSpaceOnUse" x1="400" y1="222.291" x2="400" y2="331.257" id="gradient-0" gradientTransform="matrix(0.999905, -0.013706, 0.032828, 2.39514, -144.378677, -423.282196)">
      <stop offset="0" style="stop-color: rgba(101, 181, 161, 1)"/>
      <stop offset="1" style="stop-color: rgba(33, 253, 139, 0.96);"/>
    </linearGradient>
    <linearGradient gradientUnits="userSpaceOnUse" x1="400" y1="0" x2="400" y2="183" id="gradient-1" gradientTransform="matrix(1, 0, 0, 0.755175, 0, 0)">
      <stop offset="0" style="stop-color: rgb(63, 171, 248);"/>
      <stop offset="1" style="stop-color: rgb(176, 178, 158);"/>
    </linearGradient>
  </defs>
  <title>file_type_docker</title>
  <g style="pointer-events: none;" id="sea">
    <title>sea</title>
    <rect y="222.291" width="800" height="108.966" style="paint-order: fill; fill-rule: nonzero; fill: url(#gradient-0);"/>
    <path style="fill: rgb(216, 216, 216);" d="M 690.966 227.368 L 705.236 227.308 L 717.222 227.575 L 705.236 227.724 L 690.966 227.368 Z"/>
    <path style="fill: rgb(216, 216, 216);" d="M 652.785 237.18 L 667.055 237.12 L 679.041 237.387 L 667.055 237.536 L 652.785 237.18 Z"/>
    <path style="fill: rgb(216, 216, 216);" d="M 716.653 236.265 L 730.923 236.205 L 742.909 236.472 L 730.923 236.621 L 716.653 236.265 Z"/>
    <path style="fill: rgb(216, 216, 216);" d="M 741.498 245.868 L 755.768 245.808 L 767.754 246.075 L 755.768 246.224 L 741.498 245.868 Z"/>
    <path style="fill: rgb(216, 216, 216);" d="M 698.361 240.99 L 712.631 240.93 L 724.617 241.197 L 712.631 241.346 L 698.361 240.99 Z"/>
    <path style="fill: rgb(216, 216, 216);" d="M 742.108 228.948 L 756.378 228.888 L 768.364 229.155 L 756.378 229.304 L 742.108 228.948 Z"/>
    <path style="fill: rgb(216, 216, 216);" d="M 764.058 233.216 L 778.328 233.156 L 790.314 233.423 L 778.328 233.572 L 764.058 233.216 Z"/>
    <path style="fill: rgb(216, 216, 216);" d="M 762.534 240.838 L 776.804 240.778 L 788.79 241.045 L 776.804 241.194 L 762.534 240.838 Z"/>
    <path style="fill: rgb(216, 216, 216);" d="M 583.735 228.948 L 598.005 228.888 L 609.991 229.155 L 598.005 229.304 L 583.735 228.948 Z"/>
    <path style="fill: rgb(216, 216, 216);" d="M 594.252 234.283 L 608.522 234.223 L 620.508 234.49 L 608.522 234.639 L 594.252 234.283 Z"/>
    <path style="fill: rgb(216, 216, 216);" d="M 630.683 230.168 L 644.953 230.108 L 656.939 230.375 L 644.953 230.524 L 630.683 230.168 Z"/>
    <path style="fill: rgb(216, 216, 216);" d="M 587.698 245.106 L 601.968 245.046 L 613.954 245.313 L 601.968 245.462 L 587.698 245.106 Z"/>
    <path style="fill: rgb(216, 216, 216);" d="M 596.386 239.923 L 610.656 239.863 L 622.642 240.13 L 610.656 240.279 L 596.386 239.923 Z"/>
    <path style="fill: rgb(216, 216, 216);" d="M 768.631 260.806 L 782.901 260.746 L 794.887 261.013 L 782.901 261.162 L 768.631 260.806 Z"/>
    <path style="fill: rgb(216, 216, 216);" d="M 717.11 266.446 L 731.38 266.386 L 743.366 266.653 L 731.38 266.802 L 717.11 266.446 Z"/>
    <path style="fill: rgb(216, 216, 216);" d="M 636.475 255.471 L 650.745 255.411 L 662.731 255.678 L 650.745 255.827 L 636.475 255.471 Z"/>
    <path style="fill: rgb(216, 216, 216);" d="M 618.336 277.878 L 632.606 277.818 L 644.592 278.085 L 632.606 278.234 L 618.336 277.878 Z"/>
    <path style="fill: rgb(216, 216, 216);" d="M 589.984 270.104 L 604.254 270.044 L 616.24 270.311 L 604.254 270.46 L 589.984 270.104 Z"/>
    <path style="fill: rgb(216, 216, 216);" d="M 759.18 280.774 L 773.45 280.714 L 785.436 280.981 L 773.45 281.13 L 759.18 280.774 Z"/>
    <path style="fill: rgb(216, 216, 216);" d="M 675.192 271.628 L 689.462 271.568 L 701.448 271.835 L 689.462 271.984 L 675.192 271.628 Z"/>
    <path style="fill: rgb(216, 216, 216);" d="M 688.758 258.367 L 703.028 258.307 L 715.014 258.574 L 703.028 258.723 L 688.758 258.367 Z"/>
    <path style="fill: rgb(216, 216, 216);" d="M 586.021 284.737 L 600.291 284.677 L 612.277 284.944 L 600.291 285.093 L 586.021 284.737 Z"/>
    <path style="fill: rgb(216, 216, 216);" d="M 596.082 259.739 L 610.352 259.679 L 622.338 259.946 L 610.352 260.095 L 596.082 259.739 Z"/>
    <path style="fill: rgb(216, 216, 216);" d="M 712.08 283.823 L 726.35 283.763 L 738.336 284.03 L 726.35 284.179 L 712.08 283.823 Z"/>
    <path style="fill: rgb(216, 216, 216);" d="M 704.932 244.505 L 713.266 244.426 L 720.413 244.664 L 713.286 244.843 L 704.932 244.505 Z"/>
    <path style="fill: rgb(216, 216, 216);" d="M 722.497 229.517 L 730.831 229.438 L 737.978 229.676 L 730.851 229.855 L 722.497 229.517 Z"/>
    <path style="fill: rgb(216, 216, 216);" d="M 686.723 231.951 L 695.057 231.872 L 702.204 232.11 L 695.077 232.289 L 686.723 231.951 Z"/>
    <path style="fill: rgb(216, 216, 216);" d="M 655.817 225.624 L 664.151 225.545 L 671.298 225.783 L 664.171 225.962 L 655.817 225.624 Z"/>
    <path style="fill: rgb(216, 216, 216);" d="M 618.948 225.745 L 627.282 225.666 L 634.429 225.904 L 627.302 226.083 L 618.948 225.745 Z"/>
    <path style="fill: rgb(216, 216, 216);" d="M 624.667 235.115 L 633.001 235.036 L 640.148 235.274 L 633.021 235.453 L 624.667 235.115 Z"/>
    <path style="fill: rgb(216, 216, 216);" d="M 664.091 232.681 L 672.425 232.602 L 679.572 232.84 L 672.445 233.019 L 664.091 232.681 Z"/>
    <path style="fill: rgb(216, 216, 216);" d="M 672.122 243.632 L 680.456 243.553 L 687.603 243.791 L 680.476 243.97 L 672.122 243.632 Z"/>
    <path style="fill: rgb(216, 216, 216);" d="M 633.671 241.32 L 642.005 241.241 L 649.152 241.479 L 642.025 241.658 L 633.671 241.32 Z"/>
    <path style="fill: rgb(216, 216, 216);" d="M 618.826 249.473 L 627.16 249.394 L 634.307 249.632 L 627.18 249.811 L 618.826 249.473 Z"/>
    <path style="fill: rgb(216, 216, 216);" d="M 601.426 252.88 L 609.76 252.801 L 616.907 253.039 L 609.78 253.218 L 601.426 252.88 Z"/>
    <path style="fill: rgb(216, 216, 216);" d="M 652.41 246.918 L 660.744 246.839 L 667.891 247.077 L 660.764 247.256 L 652.41 246.918 Z"/>
    <path style="fill: rgb(216, 216, 216);" d="M 667.498 251.176 L 675.832 251.097 L 682.979 251.335 L 675.852 251.514 L 667.498 251.176 Z"/>
    <path style="fill: rgb(216, 216, 216);" d="M 697.674 250.568 L 706.008 250.489 L 713.155 250.727 L 706.028 250.906 L 697.674 250.568 Z"/>
    <path style="fill: rgb(216, 216, 216);" d="M 722.74 250.203 L 731.074 250.124 L 738.221 250.362 L 731.094 250.541 L 722.74 250.203 Z"/>
    <path style="fill: rgb(216, 216, 216);" d="M 750.362 261.154 L 758.696 261.075 L 765.843 261.313 L 758.716 261.492 L 750.362 261.154 Z"/>
    <path style="fill: rgb(216, 216, 216);" d="M 746.468 236.453 L 754.802 236.374 L 761.949 236.612 L 754.822 236.791 L 746.468 236.453 Z"/>
    <path style="fill: rgb(216, 216, 216);" d="M 658.494 262.128 L 666.828 262.049 L 673.975 262.287 L 666.848 262.466 L 658.494 262.128 Z"/>
    <path style="fill: rgb(216, 216, 216);" d="M 607.632 264.683 L 615.966 264.604 L 623.113 264.842 L 615.986 265.021 L 607.632 264.683 Z"/>
    <path style="fill: rgb(216, 216, 216);" d="M 633.428 261.884 L 641.762 261.805 L 648.909 262.043 L 641.782 262.222 L 633.428 261.884 Z"/>
    <path style="fill: rgb(216, 216, 216);" d="M 619.434 268.698 L 627.768 268.619 L 634.915 268.857 L 627.788 269.036 L 619.434 268.698 Z"/>
    <path style="fill: rgb(216, 216, 216);" d="M 616.149 256.044 L 624.483 255.965 L 631.63 256.203 L 624.503 256.382 L 616.149 256.044 Z"/>
    <path style="fill: rgb(216, 216, 216);" d="M 675.164 266.751 L 683.498 266.672 L 690.645 266.91 L 683.518 267.089 L 675.164 266.751 Z"/>
    <path style="fill: rgb(216, 216, 216);" d="M 726.513 257.869 L 734.847 257.79 L 741.994 258.028 L 734.867 258.207 L 726.513 257.869 Z"/>
    <path style="fill: rgb(216, 216, 216);" d="M 747.806 269.672 L 756.14 269.593 L 763.287 269.831 L 756.16 270.01 L 747.806 269.672 Z"/>
    <path style="fill: rgb(216, 216, 216);" d="M 705.34 269.915 L 713.674 269.836 L 720.821 270.074 L 713.694 270.253 L 705.34 269.915 Z"/>
    <path style="fill: rgb(216, 216, 216);" d="M 641.824 269.672 L 650.158 269.593 L 657.305 269.831 L 650.178 270.01 L 641.824 269.672 Z"/>
    <path style="fill: rgb(216, 216, 216);" d="M 617.731 244.119 L 626.065 244.04 L 633.212 244.278 L 626.085 244.457 L 617.731 244.119 Z"/>
    <path style="fill: rgb(216, 216, 216);" d="M 684.853 282.952 L 693.187 282.873 L 700.334 283.111 L 693.207 283.29 L 684.853 282.952 Z"/>
    <path style="fill: rgb(216, 216, 216);" d="M 656.311 285.236 L 664.645 285.157 L 671.792 285.395 L 664.665 285.574 L 656.311 285.236 Z"/>
    <path style="fill: rgb(216, 216, 216);" d="M 622.061 293.798 L 630.395 293.719 L 637.542 293.957 L 630.415 294.136 L 622.061 293.798 Z"/>
    <path style="fill: rgb(216, 216, 216);" d="M 595.231 298.365 L 603.565 298.286 L 610.712 298.524 L 603.585 298.703 L 595.231 298.365 Z"/>
    <path style="fill: rgb(216, 216, 216);" d="M 634.619 300.648 L 642.953 300.569 L 650.1 300.807 L 642.973 300.986 L 634.619 300.648 Z"/>
    <path style="fill: rgb(216, 216, 216);" d="M 664.631 294.819 L 672.965 294.74 L 680.112 294.978 L 672.985 295.157 L 664.631 294.819 Z"/>
    <path style="fill: rgb(216, 216, 216);" d="M 627.44 285.169 L 635.774 285.09 L 642.921 285.328 L 635.794 285.507 L 627.44 285.169 Z"/>
    <path style="fill: rgb(216, 216, 216);" d="M 588.238 291.401 L 596.572 291.322 L 603.719 291.56 L 596.592 291.739 L 588.238 291.401 Z"/>
    <path style="fill: rgb(216, 216, 216);" d="M 585.022 306.478 L 593.356 306.399 L 600.503 306.637 L 593.376 306.816 L 585.022 306.478 Z"/>
    <path style="fill: rgb(216, 216, 216);" d="M 590.45 317.535 L 598.784 317.456 L 605.931 317.694 L 598.804 317.873 L 590.45 317.535 Z"/>
    <path style="fill: rgb(216, 216, 216);" d="M 622.816 311.705 L 631.15 311.626 L 638.297 311.864 L 631.17 312.043 L 622.816 311.705 Z"/>
    <path style="fill: rgb(216, 216, 216);" d="M 658.6 308.69 L 666.934 308.611 L 674.081 308.849 L 666.954 309.028 L 658.6 308.69 Z"/>
    <path style="fill: rgb(216, 216, 216);" d="M 695.791 308.69 L 704.125 308.611 L 711.272 308.849 L 704.145 309.028 L 695.791 308.69 Z"/>
    <path style="fill: rgb(216, 216, 216);" d="M 697.6 297.231 L 705.934 297.152 L 713.081 297.39 L 705.954 297.569 L 697.6 297.231 Z"/>
    <path style="fill: rgb(216, 216, 216);" d="M 729.363 293.009 L 737.697 292.93 L 744.844 293.168 L 737.717 293.347 L 729.363 293.009 Z"/>
    <path style="fill: rgb(216, 216, 216);" d="M 728.157 303.463 L 736.491 303.384 L 743.638 303.622 L 736.511 303.801 L 728.157 303.463 Z"/>
    <path style="fill: rgb(216, 216, 216);" d="M 743.476 301.032 L 757.746 300.972 L 769.732 301.239 L 757.746 301.388 L 743.476 301.032 Z"/>
    <path style="fill: rgb(216, 216, 216);" d="M 741.667 312.089 L 755.937 312.029 L 767.923 312.296 L 755.937 312.445 L 741.667 312.089 Z"/>
    <path style="fill: rgb(216, 216, 216);" d="M 710.507 298.821 L 724.777 298.761 L 736.763 299.028 L 724.777 299.177 L 710.507 298.821 Z"/>
    <path style="fill: rgb(216, 216, 216);" d="M 708.295 322.141 L 722.565 322.081 L 734.551 322.348 L 722.565 322.497 L 708.295 322.141 Z"/>
    <path style="fill: rgb(216, 216, 216);" d="M 747.899 317.316 L 762.169 317.256 L 774.155 317.523 L 762.169 317.672 L 747.899 317.316 Z"/>
    <path style="fill: rgb(216, 216, 216);" d="M 669.898 317.316 L 684.168 317.256 L 696.154 317.523 L 684.168 317.672 L 669.898 317.316 Z"/>
    <path style="fill: rgb(216, 216, 216);" d="M 670.3 303.645 L 684.57 303.585 L 696.556 303.852 L 684.57 304.001 L 670.3 303.645 Z"/>
    <path style="fill: rgb(216, 216, 216);" d="M 607.176 305.455 L 621.446 305.395 L 633.432 305.662 L 621.446 305.811 L 607.176 305.455 Z"/>
    <path style="fill: rgb(216, 216, 216);" d="M 607.779 325.558 L 622.049 325.498 L 634.035 325.765 L 622.049 325.914 L 607.779 325.558 Z"/>
    <path style="fill: rgb(216, 216, 216);" d="M 580.237 325.558 L 594.507 325.498 L 606.493 325.765 L 594.507 325.914 L 580.237 325.558 Z"/>
    <path style="fill: rgb(216, 216, 216);" d="M 615.418 319.125 L 629.688 319.065 L 641.674 319.332 L 629.688 319.481 L 615.418 319.125 Z"/>
    <path style="fill: rgb(216, 216, 216);" d="M 659.243 323.95 L 673.513 323.89 L 685.499 324.157 L 673.513 324.306 L 659.243 323.95 Z"/>
    <path style="fill: rgb(216, 216, 216);" d="M 740.26 326.362 L 754.53 326.302 L 766.516 326.569 L 754.53 326.718 L 740.26 326.362 Z"/>
    <path style="fill: rgb(216, 216, 216);" d="M 705.682 315.305 L 719.952 315.245 L 731.938 315.512 L 719.952 315.661 L 705.682 315.305 Z"/>
    <path style="fill: rgb(216, 216, 216);" d="M 691.61 327.166 L 705.88 327.106 L 717.866 327.373 L 705.88 327.522 L 691.61 327.166 Z"/>
    <path style="fill: rgb(216, 216, 216);" d="M 637.934 328.775 L 652.204 328.715 L 664.19 328.982 L 652.204 329.131 L 637.934 328.775 Z"/>
    <path style="fill: rgb(216, 216, 216);" d="M 591.897 313.094 L 606.167 313.034 L 618.153 313.301 L 606.167 313.45 L 591.897 313.094 Z"/>
    <path style="fill: rgb(216, 216, 216);" d="M 593.103 278.315 L 607.373 278.255 L 619.359 278.522 L 607.373 278.671 L 593.103 278.315 Z"/>
    <path style="fill: rgb(216, 216, 216);" d="M 651.805 276.908 L 666.075 276.848 L 678.061 277.115 L 666.075 277.264 L 651.805 276.908 Z"/>
    <path style="fill: rgb(216, 216, 216);" d="M 717.945 276.707 L 732.215 276.647 L 744.201 276.914 L 732.215 277.063 L 717.945 276.707 Z"/>
    <path style="fill: rgb(216, 216, 216);" d="M 745.084 288.166 L 759.354 288.106 L 771.34 288.373 L 759.354 288.522 L 745.084 288.166 Z"/>
    <path style="fill: rgb(216, 216, 216);" d="M 683.769 289.975 L 698.039 289.915 L 710.025 290.182 L 698.039 290.331 L 683.769 289.975 Z"/>
    <path style="fill: rgb(216, 216, 216);" d="M 501.138 228.092 L 515.408 228.032 L 527.394 228.299 L 515.408 228.448 L 501.138 228.092 Z"/>
    <path style="fill: rgb(216, 216, 216);" d="M 462.957 237.903 L 477.227 237.843 L 489.213 238.11 L 477.227 238.259 L 462.957 237.903 Z"/>
    <path style="fill: rgb(216, 216, 216);" d="M 526.825 236.989 L 541.095 236.929 L 553.081 237.196 L 541.095 237.345 L 526.825 236.989 Z"/>
    <path style="fill: rgb(216, 216, 216);" d="M 551.671 246.592 L 565.941 246.532 L 577.927 246.799 L 565.941 246.948 L 551.671 246.592 Z"/>
    <path style="fill: rgb(216, 216, 216);" d="M 508.534 241.714 L 522.804 241.654 L 534.79 241.921 L 522.804 242.07 L 508.534 241.714 Z"/>
    <path style="fill: rgb(216, 216, 216);" d="M 552.281 229.672 L 566.551 229.612 L 578.537 229.879 L 566.551 230.028 L 552.281 229.672 Z"/>
    <path style="fill: rgb(216, 216, 216);" d="M 574.23 233.94 L 588.5 233.88 L 600.486 234.147 L 588.5 234.296 L 574.23 233.94 Z"/>
    <path style="fill: rgb(216, 216, 216);" d="M 572.706 241.561 L 586.976 241.501 L 598.962 241.768 L 586.976 241.917 L 572.706 241.561 Z"/>
    <path style="fill: rgb(216, 216, 216);" d="M 393.907 229.672 L 408.177 229.612 L 420.163 229.879 L 408.177 230.028 L 393.907 229.672 Z"/>
    <path style="fill: rgb(216, 216, 216);" d="M 404.425 235.007 L 418.695 234.947 L 430.681 235.214 L 418.695 235.363 L 404.425 235.007 Z"/>
    <path style="fill: rgb(216, 216, 216);" d="M 440.855 230.891 L 455.125 230.831 L 467.111 231.098 L 455.125 231.247 L 440.855 230.891 Z"/>
    <path style="fill: rgb(216, 216, 216);" d="M 397.87 245.829 L 412.14 245.769 L 424.126 246.036 L 412.14 246.185 L 397.87 245.829 Z"/>
    <path style="fill: rgb(216, 216, 216);" d="M 406.559 240.647 L 420.829 240.587 L 432.815 240.854 L 420.829 241.003 L 406.559 240.647 Z"/>
    <path style="fill: rgb(216, 216, 216);" d="M 578.803 261.53 L 593.073 261.47 L 605.059 261.737 L 593.073 261.886 L 578.803 261.53 Z"/>
    <path style="fill: rgb(216, 216, 216);" d="M 527.282 267.169 L 541.552 267.109 L 553.538 267.376 L 541.552 267.525 L 527.282 267.169 Z"/>
    <path style="fill: rgb(216, 216, 216);" d="M 446.647 256.195 L 460.917 256.135 L 472.903 256.402 L 460.917 256.551 L 446.647 256.195 Z"/>
    <path style="fill: rgb(216, 216, 216);" d="M 428.508 278.602 L 442.778 278.542 L 454.764 278.809 L 442.778 278.958 L 428.508 278.602 Z"/>
    <path style="fill: rgb(216, 216, 216);" d="M 400.157 270.828 L 414.427 270.768 L 426.413 271.035 L 414.427 271.184 L 400.157 270.828 Z"/>
    <path style="fill: rgb(216, 216, 216);" d="M 569.353 281.498 L 583.623 281.438 L 595.609 281.705 L 583.623 281.854 L 569.353 281.498 Z"/>
    <path style="fill: rgb(216, 216, 216);" d="M 485.364 272.352 L 499.634 272.292 L 511.62 272.559 L 499.634 272.708 L 485.364 272.352 Z"/>
    <path style="fill: rgb(216, 216, 216);" d="M 498.931 259.091 L 513.201 259.031 L 525.187 259.298 L 513.201 259.447 L 498.931 259.091 Z"/>
    <path style="fill: rgb(216, 216, 216);" d="M 396.194 285.461 L 410.464 285.401 L 422.45 285.668 L 410.464 285.817 L 396.194 285.461 Z"/>
    <path style="fill: rgb(216, 216, 216);" d="M 406.254 260.463 L 420.524 260.403 L 432.51 260.67 L 420.524 260.819 L 406.254 260.463 Z"/>
    <path style="fill: rgb(216, 216, 216);" d="M 522.252 284.546 L 536.522 284.486 L 548.508 284.753 L 536.522 284.902 L 522.252 284.546 Z"/>
    <path style="fill: rgb(216, 216, 216);" d="M 515.104 245.229 L 523.438 245.15 L 530.585 245.388 L 523.458 245.567 L 515.104 245.229 Z"/>
    <path style="fill: rgb(216, 216, 216);" d="M 532.669 230.241 L 541.003 230.162 L 548.15 230.4 L 541.023 230.579 L 532.669 230.241 Z"/>
    <path style="fill: rgb(216, 216, 216);" d="M 496.896 232.675 L 505.23 232.596 L 512.377 232.834 L 505.25 233.013 L 496.896 232.675 Z"/>
    <path style="fill: rgb(216, 216, 216);" d="M 465.989 226.347 L 474.323 226.268 L 481.47 226.506 L 474.343 226.685 L 465.989 226.347 Z"/>
    <path style="fill: rgb(216, 216, 216);" d="M 429.12 226.469 L 437.454 226.39 L 444.601 226.628 L 437.474 226.807 L 429.12 226.469 Z"/>
    <path style="fill: rgb(216, 216, 216);" d="M 434.839 235.838 L 443.173 235.759 L 450.32 235.997 L 443.193 236.176 L 434.839 235.838 Z"/>
    <path style="fill: rgb(216, 216, 216);" d="M 474.263 233.405 L 482.597 233.326 L 489.744 233.564 L 482.617 233.743 L 474.263 233.405 Z"/>
    <path style="fill: rgb(216, 216, 216);" d="M 482.294 244.356 L 490.628 244.277 L 497.775 244.515 L 490.648 244.694 L 482.294 244.356 Z"/>
    <path style="fill: rgb(216, 216, 216);" d="M 443.843 242.044 L 452.177 241.965 L 459.324 242.203 L 452.197 242.382 L 443.843 242.044 Z"/>
    <path style="fill: rgb(216, 216, 216);" d="M 428.998 250.196 L 437.332 250.117 L 444.479 250.355 L 437.352 250.534 L 428.998 250.196 Z"/>
    <path style="fill: rgb(216, 216, 216);" d="M 411.598 253.604 L 419.932 253.525 L 427.079 253.763 L 419.952 253.942 L 411.598 253.604 Z"/>
    <path style="fill: rgb(216, 216, 216);" d="M 462.582 247.641 L 470.916 247.562 L 478.063 247.8 L 470.936 247.979 L 462.582 247.641 Z"/>
    <path style="fill: rgb(216, 216, 216);" d="M 477.67 251.9 L 486.004 251.821 L 493.151 252.059 L 486.024 252.238 L 477.67 251.9 Z"/>
    <path style="fill: rgb(216, 216, 216);" d="M 507.847 251.292 L 516.181 251.213 L 523.328 251.451 L 516.201 251.63 L 507.847 251.292 Z"/>
    <path style="fill: rgb(216, 216, 216);" d="M 532.913 250.927 L 541.247 250.848 L 548.394 251.086 L 541.267 251.265 L 532.913 250.927 Z"/>
    <path style="fill: rgb(216, 216, 216);" d="M 560.534 261.878 L 568.868 261.799 L 576.015 262.037 L 568.888 262.216 L 560.534 261.878 Z"/>
    <path style="fill: rgb(216, 216, 216);" d="M 556.64 237.177 L 564.974 237.098 L 572.121 237.336 L 564.994 237.515 L 556.64 237.177 Z"/>
    <path style="fill: rgb(216, 216, 216);" d="M 468.666 262.851 L 477 262.772 L 484.147 263.01 L 477.02 263.189 L 468.666 262.851 Z"/>
    <path style="fill: rgb(216, 216, 216);" d="M 417.804 265.406 L 426.138 265.327 L 433.285 265.565 L 426.158 265.744 L 417.804 265.406 Z"/>
    <path style="fill: rgb(216, 216, 216);" d="M 443.6 262.608 L 451.934 262.529 L 459.081 262.767 L 451.954 262.946 L 443.6 262.608 Z"/>
    <path style="fill: rgb(216, 216, 216);" d="M 429.607 269.422 L 437.941 269.343 L 445.088 269.581 L 437.961 269.76 L 429.607 269.422 Z"/>
    <path style="fill: rgb(216, 216, 216);" d="M 426.322 256.767 L 434.656 256.688 L 441.803 256.926 L 434.676 257.105 L 426.322 256.767 Z"/>
    <path style="fill: rgb(216, 216, 216);" d="M 485.336 267.475 L 493.67 267.396 L 500.817 267.634 L 493.69 267.813 L 485.336 267.475 Z"/>
    <path style="fill: rgb(216, 216, 216);" d="M 536.685 258.592 L 545.019 258.513 L 552.166 258.751 L 545.039 258.93 L 536.685 258.592 Z"/>
    <path style="fill: rgb(216, 216, 216);" d="M 557.979 270.395 L 566.313 270.316 L 573.46 270.554 L 566.333 270.733 L 557.979 270.395 Z"/>
    <path style="fill: rgb(216, 216, 216);" d="M 515.513 270.639 L 523.847 270.56 L 530.994 270.798 L 523.867 270.977 L 515.513 270.639 Z"/>
    <path style="fill: rgb(216, 216, 216);" d="M 451.996 270.395 L 460.33 270.316 L 467.477 270.554 L 460.35 270.733 L 451.996 270.395 Z"/>
    <path style="fill: rgb(216, 216, 216);" d="M 427.903 244.843 L 436.237 244.764 L 443.384 245.002 L 436.257 245.181 L 427.903 244.843 Z"/>
    <path style="fill: rgb(216, 216, 216);" d="M 495.026 283.676 L 503.36 283.597 L 510.507 283.835 L 503.38 284.014 L 495.026 283.676 Z"/>
    <path style="fill: rgb(216, 216, 216);" d="M 466.484 285.959 L 474.818 285.88 L 481.965 286.118 L 474.838 286.297 L 466.484 285.959 Z"/>
    <path style="fill: rgb(216, 216, 216);" d="M 432.233 294.522 L 440.567 294.443 L 447.714 294.681 L 440.587 294.86 L 432.233 294.522 Z"/>
    <path style="fill: rgb(216, 216, 216);" d="M 405.404 299.089 L 413.738 299.01 L 420.885 299.248 L 413.758 299.427 L 405.404 299.089 Z"/>
    <path style="fill: rgb(216, 216, 216);" d="M 444.792 301.372 L 453.126 301.293 L 460.273 301.531 L 453.146 301.71 L 444.792 301.372 Z"/>
    <path style="fill: rgb(216, 216, 216);" d="M 474.803 295.542 L 483.137 295.463 L 490.284 295.701 L 483.157 295.88 L 474.803 295.542 Z"/>
    <path style="fill: rgb(216, 216, 216);" d="M 437.612 285.893 L 445.946 285.814 L 453.093 286.052 L 445.966 286.231 L 437.612 285.893 Z"/>
    <path style="fill: rgb(216, 216, 216);" d="M 398.411 292.125 L 406.745 292.046 L 413.892 292.284 L 406.765 292.463 L 398.411 292.125 Z"/>
    <path style="fill: rgb(216, 216, 216);" d="M 395.194 307.202 L 403.528 307.123 L 410.675 307.361 L 403.548 307.54 L 395.194 307.202 Z"/>
    <path style="fill: rgb(216, 216, 216);" d="M 400.622 318.259 L 408.956 318.18 L 416.103 318.418 L 408.976 318.597 L 400.622 318.259 Z"/>
    <path style="fill: rgb(216, 216, 216);" d="M 432.988 312.429 L 441.322 312.35 L 448.469 312.588 L 441.342 312.767 L 432.988 312.429 Z"/>
    <path style="fill: rgb(216, 216, 216);" d="M 468.772 309.413 L 477.106 309.334 L 484.253 309.572 L 477.126 309.751 L 468.772 309.413 Z"/>
    <path style="fill: rgb(216, 216, 216);" d="M 505.963 309.413 L 514.297 309.334 L 521.444 309.572 L 514.317 309.751 L 505.963 309.413 Z"/>
    <path style="fill: rgb(216, 216, 216);" d="M 507.772 297.954 L 516.106 297.875 L 523.253 298.113 L 516.126 298.292 L 507.772 297.954 Z"/>
    <path style="fill: rgb(216, 216, 216);" d="M 539.536 293.733 L 547.87 293.654 L 555.017 293.892 L 547.89 294.071 L 539.536 293.733 Z"/>
    <path style="fill: rgb(216, 216, 216);" d="M 538.33 304.187 L 546.664 304.108 L 553.811 304.346 L 546.684 304.525 L 538.33 304.187 Z"/>
    <path style="fill: rgb(216, 216, 216);" d="M 553.648 301.756 L 567.918 301.696 L 579.904 301.963 L 567.918 302.112 L 553.648 301.756 Z"/>
    <path style="fill: rgb(216, 216, 216);" d="M 551.839 312.812 L 566.109 312.752 L 578.095 313.019 L 566.109 313.168 L 551.839 312.812 Z"/>
    <path style="fill: rgb(216, 216, 216);" d="M 520.679 299.544 L 534.949 299.484 L 546.935 299.751 L 534.949 299.9 L 520.679 299.544 Z"/>
    <path style="fill: rgb(216, 216, 216);" d="M 518.468 322.864 L 532.738 322.804 L 544.724 323.071 L 532.738 323.22 L 518.468 322.864 Z"/>
    <path style="fill: rgb(216, 216, 216);" d="M 558.071 318.039 L 572.341 317.979 L 584.327 318.246 L 572.341 318.395 L 558.071 318.039 Z"/>
    <path style="fill: rgb(216, 216, 216);" d="M 480.07 318.039 L 494.34 317.979 L 506.326 318.246 L 494.34 318.395 L 480.07 318.039 Z"/>
    <path style="fill: rgb(216, 216, 216);" d="M 480.472 304.369 L 494.742 304.309 L 506.728 304.576 L 494.742 304.725 L 480.472 304.369 Z"/>
    <path style="fill: rgb(216, 216, 216);" d="M 417.348 306.178 L 431.618 306.118 L 443.604 306.385 L 431.618 306.534 L 417.348 306.178 Z"/>
    <path style="fill: rgb(216, 216, 216);" d="M 417.951 326.282 L 432.221 326.222 L 444.207 326.489 L 432.221 326.638 L 417.951 326.282 Z"/>
    <path style="fill: rgb(216, 216, 216);" d="M 390.41 326.282 L 404.68 326.222 L 416.666 326.489 L 404.68 326.638 L 390.41 326.282 Z"/>
    <path style="fill: rgb(216, 216, 216);" d="M 425.59 319.849 L 439.86 319.789 L 451.846 320.056 L 439.86 320.205 L 425.59 319.849 Z"/>
    <path style="fill: rgb(216, 216, 216);" d="M 469.416 324.673 L 483.686 324.613 L 495.672 324.88 L 483.686 325.029 L 469.416 324.673 Z"/>
    <path style="fill: rgb(216, 216, 216);" d="M 550.432 327.086 L 564.702 327.026 L 576.688 327.293 L 564.702 327.442 L 550.432 327.086 Z"/>
    <path style="fill: rgb(216, 216, 216);" d="M 515.854 316.029 L 530.124 315.969 L 542.11 316.236 L 530.124 316.385 L 515.854 316.029 Z"/>
    <path style="fill: rgb(216, 216, 216);" d="M 501.782 327.89 L 516.052 327.83 L 528.038 328.097 L 516.052 328.246 L 501.782 327.89 Z"/>
    <path style="fill: rgb(216, 216, 216);" d="M 448.106 329.498 L 462.376 329.438 L 474.362 329.705 L 462.376 329.854 L 448.106 329.498 Z"/>
    <path style="fill: rgb(216, 216, 216);" d="M 402.07 313.818 L 416.34 313.758 L 428.326 314.025 L 416.34 314.174 L 402.07 313.818 Z"/>
    <path style="fill: rgb(216, 216, 216);" d="M 403.276 279.039 L 417.546 278.979 L 429.532 279.246 L 417.546 279.395 L 403.276 279.039 Z"/>
    <path style="fill: rgb(216, 216, 216);" d="M 461.977 277.632 L 476.247 277.572 L 488.233 277.839 L 476.247 277.988 L 461.977 277.632 Z"/>
    <path style="fill: rgb(216, 216, 216);" d="M 528.117 277.431 L 542.387 277.371 L 554.373 277.638 L 542.387 277.787 L 528.117 277.431 Z"/>
    <path style="fill: rgb(216, 216, 216);" d="M 555.257 288.89 L 569.527 288.83 L 581.513 289.097 L 569.527 289.246 L 555.257 288.89 Z"/>
    <path style="fill: rgb(216, 216, 216);" d="M 493.942 290.699 L 508.212 290.639 L 520.198 290.906 L 508.212 291.055 L 493.942 290.699 Z"/>
    <path style="fill: rgb(216, 216, 216);" d="M 300.106 223.914 L 314.376 223.854 L 326.362 224.121 L 314.376 224.27 L 300.106 223.914 Z"/>
    <path style="fill: rgb(216, 216, 216);" d="M 261.925 233.726 L 276.195 233.666 L 288.181 233.933 L 276.195 234.082 L 261.925 233.726 Z"/>
    <path style="fill: rgb(216, 216, 216);" d="M 325.792 232.811 L 340.062 232.751 L 352.048 233.018 L 340.062 233.167 L 325.792 232.811 Z"/>
    <path style="fill: rgb(216, 216, 216);" d="M 350.638 242.414 L 364.908 242.354 L 376.894 242.621 L 364.908 242.77 L 350.638 242.414 Z"/>
    <path style="fill: rgb(216, 216, 216);" d="M 307.501 237.536 L 321.771 237.476 L 333.757 237.743 L 321.771 237.892 L 307.501 237.536 Z"/>
    <path style="fill: rgb(216, 216, 216);" d="M 351.248 225.495 L 365.518 225.435 L 377.504 225.702 L 365.518 225.851 L 351.248 225.495 Z"/>
    <path style="fill: rgb(216, 216, 216);" d="M 373.198 229.763 L 387.468 229.703 L 399.454 229.97 L 387.468 230.119 L 373.198 229.763 Z"/>
    <path style="fill: rgb(216, 216, 216);" d="M 371.673 237.384 L 385.943 237.324 L 397.929 237.591 L 385.943 237.74 L 371.673 237.384 Z"/>
    <path style="fill: rgb(216, 216, 216);" d="M 192.875 225.495 L 207.145 225.435 L 219.131 225.702 L 207.145 225.851 L 192.875 225.495 Z"/>
    <path style="fill: rgb(216, 216, 216);" d="M 203.392 230.83 L 217.662 230.77 L 229.648 231.037 L 217.662 231.186 L 203.392 230.83 Z"/>
    <path style="fill: rgb(216, 216, 216);" d="M 239.823 226.714 L 254.093 226.654 L 266.079 226.921 L 254.093 227.07 L 239.823 226.714 Z"/>
    <path style="fill: rgb(216, 216, 216);" d="M 196.838 241.652 L 211.108 241.592 L 223.094 241.859 L 211.108 242.008 L 196.838 241.652 Z"/>
    <path style="fill: rgb(216, 216, 216);" d="M 205.526 236.469 L 219.796 236.409 L 231.782 236.676 L 219.796 236.825 L 205.526 236.469 Z"/>
    <path style="fill: rgb(216, 216, 216);" d="M 377.77 257.352 L 392.04 257.292 L 404.026 257.559 L 392.04 257.708 L 377.77 257.352 Z"/>
    <path style="fill: rgb(216, 216, 216);" d="M 326.25 262.992 L 340.52 262.932 L 352.506 263.199 L 340.52 263.348 L 326.25 262.992 Z"/>
    <path style="fill: rgb(216, 216, 216);" d="M 245.615 252.017 L 259.885 251.957 L 271.871 252.224 L 259.885 252.373 L 245.615 252.017 Z"/>
    <path style="fill: rgb(216, 216, 216);" d="M 227.476 274.424 L 241.746 274.364 L 253.732 274.631 L 241.746 274.78 L 227.476 274.424 Z"/>
    <path style="fill: rgb(216, 216, 216);" d="M 199.124 266.65 L 213.394 266.59 L 225.38 266.857 L 213.394 267.006 L 199.124 266.65 Z"/>
    <path style="fill: rgb(216, 216, 216);" d="M 368.32 277.32 L 382.59 277.26 L 394.576 277.527 L 382.59 277.676 L 368.32 277.32 Z"/>
    <path style="fill: rgb(216, 216, 216);" d="M 284.332 268.175 L 298.602 268.115 L 310.588 268.382 L 298.602 268.531 L 284.332 268.175 Z"/>
    <path style="fill: rgb(216, 216, 216);" d="M 297.898 254.913 L 312.168 254.853 L 324.154 255.12 L 312.168 255.269 L 297.898 254.913 Z"/>
    <path style="fill: rgb(216, 216, 216);" d="M 195.161 281.283 L 209.431 281.223 L 221.417 281.49 L 209.431 281.639 L 195.161 281.283 Z"/>
    <path style="fill: rgb(216, 216, 216);" d="M 205.221 256.285 L 219.491 256.225 L 231.477 256.492 L 219.491 256.641 L 205.221 256.285 Z"/>
    <path style="fill: rgb(216, 216, 216);" d="M 321.219 280.369 L 335.489 280.309 L 347.475 280.576 L 335.489 280.725 L 321.219 280.369 Z"/>
    <path style="fill: rgb(216, 216, 216);" d="M 314.072 241.051 L 322.406 240.972 L 329.553 241.21 L 322.426 241.389 L 314.072 241.051 Z"/>
    <path style="fill: rgb(216, 216, 216);" d="M 331.637 226.064 L 339.971 225.985 L 347.118 226.223 L 339.991 226.402 L 331.637 226.064 Z"/>
    <path style="fill: rgb(216, 216, 216);" d="M 295.863 228.497 L 304.197 228.418 L 311.344 228.656 L 304.217 228.835 L 295.863 228.497 Z"/>
    <path style="fill: rgb(216, 216, 216);" d="M 264.956 222.17 L 273.29 222.091 L 280.437 222.329 L 273.31 222.508 L 264.956 222.17 Z"/>
    <path style="fill: rgb(216, 216, 216);" d="M 228.088 222.292 L 236.422 222.213 L 243.569 222.451 L 236.442 222.63 L 228.088 222.292 Z"/>
    <path style="fill: rgb(216, 216, 216);" d="M 233.806 231.661 L 242.14 231.582 L 249.287 231.82 L 242.16 231.999 L 233.806 231.661 Z"/>
    <path style="fill: rgb(216, 216, 216);" d="M 273.231 229.227 L 281.565 229.148 L 288.712 229.386 L 281.585 229.565 L 273.231 229.227 Z"/>
    <path style="fill: rgb(216, 216, 216);" d="M 281.261 240.179 L 289.595 240.1 L 296.742 240.338 L 289.615 240.517 L 281.261 240.179 Z"/>
    <path style="fill: rgb(216, 216, 216);" d="M 242.811 237.867 L 251.145 237.788 L 258.292 238.026 L 251.165 238.205 L 242.811 237.867 Z"/>
    <path style="fill: rgb(216, 216, 216);" d="M 227.966 246.019 L 236.3 245.94 L 243.447 246.178 L 236.32 246.357 L 227.966 246.019 Z"/>
    <path style="fill: rgb(216, 216, 216);" d="M 210.566 249.426 L 218.9 249.347 L 226.047 249.585 L 218.92 249.764 L 210.566 249.426 Z"/>
    <path style="fill: rgb(216, 216, 216);" d="M 261.549 243.464 L 269.883 243.385 L 277.03 243.623 L 269.903 243.802 L 261.549 243.464 Z"/>
    <path style="fill: rgb(216, 216, 216);" d="M 276.638 247.723 L 284.972 247.644 L 292.119 247.882 L 284.992 248.061 L 276.638 247.723 Z"/>
    <path style="fill: rgb(216, 216, 216);" d="M 306.814 247.114 L 315.148 247.035 L 322.295 247.273 L 315.168 247.452 L 306.814 247.114 Z"/>
    <path style="fill: rgb(216, 216, 216);" d="M 331.88 246.749 L 340.214 246.67 L 347.361 246.908 L 340.234 247.087 L 331.88 246.749 Z"/>
    <path style="fill: rgb(216, 216, 216);" d="M 359.501 257.7 L 367.835 257.621 L 374.982 257.859 L 367.855 258.038 L 359.501 257.7 Z"/>
    <path style="fill: rgb(216, 216, 216);" d="M 355.608 232.999 L 363.942 232.92 L 371.089 233.158 L 363.962 233.337 L 355.608 232.999 Z"/>
    <path style="fill: rgb(216, 216, 216);" d="M 267.633 258.674 L 275.967 258.595 L 283.114 258.833 L 275.987 259.012 L 267.633 258.674 Z"/>
    <path style="fill: rgb(216, 216, 216);" d="M 216.771 261.229 L 225.105 261.15 L 232.252 261.388 L 225.125 261.567 L 216.771 261.229 Z"/>
    <path style="fill: rgb(216, 216, 216);" d="M 242.567 258.43 L 250.901 258.351 L 258.048 258.589 L 250.921 258.768 L 242.567 258.43 Z"/>
    <path style="fill: rgb(216, 216, 216);" d="M 228.574 265.245 L 236.908 265.166 L 244.055 265.404 L 236.928 265.583 L 228.574 265.245 Z"/>
    <path style="fill: rgb(216, 216, 216);" d="M 225.289 252.59 L 233.623 252.511 L 240.77 252.749 L 233.643 252.928 L 225.289 252.59 Z"/>
    <path style="fill: rgb(216, 216, 216);" d="M 284.303 263.298 L 292.637 263.219 L 299.784 263.457 L 292.657 263.636 L 284.303 263.298 Z"/>
    <path style="fill: rgb(216, 216, 216);" d="M 335.652 254.415 L 343.986 254.336 L 351.133 254.574 L 344.006 254.753 L 335.652 254.415 Z"/>
    <path style="fill: rgb(216, 216, 216);" d="M 356.946 266.218 L 365.28 266.139 L 372.427 266.377 L 365.3 266.556 L 356.946 266.218 Z"/>
    <path style="fill: rgb(216, 216, 216);" d="M 314.48 266.461 L 322.814 266.382 L 329.961 266.62 L 322.834 266.799 L 314.48 266.461 Z"/>
    <path style="fill: rgb(216, 216, 216);" d="M 250.963 266.218 L 259.297 266.139 L 266.444 266.377 L 259.317 266.556 L 250.963 266.218 Z"/>
    <path style="fill: rgb(216, 216, 216);" d="M 226.871 240.665 L 235.205 240.586 L 242.352 240.824 L 235.225 241.003 L 226.871 240.665 Z"/>
    <path style="fill: rgb(216, 216, 216);" d="M 293.993 279.499 L 302.327 279.42 L 309.474 279.658 L 302.347 279.837 L 293.993 279.499 Z"/>
    <path style="fill: rgb(216, 216, 216);" d="M 265.451 281.782 L 273.785 281.703 L 280.932 281.941 L 273.805 282.12 L 265.451 281.782 Z"/>
    <path style="fill: rgb(216, 216, 216);" d="M 231.2 290.345 L 239.534 290.266 L 246.681 290.504 L 239.554 290.683 L 231.2 290.345 Z"/>
    <path style="fill: rgb(216, 216, 216);" d="M 204.371 294.911 L 212.705 294.832 L 219.852 295.07 L 212.725 295.249 L 204.371 294.911 Z"/>
    <path style="fill: rgb(216, 216, 216);" d="M 243.759 297.195 L 252.093 297.116 L 259.24 297.354 L 252.113 297.533 L 243.759 297.195 Z"/>
    <path style="fill: rgb(216, 216, 216);" d="M 273.77 291.365 L 282.104 291.286 L 289.251 291.524 L 282.124 291.703 L 273.77 291.365 Z"/>
    <path style="fill: rgb(216, 216, 216);" d="M 236.579 281.715 L 244.913 281.636 L 252.06 281.874 L 244.933 282.053 L 236.579 281.715 Z"/>
    <path style="fill: rgb(216, 216, 216);" d="M 197.378 287.947 L 205.712 287.868 L 212.859 288.106 L 205.732 288.285 L 197.378 287.947 Z"/>
    <path style="fill: rgb(216, 216, 216);" d="M 194.161 303.025 L 202.495 302.946 L 209.642 303.184 L 202.515 303.363 L 194.161 303.025 Z"/>
    <path style="fill: rgb(216, 216, 216);" d="M 199.589 314.081 L 207.923 314.002 L 215.07 314.24 L 207.943 314.419 L 199.589 314.081 Z"/>
    <path style="fill: rgb(216, 216, 216);" d="M 231.956 308.252 L 240.29 308.173 L 247.437 308.411 L 240.31 308.59 L 231.956 308.252 Z"/>
    <path style="fill: rgb(216, 216, 216);" d="M 267.739 305.236 L 276.073 305.157 L 283.22 305.395 L 276.093 305.574 L 267.739 305.236 Z"/>
    <path style="fill: rgb(216, 216, 216);" d="M 304.931 305.236 L 313.265 305.157 L 320.412 305.395 L 313.285 305.574 L 304.931 305.236 Z"/>
    <path style="fill: rgb(216, 216, 216);" d="M 306.74 293.777 L 315.074 293.698 L 322.221 293.936 L 315.094 294.115 L 306.74 293.777 Z"/>
    <path style="fill: rgb(216, 216, 216);" d="M 338.503 289.555 L 346.837 289.476 L 353.984 289.714 L 346.857 289.893 L 338.503 289.555 Z"/>
    <path style="fill: rgb(216, 216, 216);" d="M 337.297 300.009 L 345.631 299.93 L 352.778 300.168 L 345.651 300.347 L 337.297 300.009 Z"/>
    <path style="fill: rgb(216, 216, 216);" d="M 352.616 297.578 L 366.886 297.518 L 378.872 297.785 L 366.886 297.934 L 352.616 297.578 Z"/>
    <path style="fill: rgb(216, 216, 216);" d="M 350.806 308.635 L 365.076 308.575 L 377.062 308.842 L 365.076 308.991 L 350.806 308.635 Z"/>
    <path style="fill: rgb(216, 216, 216);" d="M 319.646 295.367 L 333.916 295.307 L 345.902 295.574 L 333.916 295.723 L 319.646 295.367 Z"/>
    <path style="fill: rgb(216, 216, 216);" d="M 317.435 318.687 L 331.705 318.627 L 343.691 318.894 L 331.705 319.043 L 317.435 318.687 Z"/>
    <path style="fill: rgb(216, 216, 216);" d="M 357.039 313.862 L 371.309 313.802 L 383.295 314.069 L 371.309 314.218 L 357.039 313.862 Z"/>
    <path style="fill: rgb(216, 216, 216);" d="M 279.038 313.862 L 293.308 313.802 L 305.294 314.069 L 293.308 314.218 L 279.038 313.862 Z"/>
    <path style="fill: rgb(216, 216, 216);" d="M 279.44 300.192 L 293.71 300.132 L 305.696 300.399 L 293.71 300.548 L 279.44 300.192 Z"/>
    <path style="fill: rgb(216, 216, 216);" d="M 216.315 302.001 L 230.585 301.941 L 242.571 302.208 L 230.585 302.357 L 216.315 302.001 Z"/>
    <path style="fill: rgb(216, 216, 216);" d="M 216.919 322.104 L 231.189 322.044 L 243.175 322.311 L 231.189 322.46 L 216.919 322.104 Z"/>
    <path style="fill: rgb(216, 216, 216);" d="M 189.377 322.104 L 203.647 322.044 L 215.633 322.311 L 203.647 322.46 L 189.377 322.104 Z"/>
    <path style="fill: rgb(216, 216, 216);" d="M 224.558 315.671 L 238.828 315.611 L 250.814 315.878 L 238.828 316.027 L 224.558 315.671 Z"/>
    <path style="fill: rgb(216, 216, 216);" d="M 268.383 320.496 L 282.653 320.436 L 294.639 320.703 L 282.653 320.852 L 268.383 320.496 Z"/>
    <path style="fill: rgb(216, 216, 216);" d="M 349.399 322.908 L 363.669 322.848 L 375.655 323.115 L 363.669 323.264 L 349.399 322.908 Z"/>
    <path style="fill: rgb(216, 216, 216);" d="M 314.822 311.852 L 329.092 311.792 L 341.078 312.059 L 329.092 312.208 L 314.822 311.852 Z"/>
    <path style="fill: rgb(216, 216, 216);" d="M 300.749 323.713 L 315.019 323.653 L 327.005 323.92 L 315.019 324.069 L 300.749 323.713 Z"/>
    <path style="fill: rgb(216, 216, 216);" d="M 247.073 325.321 L 261.343 325.261 L 273.329 325.528 L 261.343 325.677 L 247.073 325.321 Z"/>
    <path style="fill: rgb(216, 216, 216);" d="M 201.037 309.64 L 215.307 309.58 L 227.293 309.847 L 215.307 309.996 L 201.037 309.64 Z"/>
    <path style="fill: rgb(216, 216, 216);" d="M 202.243 274.862 L 216.513 274.802 L 228.499 275.069 L 216.513 275.218 L 202.243 274.862 Z"/>
    <path style="fill: rgb(216, 216, 216);" d="M 260.945 273.454 L 275.215 273.394 L 287.201 273.661 L 275.215 273.81 L 260.945 273.454 Z"/>
    <path style="fill: rgb(216, 216, 216);" d="M 327.085 273.253 L 341.355 273.193 L 353.341 273.46 L 341.355 273.609 L 327.085 273.253 Z"/>
    <path style="fill: rgb(216, 216, 216);" d="M 354.224 284.712 L 368.494 284.652 L 380.48 284.919 L 368.494 285.068 L 354.224 284.712 Z"/>
    <path style="fill: rgb(216, 216, 216);" d="M 292.909 286.521 L 307.179 286.461 L 319.165 286.728 L 307.179 286.877 L 292.909 286.521 Z"/>
    <path style="fill: rgb(216, 216, 216);" d="M 96.462 226.003 L 110.732 225.943 L 122.718 226.21 L 110.732 226.359 L 96.462 226.003 Z"/>
    <path style="fill: rgb(216, 216, 216);" d="M 58.281 235.814 L 72.551 235.754 L 84.537 236.021 L 72.551 236.17 L 58.281 235.814 Z"/>
    <path style="fill: rgb(216, 216, 216);" d="M 122.149 234.9 L 136.419 234.84 L 148.405 235.107 L 136.419 235.256 L 122.149 234.9 Z"/>
    <path style="fill: rgb(216, 216, 216);" d="M 146.995 244.503 L 161.265 244.443 L 173.251 244.71 L 161.265 244.859 L 146.995 244.503 Z"/>
    <path style="fill: rgb(216, 216, 216);" d="M 103.857 239.625 L 118.127 239.565 L 130.113 239.832 L 118.127 239.981 L 103.857 239.625 Z"/>
    <path style="fill: rgb(216, 216, 216);" d="M 147.604 227.583 L 161.874 227.523 L 173.86 227.79 L 161.874 227.939 L 147.604 227.583 Z"/>
    <path style="fill: rgb(216, 216, 216);" d="M 169.554 231.851 L 183.824 231.791 L 195.81 232.058 L 183.824 232.207 L 169.554 231.851 Z"/>
    <path style="fill: rgb(216, 216, 216);" d="M 168.03 239.473 L 182.3 239.413 L 194.286 239.68 L 182.3 239.829 L 168.03 239.473 Z"/>
    <path style="fill: rgb(216, 216, 216);" d="M -0.251 232.918 L 14.019 232.858 L 26.005 233.125 L 14.019 233.274 L -0.251 232.918 Z"/>
    <path style="fill: rgb(216, 216, 216);" d="M 36.179 228.803 L 50.449 228.743 L 62.435 229.01 L 50.449 229.159 L 36.179 228.803 Z"/>
    <path style="fill: rgb(216, 216, 216);" d="M 1.883 238.558 L 16.153 238.498 L 28.139 238.765 L 16.153 238.914 L 1.883 238.558 Z"/>
    <path style="fill: rgb(216, 216, 216);" d="M 174.127 259.441 L 188.397 259.381 L 200.383 259.648 L 188.397 259.797 L 174.127 259.441 Z"/>
    <path style="fill: rgb(216, 216, 216);" d="M 122.606 265.081 L 136.876 265.021 L 148.862 265.288 L 136.876 265.437 L 122.606 265.081 Z"/>
    <path style="fill: rgb(216, 216, 216);" d="M 41.971 254.106 L 56.241 254.046 L 68.227 254.313 L 56.241 254.462 L 41.971 254.106 Z"/>
    <path style="fill: rgb(216, 216, 216);" d="M 23.832 276.513 L 38.102 276.453 L 50.088 276.72 L 38.102 276.869 L 23.832 276.513 Z"/>
    <path style="fill: rgb(216, 216, 216);" d="M 164.676 279.409 L 178.946 279.349 L 190.932 279.616 L 178.946 279.765 L 164.676 279.409 Z"/>
    <path style="fill: rgb(216, 216, 216);" d="M 80.688 270.263 L 94.958 270.203 L 106.944 270.47 L 94.958 270.619 L 80.688 270.263 Z"/>
    <path style="fill: rgb(216, 216, 216);" d="M 94.254 257.002 L 108.524 256.942 L 120.51 257.209 L 108.524 257.358 L 94.254 257.002 Z"/>
    <path style="fill: rgb(216, 216, 216);" d="M 1.578 258.374 L 15.848 258.314 L 27.834 258.581 L 15.848 258.73 L 1.578 258.374 Z"/>
    <path style="fill: rgb(216, 216, 216);" d="M 117.576 282.458 L 131.846 282.398 L 143.832 282.665 L 131.846 282.814 L 117.576 282.458 Z"/>
    <path style="fill: rgb(216, 216, 216);" d="M 110.428 243.14 L 118.762 243.061 L 125.909 243.299 L 118.782 243.478 L 110.428 243.14 Z"/>
    <path style="fill: rgb(216, 216, 216);" d="M 127.993 228.152 L 136.327 228.073 L 143.474 228.311 L 136.347 228.49 L 127.993 228.152 Z"/>
    <path style="fill: rgb(216, 216, 216);" d="M 92.22 230.586 L 100.554 230.507 L 107.701 230.745 L 100.574 230.924 L 92.22 230.586 Z"/>
    <path style="fill: rgb(216, 216, 216);" d="M 61.313 224.259 L 69.647 224.18 L 76.794 224.418 L 69.667 224.597 L 61.313 224.259 Z"/>
    <path style="fill: rgb(216, 216, 216);" d="M 24.444 224.38 L 32.778 224.301 L 39.925 224.539 L 32.798 224.718 L 24.444 224.38 Z"/>
    <path style="fill: rgb(216, 216, 216);" d="M 30.163 233.75 L 38.497 233.671 L 45.644 233.909 L 38.517 234.088 L 30.163 233.75 Z"/>
    <path style="fill: rgb(216, 216, 216);" d="M 69.587 231.316 L 77.921 231.237 L 85.068 231.475 L 77.941 231.654 L 69.587 231.316 Z"/>
    <path style="fill: rgb(216, 216, 216);" d="M 77.618 242.267 L 85.952 242.188 L 93.099 242.426 L 85.972 242.605 L 77.618 242.267 Z"/>
    <path style="fill: rgb(216, 216, 216);" d="M 39.167 239.955 L 47.501 239.876 L 54.648 240.114 L 47.521 240.293 L 39.167 239.955 Z"/>
    <path style="fill: rgb(216, 216, 216);" d="M 24.322 248.108 L 32.656 248.029 L 39.803 248.267 L 32.676 248.446 L 24.322 248.108 Z"/>
    <path style="fill: rgb(216, 216, 216);" d="M 6.922 251.515 L 15.256 251.436 L 22.403 251.674 L 15.276 251.853 L 6.922 251.515 Z"/>
    <path style="fill: rgb(216, 216, 216);" d="M 57.906 245.553 L 66.24 245.474 L 73.387 245.712 L 66.26 245.891 L 57.906 245.553 Z"/>
    <path style="fill: rgb(216, 216, 216);" d="M 72.994 249.811 L 81.328 249.732 L 88.475 249.97 L 81.348 250.149 L 72.994 249.811 Z"/>
    <path style="fill: rgb(216, 216, 216);" d="M 103.171 249.203 L 111.505 249.124 L 118.652 249.362 L 111.525 249.541 L 103.171 249.203 Z"/>
    <path style="fill: rgb(216, 216, 216);" d="M 128.237 248.838 L 136.571 248.759 L 143.718 248.997 L 136.591 249.176 L 128.237 248.838 Z"/>
    <path style="fill: rgb(216, 216, 216);" d="M 155.858 259.789 L 164.192 259.71 L 171.339 259.948 L 164.212 260.127 L 155.858 259.789 Z"/>
    <path style="fill: rgb(216, 216, 216);" d="M 151.964 235.088 L 160.298 235.009 L 167.445 235.247 L 160.318 235.426 L 151.964 235.088 Z"/>
    <path style="fill: rgb(216, 216, 216);" d="M 63.99 260.762 L 72.324 260.683 L 79.471 260.921 L 72.344 261.1 L 63.99 260.762 Z"/>
    <path style="fill: rgb(216, 216, 216);" d="M 13.128 263.318 L 21.462 263.239 L 28.609 263.477 L 21.482 263.656 L 13.128 263.318 Z"/>
    <path style="fill: rgb(216, 216, 216);" d="M 38.924 260.519 L 47.258 260.44 L 54.405 260.678 L 47.278 260.857 L 38.924 260.519 Z"/>
    <path style="fill: rgb(216, 216, 216);" d="M 24.931 267.333 L 33.265 267.254 L 40.412 267.492 L 33.285 267.671 L 24.931 267.333 Z"/>
    <path style="fill: rgb(216, 216, 216);" d="M 21.645 254.678 L 29.979 254.599 L 37.126 254.837 L 29.999 255.016 L 21.645 254.678 Z"/>
    <path style="fill: rgb(216, 216, 216);" d="M 80.66 265.386 L 88.994 265.307 L 96.141 265.545 L 89.014 265.724 L 80.66 265.386 Z"/>
    <path style="fill: rgb(216, 216, 216);" d="M 132.009 256.504 L 140.343 256.425 L 147.49 256.663 L 140.363 256.842 L 132.009 256.504 Z"/>
    <path style="fill: rgb(216, 216, 216);" d="M 153.303 268.307 L 161.637 268.228 L 168.784 268.466 L 161.657 268.645 L 153.303 268.307 Z"/>
    <path style="fill: rgb(216, 216, 216);" d="M 110.837 268.55 L 119.171 268.471 L 126.318 268.709 L 119.191 268.888 L 110.837 268.55 Z"/>
    <path style="fill: rgb(216, 216, 216);" d="M 47.32 268.307 L 55.654 268.228 L 62.801 268.466 L 55.674 268.645 L 47.32 268.307 Z"/>
    <path style="fill: rgb(216, 216, 216);" d="M 23.227 242.754 L 31.561 242.675 L 38.708 242.913 L 31.581 243.092 L 23.227 242.754 Z"/>
    <path style="fill: rgb(216, 216, 216);" d="M 90.35 281.587 L 98.684 281.508 L 105.831 281.746 L 98.704 281.925 L 90.35 281.587 Z"/>
    <path style="fill: rgb(216, 216, 216);" d="M 61.808 283.871 L 70.142 283.792 L 77.289 284.03 L 70.162 284.209 L 61.808 283.871 Z"/>
    <path style="fill: rgb(216, 216, 216);" d="M 27.557 292.433 L 35.891 292.354 L 43.038 292.592 L 35.911 292.771 L 27.557 292.433 Z"/>
    <path style="fill: rgb(216, 216, 216);" d="M 0.727 297 L 9.061 296.921 L 16.208 297.159 L 9.081 297.338 L 0.727 297 Z"/>
    <path style="fill: rgb(216, 216, 216);" d="M 40.116 299.283 L 48.45 299.204 L 55.597 299.442 L 48.47 299.621 L 40.116 299.283 Z"/>
    <path style="fill: rgb(216, 216, 216);" d="M 70.127 293.453 L 78.461 293.374 L 85.608 293.612 L 78.481 293.791 L 70.127 293.453 Z"/>
    <path style="fill: rgb(216, 216, 216);" d="M 32.936 283.804 L 41.27 283.725 L 48.417 283.963 L 41.29 284.142 L 32.936 283.804 Z"/>
    <path style="fill: rgb(216, 216, 216);" d="M 28.312 310.34 L 36.646 310.261 L 43.793 310.499 L 36.666 310.678 L 28.312 310.34 Z"/>
    <path style="fill: rgb(216, 216, 216);" d="M 64.096 307.325 L 72.43 307.246 L 79.577 307.484 L 72.45 307.663 L 64.096 307.325 Z"/>
    <path style="fill: rgb(216, 216, 216);" d="M 101.287 307.325 L 109.621 307.246 L 116.768 307.484 L 109.641 307.663 L 101.287 307.325 Z"/>
    <path style="fill: rgb(216, 216, 216);" d="M 103.096 295.866 L 111.43 295.787 L 118.577 296.025 L 111.45 296.204 L 103.096 295.866 Z"/>
    <path style="fill: rgb(216, 216, 216);" d="M 134.86 291.644 L 143.194 291.565 L 150.341 291.803 L 143.214 291.982 L 134.86 291.644 Z"/>
    <path style="fill: rgb(216, 216, 216);" d="M 133.653 302.098 L 141.987 302.019 L 149.134 302.257 L 142.007 302.436 L 133.653 302.098 Z"/>
    <path style="fill: rgb(216, 216, 216);" d="M 148.972 299.667 L 163.242 299.607 L 175.228 299.874 L 163.242 300.023 L 148.972 299.667 Z"/>
    <path style="fill: rgb(216, 216, 216);" d="M 147.163 310.724 L 161.433 310.664 L 173.419 310.931 L 161.433 311.08 L 147.163 310.724 Z"/>
    <path style="fill: rgb(216, 216, 216);" d="M 116.003 297.456 L 130.273 297.396 L 142.259 297.663 L 130.273 297.812 L 116.003 297.456 Z"/>
    <path style="fill: rgb(216, 216, 216);" d="M 113.792 320.775 L 128.062 320.715 L 140.048 320.982 L 128.062 321.131 L 113.792 320.775 Z"/>
    <path style="fill: rgb(216, 216, 216);" d="M 153.395 315.951 L 167.665 315.891 L 179.651 316.158 L 167.665 316.307 L 153.395 315.951 Z"/>
    <path style="fill: rgb(216, 216, 216);" d="M 75.394 315.951 L 89.664 315.891 L 101.65 316.158 L 89.664 316.307 L 75.394 315.951 Z"/>
    <path style="fill: rgb(216, 216, 216);" d="M 75.796 302.28 L 90.066 302.22 L 102.052 302.487 L 90.066 302.636 L 75.796 302.28 Z"/>
    <path style="fill: rgb(216, 216, 216);" d="M 12.672 304.09 L 26.942 304.03 L 38.928 304.297 L 26.942 304.446 L 12.672 304.09 Z"/>
    <path style="fill: rgb(216, 216, 216);" d="M 13.275 324.193 L 27.545 324.133 L 39.531 324.4 L 27.545 324.549 L 13.275 324.193 Z"/>
    <path style="fill: rgb(216, 216, 216);" d="M 20.914 317.76 L 35.184 317.7 L 47.17 317.967 L 35.184 318.116 L 20.914 317.76 Z"/>
    <path style="fill: rgb(216, 216, 216);" d="M 64.739 322.585 L 79.009 322.525 L 90.995 322.792 L 79.009 322.941 L 64.739 322.585 Z"/>
    <path style="fill: rgb(216, 216, 216);" d="M 145.756 324.997 L 160.026 324.937 L 172.012 325.204 L 160.026 325.353 L 145.756 324.997 Z"/>
    <path style="fill: rgb(216, 216, 216);" d="M 111.178 313.94 L 125.448 313.88 L 137.434 314.147 L 125.448 314.296 L 111.178 313.94 Z"/>
    <path style="fill: rgb(216, 216, 216);" d="M 97.106 325.801 L 111.376 325.741 L 123.362 326.008 L 111.376 326.157 L 97.106 325.801 Z"/>
    <path style="fill: rgb(216, 216, 216);" d="M 43.43 327.409 L 57.7 327.349 L 69.686 327.616 L 57.7 327.765 L 43.43 327.409 Z"/>
    <path style="fill: rgb(216, 216, 216);" d="M -2.607 311.729 L 11.663 311.669 L 23.649 311.936 L 11.663 312.085 L -2.607 311.729 Z"/>
    <path style="fill: rgb(216, 216, 216);" d="M -1.4 276.95 L 12.87 276.89 L 24.856 277.157 L 12.87 277.306 L -1.4 276.95 Z"/>
    <path style="fill: rgb(216, 216, 216);" d="M 57.301 275.543 L 71.571 275.483 L 83.557 275.75 L 71.571 275.899 L 57.301 275.543 Z"/>
    <path style="fill: rgb(216, 216, 216);" d="M 123.441 275.342 L 137.711 275.282 L 149.697 275.549 L 137.711 275.698 L 123.441 275.342 Z"/>
    <path style="fill: rgb(216, 216, 216);" d="M 150.581 286.801 L 164.851 286.741 L 176.837 287.008 L 164.851 287.157 L 150.581 286.801 Z"/>
    <path style="fill: rgb(216, 216, 216);" d="M 89.266 288.61 L 103.536 288.55 L 115.522 288.817 L 103.536 288.966 L 89.266 288.61 Z"/>
  </g>
  <rect y="183" width="800" height="40" style="fill: rgb(162, 139, 150);"/>
  <polyline style="fill: none; stroke: rgb(255, 255, 255);" points="160 188 160 223"/>
  <polyline style="fill: none; stroke: rgb(255, 255, 255);" points="160 188 160 223" transform="matrix(1, 0, 0, 1, 160, 0)"/>
  <polyline style="fill: none; stroke: rgb(255, 255, 255);" points="160 188 160 223" transform="matrix(1, 0, 0, 1, 320, 0)"/>
  <polyline style="fill: none; stroke: rgb(255, 255, 255);" points="160 188 160 223" transform="matrix(1, 0, 0, 1, 480, 0)"/>
  <rect x="0.152" y="188" width="800.275" height="6.18" style="fill: rgb(129, 101, 114);"/>
  <rect x="0" y="0" width="800" height="183" style="fill: url(#gradient-1); fill-rule: nonzero;"/>
</svg>