<?xml version="1.0" encoding="utf-8"?>
<svg viewBox="0 0 800 310" xmlns="http://www.w3.org/2000/svg">
  <defs>
    <linearGradient gradientUnits="userSpaceOnUse" x1="504.313" y1="229.55" x2="504.313" y2="239.806" id="gradient-1" gradientTransform="matrix(1.552598, 0, 0, 1.246909, 0.000004, -58.564068)">
      <stop offset="0" style="stop-color: rgba(86, 83, 21, 1)"/>
      <stop offset="1" style="stop-color: rgba(4, 4, 1, 1)"/>
    </linearGradient>
  </defs>
  <rect y="239.94" width="800" height="70.103" style="fill: rgba(76, 156, 221, 0.63);"/>
  <g transform="matrix(1, 0, 0, 1, -89, 0)">
    <circle style="fill: rgb(223, 241, 255); visibility: hidden;" cx="388.708" cy="105.403" r="131.368"/>
    <path style="fill: rgb(196, 226, 228);" d="M 520.006 101.298 C 519.628 89.002 517.564 77.131 514.031 65.909 C 505.371 62.303 490.14 56.139 487.235 56.139 C 483.129 56.139 462.603 68.455 458.497 68.455 C 454.392 68.455 413.339 43.824 409.235 43.824 C 405.129 43.824 380.498 56.139 376.392 56.139 C 372.288 56.139 364.077 47.929 355.867 47.929 C 347.656 47.929 327.064 63.616 323.024 64.35 C 317.379 65.376 302.498 56.139 294.287 56.139 C 288.451 56.139 272.255 62.358 263.37 65.956 C 259.847 77.164 257.788 89.018 257.41 101.298 L 520.006 101.298 Z M 889 100 C 874.468 90.97 738.385 64.277 735.48 64.277 C 731.374 64.277 703.227 74.779 699.121 74.779 C 695.016 74.779 667.391 55.955 663.287 55.955 C 659.181 55.955 627.654 65.729 623.548 65.729 C 619.444 65.729 607.604 54.616 599.394 54.616 C 591.183 54.616 574.22 64.859 570.18 65.593 C 564.535 66.619 552.558 55.93 544.347 55.93 C 538.511 55.93 521.226 61.06 512.341 64.658 C 508.818 75.866 506.759 87.72 506.381 100 L 889 100 Z M 316.155 100 C 315.762 91.013 313.611 75.427 309.928 67.226 C 300.903 64.591 285.028 60.085 282 60.085 C 277.721 60.085 256.328 69.087 252.048 69.087 C 247.77 69.087 203.655 55.451 199.378 55.451 C 195.098 55.451 171.296 73.411 167.017 73.411 C 162.739 73.411 151.742 62.056 143.186 62.056 C 134.628 62.056 93.21 99.464 89 100 C 83.116 100.75 316.155 100 316.155 100 Z"/>
    <path style="fill: rgb(138, 197, 202);" d="M 396.919 97.192 C 392.813 97.192 355.867 80.772 351.761 80.772 C 347.656 80.772 335.339 88.982 331.235 88.982 C 327.129 88.982 306.602 76.666 298.392 76.666 C 292.726 76.666 271.416 82.532 258.756 86.167 C 257.835 92.446 257.34 98.867 257.34 105.403 C 257.34 108.163 257.453 110.895 257.621 113.613 L 519.796 113.613 C 519.962 110.895 520.077 108.163 520.077 105.403 C 520.077 101.78 519.891 98.204 519.602 94.655 C 501.331 91.05 469.616 84.876 466.708 84.876 C 462.603 84.876 401.024 97.192 396.919 97.192 Z M 656.352 97.549 C 652.246 97.549 615.3 81.129 611.194 81.129 C 607.089 81.129 594.772 89.339 590.668 89.339 C 586.562 89.339 574.583 83.942 566.373 83.942 C 560.707 83.942 530.849 91.843 518.189 95.478 C 517.268 101.757 516.773 99.224 516.773 105.76 C 516.773 108.52 516.886 111.252 517.054 113.97 L 889 112.749 C 889.166 110.031 889 110.468 889 100 C 870.729 96.395 712.361 81.57 709.453 81.57 C 705.348 81.57 660.457 97.549 656.352 97.549 Z M 210.197 95.523 C 206.68 95.523 173.403 82.091 169.885 82.091 C 166.369 82.091 92.515 100 89 100 C 85.482 100 89.097 112.214 89.241 114.932 L 313.831 114.932 C 313.973 112.214 314.072 109.482 314.072 106.722 C 314.072 103.099 313.913 99.523 313.665 95.974 C 298.013 92.369 269.624 84.567 267.133 84.567 C 263.616 84.567 213.714 95.523 210.197 95.523 Z"/>
    <path style="fill: rgb(109, 177, 149);" d="M 892.775 164.66 C 906.371 146.012 913.835 126.104 913.835 105.403 L 72.646 105.403 C 72.646 126.104 75.396 146.012 89 164.66 L 892.775 164.66 Z"/>
    <g style="" transform="matrix(1, 0, 0, 1, -90, -1)">
      <title>buildings</title>
      <g transform="matrix(0.513157, 0, 0, 0.513157, 257.34024, -25.965298)" style="">
        <rect x="139.76" y="136" style="fill:#F5F0F0;" width="4.706" height="56.47"/>
        <rect x="137.41" y="211.29" style="fill:#F5F0F0;" width="9.412" height="84.71"/>
      </g>
      <g transform="matrix(0.513157, 0, 0, 0.513157, 257.34024, -25.965298)" style="">
        <rect x="136.32" y="201.88" style="fill:#B4B9C8;" width="11.593" height="11.361"/>
        <polygon style="fill:#B4B9C8;" points="145.261,178.353 138.974,178.353 135.059,201.882 149.176,201.882 &#9;"/>
      </g>
      <polygon style="fill: rgb(240, 155, 140);" points="337.513 72.561 323.024 72.561 323.024 77.632 327.129 80.772 333.288 80.772 337.513 77.632"/>
      <rect x="433.866" y="101.298" style="fill: rgb(250, 240, 220);" width="41.052" height="36.947"/>
      <path style="fill: rgb(180, 185, 200);" d="M 495.445 171.087 L 512.502 183.869 C 522.315 186.911 520.077 129.339 520.077 105.403 L 495.445 105.403 L 495.445 171.087 Z"/>
      <rect x="314.814" y="113.613" style="fill: rgb(170, 145, 145);" width="36.947" height="32.842"/>
      <rect x="302.498" y="109.508" style="fill: rgb(170, 195, 220);" width="20.526" height="49.262"/>
      <rect x="277.867" y="109.508" style="fill: rgb(240, 205, 180);" width="16.421" height="49.262"/>
      <rect x="327.129" y="117.719" style="fill: rgb(130, 165, 205);" width="24.631" height="49.262"/>
      <rect x="372.287" y="101.298" style="fill: rgb(180, 185, 200);" width="24.631" height="24.631"/>
      <rect x="347.656" y="84.876" style="fill: rgb(250, 240, 220);" width="28.737" height="61.578"/>
      <rect x="335.339" y="138.244" style="fill: rgb(255, 255, 255);" width="36.947" height="24.631"/>
      <rect x="372.287" y="117.719" style="fill: rgb(150, 130, 130);" width="24.631" height="45.158"/>
      <path style="fill: rgb(170, 145, 145);" d="M 511.482 163.095 L 511.866 113.613 L 491.34 113.613 L 491.34 187.36 C 499.978 176.558 506.575 176.293 511.482 163.095 Z"/>
      <rect x="466.708" y="93.088" style="fill: rgb(130, 165, 205);" width="32.842" height="73.895"/>
      <rect x="437.972" y="117.719" style="fill: rgb(170, 145, 145);" width="20.526" height="61.578"/>
      <rect x="454.392" y="109.508" style="fill: rgb(235, 225, 195);" width="28.737" height="61.578"/>
      <rect x="421.551" y="84.876" style="fill: rgb(180, 185, 200);" width="20.526" height="86.211"/>
      <rect x="392.813" y="64.35" style="fill: rgb(130, 165, 205);" width="32.842" height="110.842"/>
      <rect x="405.129" y="146.455" style="fill: rgb(255, 255, 255);" width="36.947" height="24.631"/>
      <rect x="380.498" y="142.35" style="fill: rgb(250, 240, 220);" width="16.421" height="20.526"/>
      <rect x="314.814" y="138.244" style="fill: rgb(240, 205, 180);" width="16.421" height="20.526"/>
      <rect x="290.182" y="121.824" style="fill: rgb(250, 240, 220);" width="20.526" height="36.947"/>
      <path style="fill: rgb(180, 185, 200);" d="M 268.673 158.771 L 281.971 158.771 L 281.971 125.929 L 266.066 126.132 C 268.228 137.578 266.18 148.032 268.673 158.771 Z"/>
    </g>
    <path style="fill: rgb(115, 190, 110);" d="M 89 162.876 C 80.997 265.736 -73.428 235.402 129.83 234.194 C 1187.445 227.907 893.9 262.964 889 162.876 L 89 162.876 Z"/>
    <path style="fill: rgb(110, 170, 100);" d="M 372.612 235.718 C 352.445 221.035 353.471 210.088 364.077 203.245 C 377.698 194.458 404.113 196.29 417.445 183.403 C 427.708 173.481 460.037 171.087 502.475 171.093 C 504.027 168.411 505.492 165.673 506.857 162.876 L 89 170.609 C 89 193.406 50.909 234.417 85.919 234.09 C 193.031 233.089 347.492 231.19 372.612 235.718 Z"/>
    <path style="fill: rgb(110, 170, 100);" d="M 491.19 187.496 C 472.867 186.482 452.215 188.724 441.393 191.271 C 426.853 194.692 424.63 201.705 405.129 206.665 C 384.852 211.823 389.468 227.118 401.248 236.107 C 437.581 232.661 469.576 214.447 491.19 187.496 Z"/>
    <g transform="matrix(0.513157, 0, 0, 0.513157, 257.34024, -25.965298)" style="">
      <path style="fill:#558C73;" d="M 148.949 392 L 238.247 392 C 238.247 392 233.08 367 193.58 367 C 193.58 367 173.58 350 150.58 357.5 C 150.58 357.5 142.08 350.5 123.08 356 C 123.08 356 101.08 349.5 82.58 360.5 C 82.58 360.5 72.08 350.5 58.58 355 C 58.58 355 37.08 350 25.08 359.5 C 25.08 359.5 12.58 347 -13.42 350 C -13.42 350 -22.405 344.063 -37.46 356.402 C -31.135 374.288 -31.209 376.19 -21.272 392 L 10.099 392 C 6.199 394.428 3.581 398.721 3.581 403.655 L 54.684 403.655 C 54.684 399.274 53.201 395.268 50.778 392 L 102.185 392 C 102.133 392.072 102.066 392.132 102.016 392.206 C 97.107 392.696 92.723 394.913 89.546 398.343 C 88.481 398.078 87.384 397.897 86.237 397.897 C 78.639 397.897 72.479 404.057 72.479 411.655 L 123.581 411.655 C 123.581 407.274 122.098 403.268 119.675 400 L 150.684 400 C 150.684 397.144 150.044 394.448 148.949 392 Z"/>
      <path style="fill:#558C73;" d="M 443.509 371.349 C 415.527 349.739 361.409 352.534 361.409 352.534 C 336.793 348.578 315.387 357.545 315.387 357.545 C 273.111 357.545 267.582 370.733 267.582 370.733 L 443.509 371.349 Z"/>
      <path style="fill: rgb(53, 153, 108);" d="M -58.041 392.313 L 32.436 392.313 C 32.436 392.313 27.201 364.65 -12.821 364.65 C -12.821 364.65 -33.085 345.839 -56.388 354.138 C -56.388 354.138 -65 346.392 -84.251 352.478 C -84.251 352.478 -106.542 345.286 -125.286 357.458 C -125.286 357.458 -135.924 346.392 -149.602 351.372 C -149.602 351.372 -171.386 345.839 -183.545 356.351 C -183.545 356.351 -196.21 346.83 -222.553 350.15 C -222.553 350.15 -252.895 355.727 -258.223 392.313 L -198.723 392.313 C -202.675 395 -205.327 399.75 -205.327 405.21 L -153.55 405.21 C -153.55 400.362 -155.052 395.929 -157.507 392.313 L -105.422 392.313 C -105.475 392.393 -105.543 392.459 -105.593 392.541 C -110.567 393.083 -115.009 395.537 -118.228 399.332 C -119.307 399.039 -120.418 398.838 -121.58 398.838 C -129.279 398.838 -135.52 405.655 -135.52 414.062 L -83.744 414.062 C -83.744 409.214 -85.246 404.782 -87.701 401.165 L -56.283 401.165 C -56.283 398.005 -56.931 395.022 -58.041 392.313 Z"/>
    </g>
    <path style="fill: rgb(110, 170, 100);" d="M 771.702 162.579 C 751.535 177.262 752.561 188.209 763.167 195.052 C 776.788 203.839 803.203 202.007 816.535 214.894 C 826.798 224.816 859.127 227.21 901.565 227.204 C 903.117 229.886 868.631 230.732 869.996 233.529 L 488.09 227.688 C 488.09 204.891 449.999 163.88 485.009 164.207 C 592.121 165.208 746.582 167.107 771.702 162.579 Z" transform="matrix(-1, 0, 0, -1, 1376.156433, 398)"/>
  </g>
  <g id="crane" style="pointer-events: none;" transform="matrix(0.287996, 0, 0, 0.287996, 436.59082, 69.68412)">
    <title>crane</title>
    <g id="crane_base">
      <title>crane_base</title>
      <g transform="matrix(1, 0, 0, 1, 357.724701, 51.935432)">
        <path style="fill:#ADABA6;" d="M310.021,457.094c-2.189,0-4.375-0.846-6.027-2.532c-3.262-3.329-3.21-8.672,0.119-11.936 l80.776-79.172l-80.776-79.17c-1.619-1.588-2.532-3.76-2.532-6.028c0-2.269,0.913-4.439,2.532-6.027l86.925-85.2 c3.329-3.263,8.673-3.207,11.934,0.12c3.262,3.329,3.209,8.673-0.119,11.935l-80.776,79.172l80.776,79.171 c1.619,1.588,2.533,3.76,2.533,6.027c0,2.269-0.913,4.439-2.533,6.028l-86.925,85.2 C314.285,456.292,312.152,457.094,310.021,457.094z"/>
        <path style="fill:#ADABA6;" d="M396.945,457.094c-2.132,0-4.265-0.802-5.907-2.413l-86.925-85.2 c-1.619-1.588-2.532-3.76-2.532-6.028c0-2.269,0.913-4.439,2.532-6.027l80.776-79.171l-80.776-79.172 c-3.33-3.262-3.383-8.606-0.119-11.935c3.262-3.327,8.605-3.383,11.934-0.12l86.925,85.2c1.619,1.588,2.533,3.76,2.533,6.027 c0,2.269-0.913,4.439-2.533,6.028l-80.776,79.17l80.776,79.172c3.329,3.262,3.383,8.607,0.119,11.936 C401.32,456.248,399.132,457.094,396.945,457.094z"/>
      </g>
      <path style="fill:#7C7A75;" d="M 803.026 537.359 L 788.219 511.312 C 787.219 509.553 785.351 508.467 783.326 508.467 L 639.088 508.467 C 637.064 508.467 635.196 509.554 634.195 511.313 L 619.39 537.359 C 618.4 539.101 618.411 541.237 619.417 542.968 C 620.424 544.7 622.277 545.764 624.28 545.764 L 798.133 545.764 C 800.136 545.764 801.989 544.699 802.996 542.968 C 804.005 541.237 804.016 539.1 803.026 537.359 Z"/>
      <g transform="matrix(1, 0, 0, 1, 357.724701, 51.935432)">
        <path style="fill:#CCC3A8;" d="M396.946,457.094h-86.925c-4.662,0-8.44-3.778-8.44-8.44v-85.2c0-4.662,3.778-8.44,8.44-8.44h86.925 c4.661,0,8.44,3.778,8.44,8.44v85.2C405.385,453.317,401.607,457.094,396.946,457.094z M318.46,440.215h70.046v-68.321H318.46 L318.46,440.215L318.46,440.215z"/>
        <path style="fill:#CCC3A8;" d="M396.946,371.894h-86.925c-4.662,0-8.44-3.778-8.44-8.44v-85.198c0-4.662,3.778-8.44,8.44-8.44 h86.925c4.661,0,8.44,3.778,8.44,8.44v85.198C405.385,368.117,401.607,371.894,396.946,371.894z M318.46,355.015h70.046v-68.319 H318.46L318.46,355.015L318.46,355.015z"/>
        <path style="fill:#CCC3A8;" d="M396.946,286.696h-86.925c-4.662,0-8.44-3.778-8.44-8.44v-85.2c0-4.662,3.778-8.44,8.44-8.44h86.925 c4.661,0,8.44,3.778,8.44,8.44v85.2C405.385,282.919,401.607,286.696,396.946,286.696z M318.46,269.817h70.046v-68.321H318.46 L318.46,269.817L318.46,269.817z"/>
      </g>
      <path style="fill:#6B6861;" d="M 641.924 542.969 C 640.917 541.237 640.907 539.1 641.897 537.36 L 656.702 511.314 C 657.702 509.555 659.57 508.468 661.595 508.468 L 639.09 508.468 C 637.066 508.468 635.198 509.555 634.197 511.314 L 619.392 537.36 C 618.402 539.102 618.413 541.238 619.419 542.969 C 620.426 544.701 622.279 545.765 624.282 545.765 L 646.787 545.765 C 644.784 545.765 642.931 544.701 641.924 542.969 Z"/>
      <path style="fill:#CCC3A8;" d="M 773.833 532.262 L 812.863 532.262 C 820.652 532.262 826.966 538.576 826.966 546.365 L 826.966 549.831 C 826.966 557.62 820.652 563.934 812.863 563.934 L 728.094 563.934 L 694.32 563.934 L 609.551 563.934 C 601.762 563.934 595.448 557.62 595.448 549.831 L 595.448 546.365 C 595.448 538.576 601.762 532.262 609.551 532.262 L 694.32 532.262 L 733.72 532.262 L 743.45 532.262"/>
      <path style="fill:#C9B585;" d="M 617.954 549.832 L 617.954 546.366 C 617.954 538.577 624.268 532.263 632.057 532.263 L 609.552 532.263 C 601.763 532.263 595.449 538.577 595.449 546.366 L 595.449 549.832 C 595.449 557.621 601.763 563.935 609.552 563.935 L 632.057 563.935 C 624.268 563.935 617.954 557.621 617.954 549.832 Z"/>
    </g>
    <g id="crane_arm_and_hook">
      <title>crane_arm_and_hook</title>
      <g id="crane_hook" transform="matrix(1, 0, 0, 1, -351.552673, 0)">
        <title>crane_hook</title>
        <path style="fill: rgb(223, 219, 204);" d="M 435.503 134.141 C 430.841 134.141 427.063 137.235 427.063 141.051 L 427.063 158.556 L 427.063 276.397 L 427.063 293.9 C 427.063 297.716 430.841 300.81 435.503 300.81 C 440.164 300.81 443.943 297.716 443.943 293.9 L 443.943 276.397 L 443.943 158.556 L 443.943 141.051 C 443.943 137.234 440.164 134.141 435.503 134.141 Z" id="hook_arm">
          <title>hook_arm</title>
        </path>
        <g id="hook_head" transform="matrix(1, 0, 0, 1, 0, -28.063456)">
          <title>hook_head</title>
          <path style="fill:#7C7A75;" d="M 446.395 386.35 C 422.586 386.53 447.735 386.341 423.609 386.599 L 426.53 359.391 C 426.53 354.73 430.308 350.951 434.97 350.951 C 439.631 350.951 443.41 354.73 443.41 359.391 L 446.395 386.35 Z"/>
          <path style="fill:#FFB92E;" d="M 435.503 367.831 C 422.544 367.831 412.002 357.288 412.002 344.33 C 412.002 331.372 422.545 320.831 435.503 320.831 C 448.461 320.831 459.002 331.373 459.002 344.33 C 459.003 357.288 448.461 367.831 435.503 367.831 Z M 435.503 337.711 C 431.851 337.711 428.881 340.681 428.881 344.331 C 428.881 347.982 431.852 350.953 435.503 350.953 C 439.153 350.953 442.123 347.982 442.123 344.331 C 442.123 340.681 439.154 337.711 435.503 337.711 Z"/>
        </g>
        <path style="fill:#7C7A75;" d="M 419.77 95.934 L 419.77 105.473 L 419.77 115.758 L 419.77 118.489 L 419.77 125.297 L 419.77 128.027 L 419.77 138.313 L 419.77 147.851 C 419.77 155.64 426.084 161.954 433.873 161.954 L 437.339 161.954 C 445.128 161.954 451.442 155.64 451.442 147.851 L 451.442 138.311 L 451.442 128.025 L 451.442 125.295 L 451.442 118.487 L 451.442 115.756 L 451.442 105.471 L 451.442 95.932 L 419.77 95.932 L 419.77 95.934 Z" id="hook_gear">
          <title>hook_gear</title>
        </path>
      </g>
      <g id="crane_arm">
        <title>crane_arm</title>
        <polygon style="fill:#7C7A75;" points="630.365 168.423 630.365 168.423 630.365 113.507 573.684 113.507"/>
        <path style="fill:#FFB92E;" d="M 781.924 101.391 L 640.493 101.391 C 633.034 101.391 626.99 107.437 626.99 114.894 L 626.99 129.401 L 626.99 138.003 L 626.99 152.51 L 626.99 185.903 L 626.99 200.41 L 626.99 209.01 L 626.99 223.517 C 626.99 230.974 633.034 237.02 640.493 237.02 L 781.924 237.02 C 789.381 237.02 795.427 230.974 795.427 223.517 L 795.427 209.01 L 795.427 200.41 L 795.427 185.903 L 795.427 152.509 L 795.427 138.002 L 795.427 129.4 L 795.427 114.894 C 795.427 107.437 789.381 101.391 781.924 101.391 Z"/>
        <path style="fill:#36A1CB;" d="M 693.573 146.622 C 686.115 146.622 680.07 152.668 680.07 160.125 L 680.07 192.788 C 680.07 200.245 686.115 206.291 693.573 206.291 L 795.427 206.291 L 795.427 146.621 L 693.573 146.621 L 693.573 146.622 Z"/>
        <rect x="737.742" y="146.627" style="fill:#52C6EB;" width="57.682" height="59.673"/>
        <path style="fill:#EF9A1D;" d="M 649.495 223.516 L 649.495 209.009 L 649.495 200.409 L 649.495 185.902 L 649.495 152.509 L 649.495 138.002 L 649.495 129.4 L 649.495 114.894 C 649.495 107.437 655.539 101.391 662.998 101.391 L 640.493 101.391 C 633.034 101.391 626.99 107.437 626.99 114.894 L 626.99 129.401 L 626.99 138.003 L 626.99 152.51 L 626.99 185.903 L 626.99 200.41 L 626.99 209.01 L 626.99 223.517 C 626.99 230.974 633.034 237.02 640.493 237.02 L 662.998 237.02 C 655.539 237.019 649.495 230.972 649.495 223.516 Z"/>
        <path style="fill:#7C7A75;" d="M 756.937 81.664 L 744.296 55.141 C 743.361 53.182 741.385 51.935 739.216 51.935 L 683.2 51.935 C 681.03 51.935 679.053 53.182 678.121 55.141 L 665.481 81.664 C 664.651 83.407 664.771 85.455 665.802 87.088 C 666.833 88.721 668.629 89.711 670.561 89.711 L 751.86 89.711 C 753.79 89.711 755.587 88.721 756.618 87.088 C 757.646 85.455 757.768 83.407 756.937 81.664 Z"/>
        <path style="fill:#6B6861;" d="M 688.305 87.087 C 687.274 85.454 687.154 83.406 687.984 81.663 L 700.625 55.141 C 701.559 53.183 703.535 51.935 705.704 51.935 L 683.199 51.935 C 681.029 51.935 679.052 53.182 678.12 55.141 L 665.48 81.664 C 664.65 83.407 664.77 85.455 665.801 87.088 C 666.832 88.721 668.628 89.711 670.56 89.711 L 693.065 89.711 C 691.132 89.71 689.336 88.72 688.305 87.087 Z"/>
        <path style="fill: rgb(255, 185, 46);" d="M 799.496 84.084 L 634.365 84.084 L 439.957 84.084 L 382.237 84.084 L 188.78 84.084 L 23.649 84.084 C 8.476 84.084 -3.824 90.398 -3.824 98.187 L -3.824 101.653 C -3.824 109.442 8.476 115.756 23.649 115.756 L 188.78 115.756 L 634.364 115.756 L 799.493 115.756 C 814.667 115.756 826.966 109.442 826.966 101.653 L 826.966 98.187 C 826.968 90.399 814.668 84.084 799.496 84.084 Z"/>
        <path style="fill:#EF9A1D;" d="M 9.821 101.654 L 9.821 98.188 C 9.821 90.399 16.135 84.085 23.924 84.085 L 1.419 84.085 C -6.37 84.085 -12.684 90.399 -12.684 98.188 L -12.684 101.654 C -12.684 109.443 -6.37 115.757 1.419 115.757 L 23.924 115.757 C 16.135 115.757 9.821 109.442 9.821 101.654 Z"/>
      </g>
    </g>
  </g>
  <rect y="227.663" width="800" height="12.788" style="fill-rule: evenodd; paint-order: fill; fill: url(#gradient-1); pointer-events: none;" id="harbour">
    <title>harbour</title>
  </rect>
  <g id="truck_with_containers" style="pointer-events: none;">
    <title>truck_with_containers</title>
    <g id="truck_" style="" transform="matrix(0.142793, 0, 0, 0.142793, 378.51593, 183.113586)">
      <title>truck</title>
      <g id="truck">
        <title>truck</title>
        <polygon style="fill:#58575D;" points="195.444 207.73 195.444 261.625 411.023 261.625 411.023 250.846 432.581 250.846 432.581 261.625 648.16 261.625 648.16 207.73"/>
        <polygon style="fill:#D1E5F5;" points="227.78 35.268 303.234 35.268 303.234 207.73 227.781 207.73 184.665 261.625 173.886 261.625 173.886 89.16"/>
        <polygon style="fill:#B4D8F1;" points="260.118 35.267 173.886 121.497 173.886 261.625 184.665 261.625 227.781 207.73 292.455 207.73 303.234 35.267"/>
        <circle style="fill:#88888F;" cx="578.097" cy="267.014" r="48.505"/>
        <path style="fill:#797781;" d="M 578.097 218.509 C 572.426 218.509 566.987 219.492 561.929 221.28 C 580.766 227.939 594.266 245.896 594.266 267.014 C 594.266 288.132 580.766 306.089 561.929 312.748 C 566.988 314.536 572.427 315.519 578.097 315.519 C 604.886 315.519 626.602 293.803 626.602 267.014 C 626.602 240.225 604.886 218.509 578.097 218.509 Z"/>
        <path style="fill:#EDEDED;" d="M 578.097 280.488 C 570.667 280.488 564.623 274.444 564.623 267.014 C 564.623 259.584 570.667 253.54 578.097 253.54 C 585.527 253.54 591.571 259.584 591.571 267.014 C 591.571 274.444 585.527 280.488 578.097 280.488 Z"/>
        <circle style="fill:#88888F;" cx="481.086" cy="267.014" r="48.505"/>
        <path style="fill:#797781;" d="M 481.086 218.509 C 475.415 218.509 469.976 219.492 464.918 221.28 C 483.755 227.939 497.255 245.896 497.255 267.014 C 497.255 288.132 483.755 306.089 464.918 312.748 C 469.977 314.536 475.416 315.519 481.086 315.519 C 507.875 315.519 529.591 293.803 529.591 267.014 C 529.591 240.225 507.875 218.509 481.086 218.509 Z"/>
        <path style="fill:#EDEDED;" d="M 481.086 280.488 C 473.656 280.488 467.612 274.444 467.612 267.014 C 467.612 259.584 473.656 253.54 481.086 253.54 C 488.516 253.54 494.56 259.584 494.56 267.014 C 494.56 274.444 488.516 280.488 481.086 280.488 Z"/>
        <circle style="fill:#88888F;" cx="254.728" cy="267.014" r="48.505"/>
        <path style="fill:#797781;" d="M 254.728 218.509 C 249.057 218.509 243.618 219.492 238.56 221.28 C 257.397 227.939 270.897 245.896 270.897 267.014 C 270.897 288.132 257.397 306.089 238.56 312.748 C 243.619 314.536 249.058 315.519 254.728 315.519 C 281.517 315.519 303.233 293.803 303.233 267.014 C 303.233 240.225 281.517 218.509 254.728 218.509 Z"/>
        <path style="fill:#EDEDED;" d="M 254.728 280.488 C 247.298 280.488 241.254 274.444 241.254 267.014 C 241.254 259.584 247.298 253.54 254.728 253.54 C 262.158 253.54 268.202 259.584 268.202 267.014 C 268.202 274.444 262.158 280.488 254.728 280.488 Z"/>
        <rect x="335.57" y="186.172" style="fill:#797781;" width="53.895" height="32.337"/>
        <rect x="292.455" y="153.835" style="fill:#88888F;" width="53.895" height="64.674"/>
        <polygon style="fill:#E07188;" points="260.118 35.267 260.118 121.498 173.886 121.498 173.886 261.625 195.444 261.625 227.781 218.509 303.234 218.509 303.234 35.267"/>
        <g transform="matrix(1, 0, 0, 1, 165.80191, -80.606789)">
          <polygon style="fill:#DC4161;" points="8.084,327.86 8.083,342.232 29.641,342.232 61.978,299.116 29.642,299.116 &#9;"/>
          <rect x="105.095" y="115.874" style="fill:#DC4161;" width="32.337" height="183.242"/>
          <path style="fill:#DC4161;" d="M83.537,242.526H51.2c-4.465,0-8.084-3.618-8.084-8.084s3.62-8.084,8.084-8.084h32.337 c4.465,0,8.084,3.618,8.084,8.084S88.001,242.526,83.537,242.526z"/>
        </g>
        <polygon style="fill:#88888F;" points="411.023 261.625 454.139 218.509 605.044 218.509 648.16 261.625 669.718 261.625 669.718 186.172 378.686 186.172 378.686 261.625"/>
        <polygon style="fill:#797781;" points="605.044 186.172 605.044 218.509 648.16 261.625 669.718 261.625 669.718 186.172"/>
        <g transform="matrix(1, 0, 0, 1, 165.80191, -80.606789)">
          <path style="fill:#2E2D31;" d="M88.926,334.147c-7.43,0-13.474,6.044-13.474,13.474s6.044,13.474,13.474,13.474 c7.43,0,13.474-6.044,13.474-13.474S96.356,334.147,88.926,334.147z"/>
          <path style="fill:#2E2D31;" d="M315.284,334.147c-7.43,0-13.474,6.044-13.474,13.474s6.044,13.474,13.474,13.474 c7.43,0,13.474-6.044,13.474-13.474S322.714,334.147,315.284,334.147z"/>
          <path style="fill:#2E2D31;" d="M412.295,334.147c-7.43,0-13.474,6.044-13.474,13.474s6.044,13.474,13.474,13.474 s13.474-6.044,13.474-13.474S419.725,334.147,412.295,334.147z"/>
          <path style="fill:#2E2D31;" d="M94.316,226.358H61.979c-4.465,0-8.084,3.618-8.084,8.084s3.62,8.084,8.084,8.084h32.337 c4.465,0,8.084-3.618,8.084-8.084S98.78,226.358,94.316,226.358z"/>
          <path style="fill:#2E2D31;" d="M 511.997 342.231 L 495.832 258.694 L 220.968 258.694 L 204.8 258.695 L 188.632 258.695 L 188.632 234.442 C 188.632 229.976 185.012 226.358 180.548 226.358 L 145.516 226.358 L 145.516 148.213 C 145.516 143.747 141.896 140.129 137.432 140.129 C 132.967 140.129 129.348 143.747 129.348 148.213 L 129.348 291.033 L 16.169 291.032 L 16.169 210.19 L 94.316 210.19 C 98.781 210.19 102.4 206.572 102.4 202.106 L 102.4 123.96 L 137.431 123.96 C 141.896 123.96 145.515 120.342 145.515 115.876 C 145.515 111.41 141.895 107.792 137.431 107.792 L 94.336 107.792 C 94.328 107.792 94.302 107.792 94.294 107.792 L 61.978 107.792 C 59.834 107.792 57.777 108.644 56.262 110.159 L 2.368 164.05 C 0.852 165.567 0 167.623 0 169.767 L 0 202.096 L 0 202.113 L 0 299.113 L 0 299.118 L 0 342.231 C 0 344.375 0.852 346.432 2.368 347.948 C 3.884 349.464 5.94 350.315 8.084 350.315 L 29.642 350.315 C 30.593 350.315 31.522 350.147 32.393 349.832 C 33.56 380.013 58.464 404.21 88.926 404.21 C 119.226 404.21 144.036 380.272 145.448 350.315 L 245.221 350.315 C 247.365 350.315 249.422 349.463 250.937 347.948 L 259.271 339.614 C 258.899 342.231 258.694 344.902 258.694 347.621 C 258.694 378.824 284.079 404.21 315.283 404.21 C 335.846 404.21 353.878 393.182 363.788 376.733 C 373.698 393.182 391.73 404.21 412.293 404.21 C 443.497 404.21 468.882 378.823 468.882 347.621 C 468.882 344.903 468.677 342.232 468.305 339.614 L 476.639 347.948 C 478.155 349.464 480.211 350.315 482.355 350.315 L 503.913 350.315 C 508.378 350.315 511.997 346.697 511.997 342.231 Z M 16.168 173.115 L 65.326 123.959 L 86.231 123.959 L 86.231 194.021 L 16.168 194.021 L 16.168 173.115 Z M 188.632 274.863 L 204.8 274.863 L 204.8 291.031 L 188.632 291.031 L 188.632 274.863 Z M 145.516 242.526 L 172.463 242.526 L 172.463 291.031 L 145.516 291.031 L 145.516 242.526 Z M 204.8 307.2 L 204.8 334.147 L 143.877 334.147 C 141.322 323.747 135.897 314.463 128.477 307.201 L 204.8 307.2 Z M 25.6 334.147 L 16.168 334.147 L 16.168 307.2 L 45.81 307.2 L 25.6 334.147 Z M 88.926 388.042 C 66.637 388.042 48.505 369.91 48.505 347.621 C 48.505 325.346 66.615 307.224 88.884 307.201 L 88.967 307.201 C 111.237 307.224 129.347 325.346 129.347 347.621 C 129.347 369.91 111.215 388.042 88.926 388.042 Z M 315.284 388.042 C 292.995 388.042 274.863 369.91 274.863 347.621 C 274.863 325.332 292.995 307.2 315.284 307.2 C 337.573 307.2 355.705 325.332 355.705 347.621 C 355.705 369.91 337.573 388.042 315.284 388.042 Z M 354.834 307.2 L 372.744 307.2 C 369.303 310.567 366.286 314.363 363.789 318.508 C 361.292 314.363 358.275 310.567 354.834 307.2 Z M 412.295 388.042 C 390.006 388.042 371.874 369.91 371.874 347.621 C 371.874 325.332 390.006 307.2 412.295 307.2 C 434.584 307.2 452.716 325.332 452.716 347.621 C 452.716 369.91 434.583 388.042 412.295 388.042 Z M 495.832 334.147 L 485.706 334.147 L 444.958 293.398 C 443.442 291.882 441.386 291.031 439.242 291.031 L 288.337 291.031 C 286.193 291.031 284.136 291.883 282.621 293.398 L 241.873 334.147 L 220.968 334.147 L 220.968 274.863 L 495.831 274.863 L 495.831 334.147 L 495.832 334.147 Z"/>
        </g>
      </g>
    </g>
    <g id="containers" transform="matrix(1, 0, 0, 1, 107, 0)" style="">
      <title>containers</title>
      <rect x="334.859" y="197.029" width="11.309" height="11.234" style="stroke: rgb(58, 78, 85); fill: rgb(38, 194, 238);" id="container01">
        <title>container01</title>
      </rect>
      <rect x="347.129" width="11.309" height="11.234" style="fill: rgb(0, 172, 211); stroke: rgb(58, 78, 85);" id="container02" y="197.043">
        <title>container02</title>
      </rect>
      <rect x="359.308" y="197" width="11.309" height="11.234" style="stroke: rgb(58, 78, 85); fill: rgb(38, 194, 238);" id="container03">
        <title>container03</title>
      </rect>
      <rect x="342.403" y="172.846" width="11.309" height="11.234" style="fill: rgb(0, 172, 211); stroke: rgb(58, 78, 85);" id="container04">
        <title>container04</title>
      </rect>
      <rect y="197.015" width="11.309" height="11.234" style="fill: rgb(0, 172, 211); stroke: rgb(58, 78, 85);" x="322.588" id="container05">
        <title>container05</title>
      </rect>
      <rect x="354.6" y="172.837" width="11.309" height="11.234" style="stroke: rgb(58, 78, 85); fill: rgb(38, 194, 238);" id="container06">
        <title>container06</title>
      </rect>
      <rect x="330.2" y="185" width="11.309" height="11.234" style="fill: rgb(0, 172, 211); stroke: rgb(58, 78, 85);" id="container07">
        <title>container07</title>
      </rect>
      <rect x="342.375" y="185" width="11.309" height="11.234" style="stroke: rgb(58, 78, 85); fill: rgb(38, 194, 238);" id="container08">
        <title>container08</title>
      </rect>
      <rect x="354.55" width="11.309" height="11.234" style="fill: rgb(0, 172, 211); stroke: rgb(58, 78, 85);" y="185" id="container09">
        <title>container09</title>
      </rect>
    </g>
  </g>
  <g transform="matrix(1, 0, 0, 1, 0, 1.000504)" style="pointer-events: none;">
    <title>seaWaves</title>
    <path style="fill-opacity: 0.6; fill: rgb(116, 193, 227);" d="M 0 250.177 C 133.333 232.607 266.667 232.607 400 250.177 C 533.333 268.893 666.667 268.893 800 250.177 L 800 309 L 0 309" id="seaWave01">
      <title>seaWave01</title>
    </path>
    <path style="fill-opacity: 0.6; fill: rgb(66, 163, 204);" d="M 0 250.178 C 133.333 232.607 266.667 232.607 400 250.178 C 533.333 268.894 666.667 268.894 800 250.178 L 800 309 L 0 309" id="seaWave02">
      <title>seaWave02</title>
    </path>
    <path style="fill-opacity: 0.6; fill: rgb(39, 131, 137);" d="M 0 250.178 C 133.333 232.607 266.667 232.607 400 250.178 C 533.333 268.894 666.667 268.894 800 250.178 L 800 309 L 0 309" id="seaWave03">
      <title>seaWave03</title>
    </path>
    <g transform="matrix(1, 0, 0, 1, 11.684084, 56.700546)" id="docker" style="">
      <title>docker</title>
      <path d="M 64.763 174.144 L 132.378 174.139 L 138.958 174.139 C 142.031 174.152 145.083 174.663 147.993 175.652 C 149.522 176.158 150.995 176.823 152.386 177.635 C 150.605 180.1 149.548 183.012 149.334 186.044 C 148.789 190.468 149.929 194.936 152.526 198.559 L 153.894 200.139 L 155.521 198.829 C 159.836 195.664 162.759 190.953 163.679 185.681 C 168.698 187.224 174.123 186.72 178.771 184.277 L 180.558 183.241 L 179.62 181.407 C 175.732 174.847 168.266 171.287 160.721 172.393 C 149.464 144.35 124.975 131.073 95.229 131.073 C 80.139 130.175 65.767 137.608 57.779 150.443 L 57.649 150.666 L 56.478 153.044 C 53.831 159.051 52.797 165.646 53.48 172.175 L 53.66 174.144 L 64.763 174.144 Z" style="fill: rgb(58, 78, 85);" transform="matrix(-1, 0, 0, -1, 233.833412, 344.437943)"/>
      <path d="M 162.247 196.638 C 162.428 202.439 159.664 207.937 154.901 211.253 C 150.72 205.114 151.341 196.898 156.398 191.458 C 151.57 187.881 145.699 185.992 139.691 186.085 L 56.352 186.085 C 55.637 179.435 56.836 172.718 59.807 166.726 L 60.755 164.99 C 61.355 163.973 62.011 162.989 62.719 162.043 C 66.145 161.822 69.303 161.744 72.194 161.81 C 76.878 161.781 81.54 162.46 86.021 163.825 C 86.749 164.077 87.476 163.445 87.329 162.69 C 87.262 162.338 87.011 162.05 86.673 161.934 C 86.207 161.773 85.72 161.618 85.218 161.478 C 82.1 160.606 78.894 160.085 75.66 159.924 C 75.888 159.924 75.422 159.887 75.422 159.887 L 74.997 159.851 C 73.489 159.769 71.888 159.748 70.205 159.748 C 68.387 159.748 66.578 159.784 64.594 159.882 L 64.542 159.846 C 72.717 151.343 84.171 146.791 95.951 147.361 C 124.756 147.361 149.187 160.131 160.009 188.805 C 167.687 188.018 175.063 189.976 178.415 196.524 C 173.341 199.098 167.352 199.14 162.241 196.638" style="fill: rgb(0, 170, 218);" transform="matrix(-1, 0, 0, -1, 234.565735, 358.566223)"/>
      <path d="M 172.868 187.608 C 173.049 193.409 170.285 198.907 165.522 202.223 C 161.341 196.084 161.962 187.868 167.019 182.428 C 162.191 178.851 156.32 176.962 150.312 177.055 L 71.91 177.055 C 71.04 167.611 75.18 158.4 82.82 152.78 C 87.504 152.751 92.166 153.43 96.647 154.795 C 97.375 155.047 98.102 154.415 97.955 153.66 C 97.888 153.308 97.638 153.02 97.3 152.904 C 96.833 152.743 96.346 152.588 95.844 152.448 C 92.643 151.551 89.352 151.006 86.032 150.821 L 85.934 150.936 C 95.735 145.905 109.95 145.926 126.249 152.184 C 144.845 159.698 161.113 172.013 173.391 187.872 L 172.873 187.624" style="fill: rgb(39, 185, 236);" transform="matrix(-1, 0, 0, -1, 245.186691, 349.536224)"/>
      <path d="M 80.121 211.184 C 80.612 207.465 81.728 203.856 83.421 200.508 L 84.369 198.772 C 84.969 197.754 85.625 196.77 86.333 195.824 C 89.759 195.603 92.917 195.526 95.808 195.591 C 100.492 195.563 105.154 196.242 109.635 197.606 C 110.363 197.857 111.09 197.227 110.943 196.471 C 110.876 196.12 110.625 195.832 110.287 195.715 C 109.821 195.555 109.334 195.399 108.832 195.26 C 105.634 194.376 102.349 193.842 99.036 193.669 L 98.517 193.669 C 97.01 193.586 95.409 193.535 93.741 193.535 C 91.922 193.535 90.068 193.571 88.042 193.669 C 96.242 185.16 107.715 180.604 119.519 181.168 C 144.179 181.168 165.626 190.53 178.059 211.216 L 80.121 211.184 Z" style="fill: rgb(8, 140, 185);" transform="matrix(-1, 0, 0, -1, 258.180008, 392.337204)"/>
      <path d="M 91.067 202.261 C 92.323 195.951 95.961 190.367 101.226 186.668 C 105.91 186.64 110.572 187.319 115.053 188.683 C 115.781 188.934 116.508 188.304 116.361 187.548 C 116.294 187.197 116.043 186.909 115.705 186.792 C 115.239 186.632 114.752 186.476 114.25 186.337 C 111.035 185.454 107.735 184.922 104.406 184.746 C 114.209 179.716 128.383 179.789 144.675 186.051 C 154.73 190.011 164.122 195.479 172.531 202.266 L 91.067 202.261 Z" style="fill: rgb(3, 156, 199);" transform="matrix(-1, 0, 0, -1, 263.598007, 383.414215)"/>
      <path d="M 143.329 194.938 C 145.722 194.938 147.218 192.347 146.021 190.276 C 144.825 188.203 141.834 188.203 140.638 190.276 C 140.365 190.748 140.221 191.283 140.221 191.83 C 140.221 193.546 141.613 194.938 143.329 194.938" style="fill: rgb(213, 238, 242);" transform="matrix(-1, 0, 0, -1, 286.66333, 383.659256)"/>
      <path d="M 143.334 194.058 C 143.611 194.059 143.885 194.008 144.143 193.908 C 143.539 193.557 143.54 192.686 144.146 192.338 C 144.585 192.085 145.146 192.242 145.391 192.686 C 146.049 191.102 144.746 189.4 143.045 189.622 C 141.345 189.844 140.522 191.823 141.565 193.185 C 141.983 193.731 142.631 194.053 143.319 194.058" style="fill: rgb(58, 78, 85);" transform="matrix(-1, 0, 0, -1, 286.668182, 383.660385)"/>
      <path d="M 170.443 197.197 C 164.082 199.908 158.981 204.925 156.166 211.241 C 152.802 210.349 149.35 209.828 145.872 209.688 C 144.367 209.604 142.783 209.561 141.122 209.558 C 139.208 209.558 137.191 209.615 135.071 209.729 C 143.35 201.107 154.968 196.513 166.905 197.14 C 168.093 197.14 169.272 197.162 170.443 197.207" style="fill: rgb(192, 219, 225);" transform="matrix(-1, 0, 0, -1, 305.513992, 408.324265)"/>
      <path d="M 159.642 197.083 C 158.513 198.644 157.554 200.322 156.783 202.087 C 153.419 201.195 149.967 200.674 146.489 200.534 C 150.585 198.479 155.066 197.307 159.642 197.093" style="fill: rgb(213, 238, 242);" transform="matrix(-1, 0, 0, -1, 306.130997, 399.169998)"/>
    </g>
    <path style="fill-opacity: 0.6; fill: rgb(9, 175, 221);" d="M 0 250.178 C 133.333 232.607 266.667 232.607 400 250.178 C 533.333 268.894 666.667 268.894 800 250.178 L 800 309 L 0 309" id="seaWave04">
      <title>seaWave04</title>
    </path>
  </g>
  <title>file_type_docker</title>
  <g id="clouds" style="pointer-events: none;">
    <title>clouds</title>
    <path style="fill:#3D6889;" d="M 82.5 31.466 C 82.424 31.466 82.349 31.467 82.273 31.47 C 81.902 27.734 78.741 24.806 74.908 24.806 C 71.076 24.806 67.915 27.734 67.544 31.47 C 67.468 31.467 67.392 31.466 67.317 31.466 C 63.801 31.466 60.941 34.326 60.941 37.841 C 60.941 41.357 63.801 44.217 67.317 44.217 L 82.5 44.217 C 86.015 44.217 88.875 41.357 88.875 37.841 C 88.875 34.326 86.015 31.466 82.5 31.466 Z M 82.5 42.735 L 67.317 42.735 C 64.619 42.735 62.423 40.539 62.423 37.841 C 62.423 35.143 64.619 32.948 67.317 32.948 C 67.587 32.948 67.86 32.971 68.128 33.015 C 68.344 33.051 68.566 32.989 68.732 32.846 C 68.898 32.703 68.993 32.494 68.99 32.274 L 68.99 32.246 C 68.99 32.233 68.989 32.22 68.989 32.207 C 68.989 28.943 71.645 26.288 74.908 26.288 C 78.172 26.288 80.827 28.943 80.827 32.207 C 80.827 32.22 80.827 32.233 80.827 32.246 L 80.826 32.275 C 80.824 32.494 80.918 32.703 81.085 32.846 C 81.251 32.989 81.472 33.051 81.689 33.015 C 81.956 32.971 82.229 32.948 82.5 32.948 C 85.198 32.948 87.393 35.143 87.393 37.841 C 87.393 40.539 85.198 42.735 82.5 42.735 Z M 74.556 27.276 C 71.982 27.276 69.888 29.37 69.888 31.944 C 69.888 32.353 70.22 32.685 70.629 32.685 C 71.038 32.685 71.37 32.353 71.37 31.944 C 71.37 30.187 72.799 28.758 74.556 28.758 C 74.965 28.758 75.297 28.426 75.297 28.017 C 75.297 27.608 74.965 27.276 74.556 27.276 Z" id="cloud01">
      <title>cloud01</title>
    </path>
    <path style="fill:#3D6889;" d="M 215.451 13.419 C 215.375 13.419 215.3 13.42 215.224 13.423 C 214.853 9.687 211.692 6.759 207.859 6.759 C 204.027 6.759 200.866 9.687 200.495 13.423 C 200.419 13.42 200.343 13.419 200.268 13.419 C 196.752 13.419 193.892 16.279 193.892 19.794 C 193.892 23.31 196.752 26.17 200.268 26.17 L 215.451 26.17 C 218.966 26.17 221.826 23.31 221.826 19.794 C 221.826 16.279 218.966 13.419 215.451 13.419 Z M 215.451 24.688 L 200.268 24.688 C 197.57 24.688 195.374 22.492 195.374 19.794 C 195.374 17.096 197.57 14.901 200.268 14.901 C 200.538 14.901 200.811 14.924 201.079 14.968 C 201.295 15.004 201.517 14.942 201.683 14.799 C 201.849 14.656 201.944 14.447 201.941 14.227 L 201.941 14.199 C 201.941 14.186 201.94 14.173 201.94 14.16 C 201.94 10.896 204.596 8.241 207.859 8.241 C 211.123 8.241 213.778 10.896 213.778 14.16 C 213.778 14.173 213.778 14.186 213.778 14.199 L 213.777 14.228 C 213.775 14.447 213.869 14.656 214.036 14.799 C 214.202 14.942 214.423 15.004 214.64 14.968 C 214.907 14.924 215.18 14.901 215.451 14.901 C 218.149 14.901 220.344 17.096 220.344 19.794 C 220.344 22.492 218.149 24.688 215.451 24.688 Z M 207.507 9.229 C 204.933 9.229 202.839 11.323 202.839 13.897 C 202.839 14.306 203.171 14.638 203.58 14.638 C 203.989 14.638 204.321 14.306 204.321 13.897 C 204.321 12.14 205.75 10.711 207.507 10.711 C 207.916 10.711 208.248 10.379 208.248 9.97 C 208.248 9.561 207.916 9.229 207.507 9.229 Z" id="cloud02">
      <title>cloud02</title>
    </path>
    <path style="fill:#3D6889;" d="M 321.559 41.187 C 321.483 41.187 321.408 41.188 321.332 41.191 C 320.961 37.455 317.8 34.527 313.967 34.527 C 310.135 34.527 306.974 37.455 306.603 41.191 C 306.527 41.188 306.451 41.187 306.376 41.187 C 302.86 41.187 300 44.047 300 47.562 C 300 51.078 302.86 53.938 306.376 53.938 L 321.559 53.938 C 325.074 53.938 327.934 51.078 327.934 47.562 C 327.934 44.047 325.074 41.187 321.559 41.187 Z M 321.559 52.456 L 306.376 52.456 C 303.678 52.456 301.482 50.26 301.482 47.562 C 301.482 44.864 303.678 42.669 306.376 42.669 C 306.646 42.669 306.919 42.692 307.187 42.736 C 307.403 42.772 307.625 42.71 307.791 42.567 C 307.957 42.424 308.052 42.215 308.049 41.995 L 308.049 41.967 C 308.049 41.954 308.048 41.941 308.048 41.928 C 308.048 38.664 310.704 36.009 313.967 36.009 C 317.231 36.009 319.886 38.664 319.886 41.928 C 319.886 41.941 319.886 41.954 319.886 41.967 L 319.885 41.996 C 319.883 42.215 319.977 42.424 320.144 42.567 C 320.31 42.71 320.531 42.772 320.748 42.736 C 321.015 42.692 321.288 42.669 321.559 42.669 C 324.257 42.669 326.452 44.864 326.452 47.562 C 326.452 50.26 324.257 52.456 321.559 52.456 Z M 313.615 36.997 C 311.041 36.997 308.947 39.091 308.947 41.665 C 308.947 42.074 309.279 42.406 309.688 42.406 C 310.097 42.406 310.429 42.074 310.429 41.665 C 310.429 39.908 311.858 38.479 313.615 38.479 C 314.024 38.479 314.356 38.147 314.356 37.738 C 314.356 37.329 314.024 36.997 313.615 36.997 Z" id="cloud03">
      <title>cloud03</title>
    </path>
    <path style="fill:#3D6889;" d="M 432.424 18.101 C 432.348 18.101 432.273 18.102 432.197 18.105 C 431.826 14.369 428.665 11.441 424.832 11.441 C 421 11.441 417.839 14.369 417.468 18.105 C 417.392 18.102 417.316 18.101 417.241 18.101 C 413.725 18.101 410.865 20.961 410.865 24.476 C 410.865 27.992 413.725 30.852 417.241 30.852 L 432.424 30.852 C 435.939 30.852 438.799 27.992 438.799 24.476 C 438.799 20.961 435.939 18.101 432.424 18.101 Z M 432.424 29.37 L 417.241 29.37 C 414.543 29.37 412.347 27.174 412.347 24.476 C 412.347 21.778 414.543 19.583 417.241 19.583 C 417.511 19.583 417.784 19.606 418.052 19.65 C 418.268 19.686 418.49 19.624 418.656 19.481 C 418.822 19.338 418.917 19.129 418.914 18.909 L 418.914 18.881 C 418.914 18.868 418.913 18.855 418.913 18.842 C 418.913 15.578 421.569 12.923 424.832 12.923 C 428.096 12.923 430.751 15.578 430.751 18.842 C 430.751 18.855 430.751 18.868 430.751 18.881 L 430.75 18.91 C 430.748 19.129 430.842 19.338 431.009 19.481 C 431.175 19.624 431.396 19.686 431.613 19.65 C 431.88 19.606 432.153 19.583 432.424 19.583 C 435.122 19.583 437.317 21.778 437.317 24.476 C 437.317 27.174 435.122 29.37 432.424 29.37 Z M 424.48 13.911 C 421.906 13.911 419.812 16.005 419.812 18.579 C 419.812 18.988 420.144 19.32 420.553 19.32 C 420.962 19.32 421.294 18.988 421.294 18.579 C 421.294 16.822 422.723 15.393 424.48 15.393 C 424.889 15.393 425.221 15.061 425.221 14.652 C 425.221 14.243 424.889 13.911 424.48 13.911 Z" id="cloud04">
      <title>cloud04</title>
    </path>
    <path style="fill:#3D6889;" d="M 613.629 33.165 C 613.553 33.165 613.478 33.166 613.402 33.169 C 613.031 29.433 609.87 26.505 606.037 26.505 C 602.205 26.505 599.044 29.433 598.673 33.169 C 598.597 33.166 598.521 33.165 598.446 33.165 C 594.93 33.165 592.07 36.025 592.07 39.54 C 592.07 43.056 594.93 45.916 598.446 45.916 L 613.629 45.916 C 617.144 45.916 620.004 43.056 620.004 39.54 C 620.004 36.025 617.144 33.165 613.629 33.165 Z M 613.629 44.434 L 598.446 44.434 C 595.748 44.434 593.552 42.238 593.552 39.54 C 593.552 36.842 595.748 34.647 598.446 34.647 C 598.716 34.647 598.989 34.67 599.257 34.714 C 599.473 34.75 599.695 34.688 599.861 34.545 C 600.027 34.402 600.122 34.193 600.119 33.973 L 600.119 33.945 C 600.119 33.932 600.118 33.919 600.118 33.906 C 600.118 30.642 602.774 27.987 606.037 27.987 C 609.301 27.987 611.956 30.642 611.956 33.906 C 611.956 33.919 611.956 33.932 611.956 33.945 L 611.955 33.974 C 611.953 34.193 612.047 34.402 612.214 34.545 C 612.38 34.688 612.601 34.75 612.818 34.714 C 613.085 34.67 613.358 34.647 613.629 34.647 C 616.327 34.647 618.522 36.842 618.522 39.54 C 618.522 42.238 616.327 44.434 613.629 44.434 Z M 605.685 28.975 C 603.111 28.975 601.017 31.069 601.017 33.643 C 601.017 34.052 601.349 34.384 601.758 34.384 C 602.167 34.384 602.499 34.052 602.499 33.643 C 602.499 31.886 603.928 30.457 605.685 30.457 C 606.094 30.457 606.426 30.125 606.426 29.716 C 606.426 29.307 606.094 28.975 605.685 28.975 Z" id="cloud05">
      <title>cloud05</title>
    </path>
    <path style="fill:#3D6889;" d="M 755.336 23.954 C 755.26 23.954 755.185 23.955 755.109 23.958 C 754.738 20.222 751.577 17.294 747.744 17.294 C 743.912 17.294 740.751 20.222 740.38 23.958 C 740.304 23.955 740.228 23.954 740.153 23.954 C 736.637 23.954 733.777 26.814 733.777 30.329 C 733.777 33.845 736.637 36.705 740.153 36.705 L 755.336 36.705 C 758.851 36.705 761.711 33.845 761.711 30.329 C 761.711 26.814 758.851 23.954 755.336 23.954 Z M 755.336 35.223 L 740.153 35.223 C 737.455 35.223 735.259 33.027 735.259 30.329 C 735.259 27.631 737.455 25.436 740.153 25.436 C 740.423 25.436 740.696 25.459 740.964 25.503 C 741.18 25.539 741.402 25.477 741.568 25.334 C 741.734 25.191 741.829 24.982 741.826 24.762 L 741.826 24.734 C 741.826 24.721 741.825 24.708 741.825 24.695 C 741.825 21.431 744.481 18.776 747.744 18.776 C 751.008 18.776 753.663 21.431 753.663 24.695 C 753.663 24.708 753.663 24.721 753.663 24.734 L 753.662 24.763 C 753.66 24.982 753.754 25.191 753.921 25.334 C 754.087 25.477 754.308 25.539 754.525 25.503 C 754.792 25.459 755.065 25.436 755.336 25.436 C 758.034 25.436 760.229 27.631 760.229 30.329 C 760.229 33.027 758.034 35.223 755.336 35.223 Z M 747.392 19.764 C 744.818 19.764 742.724 21.858 742.724 24.432 C 742.724 24.841 743.056 25.173 743.465 25.173 C 743.874 25.173 744.206 24.841 744.206 24.432 C 744.206 22.675 745.635 21.246 747.392 21.246 C 747.801 21.246 748.133 20.914 748.133 20.505 C 748.133 20.096 747.801 19.764 747.392 19.764 Z" id="cloud06">
      <title>cloud06</title>
    </path>
  </g>
  <title>tower</title>
</svg>