<?xml version="1.0" encoding="utf-8"?>
<svg viewBox="0 0 800 310" xmlns="http://www.w3.org/2000/svg">
  <defs>
    <linearGradient gradientUnits="userSpaceOnUse" x1="504.313" y1="229.55" x2="504.313" y2="239.806" id="gradient-1" gradientTransform="matrix(1.552598, 0, 0, 1.246909, 0.000004, -58.564068)">
      <stop offset="0" style="stop-color: rgba(86, 83, 21, 1)"/>
      <stop offset="1" style="stop-color: rgba(4, 4, 1, 1)"/>
    </linearGradient>
  </defs>
  <g id="crane" style="" transform="matrix(0.287996, 0, 0, 0.287996, 436.59082, 69.68412)">
    <title>crane</title>
    <g id="crane_base">
      <title>crane_base</title>
      <g transform="matrix(1, 0, 0, 1, 357.724701, 51.935432)">
        <path style="fill:#ADABA6;" d="M310.021,457.094c-2.189,0-4.375-0.846-6.027-2.532c-3.262-3.329-3.21-8.672,0.119-11.936 l80.776-79.172l-80.776-79.17c-1.619-1.588-2.532-3.76-2.532-6.028c0-2.269,0.913-4.439,2.532-6.027l86.925-85.2 c3.329-3.263,8.673-3.207,11.934,0.12c3.262,3.329,3.209,8.673-0.119,11.935l-80.776,79.172l80.776,79.171 c1.619,1.588,2.533,3.76,2.533,6.027c0,2.269-0.913,4.439-2.533,6.028l-86.925,85.2 C314.285,456.292,312.152,457.094,310.021,457.094z"/>
        <path style="fill:#ADABA6;" d="M396.945,457.094c-2.132,0-4.265-0.802-5.907-2.413l-86.925-85.2 c-1.619-1.588-2.532-3.76-2.532-6.028c0-2.269,0.913-4.439,2.532-6.027l80.776-79.171l-80.776-79.172 c-3.33-3.262-3.383-8.606-0.119-11.935c3.262-3.327,8.605-3.383,11.934-0.12l86.925,85.2c1.619,1.588,2.533,3.76,2.533,6.027 c0,2.269-0.913,4.439-2.533,6.028l-80.776,79.17l80.776,79.172c3.329,3.262,3.383,8.607,0.119,11.936 C401.32,456.248,399.132,457.094,396.945,457.094z"/>
      </g>
      <path style="fill:#7C7A75;" d="M 803.026 537.359 L 788.219 511.312 C 787.219 509.553 785.351 508.467 783.326 508.467 L 639.088 508.467 C 637.064 508.467 635.196 509.554 634.195 511.313 L 619.39 537.359 C 618.4 539.101 618.411 541.237 619.417 542.968 C 620.424 544.7 622.277 545.764 624.28 545.764 L 798.133 545.764 C 800.136 545.764 801.989 544.699 802.996 542.968 C 804.005 541.237 804.016 539.1 803.026 537.359 Z"/>
      <g transform="matrix(1, 0, 0, 1, 357.724701, 51.935432)">
        <path style="fill:#CCC3A8;" d="M396.946,457.094h-86.925c-4.662,0-8.44-3.778-8.44-8.44v-85.2c0-4.662,3.778-8.44,8.44-8.44h86.925 c4.661,0,8.44,3.778,8.44,8.44v85.2C405.385,453.317,401.607,457.094,396.946,457.094z M318.46,440.215h70.046v-68.321H318.46 L318.46,440.215L318.46,440.215z"/>
        <path style="fill:#CCC3A8;" d="M396.946,371.894h-86.925c-4.662,0-8.44-3.778-8.44-8.44v-85.198c0-4.662,3.778-8.44,8.44-8.44 h86.925c4.661,0,8.44,3.778,8.44,8.44v85.198C405.385,368.117,401.607,371.894,396.946,371.894z M318.46,355.015h70.046v-68.319 H318.46L318.46,355.015L318.46,355.015z"/>
        <path style="fill:#CCC3A8;" d="M396.946,286.696h-86.925c-4.662,0-8.44-3.778-8.44-8.44v-85.2c0-4.662,3.778-8.44,8.44-8.44h86.925 c4.661,0,8.44,3.778,8.44,8.44v85.2C405.385,282.919,401.607,286.696,396.946,286.696z M318.46,269.817h70.046v-68.321H318.46 L318.46,269.817L318.46,269.817z"/>
      </g>
      <path style="fill:#6B6861;" d="M 641.924 542.969 C 640.917 541.237 640.907 539.1 641.897 537.36 L 656.702 511.314 C 657.702 509.555 659.57 508.468 661.595 508.468 L 639.09 508.468 C 637.066 508.468 635.198 509.555 634.197 511.314 L 619.392 537.36 C 618.402 539.102 618.413 541.238 619.419 542.969 C 620.426 544.701 622.279 545.765 624.282 545.765 L 646.787 545.765 C 644.784 545.765 642.931 544.701 641.924 542.969 Z"/>
      <path style="fill:#CCC3A8;" d="M 773.833 532.262 L 812.863 532.262 C 820.652 532.262 826.966 538.576 826.966 546.365 L 826.966 549.831 C 826.966 557.62 820.652 563.934 812.863 563.934 L 728.094 563.934 L 694.32 563.934 L 609.551 563.934 C 601.762 563.934 595.448 557.62 595.448 549.831 L 595.448 546.365 C 595.448 538.576 601.762 532.262 609.551 532.262 L 694.32 532.262 L 733.72 532.262 L 743.45 532.262"/>
      <path style="fill:#C9B585;" d="M 617.954 549.832 L 617.954 546.366 C 617.954 538.577 624.268 532.263 632.057 532.263 L 609.552 532.263 C 601.763 532.263 595.449 538.577 595.449 546.366 L 595.449 549.832 C 595.449 557.621 601.763 563.935 609.552 563.935 L 632.057 563.935 C 624.268 563.935 617.954 557.621 617.954 549.832 Z"/>
    </g>
    <g id="crane_arm_and_hook">
      <title>crane_arm_and_hook</title>
      <g id="crane_hook" transform="matrix(1, 0, 0, 1, -409.727539, 0)">
        <title>crane_hook</title>
        <path style="fill: rgb(223, 219, 204);" d="M 435.503 134.141 C 430.841 134.141 427.063 138.296 427.063 143.423 L 427.063 166.936 L 427.063 325.224 L 427.063 348.736 C 427.063 353.863 430.841 358.018 435.503 358.018 C 440.164 358.018 443.943 353.863 443.943 348.736 L 443.943 325.224 L 443.943 166.936 L 443.943 143.423 C 443.943 138.295 440.164 134.141 435.503 134.141 Z" id="hook_arm">
          <title>hook_arm</title>
        </path>
        <g id="hook_head" transform="matrix(1, 0, 0, 1, 0, 24.305895)">
          <title>hook_head</title>
          <path style="fill:#7C7A75;" d="M 446.395 386.35 C 422.586 386.53 447.735 386.341 423.609 386.599 L 426.53 359.391 C 426.53 354.73 430.308 350.951 434.97 350.951 C 439.631 350.951 443.41 354.73 443.41 359.391 L 446.395 386.35 Z"/>
          <path style="fill:#FFB92E;" d="M 435.503 367.831 C 422.544 367.831 412.002 357.288 412.002 344.33 C 412.002 331.372 422.545 320.831 435.503 320.831 C 448.461 320.831 459.002 331.373 459.002 344.33 C 459.003 357.288 448.461 367.831 435.503 367.831 Z M 435.503 337.711 C 431.851 337.711 428.881 340.681 428.881 344.331 C 428.881 347.982 431.852 350.953 435.503 350.953 C 439.153 350.953 442.123 347.982 442.123 344.331 C 442.123 340.681 439.154 337.711 435.503 337.711 Z"/>
        </g>
        <path style="fill:#7C7A75;" d="M 419.77 95.934 L 419.77 105.473 L 419.77 115.758 L 419.77 118.489 L 419.77 125.297 L 419.77 128.027 L 419.77 138.313 L 419.77 147.851 C 419.77 155.64 426.084 161.954 433.873 161.954 L 437.339 161.954 C 445.128 161.954 451.442 155.64 451.442 147.851 L 451.442 138.311 L 451.442 128.025 L 451.442 125.295 L 451.442 118.487 L 451.442 115.756 L 451.442 105.471 L 451.442 95.932 L 419.77 95.932 L 419.77 95.934 Z" id="hook_gear">
          <title>hook_gear</title>
        </path>
      </g>
      <g id="crane_arm">
        <title>crane_arm</title>
        <polygon style="fill:#7C7A75;" points="630.365 168.423 630.365 168.423 630.365 113.507 573.684 113.507"/>
        <path style="fill:#FFB92E;" d="M 781.924 101.391 L 640.493 101.391 C 633.034 101.391 626.99 107.437 626.99 114.894 L 626.99 129.401 L 626.99 138.003 L 626.99 152.51 L 626.99 185.903 L 626.99 200.41 L 626.99 209.01 L 626.99 223.517 C 626.99 230.974 633.034 237.02 640.493 237.02 L 781.924 237.02 C 789.381 237.02 795.427 230.974 795.427 223.517 L 795.427 209.01 L 795.427 200.41 L 795.427 185.903 L 795.427 152.509 L 795.427 138.002 L 795.427 129.4 L 795.427 114.894 C 795.427 107.437 789.381 101.391 781.924 101.391 Z"/>
        <path style="fill:#36A1CB;" d="M 693.573 146.622 C 686.115 146.622 680.07 152.668 680.07 160.125 L 680.07 192.788 C 680.07 200.245 686.115 206.291 693.573 206.291 L 795.427 206.291 L 795.427 146.621 L 693.573 146.621 L 693.573 146.622 Z"/>
        <rect x="737.742" y="146.627" style="fill:#52C6EB;" width="57.682" height="59.673"/>
        <path style="fill:#EF9A1D;" d="M 649.495 223.516 L 649.495 209.009 L 649.495 200.409 L 649.495 185.902 L 649.495 152.509 L 649.495 138.002 L 649.495 129.4 L 649.495 114.894 C 649.495 107.437 655.539 101.391 662.998 101.391 L 640.493 101.391 C 633.034 101.391 626.99 107.437 626.99 114.894 L 626.99 129.401 L 626.99 138.003 L 626.99 152.51 L 626.99 185.903 L 626.99 200.41 L 626.99 209.01 L 626.99 223.517 C 626.99 230.974 633.034 237.02 640.493 237.02 L 662.998 237.02 C 655.539 237.019 649.495 230.972 649.495 223.516 Z"/>
        <path style="fill:#7C7A75;" d="M 756.937 81.664 L 744.296 55.141 C 743.361 53.182 741.385 51.935 739.216 51.935 L 683.2 51.935 C 681.03 51.935 679.053 53.182 678.121 55.141 L 665.481 81.664 C 664.651 83.407 664.771 85.455 665.802 87.088 C 666.833 88.721 668.629 89.711 670.561 89.711 L 751.86 89.711 C 753.79 89.711 755.587 88.721 756.618 87.088 C 757.646 85.455 757.768 83.407 756.937 81.664 Z"/>
        <path style="fill:#6B6861;" d="M 688.305 87.087 C 687.274 85.454 687.154 83.406 687.984 81.663 L 700.625 55.141 C 701.559 53.183 703.535 51.935 705.704 51.935 L 683.199 51.935 C 681.029 51.935 679.052 53.182 678.12 55.141 L 665.48 81.664 C 664.65 83.407 664.77 85.455 665.801 87.088 C 666.832 88.721 668.628 89.711 670.56 89.711 L 693.065 89.711 C 691.132 89.71 689.336 88.72 688.305 87.087 Z"/>
        <path style="fill: rgb(255, 185, 46);" d="M 799.496 84.084 L 634.365 84.084 L 439.957 84.084 L 382.237 84.084 L 188.78 84.084 L 23.649 84.084 C 8.476 84.084 -3.824 90.398 -3.824 98.187 L -3.824 101.653 C -3.824 109.442 8.476 115.756 23.649 115.756 L 188.78 115.756 L 634.364 115.756 L 799.493 115.756 C 814.667 115.756 826.966 109.442 826.966 101.653 L 826.966 98.187 C 826.968 90.399 814.668 84.084 799.496 84.084 Z"/>
        <path style="fill:#EF9A1D;" d="M 9.821 101.654 L 9.821 98.188 C 9.821 90.399 16.135 84.085 23.924 84.085 L 1.419 84.085 C -6.37 84.085 -12.684 90.399 -12.684 98.188 L -12.684 101.654 C -12.684 109.443 -6.37 115.757 1.419 115.757 L 23.924 115.757 C 16.135 115.757 9.821 109.442 9.821 101.654 Z"/>
      </g>
    </g>
  </g>
  <rect y="227.663" width="800" height="12.788" style="fill-rule: evenodd; paint-order: fill; fill: url(#gradient-1);" id="harbour">
    <title>harbour</title>
  </rect>
  <g id="containers" transform="matrix(1, 0, 0, 1, 1, 0)" style="pointer-events: none;">
    <title>containers</title>
    <rect x="437.434" y="191.718" width="11.309" height="11.234" style="stroke: rgb(58, 78, 85); fill: rgb(38, 194, 238);" id="container01">
      <title>container01</title>
    </rect>
    <rect x="437.436" y="203.939" width="11.309" height="11.234" style="fill: rgb(0, 172, 211); stroke: rgb(58, 78, 85);" id="container02">
      <title>container02</title>
    </rect>
    <rect x="449.695" y="203.939" width="11.309" height="11.234" style="stroke: rgb(58, 78, 85); fill: rgb(38, 194, 238);" id="container03">
      <title>container03</title>
    </rect>
    <rect x="461.953" y="203.939" width="11.309" height="11.234" style="fill: rgb(0, 172, 211); stroke: rgb(58, 78, 85);" id="container04">
      <title>container04</title>
    </rect>
    <rect y="216.129" width="11.309" height="11.234" style="fill: rgb(0, 172, 211); stroke: rgb(58, 78, 85);" x="425.435" id="container05">
      <title>container05</title>
    </rect>
    <rect x="437.61" y="216.129" width="11.309" height="11.234" style="stroke: rgb(58, 78, 85); fill: rgb(38, 194, 238);" id="container06">
      <title>container06</title>
    </rect>
    <rect x="449.786" y="216.129" width="11.309" height="11.234" style="fill: rgb(0, 172, 211); stroke: rgb(58, 78, 85);" id="container07">
      <title>container07</title>
    </rect>
    <rect x="461.961" y="216.129" width="11.309" height="11.234" style="stroke: rgb(58, 78, 85); fill: rgb(38, 194, 238);" id="container08">
      <title>container08</title>
    </rect>
    <rect x="474.136" width="11.309" height="11.234" style="fill: rgb(0, 172, 211); stroke: rgb(58, 78, 85);" y="216.129" id="container09">
      <title>container09</title>
    </rect>
  </g>
  <g style="pointer-events: none;" id="sea">
    <title>sea</title>
    <path style="fill: rgb(132, 181, 203);" d="M -266.505 250.4 C -271.434 247.998 -274.494 243.519 -274.494 238.715 C -274.494 237.652 -275.516 236.789 -276.776 236.789 C -287.273 236.789 -295.942 243.475 -297.153 252.066 C -304.96 251.185 -311.005 245.542 -311.005 238.715 C -311.005 237.652 -312.027 236.789 -313.287 236.789 C -323.784 236.789 -332.452 243.475 -333.664 252.066 C -341.471 251.185 -347.515 245.542 -347.515 238.715 C -347.515 237.652 -348.538 236.789 -349.798 236.789 C -360.294 236.789 -368.963 243.475 -370.175 252.066 C -377.982 251.185 -384.026 245.542 -384.026 238.715 C -384.026 237.652 -385.049 236.789 -386.308 236.789 C -390.963 236.789 -395.523 238.137 -399.144 240.588 C -400.128 241.252 -400.288 242.466 -399.498 243.294 C -399.049 243.77 -398.384 244.016 -397.716 244.016 C -397.217 244.016 -396.712 243.877 -396.29 243.592 C -393.992 242.04 -391.299 241.108 -388.426 240.788 C -387.208 249.373 -378.543 256.051 -368.054 256.051 C -366.794 256.051 -365.771 255.188 -365.771 254.125 C -365.771 247.298 -359.726 241.657 -351.92 240.774 C -350.708 249.365 -342.039 256.051 -331.542 256.051 C -330.283 256.051 -329.261 255.188 -329.261 254.125 C -329.261 247.298 -323.215 241.657 -315.409 240.774 C -314.197 249.365 -305.529 256.051 -295.031 256.051 C -293.772 256.051 -292.75 255.188 -292.75 254.125 C -292.75 247.298 -286.702 241.655 -278.896 240.774 C -278.129 246.147 -274.412 250.993 -268.789 253.734 C -268.431 253.909 -268.038 253.992 -267.651 253.992 C -266.861 253.992 -266.094 253.647 -265.672 253.029 C -265.04 252.11 -265.414 250.931 -266.505 250.4 Z M -133.781 250.173 C -138.71 247.771 -141.77 243.292 -141.77 238.488 C -141.77 237.425 -142.793 236.562 -144.053 236.562 C -154.549 236.562 -163.218 243.248 -164.43 251.839 C -172.236 250.958 -178.281 245.315 -178.281 238.488 C -178.281 237.425 -179.303 236.562 -180.563 236.562 C -191.06 236.562 -199.729 243.248 -200.94 251.839 C -208.748 250.958 -214.792 245.315 -214.792 238.488 C -214.792 237.425 -215.814 236.562 -217.074 236.562 C -227.571 236.562 -236.24 243.248 -237.451 251.839 C -245.259 250.958 -251.303 245.315 -251.303 238.488 C -251.303 237.425 -252.325 236.562 -253.585 236.562 C -258.24 236.562 -262.8 237.91 -266.421 240.361 C -267.405 241.025 -267.564 242.239 -266.774 243.067 C -266.325 243.543 -265.661 243.789 -264.992 243.789 C -264.493 243.789 -263.988 243.65 -263.566 243.365 C -261.269 241.813 -258.576 240.881 -255.703 240.561 C -254.485 249.146 -245.819 255.824 -235.33 255.824 C -234.07 255.824 -233.048 254.961 -233.048 253.898 C -233.048 247.071 -227.003 241.43 -219.196 240.547 C -217.985 249.138 -209.316 255.824 -198.818 255.824 C -197.559 255.824 -196.537 254.961 -196.537 253.898 C -196.537 247.071 -190.492 241.43 -182.686 240.547 C -181.474 249.138 -172.805 255.824 -162.307 255.824 C -161.049 255.824 -160.026 254.961 -160.026 253.898 C -160.026 247.071 -153.979 241.428 -146.173 240.547 C -145.405 245.92 -141.688 250.766 -136.066 253.507 C -135.708 253.682 -135.315 253.765 -134.927 253.765 C -134.137 253.765 -133.371 253.42 -132.948 252.802 C -132.317 251.883 -132.69 250.704 -133.781 250.173 Z M -1.162 250.645 C -6.09 248.243 -9.151 243.764 -9.151 238.96 C -9.151 237.897 -10.173 237.034 -11.433 237.034 C -21.93 237.034 -30.598 243.72 -31.81 252.311 C -39.616 251.43 -45.662 245.787 -45.662 238.96 C -45.662 237.897 -46.684 237.034 -47.944 237.034 C -58.44 237.034 -67.109 243.72 -68.321 252.311 C -76.128 251.43 -82.172 245.787 -82.172 238.96 C -82.172 237.897 -83.195 237.034 -84.454 237.034 C -94.951 237.034 -103.62 243.72 -104.832 252.311 C -112.639 251.43 -118.683 245.787 -118.683 238.96 C -118.683 237.897 -119.705 237.034 -120.965 237.034 C -125.62 237.034 -130.18 238.382 -133.801 240.833 C -134.785 241.497 -134.945 242.711 -134.155 243.539 C -133.706 244.015 -133.041 244.261 -132.373 244.261 C -131.873 244.261 -131.369 244.122 -130.946 243.837 C -128.649 242.285 -125.956 241.353 -123.083 241.033 C -121.865 249.618 -113.199 256.296 -102.71 256.296 C -101.451 256.296 -100.428 255.433 -100.428 254.37 C -100.428 247.543 -94.383 241.902 -86.577 241.019 C -85.365 249.61 -76.696 256.296 -66.199 256.296 C -64.94 256.296 -63.918 255.433 -63.918 254.37 C -63.918 247.543 -57.872 241.902 -50.066 241.019 C -48.854 249.61 -40.186 256.296 -29.688 256.296 C -28.429 256.296 -27.407 255.433 -27.407 254.37 C -27.407 247.543 -21.359 241.9 -13.553 241.019 C -12.786 246.392 -9.069 251.238 -3.446 253.979 C -3.088 254.154 -2.695 254.237 -2.308 254.237 C -1.517 254.237 -0.751 253.892 -0.329 253.274 C 0.303 252.355 -0.07 251.176 -1.162 250.645 Z M 132.296 249.967 C 127.367 247.565 124.307 243.086 124.307 238.282 C 124.307 237.219 123.285 236.356 122.025 236.356 C 111.528 236.356 102.86 243.042 101.648 251.633 C 93.842 250.752 87.796 245.109 87.796 238.282 C 87.796 237.219 86.774 236.356 85.514 236.356 C 75.018 236.356 66.349 243.042 65.137 251.633 C 57.33 250.752 51.286 245.109 51.286 238.282 C 51.286 237.219 50.263 236.356 49.003 236.356 C 38.507 236.356 29.838 243.042 28.626 251.633 C 20.819 250.752 14.775 245.109 14.775 238.282 C 14.775 237.219 13.753 236.356 12.493 236.356 C 7.838 236.356 3.278 237.704 -0.343 240.155 C -1.327 240.819 -1.487 242.033 -0.697 242.861 C -0.248 243.337 0.417 243.583 1.085 243.583 C 1.584 243.583 2.089 243.444 2.512 243.159 C 4.809 241.607 7.502 240.675 10.375 240.355 C 11.593 248.94 20.259 255.618 30.748 255.618 C 32.007 255.618 33.03 254.755 33.03 253.692 C 33.03 246.865 39.075 241.224 46.881 240.341 C 48.093 248.932 56.762 255.618 67.259 255.618 C 68.518 255.618 69.54 254.755 69.54 253.692 C 69.54 246.865 75.586 241.224 83.392 240.341 C 84.604 248.932 93.272 255.618 103.77 255.618 C 105.029 255.618 106.051 254.755 106.051 253.692 C 106.051 246.865 112.099 241.222 119.905 240.341 C 120.672 245.714 124.389 250.56 130.012 253.301 C 130.37 253.476 130.763 253.559 131.15 253.559 C 131.941 253.559 132.707 253.214 133.129 252.596 C 133.761 251.677 133.387 250.498 132.296 249.967 Z M 265.325 249.799 C 260.396 247.397 257.336 242.918 257.336 238.114 C 257.336 237.051 256.314 236.188 255.054 236.188 C 244.557 236.188 235.888 242.874 234.677 251.465 C 226.87 250.584 220.825 244.941 220.825 238.114 C 220.825 237.051 219.803 236.188 218.543 236.188 C 208.046 236.188 199.378 242.874 198.166 251.465 C 190.359 250.584 184.315 244.941 184.315 238.114 C 184.315 237.051 183.292 236.188 182.032 236.188 C 171.536 236.188 162.867 242.874 161.655 251.465 C 153.848 250.584 147.804 244.941 147.804 238.114 C 147.804 237.051 146.781 236.188 145.522 236.188 C 140.867 236.188 136.307 237.536 132.686 239.987 C 131.702 240.651 131.542 241.865 132.332 242.693 C 132.781 243.169 133.446 243.415 134.114 243.415 C 134.613 243.415 135.118 243.276 135.54 242.991 C 137.838 241.439 140.531 240.507 143.404 240.187 C 144.622 248.772 153.287 255.45 163.776 255.45 C 165.036 255.45 166.059 254.587 166.059 253.524 C 166.059 246.697 172.104 241.056 179.91 240.173 C 181.122 248.764 189.791 255.45 200.288 255.45 C 201.547 255.45 202.569 254.587 202.569 253.524 C 202.569 246.697 208.615 241.056 216.421 240.173 C 217.633 248.764 226.301 255.45 236.799 255.45 C 238.058 255.45 239.08 254.587 239.08 253.524 C 239.08 246.697 245.127 241.054 252.934 240.173 C 253.701 245.546 257.418 250.392 263.041 253.133 C 263.399 253.308 263.792 253.391 264.179 253.391 C 264.969 253.391 265.736 253.046 266.158 252.428 C 266.79 251.509 266.416 250.33 265.325 249.799 Z M 398.86 250.799 C 393.931 248.397 390.871 243.918 390.871 239.114 C 390.871 238.051 389.848 237.188 388.589 237.188 C 378.092 237.188 369.423 243.874 368.211 252.465 C 360.405 251.584 354.36 245.941 354.36 239.114 C 354.36 238.051 353.338 237.188 352.078 237.188 C 341.581 237.188 332.912 243.874 331.701 252.465 C 323.893 251.584 317.849 245.941 317.849 239.114 C 317.849 238.051 316.827 237.188 315.567 237.188 C 305.07 237.188 296.401 243.874 295.19 252.465 C 287.382 251.584 281.338 245.941 281.338 239.114 C 281.338 238.051 280.316 237.188 279.056 237.188 C 274.401 237.188 269.841 238.536 266.22 240.987 C 265.236 241.651 265.077 242.865 265.867 243.693 C 266.316 244.169 266.98 244.415 267.649 244.415 C 268.148 244.415 268.653 244.276 269.075 243.991 C 271.373 242.439 274.065 241.507 276.938 241.187 C 278.157 249.772 286.822 256.45 297.311 256.45 C 298.571 256.45 299.593 255.587 299.593 254.524 C 299.593 247.697 305.638 242.056 313.445 241.173 C 314.656 249.764 323.325 256.45 333.823 256.45 C 335.082 256.45 336.104 255.587 336.104 254.524 C 336.104 247.697 342.149 242.056 349.955 241.173 C 351.167 249.764 359.836 256.45 370.334 256.45 C 371.592 256.45 372.615 255.587 372.615 254.524 C 372.615 247.697 378.662 242.054 386.468 241.173 C 387.236 246.546 390.953 251.392 396.575 254.133 C 396.933 254.308 397.326 254.391 397.714 254.391 C 398.504 254.391 399.27 254.046 399.693 253.428 C 400.324 252.509 399.951 251.33 398.86 250.799 Z" id="first_wave">
      <title>first_wave</title>
    </path>
    <path style="fill: rgb(132, 181, 203);" d="M 533.495 250.212 C 528.566 247.81 525.506 243.331 525.506 238.527 C 525.506 237.464 524.484 236.601 523.224 236.601 C 512.727 236.601 504.058 243.287 502.847 251.878 C 495.041 250.997 488.995 245.354 488.995 238.527 C 488.995 237.464 487.973 236.601 486.713 236.601 C 476.217 236.601 467.548 243.287 466.336 251.878 C 458.529 250.997 452.485 245.354 452.485 238.527 C 452.485 237.464 451.462 236.601 450.202 236.601 C 439.706 236.601 431.037 243.287 429.825 251.878 C 422.018 250.997 415.974 245.354 415.974 238.527 C 415.974 237.464 414.952 236.601 413.692 236.601 C 409.037 236.601 404.477 237.949 400.856 240.4 C 399.872 241.064 399.712 242.278 400.502 243.106 C 400.951 243.582 401.616 243.828 402.284 243.828 C 402.783 243.828 403.288 243.689 403.711 243.404 C 406.008 241.852 408.701 240.92 411.574 240.6 C 412.792 249.185 421.457 255.863 431.947 255.863 C 433.206 255.863 434.229 255 434.229 253.937 C 434.229 247.11 440.274 241.469 448.08 240.586 C 449.292 249.177 457.961 255.863 468.458 255.863 C 469.717 255.863 470.739 255 470.739 253.937 C 470.739 247.11 476.785 241.469 484.591 240.586 C 485.803 249.177 494.471 255.863 504.969 255.863 C 506.228 255.863 507.25 255 507.25 253.937 C 507.25 247.11 513.298 241.467 521.104 240.586 C 521.871 245.959 525.588 250.805 531.211 253.546 C 531.569 253.721 531.962 253.804 532.349 253.804 C 533.139 253.804 533.906 253.459 534.328 252.841 C 534.96 251.922 534.586 250.743 533.495 250.212 Z M 666.219 249.985 C 661.29 247.583 658.23 243.104 658.23 238.3 C 658.23 237.237 657.207 236.374 655.947 236.374 C 645.451 236.374 636.782 243.06 635.57 251.651 C 627.764 250.77 621.719 245.127 621.719 238.3 C 621.719 237.237 620.697 236.374 619.437 236.374 C 608.94 236.374 600.271 243.06 599.06 251.651 C 591.252 250.77 585.208 245.127 585.208 238.3 C 585.208 237.237 584.186 236.374 582.926 236.374 C 572.429 236.374 563.76 243.06 562.549 251.651 C 554.741 250.77 548.697 245.127 548.697 238.3 C 548.697 237.237 547.675 236.374 546.415 236.374 C 541.76 236.374 537.2 237.722 533.579 240.173 C 532.595 240.837 532.436 242.051 533.226 242.879 C 533.675 243.355 534.339 243.601 535.008 243.601 C 535.507 243.601 536.012 243.462 536.434 243.177 C 538.731 241.625 541.424 240.693 544.297 240.373 C 545.515 248.958 554.181 255.636 564.67 255.636 C 565.93 255.636 566.952 254.773 566.952 253.71 C 566.952 246.883 572.997 241.242 580.804 240.359 C 582.015 248.95 590.684 255.636 601.182 255.636 C 602.441 255.636 603.463 254.773 603.463 253.71 C 603.463 246.883 609.508 241.242 617.314 240.359 C 618.526 248.95 627.195 255.636 637.693 255.636 C 638.951 255.636 639.974 254.773 639.974 253.71 C 639.974 246.883 646.021 241.24 653.827 240.359 C 654.595 245.732 658.312 250.578 663.934 253.319 C 664.292 253.494 664.685 253.577 665.073 253.577 C 665.863 253.577 666.629 253.232 667.052 252.614 C 667.683 251.695 667.31 250.516 666.219 249.985 Z M 798.838 250.457 C 793.91 248.055 790.849 243.576 790.849 238.772 C 790.849 237.709 789.827 236.846 788.567 236.846 C 778.07 236.846 769.402 243.532 768.19 252.123 C 760.384 251.242 754.338 245.599 754.338 238.772 C 754.338 237.709 753.316 236.846 752.056 236.846 C 741.56 236.846 732.891 243.532 731.679 252.123 C 723.872 251.242 717.828 245.599 717.828 238.772 C 717.828 237.709 716.805 236.846 715.546 236.846 C 705.049 236.846 696.38 243.532 695.168 252.123 C 687.361 251.242 681.317 245.599 681.317 238.772 C 681.317 237.709 680.295 236.846 679.035 236.846 C 674.38 236.846 669.82 238.194 666.199 240.645 C 665.215 241.309 665.055 242.523 665.845 243.351 C 666.294 243.827 666.959 244.073 667.627 244.073 C 668.127 244.073 668.631 243.934 669.054 243.649 C 671.351 242.097 674.044 241.165 676.917 240.845 C 678.135 249.43 686.801 256.108 697.29 256.108 C 698.549 256.108 699.572 255.245 699.572 254.182 C 699.572 247.355 705.617 241.714 713.423 240.831 C 714.635 249.422 723.304 256.108 733.801 256.108 C 735.06 256.108 736.082 255.245 736.082 254.182 C 736.082 247.355 742.128 241.714 749.934 240.831 C 751.146 249.422 759.814 256.108 770.312 256.108 C 771.571 256.108 772.593 255.245 772.593 254.182 C 772.593 247.355 778.641 241.712 786.447 240.831 C 787.214 246.204 790.931 251.05 796.554 253.791 C 796.912 253.966 797.305 254.049 797.692 254.049 C 798.483 254.049 799.249 253.704 799.671 253.086 C 800.303 252.167 799.93 250.988 798.838 250.457 Z M 932.296 249.779 C 927.367 247.377 924.307 242.898 924.307 238.094 C 924.307 237.031 923.285 236.168 922.025 236.168 C 911.528 236.168 902.859 242.854 901.648 251.445 C 893.842 250.564 887.796 244.921 887.796 238.094 C 887.796 237.031 886.774 236.168 885.514 236.168 C 875.018 236.168 866.349 242.854 865.137 251.445 C 857.33 250.564 851.286 244.921 851.286 238.094 C 851.286 237.031 850.263 236.168 849.003 236.168 C 838.507 236.168 829.838 242.854 828.626 251.445 C 820.819 250.564 814.775 244.921 814.775 238.094 C 814.775 237.031 813.753 236.168 812.493 236.168 C 807.838 236.168 803.278 237.516 799.657 239.967 C 798.673 240.631 798.513 241.845 799.303 242.673 C 799.752 243.149 800.417 243.395 801.085 243.395 C 801.584 243.395 802.089 243.256 802.512 242.971 C 804.809 241.419 807.502 240.487 810.375 240.167 C 811.593 248.752 820.259 255.43 830.748 255.43 C 832.007 255.43 833.03 254.567 833.03 253.504 C 833.03 246.677 839.075 241.036 846.881 240.153 C 848.093 248.744 856.762 255.43 867.259 255.43 C 868.518 255.43 869.54 254.567 869.54 253.504 C 869.54 246.677 875.586 241.036 883.392 240.153 C 884.604 248.744 893.272 255.43 903.77 255.43 C 905.029 255.43 906.051 254.567 906.051 253.504 C 906.051 246.677 912.099 241.034 919.905 240.153 C 920.672 245.526 924.389 250.372 930.012 253.113 C 930.37 253.288 930.763 253.371 931.15 253.371 C 931.94 253.371 932.707 253.026 933.129 252.408 C 933.761 251.489 933.387 250.31 932.296 249.779 Z M 1065.325 249.611 C 1060.396 247.209 1057.336 242.73 1057.336 237.926 C 1057.336 236.863 1056.314 236 1055.054 236 C 1044.557 236 1035.888 242.686 1034.677 251.277 C 1026.87 250.396 1020.825 244.753 1020.825 237.926 C 1020.825 236.863 1019.803 236 1018.543 236 C 1008.046 236 999.378 242.686 998.166 251.277 C 990.359 250.396 984.314 244.753 984.314 237.926 C 984.314 236.863 983.292 236 982.032 236 C 971.536 236 962.867 242.686 961.655 251.277 C 953.848 250.396 947.804 244.753 947.804 237.926 C 947.804 236.863 946.781 236 945.522 236 C 940.867 236 936.307 237.348 932.686 239.799 C 931.702 240.463 931.542 241.677 932.332 242.505 C 932.781 242.981 933.445 243.227 934.114 243.227 C 934.613 243.227 935.118 243.088 935.54 242.803 C 937.838 241.251 940.53 240.319 943.404 239.999 C 944.622 248.584 953.287 255.262 963.776 255.262 C 965.036 255.262 966.059 254.399 966.059 253.336 C 966.059 246.509 972.104 240.868 979.91 239.985 C 981.122 248.576 989.791 255.262 1000.288 255.262 C 1001.547 255.262 1002.569 254.399 1002.569 253.336 C 1002.569 246.509 1008.615 240.868 1016.421 239.985 C 1017.632 248.576 1026.301 255.262 1036.799 255.262 C 1038.058 255.262 1039.08 254.399 1039.08 253.336 C 1039.08 246.509 1045.127 240.866 1052.934 239.985 C 1053.701 245.358 1057.418 250.204 1063.041 252.945 C 1063.399 253.12 1063.792 253.203 1064.179 253.203 C 1064.969 253.203 1065.736 252.858 1066.158 252.24 C 1066.79 251.321 1066.416 250.142 1065.325 249.611 Z M 1198.86 250.611 C 1193.931 248.209 1190.871 243.73 1190.871 238.926 C 1190.871 237.863 1189.848 237 1188.588 237 C 1178.092 237 1169.423 243.686 1168.211 252.277 C 1160.405 251.396 1154.36 245.753 1154.36 238.926 C 1154.36 237.863 1153.338 237 1152.078 237 C 1141.581 237 1132.912 243.686 1131.701 252.277 C 1123.893 251.396 1117.849 245.753 1117.849 238.926 C 1117.849 237.863 1116.827 237 1115.567 237 C 1105.07 237 1096.401 243.686 1095.19 252.277 C 1087.382 251.396 1081.338 245.753 1081.338 238.926 C 1081.338 237.863 1080.316 237 1079.056 237 C 1074.401 237 1069.841 238.348 1066.22 240.799 C 1065.236 241.463 1065.077 242.677 1065.867 243.505 C 1066.316 243.981 1066.98 244.227 1067.649 244.227 C 1068.148 244.227 1068.653 244.088 1069.075 243.803 C 1071.372 242.251 1074.065 241.319 1076.938 240.999 C 1078.156 249.584 1086.822 256.262 1097.311 256.262 C 1098.571 256.262 1099.593 255.399 1099.593 254.336 C 1099.593 247.509 1105.638 241.868 1113.445 240.985 C 1114.656 249.576 1123.325 256.262 1133.823 256.262 C 1135.082 256.262 1136.104 255.399 1136.104 254.336 C 1136.104 247.509 1142.149 241.868 1149.955 240.985 C 1151.167 249.576 1159.836 256.262 1170.334 256.262 C 1171.592 256.262 1172.615 255.399 1172.615 254.336 C 1172.615 247.509 1178.662 241.866 1186.468 240.985 C 1187.236 246.358 1190.953 251.204 1196.575 253.945 C 1196.933 254.12 1197.326 254.203 1197.714 254.203 C 1198.504 254.203 1199.27 253.858 1199.693 253.24 C 1200.324 252.321 1199.951 251.142 1198.86 250.611 Z" id="first_wave_">
      <title>first_wave_</title>
    </path>
    <g transform="matrix(1, 0, 0, 1, 11.684084, 57.70105)" id="docker">
      <title>docker</title>
      <path d="M 64.763 174.144 L 132.378 174.139 L 138.958 174.139 C 142.031 174.152 145.083 174.663 147.993 175.652 C 149.522 176.158 150.995 176.823 152.386 177.635 C 150.605 180.1 149.548 183.012 149.334 186.044 C 148.789 190.468 149.929 194.936 152.526 198.559 L 153.894 200.139 L 155.521 198.829 C 159.836 195.664 162.759 190.953 163.679 185.681 C 168.698 187.224 174.123 186.72 178.771 184.277 L 180.558 183.241 L 179.62 181.407 C 175.732 174.847 168.266 171.287 160.721 172.393 C 149.464 144.35 124.975 131.073 95.229 131.073 C 80.139 130.175 65.767 137.608 57.779 150.443 L 57.649 150.666 L 56.478 153.044 C 53.831 159.051 52.797 165.646 53.48 172.175 L 53.66 174.144 L 64.763 174.144 Z" style="fill: rgb(58, 78, 85);" transform="matrix(-1, 0, 0, -1, 233.833412, 344.437943)"/>
      <path d="M 162.247 196.638 C 162.428 202.439 159.664 207.937 154.901 211.253 C 150.72 205.114 151.341 196.898 156.398 191.458 C 151.57 187.881 145.699 185.992 139.691 186.085 L 56.352 186.085 C 55.637 179.435 56.836 172.718 59.807 166.726 L 60.755 164.99 C 61.355 163.973 62.011 162.989 62.719 162.043 C 66.145 161.822 69.303 161.744 72.194 161.81 C 76.878 161.781 81.54 162.46 86.021 163.825 C 86.749 164.077 87.476 163.445 87.329 162.69 C 87.262 162.338 87.011 162.05 86.673 161.934 C 86.207 161.773 85.72 161.618 85.218 161.478 C 82.1 160.606 78.894 160.085 75.66 159.924 C 75.888 159.924 75.422 159.887 75.422 159.887 L 74.997 159.851 C 73.489 159.769 71.888 159.748 70.205 159.748 C 68.387 159.748 66.578 159.784 64.594 159.882 L 64.542 159.846 C 72.717 151.343 84.171 146.791 95.951 147.361 C 124.756 147.361 149.187 160.131 160.009 188.805 C 167.687 188.018 175.063 189.976 178.415 196.524 C 173.341 199.098 167.352 199.14 162.241 196.638" style="fill: rgb(0, 170, 218);" transform="matrix(-1, 0, 0, -1, 234.565735, 358.566223)"/>
      <path d="M 172.868 187.608 C 173.049 193.409 170.285 198.907 165.522 202.223 C 161.341 196.084 161.962 187.868 167.019 182.428 C 162.191 178.851 156.32 176.962 150.312 177.055 L 71.91 177.055 C 71.04 167.611 75.18 158.4 82.82 152.78 C 87.504 152.751 92.166 153.43 96.647 154.795 C 97.375 155.047 98.102 154.415 97.955 153.66 C 97.888 153.308 97.638 153.02 97.3 152.904 C 96.833 152.743 96.346 152.588 95.844 152.448 C 92.643 151.551 89.352 151.006 86.032 150.821 L 85.934 150.936 C 95.735 145.905 109.95 145.926 126.249 152.184 C 144.845 159.698 161.113 172.013 173.391 187.872 L 172.873 187.624" style="fill: rgb(39, 185, 236);" transform="matrix(-1, 0, 0, -1, 245.186691, 349.536224)"/>
      <path d="M 80.121 211.184 C 80.612 207.465 81.728 203.856 83.421 200.508 L 84.369 198.772 C 84.969 197.754 85.625 196.77 86.333 195.824 C 89.759 195.603 92.917 195.526 95.808 195.591 C 100.492 195.563 105.154 196.242 109.635 197.606 C 110.363 197.857 111.09 197.227 110.943 196.471 C 110.876 196.12 110.625 195.832 110.287 195.715 C 109.821 195.555 109.334 195.399 108.832 195.26 C 105.634 194.376 102.349 193.842 99.036 193.669 L 98.517 193.669 C 97.01 193.586 95.409 193.535 93.741 193.535 C 91.922 193.535 90.068 193.571 88.042 193.669 C 96.242 185.16 107.715 180.604 119.519 181.168 C 144.179 181.168 165.626 190.53 178.059 211.216 L 80.121 211.184 Z" style="fill: rgb(8, 140, 185);" transform="matrix(-1, 0, 0, -1, 258.180008, 392.337204)"/>
      <path d="M 91.067 202.261 C 92.323 195.951 95.961 190.367 101.226 186.668 C 105.91 186.64 110.572 187.319 115.053 188.683 C 115.781 188.934 116.508 188.304 116.361 187.548 C 116.294 187.197 116.043 186.909 115.705 186.792 C 115.239 186.632 114.752 186.476 114.25 186.337 C 111.035 185.454 107.735 184.922 104.406 184.746 C 114.209 179.716 128.383 179.789 144.675 186.051 C 154.73 190.011 164.122 195.479 172.531 202.266 L 91.067 202.261 Z" style="fill: rgb(3, 156, 199);" transform="matrix(-1, 0, 0, -1, 263.598007, 383.414215)"/>
      <path d="M 143.329 194.938 C 145.722 194.938 147.218 192.347 146.021 190.276 C 144.825 188.203 141.834 188.203 140.638 190.276 C 140.365 190.748 140.221 191.283 140.221 191.83 C 140.221 193.546 141.613 194.938 143.329 194.938" style="fill: rgb(213, 238, 242);" transform="matrix(-1, 0, 0, -1, 286.66333, 383.659256)"/>
      <path d="M 143.334 194.058 C 143.611 194.059 143.885 194.008 144.143 193.908 C 143.539 193.557 143.54 192.686 144.146 192.338 C 144.585 192.085 145.146 192.242 145.391 192.686 C 146.049 191.102 144.746 189.4 143.045 189.622 C 141.345 189.844 140.522 191.823 141.565 193.185 C 141.983 193.731 142.631 194.053 143.319 194.058" style="fill: rgb(58, 78, 85);" transform="matrix(-1, 0, 0, -1, 286.668182, 383.660385)"/>
      <path d="M 170.443 197.197 C 164.082 199.908 158.981 204.925 156.166 211.241 C 152.802 210.349 149.35 209.828 145.872 209.688 C 144.367 209.604 142.783 209.561 141.122 209.558 C 139.208 209.558 137.191 209.615 135.071 209.729 C 143.35 201.107 154.968 196.513 166.905 197.14 C 168.093 197.14 169.272 197.162 170.443 197.207" style="fill: rgb(192, 219, 225);" transform="matrix(-1, 0, 0, -1, 305.513992, 408.324265)"/>
      <path d="M 159.642 197.083 C 158.513 198.644 157.554 200.322 156.783 202.087 C 153.419 201.195 149.967 200.674 146.489 200.534 C 150.585 198.479 155.066 197.307 159.642 197.093" style="fill: rgb(213, 238, 242);" transform="matrix(-1, 0, 0, -1, 306.130997, 399.169998)"/>
    </g>
    <path style="fill: rgb(132, 181, 203);" d="M -266.505 268.9 C -271.434 266.498 -274.494 262.019 -274.494 257.215 C -274.494 256.152 -275.516 255.289 -276.776 255.289 C -287.273 255.289 -295.942 261.975 -297.153 270.566 C -304.96 269.685 -311.005 264.042 -311.005 257.215 C -311.005 256.152 -312.027 255.289 -313.287 255.289 C -323.784 255.289 -332.452 261.975 -333.664 270.566 C -341.471 269.685 -347.515 264.042 -347.515 257.215 C -347.515 256.152 -348.538 255.289 -349.798 255.289 C -360.294 255.289 -368.963 261.975 -370.175 270.566 C -377.982 269.685 -384.026 264.042 -384.026 257.215 C -384.026 256.152 -385.049 255.289 -386.308 255.289 C -390.963 255.289 -395.523 256.637 -399.144 259.088 C -400.128 259.752 -400.288 260.966 -399.498 261.794 C -399.049 262.27 -398.384 262.516 -397.716 262.516 C -397.217 262.516 -396.712 262.377 -396.29 262.092 C -393.992 260.54 -391.299 259.608 -388.426 259.288 C -387.208 267.873 -378.543 274.551 -368.054 274.551 C -366.794 274.551 -365.771 273.688 -365.771 272.625 C -365.771 265.798 -359.726 260.157 -351.92 259.274 C -350.708 267.865 -342.039 274.551 -331.542 274.551 C -330.283 274.551 -329.261 273.688 -329.261 272.625 C -329.261 265.798 -323.215 260.157 -315.409 259.274 C -314.197 267.865 -305.529 274.551 -295.031 274.551 C -293.772 274.551 -292.75 273.688 -292.75 272.625 C -292.75 265.798 -286.702 260.155 -278.896 259.274 C -278.129 264.647 -274.412 269.493 -268.789 272.234 C -268.431 272.409 -268.038 272.492 -267.651 272.492 C -266.861 272.492 -266.094 272.147 -265.672 271.529 C -265.04 270.61 -265.414 269.431 -266.505 268.9 Z M -133.781 268.673 C -138.71 266.271 -141.77 261.792 -141.77 256.988 C -141.77 255.925 -142.793 255.062 -144.053 255.062 C -154.549 255.062 -163.218 261.748 -164.43 270.339 C -172.236 269.458 -178.281 263.815 -178.281 256.988 C -178.281 255.925 -179.303 255.062 -180.563 255.062 C -191.06 255.062 -199.729 261.748 -200.94 270.339 C -208.748 269.458 -214.792 263.815 -214.792 256.988 C -214.792 255.925 -215.814 255.062 -217.074 255.062 C -227.571 255.062 -236.24 261.748 -237.451 270.339 C -245.259 269.458 -251.303 263.815 -251.303 256.988 C -251.303 255.925 -252.325 255.062 -253.585 255.062 C -258.24 255.062 -262.8 256.41 -266.421 258.861 C -267.405 259.525 -267.564 260.739 -266.774 261.567 C -266.325 262.043 -265.661 262.289 -264.992 262.289 C -264.493 262.289 -263.988 262.15 -263.566 261.865 C -261.269 260.313 -258.576 259.381 -255.703 259.061 C -254.485 267.646 -245.819 274.324 -235.33 274.324 C -234.07 274.324 -233.048 273.461 -233.048 272.398 C -233.048 265.571 -227.003 259.93 -219.196 259.047 C -217.985 267.638 -209.316 274.324 -198.818 274.324 C -197.559 274.324 -196.537 273.461 -196.537 272.398 C -196.537 265.571 -190.492 259.93 -182.686 259.047 C -181.474 267.638 -172.805 274.324 -162.307 274.324 C -161.049 274.324 -160.026 273.461 -160.026 272.398 C -160.026 265.571 -153.979 259.928 -146.173 259.047 C -145.405 264.42 -141.688 269.266 -136.066 272.007 C -135.708 272.182 -135.315 272.265 -134.927 272.265 C -134.137 272.265 -133.371 271.92 -132.948 271.302 C -132.317 270.383 -132.69 269.204 -133.781 268.673 Z M -1.162 269.145 C -6.09 266.743 -9.151 262.264 -9.151 257.46 C -9.151 256.397 -10.173 255.534 -11.433 255.534 C -21.93 255.534 -30.598 262.22 -31.81 270.811 C -39.616 269.93 -45.662 264.287 -45.662 257.46 C -45.662 256.397 -46.684 255.534 -47.944 255.534 C -58.44 255.534 -67.109 262.22 -68.321 270.811 C -76.128 269.93 -82.172 264.287 -82.172 257.46 C -82.172 256.397 -83.195 255.534 -84.454 255.534 C -94.951 255.534 -103.62 262.22 -104.832 270.811 C -112.639 269.93 -118.683 264.287 -118.683 257.46 C -118.683 256.397 -119.705 255.534 -120.965 255.534 C -125.62 255.534 -130.18 256.882 -133.801 259.333 C -134.785 259.997 -134.945 261.211 -134.155 262.039 C -133.706 262.515 -133.041 262.761 -132.373 262.761 C -131.873 262.761 -131.369 262.622 -130.946 262.337 C -128.649 260.785 -125.956 259.853 -123.083 259.533 C -121.865 268.118 -113.199 274.796 -102.71 274.796 C -101.451 274.796 -100.428 273.933 -100.428 272.87 C -100.428 266.043 -94.383 260.402 -86.577 259.519 C -85.365 268.11 -76.696 274.796 -66.199 274.796 C -64.94 274.796 -63.918 273.933 -63.918 272.87 C -63.918 266.043 -57.872 260.402 -50.066 259.519 C -48.854 268.11 -40.186 274.796 -29.688 274.796 C -28.429 274.796 -27.407 273.933 -27.407 272.87 C -27.407 266.043 -21.359 260.4 -13.553 259.519 C -12.786 264.892 -9.069 269.738 -3.446 272.479 C -3.088 272.654 -2.695 272.737 -2.308 272.737 C -1.517 272.737 -0.751 272.392 -0.329 271.774 C 0.303 270.855 -0.07 269.676 -1.162 269.145 Z M 132.296 268.467 C 127.367 266.065 124.307 261.586 124.307 256.782 C 124.307 255.719 123.285 254.856 122.025 254.856 C 111.528 254.856 102.86 261.542 101.648 270.133 C 93.842 269.252 87.796 263.609 87.796 256.782 C 87.796 255.719 86.774 254.856 85.514 254.856 C 75.018 254.856 66.349 261.542 65.137 270.133 C 57.33 269.252 51.286 263.609 51.286 256.782 C 51.286 255.719 50.263 254.856 49.003 254.856 C 38.507 254.856 29.838 261.542 28.626 270.133 C 20.819 269.252 14.775 263.609 14.775 256.782 C 14.775 255.719 13.753 254.856 12.493 254.856 C 7.838 254.856 3.278 256.204 -0.343 258.655 C -1.327 259.319 -1.487 260.533 -0.697 261.361 C -0.248 261.837 0.417 262.083 1.085 262.083 C 1.584 262.083 2.089 261.944 2.512 261.659 C 4.809 260.107 7.502 259.175 10.375 258.855 C 11.593 267.44 20.259 274.118 30.748 274.118 C 32.007 274.118 33.03 273.255 33.03 272.192 C 33.03 265.365 39.075 259.724 46.881 258.841 C 48.093 267.432 56.762 274.118 67.259 274.118 C 68.518 274.118 69.54 273.255 69.54 272.192 C 69.54 265.365 75.586 259.724 83.392 258.841 C 84.604 267.432 93.272 274.118 103.77 274.118 C 105.029 274.118 106.051 273.255 106.051 272.192 C 106.051 265.365 112.099 259.722 119.905 258.841 C 120.672 264.214 124.389 269.06 130.012 271.801 C 130.37 271.976 130.763 272.059 131.15 272.059 C 131.941 272.059 132.707 271.714 133.129 271.096 C 133.761 270.177 133.387 268.998 132.296 268.467 Z M 265.325 268.299 C 260.396 265.897 257.336 261.418 257.336 256.614 C 257.336 255.551 256.314 254.688 255.054 254.688 C 244.557 254.688 235.888 261.374 234.677 269.965 C 226.87 269.084 220.825 263.441 220.825 256.614 C 220.825 255.551 219.803 254.688 218.543 254.688 C 208.046 254.688 199.378 261.374 198.166 269.965 C 190.359 269.084 184.315 263.441 184.315 256.614 C 184.315 255.551 183.292 254.688 182.032 254.688 C 171.536 254.688 162.867 261.374 161.655 269.965 C 153.848 269.084 147.804 263.441 147.804 256.614 C 147.804 255.551 146.781 254.688 145.522 254.688 C 140.867 254.688 136.307 256.036 132.686 258.487 C 131.702 259.151 131.542 260.365 132.332 261.193 C 132.781 261.669 133.446 261.915 134.114 261.915 C 134.613 261.915 135.118 261.776 135.54 261.491 C 137.838 259.939 140.531 259.007 143.404 258.687 C 144.622 267.272 153.287 273.95 163.776 273.95 C 165.036 273.95 166.059 273.087 166.059 272.024 C 166.059 265.197 172.104 259.556 179.91 258.673 C 181.122 267.264 189.791 273.95 200.288 273.95 C 201.547 273.95 202.569 273.087 202.569 272.024 C 202.569 265.197 208.615 259.556 216.421 258.673 C 217.633 267.264 226.301 273.95 236.799 273.95 C 238.058 273.95 239.08 273.087 239.08 272.024 C 239.08 265.197 245.127 259.554 252.934 258.673 C 253.701 264.046 257.418 268.892 263.041 271.633 C 263.399 271.808 263.792 271.891 264.179 271.891 C 264.969 271.891 265.736 271.546 266.158 270.928 C 266.79 270.009 266.416 268.83 265.325 268.299 Z M 398.86 269.299 C 393.931 266.897 390.871 262.418 390.871 257.614 C 390.871 256.551 389.848 255.688 388.589 255.688 C 378.092 255.688 369.423 262.374 368.211 270.965 C 360.405 270.084 354.36 264.441 354.36 257.614 C 354.36 256.551 353.338 255.688 352.078 255.688 C 341.581 255.688 332.912 262.374 331.701 270.965 C 323.893 270.084 317.849 264.441 317.849 257.614 C 317.849 256.551 316.827 255.688 315.567 255.688 C 305.07 255.688 296.401 262.374 295.19 270.965 C 287.382 270.084 281.338 264.441 281.338 257.614 C 281.338 256.551 280.316 255.688 279.056 255.688 C 274.401 255.688 269.841 257.036 266.22 259.487 C 265.236 260.151 265.077 261.365 265.867 262.193 C 266.316 262.669 266.98 262.915 267.649 262.915 C 268.148 262.915 268.653 262.776 269.075 262.491 C 271.373 260.939 274.065 260.007 276.938 259.687 C 278.157 268.272 286.822 274.95 297.311 274.95 C 298.571 274.95 299.593 274.087 299.593 273.024 C 299.593 266.197 305.638 260.556 313.445 259.673 C 314.656 268.264 323.325 274.95 333.823 274.95 C 335.082 274.95 336.104 274.087 336.104 273.024 C 336.104 266.197 342.149 260.556 349.955 259.673 C 351.167 268.264 359.836 274.95 370.334 274.95 C 371.592 274.95 372.615 274.087 372.615 273.024 C 372.615 266.197 378.662 260.554 386.468 259.673 C 387.236 265.046 390.953 269.892 396.575 272.633 C 396.933 272.808 397.326 272.891 397.714 272.891 C 398.504 272.891 399.27 272.546 399.693 271.928 C 400.324 271.009 399.951 269.83 398.86 269.299 Z" id="second_wave">
      <title>second_wave</title>
    </path>
    <path style="fill: rgb(132, 181, 203);" d="M 533.495 267.712 C 528.566 265.31 525.506 260.831 525.506 256.027 C 525.506 254.964 524.484 254.101 523.224 254.101 C 512.727 254.101 504.058 260.787 502.847 269.378 C 495.041 268.497 488.995 262.854 488.995 256.027 C 488.995 254.964 487.973 254.101 486.713 254.101 C 476.217 254.101 467.548 260.787 466.336 269.378 C 458.529 268.497 452.485 262.854 452.485 256.027 C 452.485 254.964 451.462 254.101 450.202 254.101 C 439.706 254.101 431.037 260.787 429.825 269.378 C 422.018 268.497 415.974 262.854 415.974 256.027 C 415.974 254.964 414.952 254.101 413.692 254.101 C 409.037 254.101 404.477 255.449 400.856 257.9 C 399.872 258.564 399.712 259.778 400.502 260.606 C 400.951 261.082 401.616 261.328 402.284 261.328 C 402.783 261.328 403.288 261.189 403.711 260.904 C 406.008 259.352 408.701 258.42 411.574 258.1 C 412.792 266.685 421.457 273.363 431.947 273.363 C 433.206 273.363 434.229 272.5 434.229 271.437 C 434.229 264.61 440.274 258.969 448.08 258.086 C 449.292 266.677 457.961 273.363 468.458 273.363 C 469.717 273.363 470.739 272.5 470.739 271.437 C 470.739 264.61 476.785 258.969 484.591 258.086 C 485.803 266.677 494.471 273.363 504.969 273.363 C 506.228 273.363 507.25 272.5 507.25 271.437 C 507.25 264.61 513.298 258.967 521.104 258.086 C 521.871 263.459 525.588 268.305 531.211 271.046 C 531.569 271.221 531.962 271.304 532.349 271.304 C 533.139 271.304 533.906 270.959 534.328 270.341 C 534.96 269.422 534.586 268.243 533.495 267.712 Z M 666.219 267.485 C 661.29 265.083 658.23 260.604 658.23 255.8 C 658.23 254.737 657.207 253.874 655.947 253.874 C 645.451 253.874 636.782 260.56 635.57 269.151 C 627.764 268.27 621.719 262.627 621.719 255.8 C 621.719 254.737 620.697 253.874 619.437 253.874 C 608.94 253.874 600.271 260.56 599.06 269.151 C 591.252 268.27 585.208 262.627 585.208 255.8 C 585.208 254.737 584.186 253.874 582.926 253.874 C 572.429 253.874 563.76 260.56 562.549 269.151 C 554.741 268.27 548.697 262.627 548.697 255.8 C 548.697 254.737 547.675 253.874 546.415 253.874 C 541.76 253.874 537.2 255.222 533.579 257.673 C 532.595 258.337 532.436 259.551 533.226 260.379 C 533.675 260.855 534.339 261.101 535.008 261.101 C 535.507 261.101 536.012 260.962 536.434 260.677 C 538.731 259.125 541.424 258.193 544.297 257.873 C 545.515 266.458 554.181 273.136 564.67 273.136 C 565.93 273.136 566.952 272.273 566.952 271.21 C 566.952 264.383 572.997 258.742 580.804 257.859 C 582.015 266.45 590.684 273.136 601.182 273.136 C 602.441 273.136 603.463 272.273 603.463 271.21 C 603.463 264.383 609.508 258.742 617.314 257.859 C 618.526 266.45 627.195 273.136 637.693 273.136 C 638.951 273.136 639.974 272.273 639.974 271.21 C 639.974 264.383 646.021 258.74 653.827 257.859 C 654.595 263.232 658.312 268.078 663.934 270.819 C 664.292 270.994 664.685 271.077 665.073 271.077 C 665.863 271.077 666.629 270.732 667.052 270.114 C 667.683 269.195 667.31 268.016 666.219 267.485 Z M 798.838 267.957 C 793.91 265.555 790.849 261.076 790.849 256.272 C 790.849 255.209 789.827 254.346 788.567 254.346 C 778.07 254.346 769.402 261.032 768.19 269.623 C 760.384 268.742 754.338 263.099 754.338 256.272 C 754.338 255.209 753.316 254.346 752.056 254.346 C 741.56 254.346 732.891 261.032 731.679 269.623 C 723.872 268.742 717.828 263.099 717.828 256.272 C 717.828 255.209 716.805 254.346 715.546 254.346 C 705.049 254.346 696.38 261.032 695.168 269.623 C 687.361 268.742 681.317 263.099 681.317 256.272 C 681.317 255.209 680.295 254.346 679.035 254.346 C 674.38 254.346 669.82 255.694 666.199 258.145 C 665.215 258.809 665.055 260.023 665.845 260.851 C 666.294 261.327 666.959 261.573 667.627 261.573 C 668.127 261.573 668.631 261.434 669.054 261.149 C 671.351 259.597 674.044 258.665 676.917 258.345 C 678.135 266.93 686.801 273.608 697.29 273.608 C 698.549 273.608 699.572 272.745 699.572 271.682 C 699.572 264.855 705.617 259.214 713.423 258.331 C 714.635 266.922 723.304 273.608 733.801 273.608 C 735.06 273.608 736.082 272.745 736.082 271.682 C 736.082 264.855 742.128 259.214 749.934 258.331 C 751.146 266.922 759.814 273.608 770.312 273.608 C 771.571 273.608 772.593 272.745 772.593 271.682 C 772.593 264.855 778.641 259.212 786.447 258.331 C 787.214 263.704 790.931 268.55 796.554 271.291 C 796.912 271.466 797.305 271.549 797.692 271.549 C 798.483 271.549 799.249 271.204 799.671 270.586 C 800.303 269.667 799.93 268.488 798.838 267.957 Z M 932.296 267.279 C 927.367 264.877 924.307 260.398 924.307 255.594 C 924.307 254.531 923.285 253.668 922.025 253.668 C 911.528 253.668 902.859 260.354 901.648 268.945 C 893.842 268.064 887.796 262.421 887.796 255.594 C 887.796 254.531 886.774 253.668 885.514 253.668 C 875.018 253.668 866.349 260.354 865.137 268.945 C 857.33 268.064 851.286 262.421 851.286 255.594 C 851.286 254.531 850.263 253.668 849.003 253.668 C 838.507 253.668 829.838 260.354 828.626 268.945 C 820.819 268.064 814.775 262.421 814.775 255.594 C 814.775 254.531 813.753 253.668 812.493 253.668 C 807.838 253.668 803.278 255.016 799.657 257.467 C 798.673 258.131 798.513 259.345 799.303 260.173 C 799.752 260.649 800.417 260.895 801.085 260.895 C 801.584 260.895 802.089 260.756 802.512 260.471 C 804.809 258.919 807.502 257.987 810.375 257.667 C 811.593 266.252 820.259 272.93 830.748 272.93 C 832.007 272.93 833.03 272.067 833.03 271.004 C 833.03 264.177 839.075 258.536 846.881 257.653 C 848.093 266.244 856.762 272.93 867.259 272.93 C 868.518 272.93 869.54 272.067 869.54 271.004 C 869.54 264.177 875.586 258.536 883.392 257.653 C 884.604 266.244 893.272 272.93 903.77 272.93 C 905.029 272.93 906.051 272.067 906.051 271.004 C 906.051 264.177 912.099 258.534 919.905 257.653 C 920.672 263.026 924.389 267.872 930.012 270.613 C 930.37 270.788 930.763 270.871 931.15 270.871 C 931.94 270.871 932.707 270.526 933.129 269.908 C 933.761 268.989 933.387 267.81 932.296 267.279 Z M 1065.325 267.111 C 1060.396 264.709 1057.336 260.23 1057.336 255.426 C 1057.336 254.363 1056.314 253.5 1055.054 253.5 C 1044.557 253.5 1035.888 260.186 1034.677 268.777 C 1026.87 267.896 1020.825 262.253 1020.825 255.426 C 1020.825 254.363 1019.803 253.5 1018.543 253.5 C 1008.046 253.5 999.378 260.186 998.166 268.777 C 990.359 267.896 984.314 262.253 984.314 255.426 C 984.314 254.363 983.292 253.5 982.032 253.5 C 971.536 253.5 962.867 260.186 961.655 268.777 C 953.848 267.896 947.804 262.253 947.804 255.426 C 947.804 254.363 946.781 253.5 945.522 253.5 C 940.867 253.5 936.307 254.848 932.686 257.299 C 931.702 257.963 931.542 259.177 932.332 260.005 C 932.781 260.481 933.445 260.727 934.114 260.727 C 934.613 260.727 935.118 260.588 935.54 260.303 C 937.838 258.751 940.53 257.819 943.404 257.499 C 944.622 266.084 953.287 272.762 963.776 272.762 C 965.036 272.762 966.059 271.899 966.059 270.836 C 966.059 264.009 972.104 258.368 979.91 257.485 C 981.122 266.076 989.791 272.762 1000.288 272.762 C 1001.547 272.762 1002.569 271.899 1002.569 270.836 C 1002.569 264.009 1008.615 258.368 1016.421 257.485 C 1017.632 266.076 1026.301 272.762 1036.799 272.762 C 1038.058 272.762 1039.08 271.899 1039.08 270.836 C 1039.08 264.009 1045.127 258.366 1052.934 257.485 C 1053.701 262.858 1057.418 267.704 1063.041 270.445 C 1063.399 270.62 1063.792 270.703 1064.179 270.703 C 1064.969 270.703 1065.736 270.358 1066.158 269.74 C 1066.79 268.821 1066.416 267.642 1065.325 267.111 Z M 1198.86 268.111 C 1193.931 265.709 1190.871 261.23 1190.871 256.426 C 1190.871 255.363 1189.848 254.5 1188.588 254.5 C 1178.092 254.5 1169.423 261.186 1168.211 269.777 C 1160.405 268.896 1154.36 263.253 1154.36 256.426 C 1154.36 255.363 1153.338 254.5 1152.078 254.5 C 1141.581 254.5 1132.912 261.186 1131.701 269.777 C 1123.893 268.896 1117.849 263.253 1117.849 256.426 C 1117.849 255.363 1116.827 254.5 1115.567 254.5 C 1105.07 254.5 1096.401 261.186 1095.19 269.777 C 1087.382 268.896 1081.338 263.253 1081.338 256.426 C 1081.338 255.363 1080.316 254.5 1079.056 254.5 C 1074.401 254.5 1069.841 255.848 1066.22 258.299 C 1065.236 258.963 1065.077 260.177 1065.867 261.005 C 1066.316 261.481 1066.98 261.727 1067.649 261.727 C 1068.148 261.727 1068.653 261.588 1069.075 261.303 C 1071.372 259.751 1074.065 258.819 1076.938 258.499 C 1078.156 267.084 1086.822 273.762 1097.311 273.762 C 1098.571 273.762 1099.593 272.899 1099.593 271.836 C 1099.593 265.009 1105.638 259.368 1113.445 258.485 C 1114.656 267.076 1123.325 273.762 1133.823 273.762 C 1135.082 273.762 1136.104 272.899 1136.104 271.836 C 1136.104 265.009 1142.149 259.368 1149.955 258.485 C 1151.167 267.076 1159.836 273.762 1170.334 273.762 C 1171.592 273.762 1172.615 272.899 1172.615 271.836 C 1172.615 265.009 1178.662 259.366 1186.468 258.485 C 1187.236 263.858 1190.953 268.704 1196.575 271.445 C 1196.933 271.62 1197.326 271.703 1197.714 271.703 C 1198.504 271.703 1199.27 271.358 1199.693 270.74 C 1200.324 269.821 1199.951 268.642 1198.86 268.111 Z" id="second_wave_">
      <title>second_wave_</title>
    </path>
    <path style="fill: rgb(132, 181, 203);" d="M -266.505 286.4 C -271.434 283.998 -274.494 279.519 -274.494 274.715 C -274.494 273.652 -275.516 272.789 -276.776 272.789 C -287.273 272.789 -295.942 279.475 -297.153 288.066 C -304.96 287.185 -311.005 281.542 -311.005 274.715 C -311.005 273.652 -312.027 272.789 -313.287 272.789 C -323.784 272.789 -332.452 279.475 -333.664 288.066 C -341.471 287.185 -347.515 281.542 -347.515 274.715 C -347.515 273.652 -348.538 272.789 -349.798 272.789 C -360.294 272.789 -368.963 279.475 -370.175 288.066 C -377.982 287.185 -384.026 281.542 -384.026 274.715 C -384.026 273.652 -385.049 272.789 -386.308 272.789 C -390.963 272.789 -395.523 274.137 -399.144 276.588 C -400.128 277.252 -400.288 278.466 -399.498 279.294 C -399.049 279.77 -398.384 280.016 -397.716 280.016 C -397.217 280.016 -396.712 279.877 -396.29 279.592 C -393.992 278.04 -391.299 277.108 -388.426 276.788 C -387.208 285.373 -378.543 292.051 -368.054 292.051 C -366.794 292.051 -365.771 291.188 -365.771 290.125 C -365.771 283.298 -359.726 277.657 -351.92 276.774 C -350.708 285.365 -342.039 292.051 -331.542 292.051 C -330.283 292.051 -329.261 291.188 -329.261 290.125 C -329.261 283.298 -323.215 277.657 -315.409 276.774 C -314.197 285.365 -305.529 292.051 -295.031 292.051 C -293.772 292.051 -292.75 291.188 -292.75 290.125 C -292.75 283.298 -286.702 277.655 -278.896 276.774 C -278.129 282.147 -274.412 286.993 -268.789 289.734 C -268.431 289.909 -268.038 289.992 -267.651 289.992 C -266.861 289.992 -266.094 289.647 -265.672 289.029 C -265.04 288.11 -265.414 286.931 -266.505 286.4 Z M -133.781 286.173 C -138.71 283.771 -141.77 279.292 -141.77 274.488 C -141.77 273.425 -142.793 272.562 -144.053 272.562 C -154.549 272.562 -163.218 279.248 -164.43 287.839 C -172.236 286.958 -178.281 281.315 -178.281 274.488 C -178.281 273.425 -179.303 272.562 -180.563 272.562 C -191.06 272.562 -199.729 279.248 -200.94 287.839 C -208.748 286.958 -214.792 281.315 -214.792 274.488 C -214.792 273.425 -215.814 272.562 -217.074 272.562 C -227.571 272.562 -236.24 279.248 -237.451 287.839 C -245.259 286.958 -251.303 281.315 -251.303 274.488 C -251.303 273.425 -252.325 272.562 -253.585 272.562 C -258.24 272.562 -262.8 273.91 -266.421 276.361 C -267.405 277.025 -267.564 278.239 -266.774 279.067 C -266.325 279.543 -265.661 279.789 -264.992 279.789 C -264.493 279.789 -263.988 279.65 -263.566 279.365 C -261.269 277.813 -258.576 276.881 -255.703 276.561 C -254.485 285.146 -245.819 291.824 -235.33 291.824 C -234.07 291.824 -233.048 290.961 -233.048 289.898 C -233.048 283.071 -227.003 277.43 -219.196 276.547 C -217.985 285.138 -209.316 291.824 -198.818 291.824 C -197.559 291.824 -196.537 290.961 -196.537 289.898 C -196.537 283.071 -190.492 277.43 -182.686 276.547 C -181.474 285.138 -172.805 291.824 -162.307 291.824 C -161.049 291.824 -160.026 290.961 -160.026 289.898 C -160.026 283.071 -153.979 277.428 -146.173 276.547 C -145.405 281.92 -141.688 286.766 -136.066 289.507 C -135.708 289.682 -135.315 289.765 -134.927 289.765 C -134.137 289.765 -133.371 289.42 -132.948 288.802 C -132.317 287.883 -132.69 286.704 -133.781 286.173 Z M -1.162 286.645 C -6.09 284.243 -9.151 279.764 -9.151 274.96 C -9.151 273.897 -10.173 273.034 -11.433 273.034 C -21.93 273.034 -30.598 279.72 -31.81 288.311 C -39.616 287.43 -45.662 281.787 -45.662 274.96 C -45.662 273.897 -46.684 273.034 -47.944 273.034 C -58.44 273.034 -67.109 279.72 -68.321 288.311 C -76.128 287.43 -82.172 281.787 -82.172 274.96 C -82.172 273.897 -83.195 273.034 -84.454 273.034 C -94.951 273.034 -103.62 279.72 -104.832 288.311 C -112.639 287.43 -118.683 281.787 -118.683 274.96 C -118.683 273.897 -119.705 273.034 -120.965 273.034 C -125.62 273.034 -130.18 274.382 -133.801 276.833 C -134.785 277.497 -134.945 278.711 -134.155 279.539 C -133.706 280.015 -133.041 280.261 -132.373 280.261 C -131.873 280.261 -131.369 280.122 -130.946 279.837 C -128.649 278.285 -125.956 277.353 -123.083 277.033 C -121.865 285.618 -113.199 292.296 -102.71 292.296 C -101.451 292.296 -100.428 291.433 -100.428 290.37 C -100.428 283.543 -94.383 277.902 -86.577 277.019 C -85.365 285.61 -76.696 292.296 -66.199 292.296 C -64.94 292.296 -63.918 291.433 -63.918 290.37 C -63.918 283.543 -57.872 277.902 -50.066 277.019 C -48.854 285.61 -40.186 292.296 -29.688 292.296 C -28.429 292.296 -27.407 291.433 -27.407 290.37 C -27.407 283.543 -21.359 277.9 -13.553 277.019 C -12.786 282.392 -9.069 287.238 -3.446 289.979 C -3.088 290.154 -2.695 290.237 -2.308 290.237 C -1.517 290.237 -0.751 289.892 -0.329 289.274 C 0.303 288.355 -0.07 287.176 -1.162 286.645 Z M 132.296 285.967 C 127.367 283.565 124.307 279.086 124.307 274.282 C 124.307 273.219 123.285 272.356 122.025 272.356 C 111.528 272.356 102.86 279.042 101.648 287.633 C 93.842 286.752 87.796 281.109 87.796 274.282 C 87.796 273.219 86.774 272.356 85.514 272.356 C 75.018 272.356 66.349 279.042 65.137 287.633 C 57.33 286.752 51.286 281.109 51.286 274.282 C 51.286 273.219 50.263 272.356 49.003 272.356 C 38.507 272.356 29.838 279.042 28.626 287.633 C 20.819 286.752 14.775 281.109 14.775 274.282 C 14.775 273.219 13.753 272.356 12.493 272.356 C 7.838 272.356 3.278 273.704 -0.343 276.155 C -1.327 276.819 -1.487 278.033 -0.697 278.861 C -0.248 279.337 0.417 279.583 1.085 279.583 C 1.584 279.583 2.089 279.444 2.512 279.159 C 4.809 277.607 7.502 276.675 10.375 276.355 C 11.593 284.94 20.259 291.618 30.748 291.618 C 32.007 291.618 33.03 290.755 33.03 289.692 C 33.03 282.865 39.075 277.224 46.881 276.341 C 48.093 284.932 56.762 291.618 67.259 291.618 C 68.518 291.618 69.54 290.755 69.54 289.692 C 69.54 282.865 75.586 277.224 83.392 276.341 C 84.604 284.932 93.272 291.618 103.77 291.618 C 105.029 291.618 106.051 290.755 106.051 289.692 C 106.051 282.865 112.099 277.222 119.905 276.341 C 120.672 281.714 124.389 286.56 130.012 289.301 C 130.37 289.476 130.763 289.559 131.15 289.559 C 131.941 289.559 132.707 289.214 133.129 288.596 C 133.761 287.677 133.387 286.498 132.296 285.967 Z M 265.325 285.799 C 260.396 283.397 257.336 278.918 257.336 274.114 C 257.336 273.051 256.314 272.188 255.054 272.188 C 244.557 272.188 235.888 278.874 234.677 287.465 C 226.87 286.584 220.825 280.941 220.825 274.114 C 220.825 273.051 219.803 272.188 218.543 272.188 C 208.046 272.188 199.378 278.874 198.166 287.465 C 190.359 286.584 184.315 280.941 184.315 274.114 C 184.315 273.051 183.292 272.188 182.032 272.188 C 171.536 272.188 162.867 278.874 161.655 287.465 C 153.848 286.584 147.804 280.941 147.804 274.114 C 147.804 273.051 146.781 272.188 145.522 272.188 C 140.867 272.188 136.307 273.536 132.686 275.987 C 131.702 276.651 131.542 277.865 132.332 278.693 C 132.781 279.169 133.446 279.415 134.114 279.415 C 134.613 279.415 135.118 279.276 135.54 278.991 C 137.838 277.439 140.531 276.507 143.404 276.187 C 144.622 284.772 153.287 291.45 163.776 291.45 C 165.036 291.45 166.059 290.587 166.059 289.524 C 166.059 282.697 172.104 277.056 179.91 276.173 C 181.122 284.764 189.791 291.45 200.288 291.45 C 201.547 291.45 202.569 290.587 202.569 289.524 C 202.569 282.697 208.615 277.056 216.421 276.173 C 217.633 284.764 226.301 291.45 236.799 291.45 C 238.058 291.45 239.08 290.587 239.08 289.524 C 239.08 282.697 245.127 277.054 252.934 276.173 C 253.701 281.546 257.418 286.392 263.041 289.133 C 263.399 289.308 263.792 289.391 264.179 289.391 C 264.969 289.391 265.736 289.046 266.158 288.428 C 266.79 287.509 266.416 286.33 265.325 285.799 Z M 398.86 286.799 C 393.931 284.397 390.871 279.918 390.871 275.114 C 390.871 274.051 389.848 273.188 388.589 273.188 C 378.092 273.188 369.423 279.874 368.211 288.465 C 360.405 287.584 354.36 281.941 354.36 275.114 C 354.36 274.051 353.338 273.188 352.078 273.188 C 341.581 273.188 332.912 279.874 331.701 288.465 C 323.893 287.584 317.849 281.941 317.849 275.114 C 317.849 274.051 316.827 273.188 315.567 273.188 C 305.07 273.188 296.401 279.874 295.19 288.465 C 287.382 287.584 281.338 281.941 281.338 275.114 C 281.338 274.051 280.316 273.188 279.056 273.188 C 274.401 273.188 269.841 274.536 266.22 276.987 C 265.236 277.651 265.077 278.865 265.867 279.693 C 266.316 280.169 266.98 280.415 267.649 280.415 C 268.148 280.415 268.653 280.276 269.075 279.991 C 271.373 278.439 274.065 277.507 276.938 277.187 C 278.157 285.772 286.822 292.45 297.311 292.45 C 298.571 292.45 299.593 291.587 299.593 290.524 C 299.593 283.697 305.638 278.056 313.445 277.173 C 314.656 285.764 323.325 292.45 333.823 292.45 C 335.082 292.45 336.104 291.587 336.104 290.524 C 336.104 283.697 342.149 278.056 349.955 277.173 C 351.167 285.764 359.836 292.45 370.334 292.45 C 371.592 292.45 372.615 291.587 372.615 290.524 C 372.615 283.697 378.662 278.054 386.468 277.173 C 387.236 282.546 390.953 287.392 396.575 290.133 C 396.933 290.308 397.326 290.391 397.714 290.391 C 398.504 290.391 399.27 290.046 399.693 289.428 C 400.324 288.509 399.951 287.33 398.86 286.799 Z" id="third_wave">
      <title>third_wave</title>
    </path>
    <path style="fill: rgb(132, 181, 203);" d="M 533.495 286.212 C 528.566 283.81 525.506 279.331 525.506 274.527 C 525.506 273.464 524.484 272.601 523.224 272.601 C 512.727 272.601 504.058 279.287 502.847 287.878 C 495.041 286.997 488.995 281.354 488.995 274.527 C 488.995 273.464 487.973 272.601 486.713 272.601 C 476.217 272.601 467.548 279.287 466.336 287.878 C 458.529 286.997 452.485 281.354 452.485 274.527 C 452.485 273.464 451.462 272.601 450.202 272.601 C 439.706 272.601 431.037 279.287 429.825 287.878 C 422.018 286.997 415.974 281.354 415.974 274.527 C 415.974 273.464 414.952 272.601 413.692 272.601 C 409.037 272.601 404.477 273.949 400.856 276.4 C 399.872 277.064 399.712 278.278 400.502 279.106 C 400.951 279.582 401.616 279.828 402.284 279.828 C 402.783 279.828 403.288 279.689 403.711 279.404 C 406.008 277.852 408.701 276.92 411.574 276.6 C 412.792 285.185 421.457 291.863 431.947 291.863 C 433.206 291.863 434.229 291 434.229 289.937 C 434.229 283.11 440.274 277.469 448.08 276.586 C 449.292 285.177 457.961 291.863 468.458 291.863 C 469.717 291.863 470.739 291 470.739 289.937 C 470.739 283.11 476.785 277.469 484.591 276.586 C 485.803 285.177 494.471 291.863 504.969 291.863 C 506.228 291.863 507.25 291 507.25 289.937 C 507.25 283.11 513.298 277.467 521.104 276.586 C 521.871 281.959 525.588 286.805 531.211 289.546 C 531.569 289.721 531.962 289.804 532.349 289.804 C 533.139 289.804 533.906 289.459 534.328 288.841 C 534.96 287.922 534.586 286.743 533.495 286.212 Z M 666.219 285.985 C 661.29 283.583 658.23 279.104 658.23 274.3 C 658.23 273.237 657.207 272.374 655.947 272.374 C 645.451 272.374 636.782 279.06 635.57 287.651 C 627.764 286.77 621.719 281.127 621.719 274.3 C 621.719 273.237 620.697 272.374 619.437 272.374 C 608.94 272.374 600.271 279.06 599.06 287.651 C 591.252 286.77 585.208 281.127 585.208 274.3 C 585.208 273.237 584.186 272.374 582.926 272.374 C 572.429 272.374 563.76 279.06 562.549 287.651 C 554.741 286.77 548.697 281.127 548.697 274.3 C 548.697 273.237 547.675 272.374 546.415 272.374 C 541.76 272.374 537.2 273.722 533.579 276.173 C 532.595 276.837 532.436 278.051 533.226 278.879 C 533.675 279.355 534.339 279.601 535.008 279.601 C 535.507 279.601 536.012 279.462 536.434 279.177 C 538.731 277.625 541.424 276.693 544.297 276.373 C 545.515 284.958 554.181 291.636 564.67 291.636 C 565.93 291.636 566.952 290.773 566.952 289.71 C 566.952 282.883 572.997 277.242 580.804 276.359 C 582.015 284.95 590.684 291.636 601.182 291.636 C 602.441 291.636 603.463 290.773 603.463 289.71 C 603.463 282.883 609.508 277.242 617.314 276.359 C 618.526 284.95 627.195 291.636 637.693 291.636 C 638.951 291.636 639.974 290.773 639.974 289.71 C 639.974 282.883 646.021 277.24 653.827 276.359 C 654.595 281.732 658.312 286.578 663.934 289.319 C 664.292 289.494 664.685 289.577 665.073 289.577 C 665.863 289.577 666.629 289.232 667.052 288.614 C 667.683 287.695 667.31 286.516 666.219 285.985 Z M 798.838 286.457 C 793.91 284.055 790.849 279.576 790.849 274.772 C 790.849 273.709 789.827 272.846 788.567 272.846 C 778.07 272.846 769.402 279.532 768.19 288.123 C 760.384 287.242 754.338 281.599 754.338 274.772 C 754.338 273.709 753.316 272.846 752.056 272.846 C 741.56 272.846 732.891 279.532 731.679 288.123 C 723.872 287.242 717.828 281.599 717.828 274.772 C 717.828 273.709 716.805 272.846 715.546 272.846 C 705.049 272.846 696.38 279.532 695.168 288.123 C 687.361 287.242 681.317 281.599 681.317 274.772 C 681.317 273.709 680.295 272.846 679.035 272.846 C 674.38 272.846 669.82 274.194 666.199 276.645 C 665.215 277.309 665.055 278.523 665.845 279.351 C 666.294 279.827 666.959 280.073 667.627 280.073 C 668.127 280.073 668.631 279.934 669.054 279.649 C 671.351 278.097 674.044 277.165 676.917 276.845 C 678.135 285.43 686.801 292.108 697.29 292.108 C 698.549 292.108 699.572 291.245 699.572 290.182 C 699.572 283.355 705.617 277.714 713.423 276.831 C 714.635 285.422 723.304 292.108 733.801 292.108 C 735.06 292.108 736.082 291.245 736.082 290.182 C 736.082 283.355 742.128 277.714 749.934 276.831 C 751.146 285.422 759.814 292.108 770.312 292.108 C 771.571 292.108 772.593 291.245 772.593 290.182 C 772.593 283.355 778.641 277.712 786.447 276.831 C 787.214 282.204 790.931 287.05 796.554 289.791 C 796.912 289.966 797.305 290.049 797.692 290.049 C 798.483 290.049 799.249 289.704 799.671 289.086 C 800.303 288.167 799.93 286.988 798.838 286.457 Z M 932.296 285.779 C 927.367 283.377 924.307 278.898 924.307 274.094 C 924.307 273.031 923.285 272.168 922.025 272.168 C 911.528 272.168 902.859 278.854 901.648 287.445 C 893.842 286.564 887.796 280.921 887.796 274.094 C 887.796 273.031 886.774 272.168 885.514 272.168 C 875.018 272.168 866.349 278.854 865.137 287.445 C 857.33 286.564 851.286 280.921 851.286 274.094 C 851.286 273.031 850.263 272.168 849.003 272.168 C 838.507 272.168 829.838 278.854 828.626 287.445 C 820.819 286.564 814.775 280.921 814.775 274.094 C 814.775 273.031 813.753 272.168 812.493 272.168 C 807.838 272.168 803.278 273.516 799.657 275.967 C 798.673 276.631 798.513 277.845 799.303 278.673 C 799.752 279.149 800.417 279.395 801.085 279.395 C 801.584 279.395 802.089 279.256 802.512 278.971 C 804.809 277.419 807.502 276.487 810.375 276.167 C 811.593 284.752 820.259 291.43 830.748 291.43 C 832.007 291.43 833.03 290.567 833.03 289.504 C 833.03 282.677 839.075 277.036 846.881 276.153 C 848.093 284.744 856.762 291.43 867.259 291.43 C 868.518 291.43 869.54 290.567 869.54 289.504 C 869.54 282.677 875.586 277.036 883.392 276.153 C 884.604 284.744 893.272 291.43 903.77 291.43 C 905.029 291.43 906.051 290.567 906.051 289.504 C 906.051 282.677 912.099 277.034 919.905 276.153 C 920.672 281.526 924.389 286.372 930.012 289.113 C 930.37 289.288 930.763 289.371 931.15 289.371 C 931.94 289.371 932.707 289.026 933.129 288.408 C 933.761 287.489 933.387 286.31 932.296 285.779 Z M 1065.325 285.611 C 1060.396 283.209 1057.336 278.73 1057.336 273.926 C 1057.336 272.863 1056.314 272 1055.054 272 C 1044.557 272 1035.888 278.686 1034.677 287.277 C 1026.87 286.396 1020.825 280.753 1020.825 273.926 C 1020.825 272.863 1019.803 272 1018.543 272 C 1008.046 272 999.378 278.686 998.166 287.277 C 990.359 286.396 984.314 280.753 984.314 273.926 C 984.314 272.863 983.292 272 982.032 272 C 971.536 272 962.867 278.686 961.655 287.277 C 953.848 286.396 947.804 280.753 947.804 273.926 C 947.804 272.863 946.781 272 945.522 272 C 940.867 272 936.307 273.348 932.686 275.799 C 931.702 276.463 931.542 277.677 932.332 278.505 C 932.781 278.981 933.445 279.227 934.114 279.227 C 934.613 279.227 935.118 279.088 935.54 278.803 C 937.838 277.251 940.53 276.319 943.404 275.999 C 944.622 284.584 953.287 291.262 963.776 291.262 C 965.036 291.262 966.059 290.399 966.059 289.336 C 966.059 282.509 972.104 276.868 979.91 275.985 C 981.122 284.576 989.791 291.262 1000.288 291.262 C 1001.547 291.262 1002.569 290.399 1002.569 289.336 C 1002.569 282.509 1008.615 276.868 1016.421 275.985 C 1017.632 284.576 1026.301 291.262 1036.799 291.262 C 1038.058 291.262 1039.08 290.399 1039.08 289.336 C 1039.08 282.509 1045.127 276.866 1052.934 275.985 C 1053.701 281.358 1057.418 286.204 1063.041 288.945 C 1063.399 289.12 1063.792 289.203 1064.179 289.203 C 1064.969 289.203 1065.736 288.858 1066.158 288.24 C 1066.79 287.321 1066.416 286.142 1065.325 285.611 Z M 1198.86 286.611 C 1193.931 284.209 1190.871 279.73 1190.871 274.926 C 1190.871 273.863 1189.848 273 1188.588 273 C 1178.092 273 1169.423 279.686 1168.211 288.277 C 1160.405 287.396 1154.36 281.753 1154.36 274.926 C 1154.36 273.863 1153.338 273 1152.078 273 C 1141.581 273 1132.912 279.686 1131.701 288.277 C 1123.893 287.396 1117.849 281.753 1117.849 274.926 C 1117.849 273.863 1116.827 273 1115.567 273 C 1105.07 273 1096.401 279.686 1095.19 288.277 C 1087.382 287.396 1081.338 281.753 1081.338 274.926 C 1081.338 273.863 1080.316 273 1079.056 273 C 1074.401 273 1069.841 274.348 1066.22 276.799 C 1065.236 277.463 1065.077 278.677 1065.867 279.505 C 1066.316 279.981 1066.98 280.227 1067.649 280.227 C 1068.148 280.227 1068.653 280.088 1069.075 279.803 C 1071.372 278.251 1074.065 277.319 1076.938 276.999 C 1078.156 285.584 1086.822 292.262 1097.311 292.262 C 1098.571 292.262 1099.593 291.399 1099.593 290.336 C 1099.593 283.509 1105.638 277.868 1113.445 276.985 C 1114.656 285.576 1123.325 292.262 1133.823 292.262 C 1135.082 292.262 1136.104 291.399 1136.104 290.336 C 1136.104 283.509 1142.149 277.868 1149.955 276.985 C 1151.167 285.576 1159.836 292.262 1170.334 292.262 C 1171.592 292.262 1172.615 291.399 1172.615 290.336 C 1172.615 283.509 1178.662 277.866 1186.468 276.985 C 1187.236 282.358 1190.953 287.204 1196.575 289.945 C 1196.933 290.12 1197.326 290.203 1197.714 290.203 C 1198.504 290.203 1199.27 289.858 1199.693 289.24 C 1200.324 288.321 1199.951 287.142 1198.86 286.611 Z" id="third_wave_">
      <title>third_wave_</title>
    </path>
    <path style="fill: rgb(132, 181, 203);" d="M -266.505 304.4 C -271.434 301.998 -274.494 297.519 -274.494 292.715 C -274.494 291.652 -275.516 290.789 -276.776 290.789 C -287.273 290.789 -295.942 297.475 -297.153 306.066 C -304.96 305.185 -311.005 299.542 -311.005 292.715 C -311.005 291.652 -312.027 290.789 -313.287 290.789 C -323.784 290.789 -332.452 297.475 -333.664 306.066 C -341.471 305.185 -347.515 299.542 -347.515 292.715 C -347.515 291.652 -348.538 290.789 -349.798 290.789 C -360.294 290.789 -368.963 297.475 -370.175 306.066 C -377.982 305.185 -384.026 299.542 -384.026 292.715 C -384.026 291.652 -385.049 290.789 -386.308 290.789 C -390.963 290.789 -395.523 292.137 -399.144 294.588 C -400.128 295.252 -400.288 296.466 -399.498 297.294 C -399.049 297.77 -398.384 298.016 -397.716 298.016 C -397.217 298.016 -396.712 297.877 -396.29 297.592 C -393.992 296.04 -391.299 295.108 -388.426 294.788 C -387.208 303.373 -378.543 310.051 -368.054 310.051 C -366.794 310.051 -365.771 309.188 -365.771 308.125 C -365.771 301.298 -359.726 295.657 -351.92 294.774 C -350.708 303.365 -342.039 310.051 -331.542 310.051 C -330.283 310.051 -329.261 309.188 -329.261 308.125 C -329.261 301.298 -323.215 295.657 -315.409 294.774 C -314.197 303.365 -305.529 310.051 -295.031 310.051 C -293.772 310.051 -292.75 309.188 -292.75 308.125 C -292.75 301.298 -286.702 295.655 -278.896 294.774 C -278.129 300.147 -274.412 304.993 -268.789 307.734 C -268.431 307.909 -268.038 307.992 -267.651 307.992 C -266.861 307.992 -266.094 307.647 -265.672 307.029 C -265.04 306.11 -265.414 304.931 -266.505 304.4 Z M -133.781 304.173 C -138.71 301.771 -141.77 297.292 -141.77 292.488 C -141.77 291.425 -142.793 290.562 -144.053 290.562 C -154.549 290.562 -163.218 297.248 -164.43 305.839 C -172.236 304.958 -178.281 299.315 -178.281 292.488 C -178.281 291.425 -179.303 290.562 -180.563 290.562 C -191.06 290.562 -199.729 297.248 -200.94 305.839 C -208.748 304.958 -214.792 299.315 -214.792 292.488 C -214.792 291.425 -215.814 290.562 -217.074 290.562 C -227.571 290.562 -236.24 297.248 -237.451 305.839 C -245.259 304.958 -251.303 299.315 -251.303 292.488 C -251.303 291.425 -252.325 290.562 -253.585 290.562 C -258.24 290.562 -262.8 291.91 -266.421 294.361 C -267.405 295.025 -267.564 296.239 -266.774 297.067 C -266.325 297.543 -265.661 297.789 -264.992 297.789 C -264.493 297.789 -263.988 297.65 -263.566 297.365 C -261.269 295.813 -258.576 294.881 -255.703 294.561 C -254.485 303.146 -245.819 309.824 -235.33 309.824 C -234.07 309.824 -233.048 308.961 -233.048 307.898 C -233.048 301.071 -227.003 295.43 -219.196 294.547 C -217.985 303.138 -209.316 309.824 -198.818 309.824 C -197.559 309.824 -196.537 308.961 -196.537 307.898 C -196.537 301.071 -190.492 295.43 -182.686 294.547 C -181.474 303.138 -172.805 309.824 -162.307 309.824 C -161.049 309.824 -160.026 308.961 -160.026 307.898 C -160.026 301.071 -153.979 295.428 -146.173 294.547 C -145.405 299.92 -141.688 304.766 -136.066 307.507 C -135.708 307.682 -135.315 307.765 -134.927 307.765 C -134.137 307.765 -133.371 307.42 -132.948 306.802 C -132.317 305.883 -132.69 304.704 -133.781 304.173 Z M -1.162 304.645 C -6.09 302.243 -9.151 297.764 -9.151 292.96 C -9.151 291.897 -10.173 291.034 -11.433 291.034 C -21.93 291.034 -30.598 297.72 -31.81 306.311 C -39.616 305.43 -45.662 299.787 -45.662 292.96 C -45.662 291.897 -46.684 291.034 -47.944 291.034 C -58.44 291.034 -67.109 297.72 -68.321 306.311 C -76.128 305.43 -82.172 299.787 -82.172 292.96 C -82.172 291.897 -83.195 291.034 -84.454 291.034 C -94.951 291.034 -103.62 297.72 -104.832 306.311 C -112.639 305.43 -118.683 299.787 -118.683 292.96 C -118.683 291.897 -119.705 291.034 -120.965 291.034 C -125.62 291.034 -130.18 292.382 -133.801 294.833 C -134.785 295.497 -134.945 296.711 -134.155 297.539 C -133.706 298.015 -133.041 298.261 -132.373 298.261 C -131.873 298.261 -131.369 298.122 -130.946 297.837 C -128.649 296.285 -125.956 295.353 -123.083 295.033 C -121.865 303.618 -113.199 310.296 -102.71 310.296 C -101.451 310.296 -100.428 309.433 -100.428 308.37 C -100.428 301.543 -94.383 295.902 -86.577 295.019 C -85.365 303.61 -76.696 310.296 -66.199 310.296 C -64.94 310.296 -63.918 309.433 -63.918 308.37 C -63.918 301.543 -57.872 295.902 -50.066 295.019 C -48.854 303.61 -40.186 310.296 -29.688 310.296 C -28.429 310.296 -27.407 309.433 -27.407 308.37 C -27.407 301.543 -21.359 295.9 -13.553 295.019 C -12.786 300.392 -9.069 305.238 -3.446 307.979 C -3.088 308.154 -2.695 308.237 -2.308 308.237 C -1.517 308.237 -0.751 307.892 -0.329 307.274 C 0.303 306.355 -0.07 305.176 -1.162 304.645 Z M 132.296 303.967 C 127.367 301.565 124.307 297.086 124.307 292.282 C 124.307 291.219 123.285 290.356 122.025 290.356 C 111.528 290.356 102.86 297.042 101.648 305.633 C 93.842 304.752 87.796 299.109 87.796 292.282 C 87.796 291.219 86.774 290.356 85.514 290.356 C 75.018 290.356 66.349 297.042 65.137 305.633 C 57.33 304.752 51.286 299.109 51.286 292.282 C 51.286 291.219 50.263 290.356 49.003 290.356 C 38.507 290.356 29.838 297.042 28.626 305.633 C 20.819 304.752 14.775 299.109 14.775 292.282 C 14.775 291.219 13.753 290.356 12.493 290.356 C 7.838 290.356 3.278 291.704 -0.343 294.155 C -1.327 294.819 -1.487 296.033 -0.697 296.861 C -0.248 297.337 0.417 297.583 1.085 297.583 C 1.584 297.583 2.089 297.444 2.512 297.159 C 4.809 295.607 7.502 294.675 10.375 294.355 C 11.593 302.94 20.259 309.618 30.748 309.618 C 32.007 309.618 33.03 308.755 33.03 307.692 C 33.03 300.865 39.075 295.224 46.881 294.341 C 48.093 302.932 56.762 309.618 67.259 309.618 C 68.518 309.618 69.54 308.755 69.54 307.692 C 69.54 300.865 75.586 295.224 83.392 294.341 C 84.604 302.932 93.272 309.618 103.77 309.618 C 105.029 309.618 106.051 308.755 106.051 307.692 C 106.051 300.865 112.099 295.222 119.905 294.341 C 120.672 299.714 124.389 304.56 130.012 307.301 C 130.37 307.476 130.763 307.559 131.15 307.559 C 131.941 307.559 132.707 307.214 133.129 306.596 C 133.761 305.677 133.387 304.498 132.296 303.967 Z M 265.325 303.799 C 260.396 301.397 257.336 296.918 257.336 292.114 C 257.336 291.051 256.314 290.188 255.054 290.188 C 244.557 290.188 235.888 296.874 234.677 305.465 C 226.87 304.584 220.825 298.941 220.825 292.114 C 220.825 291.051 219.803 290.188 218.543 290.188 C 208.046 290.188 199.378 296.874 198.166 305.465 C 190.359 304.584 184.315 298.941 184.315 292.114 C 184.315 291.051 183.292 290.188 182.032 290.188 C 171.536 290.188 162.867 296.874 161.655 305.465 C 153.848 304.584 147.804 298.941 147.804 292.114 C 147.804 291.051 146.781 290.188 145.522 290.188 C 140.867 290.188 136.307 291.536 132.686 293.987 C 131.702 294.651 131.542 295.865 132.332 296.693 C 132.781 297.169 133.446 297.415 134.114 297.415 C 134.613 297.415 135.118 297.276 135.54 296.991 C 137.838 295.439 140.531 294.507 143.404 294.187 C 144.622 302.772 153.287 309.45 163.776 309.45 C 165.036 309.45 166.059 308.587 166.059 307.524 C 166.059 300.697 172.104 295.056 179.91 294.173 C 181.122 302.764 189.791 309.45 200.288 309.45 C 201.547 309.45 202.569 308.587 202.569 307.524 C 202.569 300.697 208.615 295.056 216.421 294.173 C 217.633 302.764 226.301 309.45 236.799 309.45 C 238.058 309.45 239.08 308.587 239.08 307.524 C 239.08 300.697 245.127 295.054 252.934 294.173 C 253.701 299.546 257.418 304.392 263.041 307.133 C 263.399 307.308 263.792 307.391 264.179 307.391 C 264.969 307.391 265.736 307.046 266.158 306.428 C 266.79 305.509 266.416 304.33 265.325 303.799 Z M 398.86 304.799 C 393.931 302.397 390.871 297.918 390.871 293.114 C 390.871 292.051 389.848 291.188 388.589 291.188 C 378.092 291.188 369.423 297.874 368.211 306.465 C 360.405 305.584 354.36 299.941 354.36 293.114 C 354.36 292.051 353.338 291.188 352.078 291.188 C 341.581 291.188 332.912 297.874 331.701 306.465 C 323.893 305.584 317.849 299.941 317.849 293.114 C 317.849 292.051 316.827 291.188 315.567 291.188 C 305.07 291.188 296.401 297.874 295.19 306.465 C 287.382 305.584 281.338 299.941 281.338 293.114 C 281.338 292.051 280.316 291.188 279.056 291.188 C 274.401 291.188 269.841 292.536 266.22 294.987 C 265.236 295.651 265.077 296.865 265.867 297.693 C 266.316 298.169 266.98 298.415 267.649 298.415 C 268.148 298.415 268.653 298.276 269.075 297.991 C 271.373 296.439 274.065 295.507 276.938 295.187 C 278.157 303.772 286.822 310.45 297.311 310.45 C 298.571 310.45 299.593 309.587 299.593 308.524 C 299.593 301.697 305.638 296.056 313.445 295.173 C 314.656 303.764 323.325 310.45 333.823 310.45 C 335.082 310.45 336.104 309.587 336.104 308.524 C 336.104 301.697 342.149 296.056 349.955 295.173 C 351.167 303.764 359.836 310.45 370.334 310.45 C 371.592 310.45 372.615 309.587 372.615 308.524 C 372.615 301.697 378.662 296.054 386.468 295.173 C 387.236 300.546 390.953 305.392 396.575 308.133 C 396.933 308.308 397.326 308.391 397.714 308.391 C 398.504 308.391 399.27 308.046 399.693 307.428 C 400.324 306.509 399.951 305.33 398.86 304.799 Z" id="forth_wave">
      <title>forth_wave</title>
    </path>
    <path style="fill: rgb(132, 181, 203);" d="M 533.495 304.212 C 528.566 301.81 525.506 297.331 525.506 292.527 C 525.506 291.464 524.484 290.601 523.224 290.601 C 512.727 290.601 504.058 297.287 502.847 305.878 C 495.041 304.997 488.995 299.354 488.995 292.527 C 488.995 291.464 487.973 290.601 486.713 290.601 C 476.217 290.601 467.548 297.287 466.336 305.878 C 458.529 304.997 452.485 299.354 452.485 292.527 C 452.485 291.464 451.462 290.601 450.202 290.601 C 439.706 290.601 431.037 297.287 429.825 305.878 C 422.018 304.997 415.974 299.354 415.974 292.527 C 415.974 291.464 414.952 290.601 413.692 290.601 C 409.037 290.601 404.477 291.949 400.856 294.4 C 399.872 295.064 399.712 296.278 400.502 297.106 C 400.951 297.582 401.616 297.828 402.284 297.828 C 402.783 297.828 403.288 297.689 403.711 297.404 C 406.008 295.852 408.701 294.92 411.574 294.6 C 412.792 303.185 421.457 309.863 431.947 309.863 C 433.206 309.863 434.229 309 434.229 307.937 C 434.229 301.11 440.274 295.469 448.08 294.586 C 449.292 303.177 457.961 309.863 468.458 309.863 C 469.717 309.863 470.739 309 470.739 307.937 C 470.739 301.11 476.785 295.469 484.591 294.586 C 485.803 303.177 494.471 309.863 504.969 309.863 C 506.228 309.863 507.25 309 507.25 307.937 C 507.25 301.11 513.298 295.467 521.104 294.586 C 521.871 299.959 525.588 304.805 531.211 307.546 C 531.569 307.721 531.962 307.804 532.349 307.804 C 533.139 307.804 533.906 307.459 534.328 306.841 C 534.96 305.922 534.586 304.743 533.495 304.212 Z M 666.219 303.985 C 661.29 301.583 658.23 297.104 658.23 292.3 C 658.23 291.237 657.207 290.374 655.947 290.374 C 645.451 290.374 636.782 297.06 635.57 305.651 C 627.764 304.77 621.719 299.127 621.719 292.3 C 621.719 291.237 620.697 290.374 619.437 290.374 C 608.94 290.374 600.271 297.06 599.06 305.651 C 591.252 304.77 585.208 299.127 585.208 292.3 C 585.208 291.237 584.186 290.374 582.926 290.374 C 572.429 290.374 563.76 297.06 562.549 305.651 C 554.741 304.77 548.697 299.127 548.697 292.3 C 548.697 291.237 547.675 290.374 546.415 290.374 C 541.76 290.374 537.2 291.722 533.579 294.173 C 532.595 294.837 532.436 296.051 533.226 296.879 C 533.675 297.355 534.339 297.601 535.008 297.601 C 535.507 297.601 536.012 297.462 536.434 297.177 C 538.731 295.625 541.424 294.693 544.297 294.373 C 545.515 302.958 554.181 309.636 564.67 309.636 C 565.93 309.636 566.952 308.773 566.952 307.71 C 566.952 300.883 572.997 295.242 580.804 294.359 C 582.015 302.95 590.684 309.636 601.182 309.636 C 602.441 309.636 603.463 308.773 603.463 307.71 C 603.463 300.883 609.508 295.242 617.314 294.359 C 618.526 302.95 627.195 309.636 637.693 309.636 C 638.951 309.636 639.974 308.773 639.974 307.71 C 639.974 300.883 646.021 295.24 653.827 294.359 C 654.595 299.732 658.312 304.578 663.934 307.319 C 664.292 307.494 664.685 307.577 665.073 307.577 C 665.863 307.577 666.629 307.232 667.052 306.614 C 667.683 305.695 667.31 304.516 666.219 303.985 Z M 798.838 304.457 C 793.91 302.055 790.849 297.576 790.849 292.772 C 790.849 291.709 789.827 290.846 788.567 290.846 C 778.07 290.846 769.402 297.532 768.19 306.123 C 760.384 305.242 754.338 299.599 754.338 292.772 C 754.338 291.709 753.316 290.846 752.056 290.846 C 741.56 290.846 732.891 297.532 731.679 306.123 C 723.872 305.242 717.828 299.599 717.828 292.772 C 717.828 291.709 716.805 290.846 715.546 290.846 C 705.049 290.846 696.38 297.532 695.168 306.123 C 687.361 305.242 681.317 299.599 681.317 292.772 C 681.317 291.709 680.295 290.846 679.035 290.846 C 674.38 290.846 669.82 292.194 666.199 294.645 C 665.215 295.309 665.055 296.523 665.845 297.351 C 666.294 297.827 666.959 298.073 667.627 298.073 C 668.127 298.073 668.631 297.934 669.054 297.649 C 671.351 296.097 674.044 295.165 676.917 294.845 C 678.135 303.43 686.801 310.108 697.29 310.108 C 698.549 310.108 699.572 309.245 699.572 308.182 C 699.572 301.355 705.617 295.714 713.423 294.831 C 714.635 303.422 723.304 310.108 733.801 310.108 C 735.06 310.108 736.082 309.245 736.082 308.182 C 736.082 301.355 742.128 295.714 749.934 294.831 C 751.146 303.422 759.814 310.108 770.312 310.108 C 771.571 310.108 772.593 309.245 772.593 308.182 C 772.593 301.355 778.641 295.712 786.447 294.831 C 787.214 300.204 790.931 305.05 796.554 307.791 C 796.912 307.966 797.305 308.049 797.692 308.049 C 798.483 308.049 799.249 307.704 799.671 307.086 C 800.303 306.167 799.93 304.988 798.838 304.457 Z M 932.296 303.779 C 927.367 301.377 924.307 296.898 924.307 292.094 C 924.307 291.031 923.285 290.168 922.025 290.168 C 911.528 290.168 902.859 296.854 901.648 305.445 C 893.842 304.564 887.796 298.921 887.796 292.094 C 887.796 291.031 886.774 290.168 885.514 290.168 C 875.018 290.168 866.349 296.854 865.137 305.445 C 857.33 304.564 851.286 298.921 851.286 292.094 C 851.286 291.031 850.263 290.168 849.003 290.168 C 838.507 290.168 829.838 296.854 828.626 305.445 C 820.819 304.564 814.775 298.921 814.775 292.094 C 814.775 291.031 813.753 290.168 812.493 290.168 C 807.838 290.168 803.278 291.516 799.657 293.967 C 798.673 294.631 798.513 295.845 799.303 296.673 C 799.752 297.149 800.417 297.395 801.085 297.395 C 801.584 297.395 802.089 297.256 802.512 296.971 C 804.809 295.419 807.502 294.487 810.375 294.167 C 811.593 302.752 820.259 309.43 830.748 309.43 C 832.007 309.43 833.03 308.567 833.03 307.504 C 833.03 300.677 839.075 295.036 846.881 294.153 C 848.093 302.744 856.762 309.43 867.259 309.43 C 868.518 309.43 869.54 308.567 869.54 307.504 C 869.54 300.677 875.586 295.036 883.392 294.153 C 884.604 302.744 893.272 309.43 903.77 309.43 C 905.029 309.43 906.051 308.567 906.051 307.504 C 906.051 300.677 912.099 295.034 919.905 294.153 C 920.672 299.526 924.389 304.372 930.012 307.113 C 930.37 307.288 930.763 307.371 931.15 307.371 C 931.94 307.371 932.707 307.026 933.129 306.408 C 933.761 305.489 933.387 304.31 932.296 303.779 Z M 1065.325 303.611 C 1060.396 301.209 1057.336 296.73 1057.336 291.926 C 1057.336 290.863 1056.314 290 1055.054 290 C 1044.557 290 1035.888 296.686 1034.677 305.277 C 1026.87 304.396 1020.825 298.753 1020.825 291.926 C 1020.825 290.863 1019.803 290 1018.543 290 C 1008.046 290 999.378 296.686 998.166 305.277 C 990.359 304.396 984.314 298.753 984.314 291.926 C 984.314 290.863 983.292 290 982.032 290 C 971.536 290 962.867 296.686 961.655 305.277 C 953.848 304.396 947.804 298.753 947.804 291.926 C 947.804 290.863 946.781 290 945.522 290 C 940.867 290 936.307 291.348 932.686 293.799 C 931.702 294.463 931.542 295.677 932.332 296.505 C 932.781 296.981 933.445 297.227 934.114 297.227 C 934.613 297.227 935.118 297.088 935.54 296.803 C 937.838 295.251 940.53 294.319 943.404 293.999 C 944.622 302.584 953.287 309.262 963.776 309.262 C 965.036 309.262 966.059 308.399 966.059 307.336 C 966.059 300.509 972.104 294.868 979.91 293.985 C 981.122 302.576 989.791 309.262 1000.288 309.262 C 1001.547 309.262 1002.569 308.399 1002.569 307.336 C 1002.569 300.509 1008.615 294.868 1016.421 293.985 C 1017.632 302.576 1026.301 309.262 1036.799 309.262 C 1038.058 309.262 1039.08 308.399 1039.08 307.336 C 1039.08 300.509 1045.127 294.866 1052.934 293.985 C 1053.701 299.358 1057.418 304.204 1063.041 306.945 C 1063.399 307.12 1063.792 307.203 1064.179 307.203 C 1064.969 307.203 1065.736 306.858 1066.158 306.24 C 1066.79 305.321 1066.416 304.142 1065.325 303.611 Z M 1198.86 304.611 C 1193.931 302.209 1190.871 297.73 1190.871 292.926 C 1190.871 291.863 1189.848 291 1188.588 291 C 1178.092 291 1169.423 297.686 1168.211 306.277 C 1160.405 305.396 1154.36 299.753 1154.36 292.926 C 1154.36 291.863 1153.338 291 1152.078 291 C 1141.581 291 1132.912 297.686 1131.701 306.277 C 1123.893 305.396 1117.849 299.753 1117.849 292.926 C 1117.849 291.863 1116.827 291 1115.567 291 C 1105.07 291 1096.401 297.686 1095.19 306.277 C 1087.382 305.396 1081.338 299.753 1081.338 292.926 C 1081.338 291.863 1080.316 291 1079.056 291 C 1074.401 291 1069.841 292.348 1066.22 294.799 C 1065.236 295.463 1065.077 296.677 1065.867 297.505 C 1066.316 297.981 1066.98 298.227 1067.649 298.227 C 1068.148 298.227 1068.653 298.088 1069.075 297.803 C 1071.372 296.251 1074.065 295.319 1076.938 294.999 C 1078.156 303.584 1086.822 310.262 1097.311 310.262 C 1098.571 310.262 1099.593 309.399 1099.593 308.336 C 1099.593 301.509 1105.638 295.868 1113.445 294.985 C 1114.656 303.576 1123.325 310.262 1133.823 310.262 C 1135.082 310.262 1136.104 309.399 1136.104 308.336 C 1136.104 301.509 1142.149 295.868 1149.955 294.985 C 1151.167 303.576 1159.836 310.262 1170.334 310.262 C 1171.592 310.262 1172.615 309.399 1172.615 308.336 C 1172.615 301.509 1178.662 295.866 1186.468 294.985 C 1187.236 300.358 1190.953 305.204 1196.575 307.945 C 1196.933 308.12 1197.326 308.203 1197.714 308.203 C 1198.504 308.203 1199.27 307.858 1199.693 307.24 C 1200.324 306.321 1199.951 305.142 1198.86 304.611 Z" id="forth_wave_">
      <title>forth_wave_</title>
    </path>
  </g>
  <title>file_type_docker</title>
  <g id="clouds">
    <title>clouds</title>
    <path style="fill:#3D6889;" d="M 75.651 39.757 C 75.575 39.757 75.5 39.758 75.424 39.761 C 75.053 36.025 71.892 33.097 68.059 33.097 C 64.227 33.097 61.066 36.025 60.695 39.761 C 60.619 39.758 60.543 39.757 60.468 39.757 C 56.952 39.757 54.092 42.617 54.092 46.132 C 54.092 49.648 56.952 52.508 60.468 52.508 L 75.651 52.508 C 79.166 52.508 82.026 49.648 82.026 46.132 C 82.026 42.617 79.166 39.757 75.651 39.757 Z M 75.651 51.026 L 60.468 51.026 C 57.77 51.026 55.574 48.83 55.574 46.132 C 55.574 43.434 57.77 41.239 60.468 41.239 C 60.738 41.239 61.011 41.262 61.279 41.306 C 61.495 41.342 61.717 41.28 61.883 41.137 C 62.049 40.994 62.144 40.785 62.141 40.565 L 62.141 40.537 C 62.141 40.524 62.14 40.511 62.14 40.498 C 62.14 37.234 64.796 34.579 68.059 34.579 C 71.323 34.579 73.978 37.234 73.978 40.498 C 73.978 40.511 73.978 40.524 73.978 40.537 L 73.977 40.566 C 73.975 40.785 74.069 40.994 74.236 41.137 C 74.402 41.28 74.623 41.342 74.84 41.306 C 75.107 41.262 75.38 41.239 75.651 41.239 C 78.349 41.239 80.544 43.434 80.544 46.132 C 80.544 48.83 78.349 51.026 75.651 51.026 Z M 67.707 35.567 C 65.133 35.567 63.039 37.661 63.039 40.235 C 63.039 40.644 63.371 40.976 63.78 40.976 C 64.189 40.976 64.521 40.644 64.521 40.235 C 64.521 38.478 65.95 37.049 67.707 37.049 C 68.116 37.049 68.448 36.717 68.448 36.308 C 68.448 35.899 68.116 35.567 67.707 35.567 Z" id="cloud01">
      <title>cloud01</title>
    </path>
    <path style="fill:#3D6889;" d="M 215.451 13.419 C 215.375 13.419 215.3 13.42 215.224 13.423 C 214.853 9.687 211.692 6.759 207.859 6.759 C 204.027 6.759 200.866 9.687 200.495 13.423 C 200.419 13.42 200.343 13.419 200.268 13.419 C 196.752 13.419 193.892 16.279 193.892 19.794 C 193.892 23.31 196.752 26.17 200.268 26.17 L 215.451 26.17 C 218.966 26.17 221.826 23.31 221.826 19.794 C 221.826 16.279 218.966 13.419 215.451 13.419 Z M 215.451 24.688 L 200.268 24.688 C 197.57 24.688 195.374 22.492 195.374 19.794 C 195.374 17.096 197.57 14.901 200.268 14.901 C 200.538 14.901 200.811 14.924 201.079 14.968 C 201.295 15.004 201.517 14.942 201.683 14.799 C 201.849 14.656 201.944 14.447 201.941 14.227 L 201.941 14.199 C 201.941 14.186 201.94 14.173 201.94 14.16 C 201.94 10.896 204.596 8.241 207.859 8.241 C 211.123 8.241 213.778 10.896 213.778 14.16 C 213.778 14.173 213.778 14.186 213.778 14.199 L 213.777 14.228 C 213.775 14.447 213.869 14.656 214.036 14.799 C 214.202 14.942 214.423 15.004 214.64 14.968 C 214.907 14.924 215.18 14.901 215.451 14.901 C 218.149 14.901 220.344 17.096 220.344 19.794 C 220.344 22.492 218.149 24.688 215.451 24.688 Z M 207.507 9.229 C 204.933 9.229 202.839 11.323 202.839 13.897 C 202.839 14.306 203.171 14.638 203.58 14.638 C 203.989 14.638 204.321 14.306 204.321 13.897 C 204.321 12.14 205.75 10.711 207.507 10.711 C 207.916 10.711 208.248 10.379 208.248 9.97 C 208.248 9.561 207.916 9.229 207.507 9.229 Z" id="cloud02">
      <title>cloud02</title>
    </path>
    <path style="fill:#3D6889;" d="M 348.813 53.804 C 348.737 53.804 348.662 53.805 348.586 53.808 C 348.215 50.072 345.054 47.144 341.221 47.144 C 337.389 47.144 334.228 50.072 333.857 53.808 C 333.781 53.805 333.705 53.804 333.63 53.804 C 330.114 53.804 327.254 56.664 327.254 60.179 C 327.254 63.695 330.114 66.555 333.63 66.555 L 348.813 66.555 C 352.328 66.555 355.188 63.695 355.188 60.179 C 355.188 56.664 352.328 53.804 348.813 53.804 Z M 348.813 65.073 L 333.63 65.073 C 330.932 65.073 328.736 62.877 328.736 60.179 C 328.736 57.481 330.932 55.286 333.63 55.286 C 333.9 55.286 334.173 55.309 334.441 55.353 C 334.657 55.389 334.879 55.327 335.045 55.184 C 335.211 55.041 335.306 54.832 335.303 54.612 L 335.303 54.584 C 335.303 54.571 335.302 54.558 335.302 54.545 C 335.302 51.281 337.958 48.626 341.221 48.626 C 344.485 48.626 347.14 51.281 347.14 54.545 C 347.14 54.558 347.14 54.571 347.14 54.584 L 347.139 54.613 C 347.137 54.832 347.231 55.041 347.398 55.184 C 347.564 55.327 347.785 55.389 348.002 55.353 C 348.269 55.309 348.542 55.286 348.813 55.286 C 351.511 55.286 353.706 57.481 353.706 60.179 C 353.706 62.877 351.511 65.073 348.813 65.073 Z M 340.869 49.614 C 338.295 49.614 336.201 51.708 336.201 54.282 C 336.201 54.691 336.533 55.023 336.942 55.023 C 337.351 55.023 337.683 54.691 337.683 54.282 C 337.683 52.525 339.112 51.096 340.869 51.096 C 341.278 51.096 341.61 50.764 341.61 50.355 C 341.61 49.946 341.278 49.614 340.869 49.614 Z" id="cloud03">
      <title>cloud03</title>
    </path>
    <path style="fill:#3D6889;" d="M 432.424 18.101 C 432.348 18.101 432.273 18.102 432.197 18.105 C 431.826 14.369 428.665 11.441 424.832 11.441 C 421 11.441 417.839 14.369 417.468 18.105 C 417.392 18.102 417.316 18.101 417.241 18.101 C 413.725 18.101 410.865 20.961 410.865 24.476 C 410.865 27.992 413.725 30.852 417.241 30.852 L 432.424 30.852 C 435.939 30.852 438.799 27.992 438.799 24.476 C 438.799 20.961 435.939 18.101 432.424 18.101 Z M 432.424 29.37 L 417.241 29.37 C 414.543 29.37 412.347 27.174 412.347 24.476 C 412.347 21.778 414.543 19.583 417.241 19.583 C 417.511 19.583 417.784 19.606 418.052 19.65 C 418.268 19.686 418.49 19.624 418.656 19.481 C 418.822 19.338 418.917 19.129 418.914 18.909 L 418.914 18.881 C 418.914 18.868 418.913 18.855 418.913 18.842 C 418.913 15.578 421.569 12.923 424.832 12.923 C 428.096 12.923 430.751 15.578 430.751 18.842 C 430.751 18.855 430.751 18.868 430.751 18.881 L 430.75 18.91 C 430.748 19.129 430.842 19.338 431.009 19.481 C 431.175 19.624 431.396 19.686 431.613 19.65 C 431.88 19.606 432.153 19.583 432.424 19.583 C 435.122 19.583 437.317 21.778 437.317 24.476 C 437.317 27.174 435.122 29.37 432.424 29.37 Z M 424.48 13.911 C 421.906 13.911 419.812 16.005 419.812 18.579 C 419.812 18.988 420.144 19.32 420.553 19.32 C 420.962 19.32 421.294 18.988 421.294 18.579 C 421.294 16.822 422.723 15.393 424.48 15.393 C 424.889 15.393 425.221 15.061 425.221 14.652 C 425.221 14.243 424.889 13.911 424.48 13.911 Z" id="cloud04">
      <title>cloud04</title>
    </path>
    <path style="fill:#3D6889;" d="M 621.559 57.316 C 621.483 57.316 621.408 57.317 621.332 57.32 C 620.961 53.584 617.8 50.656 613.967 50.656 C 610.135 50.656 606.974 53.584 606.603 57.32 C 606.527 57.317 606.451 57.316 606.376 57.316 C 602.86 57.316 600 60.176 600 63.691 C 600 67.207 602.86 70.067 606.376 70.067 L 621.559 70.067 C 625.074 70.067 627.934 67.207 627.934 63.691 C 627.934 60.176 625.074 57.316 621.559 57.316 Z M 621.559 68.585 L 606.376 68.585 C 603.678 68.585 601.482 66.389 601.482 63.691 C 601.482 60.993 603.678 58.798 606.376 58.798 C 606.646 58.798 606.919 58.821 607.187 58.865 C 607.403 58.901 607.625 58.839 607.791 58.696 C 607.957 58.553 608.052 58.344 608.049 58.124 L 608.049 58.096 C 608.049 58.083 608.048 58.07 608.048 58.057 C 608.048 54.793 610.704 52.138 613.967 52.138 C 617.231 52.138 619.886 54.793 619.886 58.057 C 619.886 58.07 619.886 58.083 619.886 58.096 L 619.885 58.125 C 619.883 58.344 619.977 58.553 620.144 58.696 C 620.31 58.839 620.531 58.901 620.748 58.865 C 621.015 58.821 621.288 58.798 621.559 58.798 C 624.257 58.798 626.452 60.993 626.452 63.691 C 626.452 66.389 624.257 68.585 621.559 68.585 Z M 613.615 53.126 C 611.041 53.126 608.947 55.22 608.947 57.794 C 608.947 58.203 609.279 58.535 609.688 58.535 C 610.097 58.535 610.429 58.203 610.429 57.794 C 610.429 56.037 611.858 54.608 613.615 54.608 C 614.024 54.608 614.356 54.276 614.356 53.867 C 614.356 53.458 614.024 53.126 613.615 53.126 Z" id="cloud05">
      <title>cloud05</title>
    </path>
    <path style="fill:#3D6889;" d="M 755.336 23.954 C 755.26 23.954 755.185 23.955 755.109 23.958 C 754.738 20.222 751.577 17.294 747.744 17.294 C 743.912 17.294 740.751 20.222 740.38 23.958 C 740.304 23.955 740.228 23.954 740.153 23.954 C 736.637 23.954 733.777 26.814 733.777 30.329 C 733.777 33.845 736.637 36.705 740.153 36.705 L 755.336 36.705 C 758.851 36.705 761.711 33.845 761.711 30.329 C 761.711 26.814 758.851 23.954 755.336 23.954 Z M 755.336 35.223 L 740.153 35.223 C 737.455 35.223 735.259 33.027 735.259 30.329 C 735.259 27.631 737.455 25.436 740.153 25.436 C 740.423 25.436 740.696 25.459 740.964 25.503 C 741.18 25.539 741.402 25.477 741.568 25.334 C 741.734 25.191 741.829 24.982 741.826 24.762 L 741.826 24.734 C 741.826 24.721 741.825 24.708 741.825 24.695 C 741.825 21.431 744.481 18.776 747.744 18.776 C 751.008 18.776 753.663 21.431 753.663 24.695 C 753.663 24.708 753.663 24.721 753.663 24.734 L 753.662 24.763 C 753.66 24.982 753.754 25.191 753.921 25.334 C 754.087 25.477 754.308 25.539 754.525 25.503 C 754.792 25.459 755.065 25.436 755.336 25.436 C 758.034 25.436 760.229 27.631 760.229 30.329 C 760.229 33.027 758.034 35.223 755.336 35.223 Z M 747.392 19.764 C 744.818 19.764 742.724 21.858 742.724 24.432 C 742.724 24.841 743.056 25.173 743.465 25.173 C 743.874 25.173 744.206 24.841 744.206 24.432 C 744.206 22.675 745.635 21.246 747.392 21.246 C 747.801 21.246 748.133 20.914 748.133 20.505 C 748.133 20.096 747.801 19.764 747.392 19.764 Z" id="cloud06">
      <title>cloud06</title>
    </path>
  </g>
</svg>