<?xml version="1.0" encoding="iso-8859-1"?>
<!-- Generator: Adobe Illustrator 18.0.0, SVG Export Plug-In . SVG Version: 6.00 Build 0)  -->
<!DOCTYPE svg PUBLIC "-//W3C//DTD SVG 1.1//EN" "http://www.w3.org/Graphics/SVG/1.1/DTD/svg11.dtd">
<svg version="1.1" id="Capa_1" xmlns="http://www.w3.org/2000/svg" xmlns:xlink="http://www.w3.org/1999/xlink" x="0px" y="0px"
	 viewBox="0 0 368.946 368.946" style="enable-background:new 0 0 368.946 368.946;" xml:space="preserve">
<g>
	<g>
		<path d="M152.999,118.219h47.152c3.865,0,7-3.133,7-7c0-3.865-3.135-7-7-7h-47.152c-3.867,0-7,3.135-7,7
			C145.999,115.086,149.132,118.219,152.999,118.219z"/>
		<path d="M307.289,111.219c0,3.867,3.133,7,7,7h47.148c3.865,0,7-3.133,7-7c0-3.865-3.135-7-7-7h-47.148
			C310.421,104.219,307.289,107.354,307.289,111.219z"/>
		<path d="M293.244,147.246c-2.734,2.733-2.734,7.166,0,9.9l16.086,16.086c1.367,1.366,3.158,2.05,4.949,2.05
			c1.791,0,3.584-0.684,4.951-2.05c2.732-2.733,2.732-7.166,0-9.899l-16.086-16.086C300.41,144.513,295.978,144.513,293.244,147.246
			z"/>
		<path d="M250.218,170.679v44.759c0,3.867,3.133,7,7,7c3.865,0,7-3.133,7-7v-44.759c0-3.867-3.135-7-7-7
			C253.351,163.679,250.218,166.812,250.218,170.679z"/>
		<path d="M211.291,147.246l-16.084,16.086c-2.734,2.733-2.734,7.166,0,9.899c1.367,1.367,3.158,2.05,4.949,2.05
			c1.793,0,3.584-0.684,4.951-2.05l16.084-16.086c2.734-2.734,2.734-7.166,0-9.9C218.458,144.512,214.025,144.513,211.291,147.246z"
			/>
		<path d="M257.222,156.58c25.012,0,45.361-20.349,45.361-45.361c0-25.012-20.35-45.361-45.361-45.361
			c-25.014,0-45.365,20.35-45.365,45.361C211.857,136.232,232.208,156.58,257.222,156.58z M257.222,79.857
			c17.293,0,31.361,14.069,31.361,31.361c0,17.293-14.068,31.361-31.361,31.361c-17.295,0-31.365-14.068-31.365-31.361
			C225.857,93.927,239.927,79.857,257.222,79.857z"/>
		<path d="M211.292,75.192c1.365,1.367,3.158,2.05,4.949,2.05s3.582-0.684,4.949-2.05c2.734-2.734,2.734-7.166,0-9.899
			l-16.084-16.084c-2.734-2.734-7.166-2.733-9.9,0c-2.734,2.733-2.734,7.166,0,9.899L211.292,75.192z"/>
		<path d="M257.218,58.761c3.865,0,7-3.135,7-7V7c0-3.866-3.135-7-7-7c-3.867,0-7,3.134-7,7v44.761
			C250.218,55.626,253.351,58.761,257.218,58.761z"/>
		<path d="M298.193,77.242c1.791,0,3.584-0.684,4.949-2.05l16.086-16.084c2.734-2.733,2.734-7.166,0.002-9.898
			c-2.734-2.734-7.166-2.734-9.9-0.002l-16.086,16.084c-2.734,2.734-2.734,7.166,0,9.899
			C294.611,76.559,296.402,77.242,298.193,77.242z"/>
		<path d="M361.437,268.946c-10.209,0-14.945-3.747-20.941-8.491c-6.82-5.395-14.551-11.509-29.625-11.509
			c-15.076,0-22.807,6.115-29.627,11.51c-5.996,4.743-10.732,8.49-20.94,8.49c-10.205,0-14.941-3.747-20.938-8.49
			c-6.818-5.394-14.549-11.51-29.621-11.51c-15.074,0-22.805,6.115-29.623,11.51c-5.996,4.743-10.732,8.49-20.938,8.49
			c-10.205,0-14.941-3.747-20.936-8.49c-6.82-5.394-14.549-11.51-29.623-11.51s-22.803,6.115-29.621,11.51
			c-5.996,4.743-10.73,8.49-20.936,8.49c-10.207,0-14.941-3.747-20.938-8.49c-6.82-5.394-14.549-11.51-29.623-11.51
			c-3.867,0-7,3.133-7,7c0,3.865,3.133,7,7,7c10.205,0,14.941,3.746,20.936,8.489c6.82,5.395,14.551,11.511,29.625,11.511
			c15.072,0,22.803-6.116,29.621-11.511c5.996-4.743,10.73-8.489,20.936-8.489s14.941,3.746,20.935,8.489
			c6.82,5.395,14.549,11.511,29.623,11.511c15.074,0,22.803-6.116,29.623-11.511c5.996-4.743,10.73-8.489,20.938-8.489
			c10.205,0,14.939,3.746,20.936,8.489c6.82,5.395,14.549,11.511,29.623,11.511c15.076,0,22.805-6.115,29.625-11.511
			c5.996-4.743,10.733-8.489,20.941-8.489c10.207,0,14.943,3.746,20.939,8.489c6.82,5.395,14.551,11.511,29.627,11.511
			c3.865,0,7-3.135,7-7C368.437,272.079,365.302,268.946,361.437,268.946z"/>
		<path d="M361.437,311.946c-10.209,0-14.945-3.747-20.941-8.491c-6.82-5.395-14.551-11.509-29.625-11.509
			c-15.076,0-22.807,6.115-29.627,11.51c-5.996,4.743-10.732,8.49-20.94,8.49c-10.205,0-14.941-3.747-20.938-8.49
			c-6.818-5.394-14.549-11.51-29.621-11.51c-15.074,0-22.805,6.115-29.623,11.51c-5.996,4.743-10.732,8.49-20.938,8.49
			c-10.205,0-14.941-3.747-20.936-8.49c-6.82-5.394-14.549-11.51-29.623-11.51s-22.803,6.115-29.621,11.51
			c-5.996,4.743-10.73,8.49-20.936,8.49c-10.207,0-14.941-3.747-20.938-8.49c-6.82-5.394-14.549-11.51-29.623-11.51
			c-3.867,0-7,3.133-7,7c0,3.865,3.133,7,7,7c10.205,0,14.941,3.746,20.936,8.489c6.82,5.395,14.551,11.511,29.625,11.511
			c15.072,0,22.803-6.116,29.621-11.511c5.996-4.743,10.73-8.489,20.936-8.489s14.941,3.746,20.935,8.489
			c6.82,5.395,14.549,11.511,29.623,11.511c15.074,0,22.803-6.116,29.623-11.511c5.996-4.743,10.73-8.489,20.938-8.489
			c10.205,0,14.939,3.746,20.936,8.489c6.82,5.395,14.549,11.511,29.623,11.511c15.076,0,22.805-6.115,29.625-11.511
			c5.996-4.743,10.733-8.489,20.941-8.489c10.207,0,14.943,3.746,20.939,8.489c6.82,5.395,14.551,11.511,29.627,11.511
			c3.865,0,7-3.135,7-7C368.437,315.079,365.302,311.946,361.437,311.946z"/>
		<path d="M361.437,354.946c-10.209,0-14.945-3.747-20.941-8.491c-6.82-5.395-14.551-11.509-29.625-11.509
			c-15.076,0-22.807,6.115-29.627,11.51c-5.996,4.743-10.732,8.49-20.94,8.49c-10.205,0-14.941-3.747-20.938-8.49
			c-6.818-5.394-14.549-11.51-29.621-11.51c-15.074,0-22.805,6.115-29.623,11.51c-5.996,4.743-10.732,8.49-20.938,8.49
			c-10.205,0-14.941-3.747-20.936-8.49c-6.82-5.394-14.549-11.51-29.623-11.51s-22.803,6.115-29.621,11.51
			c-5.996,4.743-10.73,8.49-20.936,8.49c-10.207,0-14.941-3.747-20.938-8.49c-6.82-5.394-14.549-11.51-29.623-11.51
			c-3.867,0-7,3.133-7,7c0,3.865,3.133,7,7,7c10.205,0,14.941,3.746,20.936,8.489c6.82,5.395,14.551,11.511,29.625,11.511
			c15.072,0,22.803-6.116,29.621-11.511c5.996-4.743,10.73-8.489,20.936-8.489s14.941,3.746,20.935,8.489
			c6.82,5.395,14.549,11.511,29.623,11.511c15.074,0,22.803-6.116,29.623-11.511c5.996-4.743,10.73-8.489,20.938-8.489
			c10.205,0,14.939,3.746,20.936,8.489c6.82,5.395,14.549,11.511,29.623,11.511c15.076,0,22.805-6.115,29.625-11.511
			c5.996-4.743,10.733-8.489,20.941-8.489c10.207,0,14.943,3.746,20.939,8.489c6.82,5.395,14.551,11.511,29.627,11.511
			c3.865,0,7-3.135,7-7C368.437,358.079,365.302,354.946,361.437,354.946z"/>
	</g>
</g>
</svg>
