<?xml version="1.0" encoding="iso-8859-1"?>
<!-- Generator: Adobe Illustrator 19.0.0, SVG Export Plug-In . SVG Version: 6.00 Build 0)  -->
<svg version="1.1" id="Layer_1" xmlns="http://www.w3.org/2000/svg" xmlns:xlink="http://www.w3.org/1999/xlink" x="0px" y="0px"
	 viewBox="0 0 512 512" style="enable-background:new 0 0 512 512;" xml:space="preserve">
<polygon style="fill:#58575D;" points="29.642,288.337 29.642,342.232 245.221,342.232 245.221,331.453 266.779,331.453 
	266.779,342.232 482.358,342.232 482.358,288.337 "/>
<rect x="212.884" y="115.874" style="fill:#EDEDED;" width="291.032" height="161.684"/>
<rect x="439.242" y="115.874" style="fill:#D8D8DA;" width="64.674" height="161.684"/>
<polygon style="fill:#D1E5F5;" points="61.978,115.875 137.432,115.875 137.432,288.337 61.979,288.337 18.863,342.232 
	8.084,342.232 8.084,169.767 "/>
<polygon style="fill:#B4D8F1;" points="94.316,115.874 8.084,202.104 8.084,342.232 18.863,342.232 61.979,288.337 126.653,288.337 
	137.432,115.874 "/>
<circle style="fill:#88888F;" cx="412.295" cy="347.621" r="48.505"/>
<path style="fill:#797781;" d="M412.295,299.116c-5.671,0-11.11,0.983-16.168,2.771c18.837,6.659,32.337,24.616,32.337,45.734
	c0,21.118-13.5,39.075-32.337,45.734c5.059,1.788,10.498,2.771,16.168,2.771c26.789,0,48.505-21.716,48.505-48.505
	S439.084,299.116,412.295,299.116z"/>
<path style="fill:#EDEDED;" d="M412.295,361.095c-7.43,0-13.474-6.044-13.474-13.474s6.044-13.474,13.474-13.474
	s13.474,6.044,13.474,13.474S419.725,361.095,412.295,361.095z"/>
<circle style="fill:#88888F;" cx="315.284" cy="347.621" r="48.505"/>
<path style="fill:#797781;" d="M315.284,299.116c-5.671,0-11.11,0.983-16.168,2.771c18.837,6.659,32.337,24.616,32.337,45.734
	c0,21.118-13.5,39.075-32.337,45.734c5.059,1.788,10.498,2.771,16.168,2.771c26.789,0,48.505-21.716,48.505-48.505
	S342.073,299.116,315.284,299.116z"/>
<path style="fill:#EDEDED;" d="M315.284,361.095c-7.43,0-13.474-6.044-13.474-13.474s6.044-13.474,13.474-13.474
	c7.43,0,13.474,6.044,13.474,13.474S322.714,361.095,315.284,361.095z"/>
<circle style="fill:#88888F;" cx="88.926" cy="347.621" r="48.505"/>
<path style="fill:#797781;" d="M88.926,299.116c-5.671,0-11.11,0.983-16.168,2.771c18.837,6.659,32.337,24.616,32.337,45.734
	c0,21.118-13.5,39.075-32.337,45.734c5.059,1.788,10.498,2.771,16.168,2.771c26.789,0,48.505-21.716,48.505-48.505
	S115.715,299.116,88.926,299.116z"/>
<path style="fill:#EDEDED;" d="M88.926,361.095c-7.43,0-13.474-6.044-13.474-13.474s6.044-13.474,13.474-13.474
	c7.43,0,13.474,6.044,13.474,13.474S96.356,361.095,88.926,361.095z"/>
<rect x="169.768" y="266.779" style="fill:#797781;" width="53.895" height="32.337"/>
<rect x="126.653" y="234.442" style="fill:#88888F;" width="53.895" height="64.674"/>
<polygon style="fill:#E07188;" points="94.316,115.874 94.316,202.105 8.084,202.105 8.084,342.232 29.642,342.232 61.979,299.116 
	137.432,299.116 137.432,115.874 "/>
<g>
	<polygon style="fill:#DC4161;" points="8.084,327.86 8.083,342.232 29.641,342.232 61.978,299.116 29.642,299.116 	"/>
	<rect x="105.095" y="115.874" style="fill:#DC4161;" width="32.337" height="183.242"/>
	<path style="fill:#DC4161;" d="M83.537,242.526H51.2c-4.465,0-8.084-3.618-8.084-8.084s3.62-8.084,8.084-8.084h32.337
		c4.465,0,8.084,3.618,8.084,8.084S88.001,242.526,83.537,242.526z"/>
</g>
<polygon style="fill:#88888F;" points="245.221,342.232 288.337,299.116 439.242,299.116 482.358,342.232 503.916,342.232 
	503.916,266.779 212.884,266.779 212.884,342.232 "/>
<polygon style="fill:#797781;" points="439.242,266.779 439.242,299.116 482.358,342.232 503.916,342.232 503.916,266.779 "/>
<g>
	<path style="fill:#2E2D31;" d="M88.926,334.147c-7.43,0-13.474,6.044-13.474,13.474s6.044,13.474,13.474,13.474
		c7.43,0,13.474-6.044,13.474-13.474S96.356,334.147,88.926,334.147z"/>
	<path style="fill:#2E2D31;" d="M315.284,334.147c-7.43,0-13.474,6.044-13.474,13.474s6.044,13.474,13.474,13.474
		c7.43,0,13.474-6.044,13.474-13.474S322.714,334.147,315.284,334.147z"/>
	<path style="fill:#2E2D31;" d="M412.295,334.147c-7.43,0-13.474,6.044-13.474,13.474s6.044,13.474,13.474,13.474
		s13.474-6.044,13.474-13.474S419.725,334.147,412.295,334.147z"/>
	<path style="fill:#2E2D31;" d="M94.316,226.358H61.979c-4.465,0-8.084,3.618-8.084,8.084s3.62,8.084,8.084,8.084h32.337
		c4.465,0,8.084-3.618,8.084-8.084S98.78,226.358,94.316,226.358z"/>
	<path style="fill:#2E2D31;" d="M503.916,140.124c-4.465,0-8.084,3.618-8.084,8.084v110.486H220.968V123.958h282.947
		c4.465,0,8.084-3.618,8.084-8.084s-3.62-8.084-8.084-8.084H212.884c-4.465,0-8.084,3.618-8.084,8.084v142.821h-16.168v-24.253
		c0-4.466-3.62-8.084-8.084-8.084h-35.032v-78.145c0-4.466-3.62-8.084-8.084-8.084c-4.465,0-8.084,3.618-8.084,8.084v142.82
		l-113.179-0.001v-80.842h78.147c4.465,0,8.084-3.618,8.084-8.084v-78.146h35.031c4.465,0,8.084-3.618,8.084-8.084
		s-3.62-8.084-8.084-8.084H94.336c-0.008,0-0.034,0-0.042,0H61.978c-2.144,0-4.201,0.852-5.716,2.367L2.368,164.05
		C0.852,165.567,0,167.623,0,169.767v32.329v0.017v97v0.005v43.113c0,2.144,0.852,4.201,2.368,5.717
		c1.516,1.516,3.572,2.367,5.716,2.367h21.558c0.951,0,1.88-0.168,2.751-0.483c1.167,30.181,26.071,54.378,56.533,54.378
		c30.3,0,55.11-23.938,56.522-53.895h99.773c2.144,0,4.201-0.852,5.716-2.367l8.334-8.334c-0.372,2.617-0.577,5.288-0.577,8.007
		c0,31.203,25.385,56.589,56.589,56.589c20.563,0,38.595-11.028,48.505-27.477c9.91,16.449,27.942,27.477,48.505,27.477
		c31.204,0,56.589-25.387,56.589-56.589c0-2.718-0.205-5.389-0.577-8.007l8.334,8.334c1.516,1.516,3.572,2.367,5.716,2.367h21.558
		c4.465,0,8.084-3.618,8.084-8.084V148.208C512,143.743,508.38,140.124,503.916,140.124z M16.168,173.115l49.158-49.156h20.905
		v70.062H16.168V173.115z M188.632,274.863H204.8v16.168h-16.168V274.863z M145.516,242.526h26.947v48.505h-26.947V242.526z
		 M204.8,307.2v26.947h-60.923c-2.555-10.4-7.98-19.684-15.4-26.946L204.8,307.2z M25.6,334.147h-9.432V307.2h29.642L25.6,334.147z
		 M88.926,388.042c-22.289,0-40.421-18.132-40.421-40.421c0-22.275,18.11-40.397,40.379-40.42h0.083
		c22.27,0.023,40.38,18.145,40.38,40.42C129.347,369.91,111.215,388.042,88.926,388.042z M315.284,388.042
		c-22.289,0-40.421-18.132-40.421-40.421s18.132-40.421,40.421-40.421c22.289,0,40.421,18.132,40.421,40.421
		S337.573,388.042,315.284,388.042z M354.834,307.2h17.91c-3.441,3.367-6.458,7.163-8.955,11.308
		C361.292,314.363,358.275,310.567,354.834,307.2z M412.295,388.042c-22.289,0-40.421-18.132-40.421-40.421
		s18.132-40.421,40.421-40.421c22.289,0,40.421,18.132,40.421,40.421S434.583,388.042,412.295,388.042z M495.832,334.147h-10.126
		l-40.748-40.749c-1.516-1.516-3.572-2.367-5.716-2.367H288.337c-2.144,0-4.201,0.852-5.716,2.367l-40.748,40.749h-20.905v-59.284
		h274.863V334.147z"/>
</g>
<g>
</g>
<g>
</g>
<g>
</g>
<g>
</g>
<g>
</g>
<g>
</g>
<g>
</g>
<g>
</g>
<g>
</g>
<g>
</g>
<g>
</g>
<g>
</g>
<g>
</g>
<g>
</g>
<g>
</g>
</svg>
