<?xml version="1.0" encoding="iso-8859-1"?>
<!-- Generator: Adobe Illustrator 19.0.0, SVG Export Plug-In . SVG Version: 6.00 Build 0)  -->
<svg version="1.1" id="Capa_1" xmlns="http://www.w3.org/2000/svg" xmlns:xlink="http://www.w3.org/1999/xlink" x="0px" y="0px"
	 viewBox="0 0 59.001 59.001" style="enable-background:new 0 0 59.001 59.001;" xml:space="preserve">
<path style="fill:#84B5CB;" d="M58.501,38.066C56.341,36.819,55,34.494,55,32c0-0.552-0.448-1-1-1c-4.6,0-8.399,3.471-8.93,7.931
	C41.649,38.474,39,35.544,39,32c0-0.552-0.448-1-1-1c-4.6,0-8.399,3.471-8.93,7.931C25.649,38.474,23,35.544,23,32
	c0-0.552-0.448-1-1-1c-4.6,0-8.399,3.471-8.93,7.931C9.649,38.474,7,35.544,7,32c0-0.552-0.448-1-1-1c-2.04,0-4.038,0.7-5.625,1.972
	c-0.431,0.345-0.501,0.975-0.155,1.405c0.197,0.247,0.488,0.375,0.781,0.375c0.219,0,0.44-0.072,0.625-0.22
	c1.007-0.806,2.187-1.29,3.446-1.456C5.606,37.533,9.403,41,14,41c0.552,0,1-0.448,1-1c0-3.544,2.649-6.473,6.07-6.931
	C21.601,37.529,25.4,41,30,41c0.552,0,1-0.448,1-1c0-3.544,2.649-6.473,6.07-6.931C37.601,37.529,41.4,41,46,41c0.552,0,1-0.448,1-1
	c0-3.544,2.65-6.474,6.071-6.931c0.336,2.789,1.965,5.305,4.429,6.728c0.157,0.091,0.329,0.134,0.499,0.134
	c0.346,0,0.682-0.179,0.867-0.5C59.143,38.954,58.979,38.342,58.501,38.066z"/>
<path style="fill:#84B5CB;" d="M58.501,46.066C56.341,44.819,55,42.494,55,40c0-0.552-0.448-1-1-1c-4.6,0-8.399,3.471-8.93,7.931
	C41.649,46.474,39,43.544,39,40c0-0.552-0.448-1-1-1c-4.6,0-8.399,3.471-8.93,7.931C25.649,46.474,23,43.544,23,40
	c0-0.552-0.448-1-1-1c-4.6,0-8.399,3.471-8.93,7.931C9.649,46.474,7,43.544,7,40c0-0.552-0.448-1-1-1c-2.04,0-4.038,0.7-5.625,1.972
	c-0.431,0.345-0.501,0.975-0.155,1.405c0.197,0.247,0.488,0.375,0.781,0.375c0.219,0,0.44-0.072,0.625-0.22
	c1.007-0.806,2.187-1.29,3.446-1.456C5.606,45.533,9.403,49,14,49c0.552,0,1-0.448,1-1c0-3.544,2.649-6.473,6.07-6.931
	C21.601,45.529,25.4,49,30,49c0.552,0,1-0.448,1-1c0-3.544,2.649-6.473,6.07-6.931C37.601,45.529,41.4,49,46,49c0.552,0,1-0.448,1-1
	c0-3.544,2.65-6.474,6.071-6.931c0.336,2.789,1.965,5.305,4.429,6.728c0.157,0.091,0.329,0.134,0.499,0.134
	c0.346,0,0.682-0.179,0.867-0.5C59.143,46.954,58.979,46.342,58.501,46.066z"/>
<path style="fill:#84B5CB;" d="M58.501,54.066C56.341,52.819,55,50.494,55,48c0-0.552-0.448-1-1-1c-4.6,0-8.399,3.471-8.93,7.931
	C41.649,54.474,39,51.544,39,48c0-0.552-0.448-1-1-1c-4.6,0-8.399,3.471-8.93,7.931C25.649,54.474,23,51.544,23,48
	c0-0.552-0.448-1-1-1c-4.6,0-8.399,3.471-8.93,7.931C9.649,54.474,7,51.544,7,48c0-0.552-0.448-1-1-1c-2.04,0-4.038,0.7-5.625,1.972
	c-0.431,0.345-0.501,0.975-0.155,1.405c0.197,0.247,0.488,0.375,0.781,0.375c0.219,0,0.44-0.072,0.625-0.22
	c1.007-0.806,2.187-1.29,3.446-1.456C5.606,53.533,9.403,57,14,57c0.552,0,1-0.448,1-1c0-3.544,2.649-6.473,6.07-6.931
	C21.601,53.529,25.4,57,30,57c0.552,0,1-0.448,1-1c0-3.544,2.649-6.473,6.07-6.931C37.601,53.529,41.4,57,46,57c0.552,0,1-0.448,1-1
	c0-3.544,2.65-6.474,6.071-6.931c0.336,2.789,1.965,5.305,4.429,6.728c0.157,0.091,0.329,0.134,0.499,0.134
	c0.346,0,0.682-0.179,0.867-0.5C59.143,54.954,58.979,54.342,58.501,54.066z"/>
<path style="fill:#E4ECF4;" d="M37,28c-0.552,0-1-0.448-1-1s0.448-1,1-1c3.86,0,7-3.14,7-7s-3.14-7-7-7H17c-0.552,0-1-0.448-1-1
	s0.448-1,1-1h20c4.962,0,9,4.038,9,9S41.962,28,37,28z"/>
<path style="fill:#E4ECF4;" d="M37,24c-2.757,0-5-2.243-5-5c0-0.552,0.448-1,1-1s1,0.448,1,1c0,1.654,1.346,3,3,3s3-1.346,3-3
	s-1.346-3-3-3c-0.552,0-1-0.448-1-1s0.448-1,1-1c2.757,0,5,2.243,5,5S39.757,24,37,24z"/>
<path style="fill:#E4ECF4;" d="M31,16h-6c-0.552,0-1-0.448-1-1s0.448-1,1-1h6c0.552,0,1,0.448,1,1S31.552,16,31,16z"/>
<path style="fill:#E4ECF4;" d="M39,4H8C7.448,4,7,3.553,7,3s0.448-1,1-1h31c0.552,0,1,0.448,1,1S39.552,4,39,4z"/>
<path style="fill:#E4ECF4;" d="M48,8H12c-0.552,0-1-0.448-1-1s0.448-1,1-1h36c0.552,0,1,0.448,1,1S48.552,8,48,8z"/>
<g>
</g>
<g>
</g>
<g>
</g>
<g>
</g>
<g>
</g>
<g>
</g>
<g>
</g>
<g>
</g>
<g>
</g>
<g>
</g>
<g>
</g>
<g>
</g>
<g>
</g>
<g>
</g>
<g>
</g>
</svg>
