<svg xmlns="http://www.w3.org/2000/svg" version="1.1" xmlns:xlink="http://www.w3.org/1999/xlink"
    xmlns:svgjs="http://svgjs.com/svgjs" width="1440" height="560" preserveAspectRatio="none" viewBox="0 0 1440 560">
    <g mask="url(&quot;#SvgjsMask1026&quot;)" fill="none">
        <path d="M1381 144L1380 288" stroke-width="6" stroke="url(#SvgjsLinearGradient1027)" stroke-linecap="round"
            class="Down"></path>
        <path d="M481 150L480 307" stroke-width="6" stroke="url(#SvgjsLinearGradient1028)" stroke-linecap="round"
            class="Up"></path>
        <path d="M400 546L399 329" stroke-width="8" stroke="url(#SvgjsLinearGradient1027)" stroke-linecap="round"
            class="Down"></path>
        <path d="M700 543L699 258" stroke-width="10" stroke="url(#SvgjsLinearGradient1027)" stroke-linecap="round"
            class="Down"></path>
        <path d="M225 553L224 241" stroke-width="6" stroke="url(#SvgjsLinearGradient1028)" stroke-linecap="round"
            class="Up"></path>
        <path d="M591 447L590 109" stroke-width="10" stroke="url(#SvgjsLinearGradient1028)" stroke-linecap="round"
            class="Up"></path>
        <path d="M600 505L599 758" stroke-width="10" stroke="url(#SvgjsLinearGradient1027)" stroke-linecap="round"
            class="Down"></path>
        <path d="M890 52L889 -181" stroke-width="8" stroke="url(#SvgjsLinearGradient1028)" stroke-linecap="round"
            class="Up"></path>
        <path d="M1297 444L1296 779" stroke-width="6" stroke="url(#SvgjsLinearGradient1027)" stroke-linecap="round"
            class="Down"></path>
        <path d="M1259 60L1258 443" stroke-width="6" stroke="url(#SvgjsLinearGradient1027)" stroke-linecap="round"
            class="Down"></path>
        <path d="M790 131L789 531" stroke-width="8" stroke="url(#SvgjsLinearGradient1027)" stroke-linecap="round"
            class="Down"></path>
        <path d="M535 15L534 -386" stroke-width="6" stroke="url(#SvgjsLinearGradient1028)" stroke-linecap="round"
            class="Up"></path>
        <path d="M1418 330L1417 532" stroke-width="6" stroke="url(#SvgjsLinearGradient1028)" stroke-linecap="round"
            class="Up"></path>
        <path d="M46 516L45 839" stroke-width="10" stroke="url(#SvgjsLinearGradient1028)" stroke-linecap="round"
            class="Up"></path>
        <path d="M279 433L278 237" stroke-width="6" stroke="url(#SvgjsLinearGradient1027)" stroke-linecap="round"
            class="Down"></path>
        <path d="M552 154L551 -198" stroke-width="10" stroke="url(#SvgjsLinearGradient1028)" stroke-linecap="round"
            class="Up"></path>
        <path d="M341 350L340 161" stroke-width="6" stroke="url(#SvgjsLinearGradient1028)" stroke-linecap="round"
            class="Up"></path>
        <path d="M483 389L482 792" stroke-width="6" stroke="url(#SvgjsLinearGradient1027)" stroke-linecap="round"
            class="Down"></path>
        <path d="M797 330L796 579" stroke-width="10" stroke="url(#SvgjsLinearGradient1027)" stroke-linecap="round"
            class="Down"></path>
        <path d="M1143 83L1142 348" stroke-width="6" stroke="url(#SvgjsLinearGradient1027)" stroke-linecap="round"
            class="Down"></path>
        <path d="M1431 351L1430 616" stroke-width="6" stroke="url(#SvgjsLinearGradient1027)" stroke-linecap="round"
            class="Down"></path>
        <path d="M974 389L973 161" stroke-width="8" stroke="url(#SvgjsLinearGradient1028)" stroke-linecap="round"
            class="Up"></path>
        <path d="M1182 389L1181 798" stroke-width="10" stroke="url(#SvgjsLinearGradient1027)" stroke-linecap="round"
            class="Down"></path>
        <path d="M265 345L264 520" stroke-width="6" stroke="url(#SvgjsLinearGradient1028)" stroke-linecap="round"
            class="Up"></path>
        <path d="M645 158L644 521" stroke-width="8" stroke="url(#SvgjsLinearGradient1028)" stroke-linecap="round"
            class="Up"></path>
        <path d="M815 26L814 -342" stroke-width="6" stroke="url(#SvgjsLinearGradient1028)" stroke-linecap="round"
            class="Up"></path>
        <path d="M840 271L839 -1" stroke-width="10" stroke="url(#SvgjsLinearGradient1028)" stroke-linecap="round"
            class="Up"></path>
        <path d="M229 5L228 -236" stroke-width="6" stroke="url(#SvgjsLinearGradient1028)" stroke-linecap="round"
            class="Up"></path>
        <path d="M1278 385L1277 36" stroke-width="6" stroke="url(#SvgjsLinearGradient1027)" stroke-linecap="round"
            class="Down"></path>
        <path d="M623 316L622 727" stroke-width="10" stroke="url(#SvgjsLinearGradient1028)" stroke-linecap="round"
            class="Up"></path>
        <path d="M480 310L479 146" stroke-width="8" stroke="url(#SvgjsLinearGradient1028)" stroke-linecap="round"
            class="Up"></path>
        <path d="M675 485L674 285" stroke-width="8" stroke="url(#SvgjsLinearGradient1028)" stroke-linecap="round"
            class="Up"></path>
        <path d="M853 18L852 -208" stroke-width="8" stroke="url(#SvgjsLinearGradient1028)" stroke-linecap="round"
            class="Up"></path>
        <path d="M1277 190L1276 452" stroke-width="8" stroke="url(#SvgjsLinearGradient1027)" stroke-linecap="round"
            class="Down"></path>
        <path d="M276 374L275 185" stroke-width="10" stroke="url(#SvgjsLinearGradient1027)" stroke-linecap="round"
            class="Down"></path>
        <path d="M1219 245L1218 601" stroke-width="8" stroke="url(#SvgjsLinearGradient1027)" stroke-linecap="round"
            class="Down"></path>
    </g>
    <defs>
        <mask id="SvgjsMask1026">
            <rect width="1440" height="560" fill="#ffffff"></rect>
        </mask>
        <linearGradient x1="0%" y1="0%" x2="0%" y2="100%" id="SvgjsLinearGradient1027">
            <stop stop-color="rgba(28, 83, 142, 0)" offset="0"></stop>
            <stop stop-color="#1c538e" offset="1"></stop>
        </linearGradient>
        <linearGradient x1="0%" y1="100%" x2="0%" y2="0%" id="SvgjsLinearGradient1028">
            <stop stop-color="rgba(28, 83, 142, 0)" offset="0"></stop>
            <stop stop-color="#1c538e" offset="1"></stop>
        </linearGradient>
    </defs>
</svg>