<?xml version="1.0" encoding="utf-8"?>
<svg viewBox="0 0 228 226" width="228px" height="226px" class="illustration styles_illustrationTablet__1DWOa" xmlns="http://www.w3.org/2000/svg">
  <g id="_521_user_interface_flatline" data-name="#521_user_interface_flatline" transform="matrix(1, 0, 0, 1, -86.332375, -36.997082)">
    <path d="M288.75,48.44l-1.17,8.3L260.76,245.83H130.39L157.21,56.74l1.18-8.3a11.8,11.8,0,0,1,11.31-9.91H280.25A8.4,8.4,0,0,1,288.75,48.44Z" fill="#fff"/>
    <path id="bigborder" d="M260.76,246.33H130.39a.5.5,0,0,1-.38-.17.52.52,0,0,1-.12-.4l28-197.39A12.34,12.34,0,0,1,169.7,38H280.25a9,9,0,0,1,6.94,3,9.17,9.17,0,0,1,2.06,7.44l-1.17,8.3L261.25,245.9A.5.5,0,0,1,260.76,246.33Zm-129.8-1H260.32l27.94-197h0a8.18,8.18,0,0,0-1.82-6.64,8,8,0,0,0-6.19-2.7H169.7a11.31,11.31,0,0,0-10.82,9.48l-1.17,8.3Z" fill="#231f20"/>
    <path d="M214.2,136.64H157a.56.56,0,0,1-.38-.17.52.52,0,0,1-.11-.4L165,76.61a.51.51,0,0,1,.5-.43h57.18a.5.5,0,0,1,.5.57l-8.43,59.46A.51.51,0,0,1,214.2,136.64Zm-56.61-1h56.18l8.29-58.46H165.88Z" fill="#d1d3d4"/>
    <path d="M268.52,77.18H238a.5.5,0,0,1-.5-.5.5.5,0,0,1,.5-.5h30.53a.5.5,0,0,1,.5.5A.5.5,0,0,1,268.52,77.18Z" fill="#d1d3d4"/>
    <path d="M267.4,85.09H236.87a.5.5,0,0,1,0-1H267.4a.5.5,0,0,1,0,1Z" fill="#d1d3d4"/>
    <path d="M266.28,93H235.74a.51.51,0,0,1-.5-.5.5.5,0,0,1,.5-.5h30.54a.5.5,0,0,1,.5.5A.5.5,0,0,1,266.28,93Z" fill="#d1d3d4"/>
    <path d="M265.16,100.92H234.62a.5.5,0,0,1,0-1h30.54a.5.5,0,0,1,0,1Z" fill="#d1d3d4"/>
    <path d="M264,108.83H233.5a.5.5,0,0,1-.5-.5.5.5,0,0,1,.5-.5H264a.5.5,0,0,1,.5.5A.5.5,0,0,1,264,108.83Z" fill="#d1d3d4"/>
    <path d="M254.08,116.75H232.37a.51.51,0,0,1-.5-.5.5.5,0,0,1,.5-.5h21.71a.5.5,0,0,1,.5.5A.5.5,0,0,1,254.08,116.75Z" fill="#d1d3d4"/>
    <path d="M258.34,136.14h-27a4.76,4.76,0,0,1-4.81-5.61h0a6.69,6.69,0,0,1,6.4-5.61h27a4.76,4.76,0,0,1,4.82,5.61h0A6.69,6.69,0,0,1,258.34,136.14Z" fill="#d1d3d4"/>
    <path d="M182.25,214.33h-27a4.75,4.75,0,0,1-4.81-5.61h0a6.69,6.69,0,0,1,6.4-5.61h27a4.75,4.75,0,0,1,4.81,5.61h0A6.68,6.68,0,0,1,182.25,214.33Z" fill="#d1d3d4"/>
    <path d="M243.57,214.33h-27a4.75,4.75,0,0,1-4.81-5.61h0a6.68,6.68,0,0,1,6.4-5.61h27a4.75,4.75,0,0,1,4.81,5.61h0A6.68,6.68,0,0,1,243.57,214.33Z" fill="#d1d3d4"/>
    <path d="M194.22,195.94H148.6a.53.53,0,0,1-.38-.18.46.46,0,0,1-.11-.39l6-42.55a.51.51,0,0,1,.5-.43h45.61a.49.49,0,0,1,.38.17.49.49,0,0,1,.12.4l-6,42.55A.51.51,0,0,1,194.22,195.94Zm-45-1h44.61l5.89-41.55H155.07Z" fill="#d1d3d4"/>
    <path d="M255.54,195.94H209.92a.51.51,0,0,1-.38-.18.5.5,0,0,1-.12-.39l6-42.55a.5.5,0,0,1,.49-.43h45.62a.49.49,0,0,1,.38.17.49.49,0,0,1,.12.4l-6,42.55A.5.5,0,0,1,255.54,195.94Zm-45-1h44.6l5.9-41.55H216.39Z" fill="#d1d3d4"/>
    <path d="M184.05,231.49a2.08,2.08,0,0,1-1.6-.71,2.11,2.11,0,0,1-.48-1.71,2.69,2.69,0,0,1,2.61-2.27,2.11,2.11,0,0,1,1.6.7,2.08,2.08,0,0,1,.47,1.71A2.68,2.68,0,0,1,184.05,231.49Zm.53-3.69a1.72,1.72,0,0,0-1.62,1.41,1.13,1.13,0,0,0,.25.92,1.09,1.09,0,0,0,.84.36,1.7,1.7,0,0,0,1.61-1.42h0a1.11,1.11,0,0,0-.24-.91A1.09,1.09,0,0,0,184.58,227.8Z" fill="#d1d3d4"/>
    <ellipse cx="193.79" cy="229.14" rx="1.98" ry="1.72" transform="translate(-104.2 193.58) rotate(-42.97)" fill="#d1d3d4"/>
    <ellipse cx="203.27" cy="229.14" rx="1.98" ry="1.72" transform="matrix(0.73, -0.68, 0.68, 0.73, -101.65, 200.04)" fill="#d1d3d4"/>
    <ellipse cx="212.75" cy="229.14" rx="1.98" ry="1.72" transform="translate(-99.11 206.5) rotate(-42.97)" fill="#d1d3d4"/>
    <path d="M177.21,62.69h-7.55a.5.5,0,0,1,0-1h7.55a.5.5,0,0,1,0,1Z" fill="#d1d3d4"/>
    <path d="M176.73,66.09h-7.56a.51.51,0,0,1-.5-.5.5.5,0,0,1,.5-.5h7.56a.5.5,0,0,1,.5.5A.51.51,0,0,1,176.73,66.09Z" fill="#d1d3d4"/>
    <path d="M176.24,69.48h-7.55a.5.5,0,0,1-.5-.5.51.51,0,0,1,.5-.5h7.55a.5.5,0,0,1,.5.5A.5.5,0,0,1,176.24,69.48Z" fill="#d1d3d4"/>
    <path id="pageheader" d="M288.75,48.44l-1.17,8.3H157.21l1.18-8.3a11.8,11.8,0,0,1,11.31-9.91H280.25A8.4,8.4,0,0,1,288.75,48.44Z" fill="#231f20"/>
    <path d="M226.69,48.14H212.33a.5.5,0,0,1-.5-.5.5.5,0,0,1,.5-.5h14.36a.5.5,0,0,1,.5.5A.5.5,0,0,1,226.69,48.14Z" fill="#d1d3d4"/>
    <path d="M234,48.14h-2.54a.51.51,0,0,1-.5-.5.5.5,0,0,1,.5-.5H234a.5.5,0,0,1,.5.5A.5.5,0,0,1,234,48.14Z" fill="#d1d3d4"/>
    <path d="M155.7,113.46l9.32,9.62s16.82-18.37,17-20.67a40.73,40.73,0,0,1,3.42-11.93,1,1,0,0,1,.46-.57c.53-.2.91.54,1,1.1a15.29,15.29,0,0,1-.05,4.11c1.67-2.31,3.37-4.59,5.12-6.84a.89.89,0,0,1,.61-.44.82.82,0,0,1,.52.23,8,8,0,0,1,2.39,3.54A6.93,6.93,0,0,1,196,93.9c.07,4.42-3.89,11.6-8,13.41,0,0-19.14,32.8-22.58,32.42s-17-15.69-17-15.69Z" fill="#fff"/>
    <path d="M165.43,140.23h-.08c-3.53-.4-15.94-14.28-17.35-15.86a.5.5,0,0,1,0-.62l7.32-10.57a.51.51,0,0,1,.37-.21.49.49,0,0,1,.4.15l8.95,9.23c6.47-7.09,16.4-18.46,16.54-20A41.53,41.53,0,0,1,185,90.28a1.44,1.44,0,0,1,.74-.83,1,1,0,0,1,.87.07A2,2,0,0,1,187.4,91a17.75,17.75,0,0,1,.11,2.42c1.33-1.82,2.69-3.63,4.07-5.4a1.35,1.35,0,0,1,1-.63,1.38,1.38,0,0,1,.85.34A8.55,8.55,0,0,1,196,91.43a7.57,7.57,0,0,1,.54,2.46c.07,4.43-3.74,11.74-8.16,13.81C185,113.49,169.14,140.23,165.43,140.23ZM149,124c5.43,6.09,14.1,15,16.45,15.23h0c2.06,0,12.79-16.3,22.06-32.18a.52.52,0,0,1,.23-.21c4.05-1.78,7.78-8.8,7.71-12.94a6.34,6.34,0,0,0-.47-2.13,7.59,7.59,0,0,0-2.24-3.31c-.13-.11-.18-.13-.2-.13a1.4,1.4,0,0,0-.22.24c-1.74,2.24-3.46,4.54-5.12,6.84a.5.5,0,0,1-.9-.37,14.74,14.74,0,0,0,.05-4,1.06,1.06,0,0,0-.31-.69.88.88,0,0,0-.17.31,40.23,40.23,0,0,0-3.38,11.77c-.21,2.35-14.32,17.87-17.15,21a.52.52,0,0,1-.36.16.64.64,0,0,1-.37-.15l-8.89-9.18Z" fill="#231f20"/>
    <path d="M90,251.37s-3.25,8.9-1.81,9.76,30.14,0,28.41-1.72-9.37-7.46-9.37-7.46" fill="#fff"/>
    <path d="M94.77,261.94c-3.67,0-6.43-.13-6.85-.38-1.56-.93.34-6.89,1.6-10.36a.52.52,0,0,1,.65-.3.5.5,0,0,1,.29.64c-1.6,4.41-2.55,8.69-2,9.17,2,.89,24.45-.16,27.51-1.22-2.11-1.95-9-7.09-9-7.14a.5.5,0,1,1,.6-.8c.31.23,7.7,5.78,9.43,7.51a.68.68,0,0,1,.07.92C116,261.29,103.06,261.94,94.77,261.94Z" fill="#231f20"/>
    <path d="M119,81.45c-1.36-.06-2.72-.29-4.29-.43s-3.35-.67-3.38-2.13c0-1.26,1.48-2.3,1.15-3.51a2.77,2.77,0,0,0-.52-.89,13.56,13.56,0,0,1,2.34-18.64c-.41.14-.85-.27-.89-.7a1.69,1.69,0,0,1,.47-1.18A8.45,8.45,0,0,1,118,51.48a25.84,25.84,0,0,1,15.23,0c3.8,1.11,8.37,4.14,7.87,8.73a3.64,3.64,0,0,1-3.14,3.34c-.85,4.92-3.43,8.28-6.67,11.84a19.86,19.86,0,0,1-8,5.44A10.81,10.81,0,0,1,119,81.45Z" fill="#fff"/>
    <path id="manhead" d="M119.62,82,119,82h0c-.81,0-1.6-.13-2.45-.23-.59-.07-1.2-.14-1.86-.2-2.37-.2-3.8-1.18-3.83-2.62a3.58,3.58,0,0,1,.68-1.91c.33-.55.61-1,.49-1.48a2.16,2.16,0,0,0-.39-.65A14.08,14.08,0,0,1,113.35,56a1.4,1.4,0,0,1-.41-.84,2.13,2.13,0,0,1,.58-1.55A9,9,0,0,1,117.83,51a26.38,26.38,0,0,1,15.52,0c4.46,1.3,8.73,4.67,8.22,9.27a4.24,4.24,0,0,1-3.2,3.74c-1,5.06-3.86,8.56-6.73,11.72a20.25,20.25,0,0,1-8.19,5.57A11.29,11.29,0,0,1,119.62,82Zm-5.37-26.64a.55.55,0,0,1,.48.27.51.51,0,0,1-.09.64,13.08,13.08,0,0,0-2.25,17.95,3,3,0,0,1,.6,1.06,2.85,2.85,0,0,1-.59,2.25,2.9,2.9,0,0,0-.54,1.38c0,1.33,2.44,1.6,2.92,1.65.66,0,1.29.13,1.89.2.82.1,1.6.19,2.38.22h0a10.21,10.21,0,0,0,4.07-.58,19.18,19.18,0,0,0,7.78-5.29c3.56-3.91,5.77-7.06,6.55-11.59a.5.5,0,0,1,.47-.42,3.16,3.16,0,0,0,2.66-2.89c.5-4.59-4.49-7.32-7.51-8.2a25.4,25.4,0,0,0-14.93,0,7.74,7.74,0,0,0-3.84,2.32,1.23,1.23,0,0,0-.37.82.38.38,0,0,0,.16.25Z" fill="#231f20"/>
    <path d="M98.58,111S88,132.54,88.82,139.14s22.68,4,22.68,4l-1.15-32.72Z" fill="#fff"/>
    <path d="M102.48,144.16c-.66,0-1.34,0-2,0-7.66-.24-11.75-1.9-12.14-4.92-.87-6.67,9.37-27.53,9.8-28.41a.52.52,0,0,1,.43-.28l11.77-.57a.49.49,0,0,1,.36.13.46.46,0,0,1,.16.35L112,143.14a.51.51,0,0,1-.44.52A90,90,0,0,1,102.48,144.16ZM98.9,111.5c-1.2,2.47-10.36,21.59-9.58,27.58C90,144,104.75,143.4,111,142.71L109.87,111Z" fill="#231f20"/>
    <path d="M140.78,247.16l.57,14s26.22.19,24.69-1.72-13.4-10.33-13.4-10.33l-1.91-10.34Z" fill="#fff"/>
    <path d="M144.72,261.65l-3.37,0a.5.5,0,0,1-.5-.48l-.57-14a.51.51,0,0,1,.17-.4l10-8.42a.51.51,0,0,1,.49-.09.52.52,0,0,1,.32.38l1.88,10.14c1.5,1.07,11.85,8.46,13.33,10.31a.73.73,0,0,1,.1.77C165.81,261.36,153.76,261.65,144.72,261.65Zm-2.89-1c10.53.06,21.75-.34,23.63-1.13-1.68-1.76-9.2-7.25-13.11-10a.47.47,0,0,1-.2-.31l-1.76-9.49-9.1,7.71Z" fill="#231f20"/>
    <path id="manpant" d="M145.53,149,155.7,251l-16.84.38-19.13-72.06L109.13,252l-19.52-1s3.4-40.57,5.17-56,4.51-42.14,4.51-42.14Z" fill="#231f20"/>
    <path d="M139.26,70.72s3.51,5.79,2.69,6.93-3.35.26-3.35.26" fill="#fff"/>
    <path d="M140.43,78.73a6.57,6.57,0,0,1-2-.35.5.5,0,0,1,.32-.94c.72.24,2.33.54,2.78-.09s-.95-3.47-2.71-6.37a.5.5,0,1,1,.85-.51c1.11,1.82,3.59,6.2,2.68,7.47A2.28,2.28,0,0,1,140.43,78.73Z" fill="#231f20"/>
    <path d="M138.75,63.24c2.3,2,1.45,6.1,1.33,8.76q-.27,5.61-.78,11.22c-.22,2.36-6.37,2.18-7.43,1.43l.61,9.41-12.73-5.45.83-10.81s4.06.18,6.65-4.56S130,61.06,130,61.06,136.51,61.26,138.75,63.24Z" fill="#fff"/>
    <path d="M132.48,94.56a.45.45,0,0,1-.2,0l-12.72-5.45a.52.52,0,0,1-.31-.5l.83-10.81a.5.5,0,0,1,.52-.46c.15,0,3.79.09,6.19-4.3,2.5-4.58,2.71-11.88,2.71-12a.48.48,0,0,1,.16-.35.44.44,0,0,1,.36-.13c.27,0,6.71.23,9.06,2.31h0c2.1,1.85,1.82,5.1,1.6,7.72,0,.5-.08,1-.1,1.43-.18,3.73-.44,7.51-.78,11.24A2.18,2.18,0,0,1,138.33,85a10.46,10.46,0,0,1-5.91.36L133,94a.5.5,0,0,1-.49.53Zm-12.2-6.27,11.64,5-.54-8.6a.47.47,0,0,1,.25-.47.49.49,0,0,1,.53,0,9.08,9.08,0,0,0,5.75-.12c.56-.25.86-.57.89-1,.35-3.71.61-7.48.78-11.19,0-.46.06-1,.1-1.48.21-2.39.46-5.36-1.26-6.88h0c-1.74-1.54-6.41-1.94-7.94-2-.09,1.79-.56,7.77-2.81,11.9s-5.41,4.7-6.63,4.8Z" fill="#231f20"/>
    <path id="shirt" d="M158.28,114.29s-15.05-15.9-21-21.88c-5.53-5.54-21.61-10.58-28.93-2.64,0,0-12,16.79-14.35,26.55l7,4.31A321.33,321.33,0,0,0,98.3,155.5C111.58,166,145.53,149,145.53,149l-3.07-24,5.49,5.5Z" fill="#68e1fd"/>
    <path d="M139.32,80.42s-3,1.67-4.4-1.39" fill="#fff"/>
    <path d="M137.53,81.38a3.57,3.57,0,0,1-1-.15,3.5,3.5,0,0,1-2.07-2,.5.5,0,0,1,.91-.42,2.55,2.55,0,0,0,1.46,1.45,3.16,3.16,0,0,0,2.24-.29.51.51,0,0,1,.68.2.48.48,0,0,1-.19.67A4.41,4.41,0,0,1,137.53,81.38Z" fill="#231f20"/>
    <path d="M132,72.85a5.1,5.1,0,0,0-.95-2.61,7,7,0,0,0-1.29-1.75,2.45,2.45,0,0,0-2-.7,2.32,2.32,0,0,0-1.52,1.11,4.51,4.51,0,0,0-.54,1.84A8.07,8.07,0,0,0,129.13,78l-.2-.23" fill="#fff"/>
    <path d="M129.13,78.51a.47.47,0,0,1-.28-.09,8.58,8.58,0,0,1-3.65-7.73,4.81,4.81,0,0,1,.61-2,2.72,2.72,0,0,1,1.85-1.34,2.92,2.92,0,0,1,2.42.82A7.48,7.48,0,0,1,131.46,70a5.48,5.48,0,0,1,1,2.88.5.5,0,0,1-1,0,4.57,4.57,0,0,0-.88-2.35,6.7,6.7,0,0,0-1.19-1.63,2,2,0,0,0-1.58-.57,1.77,1.77,0,0,0-1.17.87,3.84,3.84,0,0,0-.47,1.62,7.6,7.6,0,0,0,2.79,6.5.51.51,0,0,1,.33.17l.2.23a.5.5,0,0,1,0,.66A.5.5,0,0,1,129.13,78.51Z" fill="#231f20"/>
    <path d="M131.87,84.65a10,10,0,0,1-4.54-3.36s0,5.71,4.81,7.55Z" fill="#231f20"/>
    <path d="M132.14,89.34l-.18,0c-5.08-1.94-5.13-8-5.13-8a.49.49,0,0,1,.36-.48.5.5,0,0,1,.56.22A9.45,9.45,0,0,0,132,84.17a.5.5,0,0,1,.33.44l.27,4.2a.51.51,0,0,1-.2.43A.47.47,0,0,1,132.14,89.34ZM128,82.88A7.25,7.25,0,0,0,131.59,88l-.19-3A11.62,11.62,0,0,1,128,82.88Z" fill="#231f20"/>
    <path d="M142.88,126.69a.51.51,0,0,1-.36-.15,152.61,152.61,0,0,1-10.79-12.42.51.51,0,0,1,.1-.7.5.5,0,0,1,.7.1,151.14,151.14,0,0,0,10.71,12.33.49.49,0,0,1,0,.7A.47.47,0,0,1,142.88,126.69Z" fill="#231f20"/>
    <path d="M119.45,177.8a.46.46,0,0,1-.32-.11c-.26-.21-6.21-5.28-6.24-13.28a.5.5,0,0,1,.49-.5h0a.49.49,0,0,1,.49.5c0,7.53,5.83,12.47,5.89,12.51a.51.51,0,0,1,.06.71A.52.52,0,0,1,119.45,177.8Z" fill="#fff"/>
    <ellipse cx="137.22" cy="68.05" rx="1.34" ry="0.53" transform="translate(42.53 188.44) rotate(-78.19)" fill="#231f20"/>
    <path d="M100.88,117.68h-.08a.51.51,0,0,1-.41-.58c.11-.73,2.92-17.95,6.08-23.7a.49.49,0,0,1,.68-.19.48.48,0,0,1,.19.67c-3.07,5.6-5.94,23.2-6,23.38A.49.49,0,0,1,100.88,117.68Z" fill="#231f20"/>
    <path id="leftleaf" d="M289.16,195a10.2,10.2,0,0,0-1.16-5.45c-.73-1.21-1.85-2.17-2.45-3.45-1-2.22-.31-4.83-.55-7.26a9.11,9.11,0,0,0-2.55-5.41c-1.27-1.28-2.91-2.17-4.13-3.51-2-2.2-2.56-5.29-3.69-8a20.12,20.12,0,0,0-8-9.37c2.17,4.37-2.78,9.93-.53,14.26.71,1.38,2.06,2.38,2.59,3.84,1.25,3.51-2.94,7.32-1.6,10.81.67,1.74,2.54,2.75,3.41,4.4,1.17,2.22.25,4.93.34,7.44.13,3.47,2.24,6.57,4.75,9,1.56,1.49,3.3,2.79,5,4.14,2,1.62,2.87,3.31,4.64.72A22.34,22.34,0,0,0,289.16,195Z" fill="#231f20"/>
    <path id="rightleaf" d="M291.41,197c-.65-2.68-1.11-5.6,0-8.13,1.23-2.86,4.32-4.89,4.68-8,.24-2-.79-4.09-.39-6.09s2-3.37,3.39-4.85a20.28,20.28,0,0,0,5.24-12.4,31.13,31.13,0,0,1,5,8.25c1.06,3.05,1.08,6.63-.73,9.31a8.45,8.45,0,0,0-1.26,2.06c-.61,2,1.08,3.82,1.95,5.7a6.55,6.55,0,0,1-.61,6.72c-1.78,2.21-5.19,3.07-6.07,5.76a13.58,13.58,0,0,0-.3,3.06,9,9,0,0,1-6.46,7.7c-2.09.51-2.05-.32-2.43-2.09C292.89,201.64,292,199.35,291.41,197Z" fill="#231f20"/>
    <path id="middleleaf" d="M284.73,177.69c-1.49-5.15-2.08-10.54-3.65-15.67a85.74,85.74,0,0,0-4.88-11.68l6.39,2.69c2.05.87,4.27,1.89,5.24,3.89,1.68,3.49-1.34,8,.43,11.41a28.22,28.22,0,0,0,2.53,3.18c1.88,2.64,1.59,6.28.56,9.35-.45,1.32-2.38,8.16-4.11,6.26-.7-.76-.76-3.59-1.05-4.63C285.74,180.88,285.2,179.3,284.73,177.69Z" fill="#231f20"/>
    <path d="M288.28,246.16C287,237.73,283,208,283,207.74l1-.13c0,.3,4,30,5.31,38.4Z" fill="#231f20"/>
    <path d="M289.67,254.12h-1c.08-10,4.24-48.2,6.64-50.82l.74.68C294.45,205.71,289.77,240.42,289.67,254.12Z" fill="#231f20"/>
    <path d="M291.84,252.21l-1,0c1-21.57-3.62-66.87-3.67-67.32l1-.11C288.22,185.2,292.8,230.57,291.84,252.21Z" fill="#231f20"/>
    <path d="M277.27,222h23.8l-1.66,27c-.29,4.68-3.76,8.31-7.94,8.31h-4.6c-4.18,0-7.64-3.63-7.93-8.31Z" fill="#fff"/>
    <path d="M291.47,257.87h-4.6c-4.43,0-8.14-3.86-8.45-8.79l-1.66-27a.51.51,0,0,1,.51-.55h23.8a.55.55,0,0,1,.38.16.57.57,0,0,1,.14.39l-1.67,27C299.62,254,295.91,257.87,291.47,257.87Zm-13.65-35.33L279.45,249c.27,4.39,3.53,7.82,7.42,7.82h4.6c3.89,0,7.15-3.43,7.42-7.82l1.63-26.48Z" fill="#231f20"/>
    <polygon points="301.16 128.47 252.24 128.47 263.27 46.22 312.19 46.22 301.16 128.47" fill="#fff"/>
    <path d="M301.16,129H252.24a.48.48,0,0,1-.37-.17.46.46,0,0,1-.12-.39l11-82.26a.51.51,0,0,1,.5-.43h48.92a.52.52,0,0,1,.38.17.56.56,0,0,1,.12.4l-11,82.25A.51.51,0,0,1,301.16,129Zm-48.35-1h47.91l10.9-81.25H263.71Z" fill="#231f20"/>
    <path id="menu" d="M292.89,116.26h-28.1a3.16,3.16,0,0,1-3.19-3.69l.38-2.87a4.37,4.37,0,0,1,4.19-3.69h28.09a3.15,3.15,0,0,1,3.19,3.69l-.38,2.87A4.35,4.35,0,0,1,292.89,116.26Z" fill="#68e1fd"/>
    <path d="M294.91,101.15H266.82a3.15,3.15,0,0,1-3.19-3.69l.38-2.87a4.35,4.35,0,0,1,4.19-3.69h28.09a3.16,3.16,0,0,1,3.19,3.69l-.38,2.87A4.37,4.37,0,0,1,294.91,101.15Z" fill="#fff"/>
    <path d="M294.91,101.65H266.82a3.7,3.7,0,0,1-2.83-1.24,3.75,3.75,0,0,1-.86-3l.39-2.87a4.87,4.87,0,0,1,4.68-4.12h28.09a3.7,3.7,0,0,1,2.83,1.24,3.77,3.77,0,0,1,.86,3l-.39,2.87A4.87,4.87,0,0,1,294.91,101.65ZM268.2,91.4a3.84,3.84,0,0,0-3.69,3.25l-.39,2.87a2.8,2.8,0,0,0,.62,2.23,2.72,2.72,0,0,0,2.08.9h28.09a3.84,3.84,0,0,0,3.69-3.26l.39-2.87a2.77,2.77,0,0,0-.63-2.23,2.71,2.71,0,0,0-2.07-.89Z" fill="#d1d3d4"/>
    <path d="M296.94,86H268.85a3.16,3.16,0,0,1-3.2-3.69l.39-2.87a4.34,4.34,0,0,1,4.18-3.69h28.09a3.16,3.16,0,0,1,3.2,3.69l-.39,2.87A4.34,4.34,0,0,1,296.94,86Z" fill="#fff"/>
    <path d="M296.94,86.53H268.85a3.65,3.65,0,0,1-3.69-4.26l.38-2.87a4.88,4.88,0,0,1,4.68-4.12h28.09A3.65,3.65,0,0,1,302,79.54l-.38,2.87A4.88,4.88,0,0,1,296.94,86.53ZM270.22,76.28a3.85,3.85,0,0,0-3.69,3.26l-.38,2.87a2.79,2.79,0,0,0,.62,2.22,2.72,2.72,0,0,0,2.08.9h28.09a3.85,3.85,0,0,0,3.69-3.26L301,79.4a2.65,2.65,0,0,0-2.7-3.12Z" fill="#d1d3d4"/>
    <path d="M299,70.91h-28.1a3.16,3.16,0,0,1-3.19-3.69l.38-2.87a4.36,4.36,0,0,1,4.19-3.69h28.09a3.15,3.15,0,0,1,3.19,3.69l-.38,2.87A4.35,4.35,0,0,1,299,70.91Z" fill="#fff"/>
    <path d="M299,71.41h-28.1A3.7,3.7,0,0,1,268,70.17a3.78,3.78,0,0,1-.86-3l.39-2.87a4.87,4.87,0,0,1,4.68-4.13h28.09a3.68,3.68,0,0,1,2.83,1.24,3.75,3.75,0,0,1,.86,3l-.38,2.87A4.88,4.88,0,0,1,299,71.41ZM272.25,61.16a3.85,3.85,0,0,0-3.69,3.26l-.38,2.87a2.65,2.65,0,0,0,2.69,3.12H299a3.84,3.84,0,0,0,3.68-3.25l.39-2.87a2.8,2.8,0,0,0-.62-2.23,2.72,2.72,0,0,0-2.08-.9Z" fill="#d1d3d4"/>
    <path d="M297.83,54.43H276.29a.5.5,0,0,1-.5-.5.51.51,0,0,1,.5-.5h21.54a.5.5,0,0,1,.5.5A.5.5,0,0,1,297.83,54.43Z" fill="#d1d3d4"/>
  </g>
</svg>