<?xml version="1.0" encoding="utf-8"?>
<svg viewBox="0 0 163 211" width="228px" height="226px" class="illustration styles_illustrationTablet__1DWOa" xmlns="http://www.w3.org/2000/svg">
  <g id="_521_user_interface_flatline" data-name="#521_user_interface_flatline" transform="matrix(0.998645, -0.005155, 0, 1, -86.766953, -35.965851)" style="">
    <path id="bigborder" d="M 218.76 246.33 L 88.39 246.33 C 88.245 246.331 88.106 246.269 88.01 246.16 C 87.916 246.049 87.872 245.904 87.89 245.76 L 115.89 48.37 C 116.832 42.529 121.786 38.179 127.7 38 L 238.25 38 C 240.892 37.933 243.429 39.03 245.19 41 C 246.938 43.056 247.692 45.778 247.25 48.44 L 246.08 56.74 L 219.25 245.9 C 219.215 246.145 219.007 246.327 218.76 246.33 Z M 88.96 245.33 L 218.32 245.33 L 246.26 48.33 C 246.66 45.957 245.994 43.528 244.44 41.69 C 242.876 39.921 240.611 38.932 238.25 38.99 L 127.7 38.99 C 122.289 39.154 117.753 43.128 116.88 48.47 L 115.71 56.77 L 88.96 245.33 Z" class="border" style="stroke-width: 1.00068px; fill: none; stroke: rgb(0, 0, 0);"/>
    <path d="M 172.2 136.64 L 115 136.64 C 114.856 136.634 114.72 136.573 114.62 136.47 C 114.529 136.358 114.49 136.213 114.51 136.07 L 123 76.61 C 123.039 76.364 123.251 76.182 123.5 76.18 L 180.68 76.18 C 180.986 76.177 181.223 76.447 181.18 76.75 L 172.75 136.21 C 172.709 136.476 172.468 136.664 172.2 136.64 Z M 115.59 135.64 L 171.77 135.64 L 180.06 77.18 L 123.88 77.18 L 115.59 135.64 Z" fill="#d1d3d4"/>
    <path d="M 225.52 77.18 L 195 77.18 C 194.724 77.18 194.5 76.956 194.5 76.68 C 194.5 76.404 194.724 76.18 195 76.18 L 225.53 76.18 C 225.806 76.18 226.03 76.404 226.03 76.68 C 226.03 76.96 225.8 77.186 225.52 77.18 Z" fill="#d1d3d4"/>
    <path d="M 224.4 85.09 L 193.87 85.09 C 193.485 85.09 193.245 84.673 193.437 84.34 C 193.526 84.185 193.691 84.09 193.87 84.09 L 224.4 84.09 C 224.785 84.09 225.025 84.507 224.833 84.84 C 224.744 84.995 224.579 85.09 224.4 85.09 Z" fill="#d1d3d4"/>
    <path d="M 223.28 93 L 192.74 93 C 192.466 92.995 192.245 92.774 192.24 92.5 C 192.24 92.224 192.464 92 192.74 92 L 223.28 92 C 223.556 92 223.78 92.224 223.78 92.5 C 223.78 92.776 223.556 93 223.28 93 Z" fill="#d1d3d4"/>
    <path d="M 222.16 100.92 L 191.62 100.92 C 191.235 100.92 190.995 100.503 191.187 100.17 C 191.276 100.015 191.441 99.92 191.62 99.92 L 222.16 99.92 C 222.545 99.92 222.785 100.337 222.593 100.67 C 222.504 100.825 222.339 100.92 222.16 100.92 Z" fill="#d1d3d4"/>
    <path d="M 221 108.83 L 190.5 108.83 C 190.224 108.83 190 108.606 190 108.33 C 190 108.054 190.224 107.83 190.5 107.83 L 221 107.83 C 221.276 107.83 221.5 108.054 221.5 108.33 C 221.5 108.606 221.276 108.83 221 108.83 Z" fill="#d1d3d4"/>
    <path d="M 211.08 116.75 L 189.37 116.75 C 189.096 116.745 188.875 116.524 188.87 116.25 C 188.87 115.974 189.094 115.75 189.37 115.75 L 211.08 115.75 C 211.356 115.75 211.58 115.974 211.58 116.25 C 211.58 116.526 211.356 116.75 211.08 116.75 Z" fill="#d1d3d4"/>
    <path d="M 215.34 136.14 L 188.34 136.14 C 185.32 136.22 182.989 133.503 183.53 130.53 C 184.046 127.369 186.729 125.017 189.93 124.92 L 216.93 124.92 C 219.955 124.833 222.292 127.553 221.75 130.53 C 221.234 133.694 218.545 136.048 215.34 136.14 Z" style="fill: none; stroke: rgb(209, 211, 212);"/>
    <path d="M 140.25 214.33 L 113.25 214.33 C 110.226 214.418 107.891 211.695 108.44 208.72 C 108.956 205.559 111.639 203.207 114.84 203.11 L 141.84 203.11 C 144.864 203.022 147.199 205.745 146.65 208.72 C 146.138 211.883 143.453 214.237 140.25 214.33 Z" style="stroke: rgb(209, 211, 212); fill: none;"/>
    <path d="M 201.57 214.33 L 174.57 214.33 C 171.546 214.418 169.211 211.695 169.76 208.72 C 170.272 205.557 172.957 203.203 176.16 203.11 L 203.16 203.11 C 206.184 203.022 208.519 205.745 207.97 208.72 C 207.458 211.883 204.773 214.237 201.57 214.33 Z" style="stroke: rgb(209, 211, 212); fill: none;"/>
    <path d="M 152.22 195.94 L 106.6 195.94 C 106.454 195.935 106.316 195.87 106.22 195.76 C 106.125 195.654 106.084 195.51 106.11 195.37 L 112.11 152.82 C 112.149 152.574 112.361 152.392 112.61 152.39 L 158.22 152.39 C 158.366 152.387 158.505 152.45 158.6 152.56 C 158.698 152.669 158.742 152.815 158.72 152.96 L 152.72 195.51 C 152.681 195.756 152.469 195.938 152.22 195.94 Z M 107.22 194.94 L 151.83 194.94 L 157.72 153.39 L 113.07 153.39 L 107.22 194.94 Z" fill="#d1d3d4"/>
    <path d="M 213.54 195.94 L 167.92 195.94 C 167.773 195.937 167.635 195.872 167.54 195.76 C 167.446 195.653 167.403 195.511 167.42 195.37 L 173.42 152.82 C 173.455 152.575 173.663 152.393 173.91 152.39 L 219.53 152.39 C 219.676 152.387 219.815 152.45 219.91 152.56 C 220.008 152.669 220.052 152.815 220.03 152.96 L 214.03 195.51 C 213.995 195.755 213.787 195.937 213.54 195.94 Z M 168.54 194.94 L 213.14 194.94 L 219.04 153.39 L 174.39 153.39 L 168.54 194.94 Z" fill="#d1d3d4"/>
    <path d="M 142.05 231.49 C 141.438 231.5 140.853 231.24 140.45 230.78 C 140.046 230.308 139.871 229.683 139.97 229.07 C 140.174 227.78 141.274 226.823 142.58 226.8 C 143.189 226.791 143.773 227.047 144.18 227.5 C 144.584 227.971 144.756 228.598 144.65 229.21 C 144.455 230.502 143.357 231.466 142.05 231.49 Z M 142.58 227.8 C 141.777 227.834 141.104 228.419 140.96 229.21 C 140.904 229.539 140.995 229.875 141.21 230.13 C 141.424 230.367 141.731 230.499 142.05 230.49 C 142.855 230.458 143.528 229.865 143.66 229.07 C 143.719 228.746 143.631 228.413 143.42 228.16 C 143.206 227.923 142.899 227.791 142.58 227.8 Z" fill="#d1d3d4"/>
    <ellipse cx="193.79" cy="229.14" rx="1.98" ry="1.72" transform="matrix(0.731711, -0.681615, 0.681615, 0.731711, -146.199369, 193.580004)" fill="#d1d3d4"/>
    <ellipse cx="203.27" cy="229.14" rx="1.975" ry="1.716" transform="matrix(0.731722, -0.681604, 0.681604, 0.731722, -144.36033, 199.972108)" fill="#d1d3d4"/>
    <ellipse cx="212.75" cy="229.14" rx="1.98" ry="1.72" transform="matrix(0.731711, -0.681615, 0.681615, 0.731711, -141.109356, 206.500001)" fill="#d1d3d4"/>
    <path d="M 135.21 62.69 L 127.66 62.69 C 127.275 62.69 127.035 62.273 127.227 61.94 C 127.316 61.785 127.481 61.69 127.66 61.69 L 135.21 61.69 C 135.595 61.69 135.835 62.107 135.643 62.44 C 135.554 62.595 135.389 62.69 135.21 62.69 Z" fill="#d1d3d4"/>
    <path d="M 134.73 66.09 L 127.17 66.09 C 126.896 66.085 126.675 65.864 126.67 65.59 C 126.67 65.314 126.894 65.09 127.17 65.09 L 134.73 65.09 C 135.006 65.09 135.23 65.314 135.23 65.59 C 135.225 65.864 135.004 66.085 134.73 66.09 Z" fill="#d1d3d4"/>
    <path d="M 134.24 69.48 L 126.69 69.48 C 126.414 69.48 126.19 69.256 126.19 68.98 C 126.195 68.706 126.416 68.485 126.69 68.48 L 134.24 68.48 C 134.516 68.48 134.74 68.704 134.74 68.98 C 134.74 69.256 134.516 69.48 134.24 69.48 Z" fill="#d1d3d4"/>
    <path id="pageheader" d="M 246.75 48.44 L 245.58 56.74 L 115.21 56.74 L 116.39 48.44 C 117.294 42.851 122.041 38.692 127.7 38.53 L 238.25 38.53 C 243.59 38.379 247.712 43.185 246.75 48.44 Z" style="fill: none; stroke: rgb(0, 0, 0); stroke-width: 1.00068px;" class="border"/>
    <path d="M 184.69 48.14 L 170.33 48.14 C 170.054 48.14 169.83 47.916 169.83 47.64 C 169.83 47.364 170.054 47.14 170.33 47.14 L 184.69 47.14 C 184.966 47.14 185.19 47.364 185.19 47.64 C 185.19 47.916 184.966 48.14 184.69 48.14 Z" fill="#d1d3d4"/>
    <path d="M 192 48.14 L 189.46 48.14 C 189.186 48.135 188.965 47.914 188.96 47.64 C 188.96 47.364 189.184 47.14 189.46 47.14 L 192 47.14 C 192.276 47.14 192.5 47.364 192.5 47.64 C 192.5 47.916 192.276 48.14 192 48.14 Z" fill="#d1d3d4"/>
  </g>
</svg>