<?xml version="1.0" encoding="utf-8"?>
<svg viewBox="0 0 228 226" width="228px" height="226px" class="illustration styles_illustrationTablet__1DWOa" xmlns="http://www.w3.org/2000/svg">
  <g id="_521_user_interface_flatline" data-name="#521_user_interface_flatline" transform="matrix(1, 0, 0, 1, -86.332375, -36.997082)">
    <path d="M288.75,48.44l-1.17,8.3L260.76,245.83H130.39L157.21,56.74l1.18-8.3a11.8,11.8,0,0,1,11.31-9.91H280.25A8.4,8.4,0,0,1,288.75,48.44Z" style="fill: none;"/>
    <path id="bigborder" d="M260.76,246.33H130.39a.5.5,0,0,1-.38-.17.52.52,0,0,1-.12-.4l28-197.39A12.34,12.34,0,0,1,169.7,38H280.25a9,9,0,0,1,6.94,3,9.17,9.17,0,0,1,2.06,7.44l-1.17,8.3L261.25,245.9A.5.5,0,0,1,260.76,246.33Zm-129.8-1H260.32l27.94-197h0a8.18,8.18,0,0,0-1.82-6.64,8,8,0,0,0-6.19-2.7H169.7a11.31,11.31,0,0,0-10.82,9.48l-1.17,8.3Z" fill="#231f20"/>
    <path d="M214.2,136.64H157a.56.56,0,0,1-.38-.17.52.52,0,0,1-.11-.4L165,76.61a.51.51,0,0,1,.5-.43h57.18a.5.5,0,0,1,.5.57l-8.43,59.46A.51.51,0,0,1,214.2,136.64Zm-56.61-1h56.18l8.29-58.46H165.88Z" fill="#d1d3d4"/>
    <path d="M 267.52 77.18 L 237 77.18 C 236.724 77.18 236.5 76.956 236.5 76.68 C 236.5 76.404 236.724 76.18 237 76.18 L 267.53 76.18 C 267.806 76.18 268.03 76.404 268.03 76.68 C 268.03 76.96 267.8 77.186 267.52 77.18 Z" fill="#d1d3d4"/>
    <path d="M 266.4 85.09 L 235.87 85.09 C 235.485 85.09 235.245 84.673 235.437 84.34 C 235.526 84.185 235.691 84.09 235.87 84.09 L 266.4 84.09 C 266.785 84.09 267.025 84.507 266.833 84.84 C 266.744 84.995 266.579 85.09 266.4 85.09 Z" fill="#d1d3d4"/>
    <path d="M 265.28 93 L 234.74 93 C 234.466 92.995 234.245 92.774 234.24 92.5 C 234.24 92.224 234.464 92 234.74 92 L 265.28 92 C 265.556 92 265.78 92.224 265.78 92.5 C 265.78 92.776 265.556 93 265.28 93 Z" fill="#d1d3d4"/>
    <path d="M 264.16 100.92 L 233.62 100.92 C 233.235 100.92 232.995 100.503 233.187 100.17 C 233.276 100.015 233.441 99.92 233.62 99.92 L 264.16 99.92 C 264.545 99.92 264.785 100.337 264.593 100.67 C 264.504 100.825 264.339 100.92 264.16 100.92 Z" fill="#d1d3d4"/>
    <path d="M 263 108.83 L 232.5 108.83 C 232.224 108.83 232 108.606 232 108.33 C 232 108.054 232.224 107.83 232.5 107.83 L 263 107.83 C 263.276 107.83 263.5 108.054 263.5 108.33 C 263.5 108.606 263.276 108.83 263 108.83 Z" fill="#d1d3d4"/>
    <path d="M 253.08 116.75 L 231.37 116.75 C 231.096 116.745 230.875 116.524 230.87 116.25 C 230.87 115.974 231.094 115.75 231.37 115.75 L 253.08 115.75 C 253.356 115.75 253.58 115.974 253.58 116.25 C 253.58 116.526 253.356 116.75 253.08 116.75 Z" fill="#d1d3d4"/>
    <path d="M 257.34 136.14 L 230.34 136.14 C 227.32 136.22 224.989 133.503 225.53 130.53 C 226.046 127.369 228.729 125.017 231.93 124.92 L 258.93 124.92 C 261.955 124.833 264.292 127.553 263.75 130.53 C 263.234 133.694 260.545 136.048 257.34 136.14 Z" style="fill: none; stroke: rgb(209, 211, 212);"/>
    <path d="M182.25,214.33h-27a4.75,4.75,0,0,1-4.81-5.61h0a6.69,6.69,0,0,1,6.4-5.61h27a4.75,4.75,0,0,1,4.81,5.61h0A6.68,6.68,0,0,1,182.25,214.33Z" style="stroke: rgb(209, 211, 212); fill: none;"/>
    <path d="M243.57,214.33h-27a4.75,4.75,0,0,1-4.81-5.61h0a6.68,6.68,0,0,1,6.4-5.61h27a4.75,4.75,0,0,1,4.81,5.61h0A6.68,6.68,0,0,1,243.57,214.33Z" style="stroke: rgb(209, 211, 212); fill: none;"/>
    <path d="M194.22,195.94H148.6a.53.53,0,0,1-.38-.18.46.46,0,0,1-.11-.39l6-42.55a.51.51,0,0,1,.5-.43h45.61a.49.49,0,0,1,.38.17.49.49,0,0,1,.12.4l-6,42.55A.51.51,0,0,1,194.22,195.94Zm-45-1h44.61l5.89-41.55H155.07Z" fill="#d1d3d4"/>
    <path d="M255.54,195.94H209.92a.51.51,0,0,1-.38-.18.5.5,0,0,1-.12-.39l6-42.55a.5.5,0,0,1,.49-.43h45.62a.49.49,0,0,1,.38.17.49.49,0,0,1,.12.4l-6,42.55A.5.5,0,0,1,255.54,195.94Zm-45-1h44.6l5.9-41.55H216.39Z" fill="#d1d3d4"/>
    <path d="M184.05,231.49a2.08,2.08,0,0,1-1.6-.71,2.11,2.11,0,0,1-.48-1.71,2.69,2.69,0,0,1,2.61-2.27,2.11,2.11,0,0,1,1.6.7,2.08,2.08,0,0,1,.47,1.71A2.68,2.68,0,0,1,184.05,231.49Zm.53-3.69a1.72,1.72,0,0,0-1.62,1.41,1.13,1.13,0,0,0,.25.92,1.09,1.09,0,0,0,.84.36,1.7,1.7,0,0,0,1.61-1.42h0a1.11,1.11,0,0,0-.24-.91A1.09,1.09,0,0,0,184.58,227.8Z" fill="#d1d3d4"/>
    <ellipse cx="193.79" cy="229.14" rx="1.98" ry="1.72" transform="translate(-104.2 193.58) rotate(-42.97)" fill="#d1d3d4"/>
    <ellipse cx="203.27" cy="229.14" rx="1.98" ry="1.72" transform="matrix(0.73, -0.68, 0.68, 0.73, -101.65, 200.04)" fill="#d1d3d4"/>
    <ellipse cx="212.75" cy="229.14" rx="1.98" ry="1.72" transform="translate(-99.11 206.5) rotate(-42.97)" fill="#d1d3d4"/>
    <path d="M177.21,62.69h-7.55a.5.5,0,0,1,0-1h7.55a.5.5,0,0,1,0,1Z" fill="#d1d3d4"/>
    <path d="M176.73,66.09h-7.56a.51.51,0,0,1-.5-.5.5.5,0,0,1,.5-.5h7.56a.5.5,0,0,1,.5.5A.51.51,0,0,1,176.73,66.09Z" fill="#d1d3d4"/>
    <path d="M176.24,69.48h-7.55a.5.5,0,0,1-.5-.5.51.51,0,0,1,.5-.5h7.55a.5.5,0,0,1,.5.5A.5.5,0,0,1,176.24,69.48Z" fill="#d1d3d4"/>
    <path id="pageheader" d="M288.75,48.44l-1.17,8.3H157.21l1.18-8.3a11.8,11.8,0,0,1,11.31-9.91H280.25A8.4,8.4,0,0,1,288.75,48.44Z" style="stroke: rgb(0, 0, 0); fill: none;"/>
    <path d="M226.69,48.14H212.33a.5.5,0,0,1-.5-.5.5.5,0,0,1,.5-.5h14.36a.5.5,0,0,1,.5.5A.5.5,0,0,1,226.69,48.14Z" fill="#d1d3d4"/>
    <path d="M234,48.14h-2.54a.51.51,0,0,1-.5-.5.5.5,0,0,1,.5-.5H234a.5.5,0,0,1,.5.5A.5.5,0,0,1,234,48.14Z" fill="#d1d3d4"/>
    <path d="M155.7,113.46l9.32,9.62s16.82-18.37,17-20.67a40.73,40.73,0,0,1,3.42-11.93,1,1,0,0,1,.46-.57c.53-.2.91.54,1,1.1a15.29,15.29,0,0,1-.05,4.11c1.67-2.31,3.37-4.59,5.12-6.84a.89.89,0,0,1,.61-.44.82.82,0,0,1,.52.23,8,8,0,0,1,2.39,3.54A6.93,6.93,0,0,1,196,93.9c.07,4.42-3.89,11.6-8,13.41,0,0-19.14,32.8-22.58,32.42s-17-15.69-17-15.69Z" style="fill: none;"/>
    <path d="M 165.43 140.23 L 165.35 140.23 C 161.82 139.83 151.771 128.432 150.361 126.852 C 150.217 126.67 153.528 131.406 150.24 126.838 L 157.318 115.602 C 157.405 115.481 157.237 115.102 157.385 115.089 C 157.534 115.075 157.682 115.009 157.785 115.118 L 165.04 122.35 C 171.51 115.26 181.44 103.89 181.58 102.35 C 182.102 98.177 183.255 94.107 185 90.28 C 185.126 89.915 185.392 89.616 185.74 89.45 C 186.025 89.339 186.346 89.365 186.61 89.52 C 187.078 89.874 187.366 90.415 187.4 91 C 187.492 91.803 187.528 92.612 187.51 93.42 C 188.84 91.6 190.2 89.79 191.58 88.02 C 191.799 87.667 192.168 87.435 192.58 87.39 C 192.894 87.403 193.194 87.523 193.43 87.73 C 194.602 88.711 195.49 89.989 196 91.43 C 196.316 92.214 196.499 93.046 196.54 93.89 C 196.61 98.32 192.8 105.63 188.38 107.7 C 185 113.49 169.14 140.23 165.43 140.23 Z M 150.816 125.816 C 156.246 131.906 163.1 139 165.45 139.23 C 167.51 139.23 178.24 122.93 187.51 107.05 C 187.563 106.958 187.644 106.885 187.74 106.84 C 191.79 105.06 195.52 98.04 195.45 93.9 C 195.418 93.168 195.259 92.448 194.98 91.77 C 194.542 90.486 193.769 89.343 192.74 88.46 C 192.61 88.35 192.56 88.33 192.54 88.33 C 192.458 88.401 192.384 88.482 192.32 88.57 C 190.58 90.81 188.86 93.11 187.2 95.41 C 186.976 95.723 186.497 95.675 186.338 95.324 C 186.298 95.235 186.285 95.137 186.3 95.04 C 186.498 93.715 186.515 92.369 186.35 91.04 C 186.335 90.78 186.225 90.534 186.04 90.35 C 185.963 90.441 185.905 90.546 185.87 90.66 C 184.149 94.388 183.009 98.357 182.49 102.43 C 182.28 104.78 168.17 120.3 165.34 123.43 C 165.246 123.528 165.116 123.586 164.98 123.59 C 164.844 123.581 164.714 123.528 164.61 123.44 L 157.476 115.895 L 150.816 125.816 Z" fill="#231f20"/>
    <path d="M90,251.37s-3.25,8.9-1.81,9.76,30.14,0,28.41-1.72-9.37-7.46-9.37-7.46" style="fill: none;"/>
    <path d="M94.77,261.94c-3.67,0-6.43-.13-6.85-.38-1.56-.93.34-6.89,1.6-10.36a.52.52,0,0,1,.65-.3.5.5,0,0,1,.29.64c-1.6,4.41-2.55,8.69-2,9.17,2,.89,24.45-.16,27.51-1.22-2.11-1.95-9-7.09-9-7.14a.5.5,0,1,1,.6-.8c.31.23,7.7,5.78,9.43,7.51a.68.68,0,0,1,.07.92C116,261.29,103.06,261.94,94.77,261.94Z" fill="#231f20"/>
    <path d="M119,81.45c-1.36-.06-2.72-.29-4.29-.43s-3.35-.67-3.38-2.13c0-1.26,1.48-2.3,1.15-3.51a2.77,2.77,0,0,0-.52-.89,13.56,13.56,0,0,1,2.34-18.64c-.41.14-.85-.27-.89-.7a1.69,1.69,0,0,1,.47-1.18A8.45,8.45,0,0,1,118,51.48a25.84,25.84,0,0,1,15.23,0c3.8,1.11,8.37,4.14,7.87,8.73a3.64,3.64,0,0,1-3.14,3.34c-.85,4.92-3.43,8.28-6.67,11.84a19.86,19.86,0,0,1-8,5.44A10.81,10.81,0,0,1,119,81.45Z" style="fill: none;"/>
    <path id="manhead" d="M 119.62 82 L 119 82 C 118.19 82 117.4 81.87 116.55 81.77 C 115.96 81.7 115.35 81.63 114.69 81.57 C 112.32 81.37 110.89 80.39 110.86 78.95 C 110.898 78.261 111.134 77.598 111.54 77.04 C 111.87 76.49 112.15 76.04 112.03 75.56 C 111.939 75.322 111.807 75.102 111.64 74.91 C 107.235 69.113 107.976 60.913 113.35 56 C 113.121 55.775 112.976 55.479 112.94 55.16 C 112.917 54.586 113.126 54.027 113.52 53.61 C 114.679 52.347 116.174 51.442 117.83 51 C 122.886 49.444 128.294 49.444 133.35 51 C 137.81 52.3 142.08 55.67 141.57 60.27 C 141.41 62.072 120.582 79.562 120.572 81.235 C 120.564 82.542 120.928 81.99 119.62 82 Z M 114.25 55.36 C 114.447 55.358 114.63 55.461 114.73 55.63 C 114.856 55.838 114.819 56.105 114.64 56.27 C 109.206 60.687 108.214 68.599 112.39 74.22 C 112.66 74.529 112.865 74.889 112.99 75.28 C 113.122 76.08 112.908 76.898 112.4 77.53 C 112.104 77.935 111.917 78.411 111.86 78.91 C 111.86 80.24 114.3 80.51 114.78 80.56 C 115.44 80.56 116.07 80.69 116.67 80.76 C 117.49 80.86 118.27 80.95 119.05 80.98 C 120.432 81.065 119.201 80.933 120.504 80.465 C 123.496 79.375 140.472 61.674 140.58 60.21 C 141.08 55.62 136.09 52.89 133.07 52.01 C 128.206 50.514 123.004 50.514 118.14 52.01 C 116.659 52.387 115.323 53.195 114.3 54.33 C 114.078 54.547 113.945 54.84 113.93 55.15 C 113.947 55.252 114.005 55.342 114.09 55.4 L 114.25 55.36 Z" fill="#231f20"/>
    <path d="M98.58,111S88,132.54,88.82,139.14s22.68,4,22.68,4l-1.15-32.72Z" style="fill: none;"/>
    <path d="M 100.806 120.711 C 100.806 120.711 99.49 143.945 98.83 143.945 C 91.17 143.705 88.73 142.26 88.34 139.24 C 87.47 132.57 95.179 117.784 95.609 116.904 C 95.693 116.742 96.001 117.214 96.184 117.203 L 98 118.59 C 98.133 118.583 99.123 119.132 99.22 119.222 C 99.322 119.31 100.806 120.577 100.806 120.711 Z M 96.378 117.502 C 95.178 119.972 88.54 133.09 89.32 139.08 C 90 144 98.867 143.256 98.803 143.499 L 100.975 120.401 L 96.378 117.502 Z" fill="#231f20"/>
    <path d="M140.78,247.16l.57,14s26.22.19,24.69-1.72-13.4-10.33-13.4-10.33l-1.91-10.34Z" style="fill: none;"/>
    <path d="M 144.72 261.65 L 141.35 261.65 C 141.081 261.65 140.861 261.438 140.85 261.17 L 140.515 251.306 C 140.509 251.154 140.807 251.195 140.92 251.094 L 155.208 250.895 C 156.708 251.965 164.99 257.24 166.47 259.09 C 166.648 259.306 166.687 259.605 166.57 259.86 C 165.81 261.36 153.76 261.65 144.72 261.65 Z M 141.83 260.65 C 152.36 260.71 163.58 260.31 165.46 259.52 C 163.78 257.76 158.13 253.965 154.22 251.215 C 154.114 251.143 141.525 251.378 141.525 251.378 L 141.83 260.65 Z" fill="#231f20"/>
    <path id="manpant" d="M145.53,149,155.7,251l-16.84.38-19.13-72.06L109.13,252l-19.52-1s3.4-40.57,5.17-56,4.51-42.14,4.51-42.14Z" style="fill: none; stroke: rgb(0, 0, 0);"/>
    <path d="M139.26,70.72s3.51,5.79,2.69,6.93-3.35.26-3.35.26" fill="#fff"/>
    <path d="M140.43,78.73a6.57,6.57,0,0,1-2-.35.5.5,0,0,1,.32-.94c.72.24,2.33.54,2.78-.09s-.95-3.47-2.71-6.37a.5.5,0,1,1,.85-.51c1.11,1.82,3.59,6.2,2.68,7.47A2.28,2.28,0,0,1,140.43,78.73Z" fill="#231f20"/>
    <path d="M138.75,63.24c2.3,2,1.45,6.1,1.33,8.76q-.27,5.61-.78,11.22c-.22,2.36-6.37,2.18-7.43,1.43l.61,9.41-12.73-5.45.83-10.81s4.06.18,6.65-4.56S130,61.06,130,61.06,136.51,61.26,138.75,63.24Z" style="fill: none;"/>
    <path d="M 128.495 87.344 C 128.512 87.628 119.963 85.883 119.963 85.883 C 119.766 85.796 119.576 85.665 119.586 85.45 L 120.08 77.8 C 120.101 77.532 120.331 77.328 120.6 77.34 C 120.75 77.34 123.727 78.283 126.127 73.893 C 126.383 73.424 125.674 72.634 125.897 72.102 C 126.17 71.45 125.585 70.765 125.843 70.07 C 126.194 69.125 127.042 68.634 127.413 67.703 C 128.717 64.432 129.5 61.112 129.5 61.04 C 129.502 60.906 129.56 60.779 129.66 60.69 C 129.754 60.594 129.886 60.546 130.02 60.56 C 130.29 60.56 136.73 60.79 139.08 62.87 C 141.18 64.72 140.9 67.97 140.68 70.59 C 140.68 71.09 140.6 71.59 140.58 72.02 C 140.4 75.75 140.14 79.53 139.8 83.26 C 139.676 84.07 139.108 84.742 138.33 85 C 136.436 85.687 134.384 85.812 132.42 85.36 L 128.495 87.344 Z M 120.414 85.601 L 130.777 88.113 L 131.38 84.69 C 131.358 84.497 131.457 84.31 131.63 84.22 C 131.791 84.116 131.999 84.116 132.16 84.22 C 134.039 84.804 136.057 84.762 137.91 84.1 C 138.47 83.85 138.77 83.53 138.8 83.1 C 139.15 79.39 139.41 75.62 139.58 71.91 C 139.58 71.45 139.64 70.91 139.68 70.43 C 139.89 68.04 140.14 65.07 138.42 63.55 C 136.68 62.01 132.01 61.61 130.48 61.55 C 130.443 62.28 129.404 66.084 128.351 67.661 C 127.479 68.967 126.753 67.943 125.95 69.599 C 125.622 70.277 125.874 71.614 125.585 72.271 C 125.342 72.824 126.795 74.296 126.533 74.777 C 124.283 78.907 122.26 78.15 121.04 78.25 L 120.414 85.601 Z" fill="#231f20"/>
    <path id="shirt" d="M158.28,114.29s-15.05-15.9-21-21.88c-5.53-5.54-21.61-10.58-28.93-2.64,0,0-12,16.79-14.35,26.55l7,4.31A321.33,321.33,0,0,0,98.3,155.5C111.58,166,145.53,149,145.53,149l-3.07-24,5.49,5.5Z" style="stroke: rgb(0, 0, 0); fill: none;"/>
    <path d="M139.32,80.42s-3,1.67-4.4-1.39" fill="#fff"/>
    <path d="M137.53,81.38a3.57,3.57,0,0,1-1-.15,3.5,3.5,0,0,1-2.07-2,.5.5,0,0,1,.91-.42,2.55,2.55,0,0,0,1.46,1.45,3.16,3.16,0,0,0,2.24-.29.51.51,0,0,1,.68.2.48.48,0,0,1-.19.67A4.41,4.41,0,0,1,137.53,81.38Z" fill="#231f20"/>
    <path d="M132,72.85a5.1,5.1,0,0,0-.95-2.61,7,7,0,0,0-1.29-1.75,2.45,2.45,0,0,0-2-.7,2.32,2.32,0,0,0-1.52,1.11,4.51,4.51,0,0,0-.54,1.84A8.07,8.07,0,0,0,129.13,78l-.2-.23" style="fill: none;"/>
    <path d="M129.13,78.51a.47.47,0,0,1-.28-.09,8.58,8.58,0,0,1-3.65-7.73,4.81,4.81,0,0,1,.61-2,2.72,2.72,0,0,1,1.85-1.34,2.92,2.92,0,0,1,2.42.82A7.48,7.48,0,0,1,131.46,70a5.48,5.48,0,0,1,1,2.88.5.5,0,0,1-1,0,4.57,4.57,0,0,0-.88-2.35,6.7,6.7,0,0,0-1.19-1.63,2,2,0,0,0-1.58-.57,1.77,1.77,0,0,0-1.17.87,3.84,3.84,0,0,0-.47,1.62,7.6,7.6,0,0,0,2.79,6.5.51.51,0,0,1,.33.17l.2.23a.5.5,0,0,1,0,.66A.5.5,0,0,1,129.13,78.51Z" fill="#231f20"/>
    <path d="M131.87,84.65a10,10,0,0,1-4.54-3.36s0,5.71,4.81,7.55Z" fill="#231f20"/>
    <path d="M132.14,89.34l-.18,0c-5.08-1.94-5.13-8-5.13-8a.49.49,0,0,1,.36-.48.5.5,0,0,1,.56.22A9.45,9.45,0,0,0,132,84.17a.5.5,0,0,1,.33.44l.27,4.2a.51.51,0,0,1-.2.43A.47.47,0,0,1,132.14,89.34ZM128,82.88A7.25,7.25,0,0,0,131.59,88l-.19-3A11.62,11.62,0,0,1,128,82.88Z" fill="#231f20"/>
    <path d="M 142.88 125.69 C 142.745 125.69 142.615 125.636 142.52 125.54 C 138.703 121.597 135.101 117.451 131.73 113.12 C 131.57 112.898 131.614 112.589 131.83 112.42 C 132.051 112.254 132.364 112.299 132.53 112.52 C 135.875 116.82 139.45 120.936 143.24 124.85 C 143.436 125.042 143.436 125.358 143.24 125.55 C 143.146 125.646 143.015 125.697 142.88 125.69 Z" fill="#231f20"/>
    <path d="M119.45,177.8a.46.46,0,0,1-.32-.11c-.26-.21-6.21-5.28-6.24-13.28a.5.5,0,0,1,.49-.5h0a.49.49,0,0,1,.49.5c0,7.53,5.83,12.47,5.89,12.51a.51.51,0,0,1,.06.71A.52.52,0,0,1,119.45,177.8Z" fill="#fff"/>
    <ellipse cx="137.22" cy="68.05" rx="1.34" ry="0.53" transform="translate(42.53 188.44) rotate(-78.19)" fill="#231f20"/>
    <path d="M100.88,117.68h-.08a.51.51,0,0,1-.41-.58c.11-.73,2.92-17.95,6.08-23.7a.49.49,0,0,1,.68-.19.48.48,0,0,1,.19.67c-3.07,5.6-5.94,23.2-6,23.38A.49.49,0,0,1,100.88,117.68Z" fill="#231f20"/>
    <path id="leftleaf" d="M289.16,195a10.2,10.2,0,0,0-1.16-5.45c-.73-1.21-1.85-2.17-2.45-3.45-1-2.22-.31-4.83-.55-7.26a9.11,9.11,0,0,0-2.55-5.41c-1.27-1.28-2.91-2.17-4.13-3.51-2-2.2-2.56-5.29-3.69-8a20.12,20.12,0,0,0-8-9.37c2.17,4.37-2.78,9.93-.53,14.26.71,1.38,2.06,2.38,2.59,3.84,1.25,3.51-2.94,7.32-1.6,10.81.67,1.74,2.54,2.75,3.41,4.4,1.17,2.22.25,4.93.34,7.44.13,3.47,2.24,6.57,4.75,9,1.56,1.49,3.3,2.79,5,4.14,2,1.62,2.87,3.31,4.64.72A22.34,22.34,0,0,0,289.16,195Z" style="fill: none; stroke: rgb(0, 0, 0);"/>
    <path id="rightleaf" d="M291.41,197c-.65-2.68-1.11-5.6,0-8.13,1.23-2.86,4.32-4.89,4.68-8,.24-2-.79-4.09-.39-6.09s2-3.37,3.39-4.85a20.28,20.28,0,0,0,5.24-12.4,31.13,31.13,0,0,1,5,8.25c1.06,3.05,1.08,6.63-.73,9.31a8.45,8.45,0,0,0-1.26,2.06c-.61,2,1.08,3.82,1.95,5.7a6.55,6.55,0,0,1-.61,6.72c-1.78,2.21-5.19,3.07-6.07,5.76a13.58,13.58,0,0,0-.3,3.06,9,9,0,0,1-6.46,7.7c-2.09.51-2.05-.32-2.43-2.09C292.89,201.64,292,199.35,291.41,197Z" style="fill: none; stroke: rgb(0, 0, 0);"/>
    <path id="middleleaf" d="M284.73,177.69c-1.49-5.15-2.08-10.54-3.65-15.67a85.74,85.74,0,0,0-4.88-11.68l6.39,2.69c2.05.87,4.27,1.89,5.24,3.89,1.68,3.49-1.34,8,.43,11.41a28.22,28.22,0,0,0,2.53,3.18c1.88,2.64,1.59,6.28.56,9.35-.45,1.32-2.38,8.16-4.11,6.26-.7-.76-.76-3.59-1.05-4.63C285.74,180.88,285.2,179.3,284.73,177.69Z" style="stroke: rgb(0, 0, 0); fill: none;"/>
    <path d="M288.28,246.16C287,237.73,283,208,283,207.74l1-.13c0,.3,4,30,5.31,38.4Z" fill="#231f20"/>
    <path d="M289.67,254.12h-1c.08-10,4.24-48.2,6.64-50.82l.74.68C294.45,205.71,289.77,240.42,289.67,254.12Z" fill="#231f20"/>
    <path d="M291.84,252.21l-1,0c1-21.57-3.62-66.87-3.67-67.32l1-.11C288.22,185.2,292.8,230.57,291.84,252.21Z" fill="#231f20"/>
    <path d="M277.27,222h23.8l-1.66,27c-.29,4.68-3.76,8.31-7.94,8.31h-4.6c-4.18,0-7.64-3.63-7.93-8.31Z" style="fill: none;"/>
    <path d="M291.47,257.87h-4.6c-4.43,0-8.14-3.86-8.45-8.79l-1.66-27a.51.51,0,0,1,.51-.55h23.8a.55.55,0,0,1,.38.16.57.57,0,0,1,.14.39l-1.67,27C299.62,254,295.91,257.87,291.47,257.87Zm-13.65-35.33L279.45,249c.27,4.39,3.53,7.82,7.42,7.82h4.6c3.89,0,7.15-3.43,7.42-7.82l1.63-26.48Z" fill="#231f20"/>
    <polygon points="301.16 128.47 252.24 128.47 263.27 46.22 312.19 46.22 301.16 128.47" style="fill: none;"/>
    <path d="M301.16,129H252.24a.48.48,0,0,1-.37-.17.46.46,0,0,1-.12-.39l11-82.26a.51.51,0,0,1,.5-.43h48.92a.52.52,0,0,1,.38.17.56.56,0,0,1,.12.4l-11,82.25A.51.51,0,0,1,301.16,129Zm-48.35-1h47.91l10.9-81.25H263.71Z" fill="#231f20"/>
    <path id="menu" d="M292.89,116.26h-28.1a3.16,3.16,0,0,1-3.19-3.69l.38-2.87a4.37,4.37,0,0,1,4.19-3.69h28.09a3.15,3.15,0,0,1,3.19,3.69l-.38,2.87A4.35,4.35,0,0,1,292.89,116.26Z" style="fill: none; stroke: rgb(209, 211, 212);"/>
    <path d="M294.91,101.15H266.82a3.15,3.15,0,0,1-3.19-3.69l.38-2.87a4.35,4.35,0,0,1,4.19-3.69h28.09a3.16,3.16,0,0,1,3.19,3.69l-.38,2.87A4.37,4.37,0,0,1,294.91,101.15Z" style="stroke: rgb(186, 218, 85); fill: none;"/>
    <path d="M294.91,101.65H266.82a3.7,3.7,0,0,1-2.83-1.24,3.75,3.75,0,0,1-.86-3l.39-2.87a4.87,4.87,0,0,1,4.68-4.12h28.09a3.7,3.7,0,0,1,2.83,1.24,3.77,3.77,0,0,1,.86,3l-.39,2.87A4.87,4.87,0,0,1,294.91,101.65ZM268.2,91.4a3.84,3.84,0,0,0-3.69,3.25l-.39,2.87a2.8,2.8,0,0,0,.62,2.23,2.72,2.72,0,0,0,2.08.9h28.09a3.84,3.84,0,0,0,3.69-3.26l.39-2.87a2.77,2.77,0,0,0-.63-2.23,2.71,2.71,0,0,0-2.07-.89Z" fill="#d1d3d4"/>
    <path d="M296.94,86H268.85a3.16,3.16,0,0,1-3.2-3.69l.39-2.87a4.34,4.34,0,0,1,4.18-3.69h28.09a3.16,3.16,0,0,1,3.2,3.69l-.39,2.87A4.34,4.34,0,0,1,296.94,86Z" style="fill: none;"/>
    <path d="M296.94,86.53H268.85a3.65,3.65,0,0,1-3.69-4.26l.38-2.87a4.88,4.88,0,0,1,4.68-4.12h28.09A3.65,3.65,0,0,1,302,79.54l-.38,2.87A4.88,4.88,0,0,1,296.94,86.53ZM270.22,76.28a3.85,3.85,0,0,0-3.69,3.26l-.38,2.87a2.79,2.79,0,0,0,.62,2.22,2.72,2.72,0,0,0,2.08.9h28.09a3.85,3.85,0,0,0,3.69-3.26L301,79.4a2.65,2.65,0,0,0-2.7-3.12Z" fill="#d1d3d4"/>
    <path d="M299,70.91h-28.1a3.16,3.16,0,0,1-3.19-3.69l.38-2.87a4.36,4.36,0,0,1,4.19-3.69h28.09a3.15,3.15,0,0,1,3.19,3.69l-.38,2.87A4.35,4.35,0,0,1,299,70.91Z" style="fill: none;"/>
    <path d="M299,71.41h-28.1A3.7,3.7,0,0,1,268,70.17a3.78,3.78,0,0,1-.86-3l.39-2.87a4.87,4.87,0,0,1,4.68-4.13h28.09a3.68,3.68,0,0,1,2.83,1.24,3.75,3.75,0,0,1,.86,3l-.38,2.87A4.88,4.88,0,0,1,299,71.41ZM272.25,61.16a3.85,3.85,0,0,0-3.69,3.26l-.38,2.87a2.65,2.65,0,0,0,2.69,3.12H299a3.84,3.84,0,0,0,3.68-3.25l.39-2.87a2.8,2.8,0,0,0-.62-2.23,2.72,2.72,0,0,0-2.08-.9Z" fill="#d1d3d4"/>
    <path d="M297.83,54.43H276.29a.5.5,0,0,1-.5-.5.51.51,0,0,1,.5-.5h21.54a.5.5,0,0,1,.5.5A.5.5,0,0,1,297.83,54.43Z" fill="#d1d3d4"/>
  </g>
</svg>