<svg xmlns="http://www.w3.org/2000/svg" version="1.1" xmlns:xlink="http://www.w3.org/1999/xlink"
    xmlns:svgjs="http://svgjs.com/svgjs" width="1440" height="560" preserveAspectRatio="none" viewBox="0 0 1440 560">
    <g mask="url(&quot;#SvgjsMask1051&quot;)" fill="none">
        <rect width="1440" height="560" x="0" y="0" fill="#0e2a47"></rect>
        <path d="M1161.72 455.88 a114.16 114.16 0 1 0 228.32 0 a114.16 114.16 0 1 0 -228.32 0z"
            fill="rgba(28, 83, 142, 0.4)" class="triangle-float1"></path>
        <path d="M921.56 214.23 a171.77 171.77 0 1 0 343.54 0 a171.77 171.77 0 1 0 -343.54 0z"
            fill="rgba(28, 83, 142, 0.4)" class="triangle-float3"></path>
        <path
            d="M352.0128244487492 77.99662778155376L229.57719797081356 177.1430431976139 328.7236133868737 299.5786696755495 451.15923986480936 200.4322542594894z"
            fill="rgba(28, 83, 142, 0.4)" class="triangle-float3"></path>
        <path
            d="M1478.547332054131 300.0757884488369L1417.1605437146625 218.61276886703712 1335.6975241328628 279.99955720650553 1397.0843124723312 361.4625767883053z"
            fill="rgba(28, 83, 142, 0.4)" class="triangle-float3"></path>
        <path
            d="M901.515,256.073C927.947,257.754,955.835,246.94,968.089,223.46C979.724,201.167,966.685,176.427,954.589,154.38C941.789,131.05,928.097,103.369,901.515,102.12C873.65,100.811,850.888,123.698,839.037,148.951C828.792,170.782,836.001,195.002,848.15,215.833C860.18,236.459,877.685,254.558,901.515,256.073"
            fill="rgba(28, 83, 142, 0.4)" class="triangle-float2"></path>
        <path
            d="M673.3233247645343 300.87734074852364L606.9659671160422 350.8811963586645 715.1504293554995 425.41530502633225z"
            fill="rgba(28, 83, 142, 0.4)" class="triangle-float2"></path>
        <path
            d="M959.5339918312098 352.10608321759656L1037.1653193591621 295.703622263026 903.1315308766393 274.4747556896444z"
            fill="rgba(28, 83, 142, 0.4)" class="triangle-float3"></path>
        <path
            d="M714.279,678.398C748.379,676.336,768.421,644.634,786.349,615.555C805.696,584.174,830.972,549.082,814.27,516.216C796.686,481.615,752.977,470.752,714.279,473.737C680.512,476.342,654.998,500.615,637.858,529.824C620.448,559.492,609.61,594.703,625.344,625.293C642.271,658.202,677.339,680.632,714.279,678.398"
            fill="rgba(28, 83, 142, 0.4)" class="triangle-float3"></path>
        <path d="M434.13 163.06 a173.44 173.44 0 1 0 346.88 0 a173.44 173.44 0 1 0 -346.88 0z"
            fill="rgba(28, 83, 142, 0.4)" class="triangle-float1"></path>
        <path
            d="M1269.062046141051 215.29079054850123L1249.410347612833 55.24054983657419 1089.3601069009057 74.89224836479235 1109.011805429124 234.9424890767194z"
            fill="rgba(28, 83, 142, 0.4)" class="triangle-float1"></path>
        <path d="M511.82 28.76 a109.35 109.35 0 1 0 218.7 0 a109.35 109.35 0 1 0 -218.7 0z"
            fill="rgba(28, 83, 142, 0.4)" class="triangle-float1"></path>
        <path d="M48.14 280.12 a147.45 147.45 0 1 0 294.9 0 a147.45 147.45 0 1 0 -294.9 0z"
            fill="rgba(28, 83, 142, 0.4)" class="triangle-float1"></path>
        <path
            d="M1335.486,178.622C1370.421,180.239,1404.222,161.238,1420.651,130.365C1436.253,101.048,1426.85,66.793,1410.328,37.985C1393.702,8.995,1368.901,-17.581,1335.486,-18.129C1301.322,-18.689,1271.878,5.063,1256.266,35.457C1241.923,63.381,1247.76,95.601,1262.959,123.068C1278.762,151.626,1302.882,177.113,1335.486,178.622"
            fill="rgba(28, 83, 142, 0.4)" class="triangle-float2"></path>
        <path
            d="M1450.4705520595558 207.77530456022345L1370.3387035758258 145.16944311447114 1387.8646906138035 287.90715304395343z"
            fill="rgba(28, 83, 142, 0.4)" class="triangle-float3"></path>
        <path
            d="M630.0314926562206 549.3241733640482L691.3083124564006 499.7031830848948 586.2384171375805 432.59844852420156z"
            fill="rgba(28, 83, 142, 0.4)" class="triangle-float1"></path>
        <path
            d="M730.6760538048369 375.76440699304777L674.3442700737522 278.1948954898273 576.7747585705317 334.5266792209119 633.1065423016164 432.0961907241324z"
            fill="rgba(28, 83, 142, 0.4)" class="triangle-float2"></path>
        <path
            d="M410.66323441835686 500.8162586591123L434.67723924263584 613.7932688045759 523.6402445638204 476.8022538348333z"
            fill="rgba(28, 83, 142, 0.4)" class="triangle-float3"></path>
        <path
            d="M613.816,522.274C647.402,522.652,678.856,506.039,696.443,477.423C714.919,447.362,719.174,409.629,701.985,378.814C684.385,347.262,649.944,329.034,613.816,329.292C578.133,329.546,544.829,348.699,527.797,380.056C511.466,410.122,516.639,446.323,534.346,475.6C551.386,503.774,580.892,521.904,613.816,522.274"
            fill="rgba(28, 83, 142, 0.4)" class="triangle-float3"></path>
        <path d="M208.86 424.06 a124.9 124.9 0 1 0 249.8 0 a124.9 124.9 0 1 0 -249.8 0z" fill="rgba(28, 83, 142, 0.4)"
            class="triangle-float2"></path>
        <path d="M318.8 12.2 a115.23 115.23 0 1 0 230.46 0 a115.23 115.23 0 1 0 -230.46 0z"
            fill="rgba(28, 83, 142, 0.4)" class="triangle-float2"></path>
    </g>
    <defs>
        <mask id="SvgjsMask1051">
            <rect width="1440" height="560" fill="#ffffff"></rect>
        </mask>
        <style>
            @keyframes float1 {
                0% {
                    transform: translate(0, 0)
                }

                50% {
                    transform: translate(-10px, 0)
                }

                100% {
                    transform: translate(0, 0)
                }
            }

            .triangle-float1 {
                animation: float1 5s infinite;
            }

            @keyframes float2 {
                0% {
                    transform: translate(0, 0)
                }

                50% {
                    transform: translate(-5px, -5px)
                }

                100% {
                    transform: translate(0, 0)
                }
            }

            .triangle-float2 {
                animation: float2 4s infinite;
            }

            @keyframes float3 {
                0% {
                    transform: translate(0, 0)
                }

                50% {
                    transform: translate(0, -10px)
                }

                100% {
                    transform: translate(0, 0)
                }
            }

            .triangle-float3 {
                animation: float3 6s infinite;
            }
        </style>
    </defs>
</svg>