<svg xmlns="http://www.w3.org/2000/svg" version="1.1" xmlns:xlink="http://www.w3.org/1999/xlink" xmlns:svgjs="http://svgjs.com/svgjs" width="144000" height="56000" preserveAspectRatio="none" viewBox="0 0 144000 56000"><g mask="url(&quot;#SvgjsMask1055&quot;)" fill="none"><rect width="144000" height="56000" x="0" y="0" fill="#0e2a47"></rect><path d="M-8168.75 36435.41 a14791.95 14791.95 0 1 0 29583.9 0 a14791.95 14791.95 0 1 0 -29583.9 0z" fill="rgba(28, 83, 142, 0.4)" class="triangle-float2"></path><path d="M116435.949,26827.741C120022.363,26798.541,122444.978,23646.933,124283.908,20567.72C126189.272,17377.266,127890.595,13702.947,126271.84,10357.945C124478.195,6651.549,120552.887,4277.522,116435.949,4350.659C112429.252,4421.837,108961.655,7103.889,107187.282,10696.978C105594.413,13922.524,106574.128,17576.507,108363.477,20697.342C110164.751,23838.975,112814.682,26857.225,116435.949,26827.741" fill="rgba(28, 83, 142, 0.4)" class="triangle-float1"></path><path d="M117382.12499157221 48403.506271919L119268.22903200715 38700.342156161634 103770.43083815364 40722.76815338792z" fill="rgba(28, 83, 142, 0.4)" class="triangle-float2"></path><path d="M92072.66 46157.5 a13081.54 13081.54 0 1 0 26163.08 0 a13081.54 13081.54 0 1 0 -26163.08 0z" fill="rgba(28, 83, 142, 0.4)" class="triangle-float1"></path><path d="M86681.22937027366 60379.02243791025L92129.85471117384 43664.09711266817 77044.03309150293 46596.483782696276z" fill="rgba(28, 83, 142, 0.4)" class="triangle-float1"></path><path d="M70666.4 34501.61 a11801.53 11801.53 0 1 0 23603.06 0 a11801.53 11801.53 0 1 0 -23603.06 0z" fill="rgba(28, 83, 142, 0.4)" class="triangle-float2"></path><path d="M106179.6263515932 31458.12992618736L93105.1414680611 32372.38697189638 94019.39851377014 45446.871855428464 107093.88339730221 44532.614809719445z" fill="rgba(28, 83, 142, 0.4)" class="triangle-float2"></path><path d="M139649.95186909573 24368.9389745703L153658.9799816417 16280.822822706847 145570.86382977825 2271.794710160888 131561.8357172323 10359.910862024342z" fill="rgba(28, 83, 142, 0.4)" class="triangle-float2"></path><path d="M119871.614,41556.113C121881.83,41531.614,123230.512,39771.63,124276.934,38055.073C125386.243,36235.356,126609.813,34082.173,125557.535,32228.893C124498.185,30363.156,122016.62,30250.05,119871.614,30296.389C117834.124,30340.406,115623.637,30705.879,114595.86,32465.702C113561.741,34236.383,114247.024,36391.266,115276.301,38164.766C116300.501,39929.519,117831.34,41580.978,119871.614,41556.113" fill="rgba(28, 83, 142, 0.4)" class="triangle-float3"></path><path d="M89071.765,34916.584C92971.599,35007.223,97231.699,34206.401,99200.442,30838.765C101182.117,27449.009,99780.388,23342.251,97830.684,19934.006C95863.445,16495.108,93033.585,13127.479,89071.765,13132.99C85116.468,13138.492,82238.683,16480.39,80354.951,19958.315C78577.443,23240.119,77847.854,27161.489,79727.01,30386.167C81595.068,33591.8,85362.548,34830.375,89071.765,34916.584" fill="rgba(28, 83, 142, 0.4)" class="triangle-float1"></path><path d="M38828.625357624456 17662.422755438958L34206.05812226107 25668.944068491546 42212.57943531366 30291.51130385493 46835.146670677044 22284.989990802344z" fill="rgba(28, 83, 142, 0.4)" class="triangle-float1"></path><path d="M92843.91 14992.63 a17336.86 17336.86 0 1 0 34673.72 0 a17336.86 17336.86 0 1 0 -34673.72 0z" fill="rgba(28, 83, 142, 0.4)" class="triangle-float1"></path><path d="M53254.06643111739 54258.49926240318L61016.14303832227 46235.94838151317 51590.48201307406 43710.35012166841z" fill="rgba(28, 83, 142, 0.4)" class="triangle-float1"></path><path d="M58035.03 52916.3 a16999.88 16999.88 0 1 0 33999.76 0 a16999.88 16999.88 0 1 0 -33999.76 0z" fill="rgba(28, 83, 142, 0.4)" class="triangle-float1"></path><path d="M69570.44 47194.5 a18432.12 18432.12 0 1 0 36864.24 0 a18432.12 18432.12 0 1 0 -36864.24 0z" fill="rgba(28, 83, 142, 0.4)" class="triangle-float3"></path><path d="M118234.39814171878 23492.37309210657L128198.98439976481 17968.912735289778 122675.52404294802 8004.32647724374 112710.93778490198 13527.786834060531z" fill="rgba(28, 83, 142, 0.4)" class="triangle-float1"></path><path d="M72636.71466912056 11841.86781116845L55433.41374141353 13633.433026793466 64105.7281207762 26018.781521521225z" fill="rgba(28, 83, 142, 0.4)" class="triangle-float2"></path><path d="M104446.794,56304.452C108120,56303.752,111559.417,54545.302,113496.151,51424.164C115547.473,48118.362,116192.068,43910.609,114217.6,40558.338C112267.286,37247.076,108284.827,35865.95,104446.794,36060.077C100943.104,36237.293,98031.062,38444.665,96250.07,41467.134C94436.809,44544.367,93664.326,48301.23,95391.464,51427.613C97168.296,54643.949,100772.294,56305.152,104446.794,56304.452" fill="rgba(28, 83, 142, 0.4)" class="triangle-float2"></path><path d="M104598.581,54770.331C106460.106,54736.281,108158.204,53770.348,109117.516,52174.681C110108.414,50526.477,110317.066,48484.249,109391.109,46798.705C108431.959,45052.739,106588.13,43848.434,104598.581,43948.739C102743.308,44042.274,101499.864,45631.632,100575.829,47243.136C99658.23,48843.415,98914.46,50718.481,99783.937,52345.408C100691.719,54044.009,102672.945,54805.554,104598.581,54770.331" fill="rgba(28, 83, 142, 0.4)" class="triangle-float2"></path><path d="M5775.736026336932 11860.628715957038L10438.851213283659 20273.11120154037 18851.33369886699 15609.996014593646 14188.218511920266 7197.513529010311z" fill="rgba(28, 83, 142, 0.4)" class="triangle-float3"></path></g><defs><mask id="SvgjsMask1055"><rect width="144000" height="56000" fill="#ffffff"></rect></mask><style>
            @keyframes float1 {
                0%{transform: translate(0, 0)}
                50%{transform: translate(-10px, 0)}
                100%{transform: translate(0, 0)}
            }

            .triangle-float1 {
                animation: float1 5s infinite;
            }

            @keyframes float2 {
                0%{transform: translate(0, 0)}
                50%{transform: translate(-5px, -5px)}
                100%{transform: translate(0, 0)}
            }

            .triangle-float2 {
                animation: float2 4s infinite;
            }

            @keyframes float3 {
                0%{transform: translate(0, 0)}
                50%{transform: translate(0, -10px)}
                100%{transform: translate(0, 0)}
            }

            .triangle-float3 {
                animation: float3 6s infinite;
            }
        </style></defs></svg>