<?xml version="1.0" encoding="utf-8"?>
<!-- Uploaded to: SVG Repo, www.svgrepo.com, Generator: SVG Repo Mixer Tools -->
<svg fill="#000000" width="800px" height="800px" viewBox="0 0 32 32" version="1.1" xmlns="http://www.w3.org/2000/svg">
    <title>phone-missed</title>
    <path id="handset"
        d="M29.223 21.059c-3.386-3.378-8.060-5.466-13.221-5.466s-9.837 2.089-13.224 5.468l0-0c-0.942 0.953-1.523 2.264-1.523 3.71s0.582 2.757 1.524 3.711l-0.001-0.001c0.203 0.21 0.427 0.396 0.67 0.557l0.015 0.009c0.408 0.299 0.885 0.532 1.401 0.673l0.030 0.007c0.055 0.014 0.117 0.022 0.182 0.022 0.166 0 0.319-0.053 0.444-0.143l-0.002 0.002 5.896-4.281c0.188-0.138 0.309-0.359 0.31-0.607v-0c-0.002-0.799-0.188-1.554-0.517-2.225l0.013 0.030c1.412-0.6 3.055-0.949 4.779-0.949s3.367 0.349 4.861 0.98l-0.082-0.031c-0.317 0.642-0.503 1.397-0.504 2.195v0c0 0.248 0.121 0.469 0.307 0.606l0.002 0.001 5.896 4.281c0.122 0.089 0.276 0.142 0.441 0.143h0c0.065-0 0.129-0.009 0.189-0.025l-0.005 0.001c0.53-0.141 0.994-0.366 1.403-0.663l-0.012 0.008c0.274-0.176 0.512-0.371 0.726-0.591l0.001-0.001 0.002-0.004c0.94-0.953 1.521-2.263 1.521-3.708s-0.582-2.757-1.524-3.711l0.001 0.001zM28.16 27.42c-0.146 0.151-0.308 0.284-0.483 0.398l-0.011 0.006c-0.177 0.128-0.379 0.243-0.593 0.336l-0.021 0.008-5.258-3.816c0.075-0.66 0.313-1.253 0.674-1.753l-0.008 0.011c0.085-0.12 0.135-0.269 0.135-0.429 0-0.295-0.17-0.55-0.418-0.672l-0.004-0.002c-1.802-0.904-3.926-1.433-6.174-1.433s-4.372 0.529-6.255 1.469l0.081-0.037c-0.252 0.124-0.422 0.379-0.422 0.674 0 0.161 0.051 0.31 0.137 0.432l-0.002-0.002c0.351 0.489 0.589 1.082 0.663 1.725l0.002 0.017-5.257 3.816c-0.25-0.108-0.466-0.233-0.665-0.378l0.010 0.007c-0.169-0.112-0.317-0.235-0.45-0.372l-0.001-0.001c-0.674-0.682-1.090-1.619-1.090-2.653 0-1.032 0.414-1.968 1.086-2.65l-0 0c3.114-3.108 7.413-5.030 12.161-5.030s9.047 1.922 12.161 5.031l-0-0c0.672 0.681 1.088 1.617 1.088 2.649s-0.415 1.969-1.088 2.65l0-0zM4.333 11.917c0.414-0 0.75-0.336 0.75-0.75v0-7.326c3.387 3.429 9.086 8.909 10.917 8.909 2.092 0 9.232-7.153 12.205-10.229 0.131-0.135 0.211-0.319 0.211-0.521 0-0.414-0.336-0.75-0.75-0.75-0.211 0-0.403 0.088-0.539 0.228l-0 0c-4.473 4.627-10 9.678-11.12 9.771-1.030-0.085-5.689-4.265-9.888-8.5h7.381c0.414 0 0.75-0.336 0.75-0.75s-0.336-0.75-0.75-0.75v0h-9.167c-0.199 0.001-0.379 0.080-0.512 0.207l0-0-0.010 0.004-0.002 0.004c-0.133 0.131-0.217 0.311-0.222 0.511l-0 0.001-0.003 0.015-0.002 0.008v9.167c0 0.414 0.336 0.75 0.75 0.75v0z">
    </path>
</svg>