<svg xmlns="http://www.w3.org/2000/svg" viewBox="112.5 84.375 175 131.25" data-imageid="video-call-3"
    imageName="Calling" class="illustrations_image" style="width: 219px;">
    <g id="_66_calling_outline" data-name="#66_calling_outline">
        <path
            d="M162.5,159.91a17.91,17.91,0,0,0,.35-3.53c0-11.39-10.8-20.62-24.12-20.62S114.6,145,114.6,156.38,125.4,177,138.73,177c9.35,0,17.45-4.55,21.46-11.2,9.51,2.66,12.71-5.71,12.71-5.71C169.1,162.73,165.25,161.56,162.5,159.91Z"
            fill="#ffbc0e" />
        <path
            d="M138.73,178c-13.86,0-25.13-9.7-25.13-21.63s11.27-21.62,25.13-21.62,25.12,9.7,25.12,21.62a19.18,19.18,0,0,1-.24,3c3.2,1.72,6.13,1.68,8.72-.11a1,1,0,0,1,1.19,0,1,1,0,0,1,.32,1.15c0,.08-3.49,8.75-13.19,6.5C156.2,173.79,147.87,178,138.73,178Zm0-41.25c-12.75,0-23.13,8.8-23.13,19.62S126,176,138.73,176c8.73,0,16.62-4.11,20.6-10.72a1,1,0,0,1,1.13-.45c5.09,1.43,8.16-.56,9.84-2.46a10.83,10.83,0,0,1-8.32-1.61,1,1,0,0,1-.46-1.06,17.17,17.17,0,0,0,.33-3.33C161.85,145.56,151.48,136.76,138.73,136.76Z"
            fill="#dfeaef" />
        <path
            d="M260.14,165.46s-2.67-6.58-3.7-8.22-6.17-5.14-5.76-7.82,8.43-20.32,15-17.66,3.29,14.32,3.08,16.71,4.32,14.32,4.32,14.32Z"
            fill="#ffc9b0" />
        <path
            d="M260.14,166.46a1,1,0,0,1-.92-.62c-.74-1.81-2.82-6.78-3.63-8.07a14,14,0,0,0-1.75-1.85c-2-1.92-4.5-4.31-4.14-6.65s5.77-14.59,11.59-17.91a5.35,5.35,0,0,1,4.78-.53c6.35,2.56,4.67,12.12,3.95,16.19-.12.66-.22,1.23-.24,1.54-.14,1.58,2.53,9.35,4.25,13.88a.93.93,0,0,1-.06.83,1,1,0,0,1-.67.5l-12.95,2.67A.75.75,0,0,1,260.14,166.46Zm4.16-34a4.18,4.18,0,0,0-2,.62c-5.18,3-10.32,14.58-10.61,16.48-.2,1.31,2.06,3.47,3.55,4.9a14,14,0,0,1,2.07,2.23,79.93,79.93,0,0,1,3.46,7.61l11-2.27c-1.24-3.34-4.15-11.48-4-13.66,0-.4.14-1,.27-1.71.69-3.91,2.12-12-2.73-14A2.76,2.76,0,0,0,264.3,132.48Z"
            fill="#093f68" />
        <path
            d="M272.72,154.19l-16.15,10c6.77,11,8.91,16.91,9.58,19.79-6.41-.66-26.64-9.55-35.72-15-8.43-5-42.16-3.06-52.89.66-9.87,3.41-30.67,13.45-33.59,42-1.28,12.43,3.78,23.82,12.59,28.35a18.47,18.47,0,0,0,8.38,2c4.25,0,9.55-1.46,15.23-6.47.13-.11.24-.23.36-.35h51l.48-45.5c3.78,2,5.81,4.6,10.78,6.72,7.87,3.35,16.86,6.58,24.73,6.58,5.16,0,9.84-1.39,13.41-5C291.16,187.51,281.92,169.08,272.72,154.19ZM168.25,222c-2,1.78-3.21,2-3.42,2-1-.26-3.62-4.3-3-10.54,1-9.58,8-16.82,14.32-21.47v28A9,9,0,0,0,168.25,222Z"
            fill="#68e1fd" class="target-color" />
        <path
            d="M164.92,243a19.39,19.39,0,0,1-8.84-2.12c-9.17-4.72-14.44-16.51-13.13-29.34,2.86-28,22.69-38.86,34.26-42.87,10.32-3.57,44.62-6,53.73-.57,8.68,5.2,26.45,13,33.83,14.6-.94-3-3.27-8.66-9-18a1,1,0,0,1,.32-1.37l16.16-10a1,1,0,0,1,1.37.32c9.39,15.2,18.79,34.05,8,45-3.46,3.54-8.21,5.33-14.12,5.33-8.43,0-17.85-3.56-25.12-6.66a31.21,31.21,0,0,1-6.78-4.08c-.87-.64-1.71-1.26-2.63-1.84l-.46,43.79a1,1,0,0,1-1,1H180.92l-.11.1C175.75,240.76,170.4,243,164.92,243ZM209.53,167c-1.5,0-3.05,0-4.65.07-11,.34-21.83,1.77-27,3.56-11.11,3.85-30.17,14.32-32.92,41.18-1.23,12,3.61,23,12.05,27.36a17.41,17.41,0,0,0,7.93,1.9c5,0,9.88-2.09,14.57-6.22l.2-.2.12-.11a1,1,0,0,1,.7-.29h50l.47-44.51a1,1,0,0,1,1.46-.87,31.6,31.6,0,0,1,4.34,2.83,29.56,29.56,0,0,0,6.37,3.85c7.1,3,16.27,6.5,24.34,6.5,5.43,0,9.58-1.55,12.7-4.73,9.59-9.77,1-27.28-7.79-41.7l-14.45,8.92c6.29,10.3,8.47,16.14,9.18,19.25a1,1,0,0,1-.22.88,1,1,0,0,1-.85.34c-6.79-.71-27.49-10-36.14-15.12C226.82,168,219.36,167,209.53,167ZM164.85,225l-.22,0c-1.68-.44-4.46-4.92-3.77-11.62,1-10.12,8.57-17.65,14.71-22.18a1,1,0,0,1,1.6.81v28a1,1,0,0,1-1.22,1,8,8,0,0,0-7,1.79h0C167,224.46,165.6,225,164.85,225Zm10.32-31c-5.46,4.36-11.45,11-12.32,19.55-.55,5.4,1.46,8.74,2.17,9.4a8.17,8.17,0,0,0,2.57-1.7,10,10,0,0,1,7.58-2.44Zm-6.92,28h0Z"
            fill="#093f68" />
        <polygon points="218.98 166.91 208.81 222.72 195.57 168.57 218.98 166.91" fill="#fff" />
        <path
            d="M208.81,223.72a1,1,0,0,1-1-.76L194.6,168.81a1,1,0,0,1,.16-.82,1,1,0,0,1,.74-.41l23.41-1.67a1,1,0,0,1,.82.33,1,1,0,0,1,.24.85L209.8,222.9a1,1,0,0,1-1,.82Zm-12-54.23,11.85,48.44,9.1-49.93Z"
            fill="#093f68" />
        <path
            d="M202.21,161.53h11.53a0,0,0,0,1,0,0v6.63a4.89,4.89,0,0,1-4.89,4.89h-1.74a4.89,4.89,0,0,1-4.89-4.89v-6.63A0,0,0,0,1,202.21,161.53Z"
            fill="#ffc9b0" />
        <path
            d="M208.85,174.05h-1.74a5.9,5.9,0,0,1-5.9-5.89v-6.63a1,1,0,0,1,1-1h11.53a1,1,0,0,1,1,1v6.63A5.9,5.9,0,0,1,208.85,174.05Zm-5.64-11.52v5.63a3.9,3.9,0,0,0,3.9,3.89h1.74a3.89,3.89,0,0,0,3.89-3.89v-5.63Z"
            fill="#093f68" />
        <path
            d="M168.18,129.55a19.93,19.93,0,0,1-7.08-4.4c-3.71-3.68-5.88-8.6-8-13.39A12.29,12.29,0,0,0,164,108.93a27.1,27.1,0,0,1-18.63-4.56c5.42-.5,9.2-5.65,11.21-10.71s3.1-10.67,6.58-14.85c4.54-5.48,9.95-5.56,16.32-5-.23-10.5,6.06-20.34,17.22-20.93,17.87-1,28.14,18.23,38.14,16.8s12.67-5.87,12.67-5.87A18.34,18.34,0,0,1,245.39,84s7.87-2.3,8.82,8.18-5.31,38.33-5.31,38.33l-7.15-1.25c-3-.53-6.75.21-9.77.3l-22.34.7C198.46,130.62,180.34,134.15,168.18,129.55Z"
            fill="#725858" />
        <path
            d="M184.29,132.89c-5.86,0-11.63-.57-16.46-2.4a21.25,21.25,0,0,1-7.44-4.63c-3.89-3.87-6.16-9.09-8.16-13.7a1,1,0,0,1,.14-1,1,1,0,0,1,1-.33,11.27,11.27,0,0,0,7-.66,28.18,28.18,0,0,1-15.52-4.94,1,1,0,0,1,.48-1.82c6-.54,9.24-7.23,10.37-10.08.54-1.38,1-2.83,1.51-4.24,1.27-3.79,2.59-7.71,5.23-10.88,4.61-5.56,10-5.9,16.09-5.47.21-10.07,6.37-20.22,18.17-20.85C207,51.3,215,57.35,221.45,62.22c5,3.76,9.27,7,13.27,6.44,9.31-1.33,11.93-5.36,11.95-5.4a1,1,0,0,1,.87-.47,1,1,0,0,1,.85.49c.06.1,5.51,9.7-.89,19.52A7.35,7.35,0,0,1,251.37,84c2.19,1.5,3.48,4.21,3.84,8.07,1,10.52-5.08,37.49-5.34,38.64a1,1,0,0,1-1.15.76l-7.14-1.25a25.4,25.4,0,0,0-6.38.09c-1.12.1-2.18.2-3.19.23l-22.34.7c-2.79.09-6.06.38-9.52.69C195.22,132.4,189.71,132.89,184.29,132.89ZM154.79,113c1.76,4,3.83,8.26,7,11.41a19,19,0,0,0,6.74,4.17h0c8.87,3.37,21.38,2.25,31.43,1.36,3.49-.32,6.79-.61,9.64-.7l22.34-.7c1,0,2-.12,3.07-.22a27.09,27.09,0,0,1,6.9-.07h0l6.2,1.08c1.07-4.92,5.92-27.95,5.09-37.09-.29-3.23-1.29-5.45-3-6.6a5.9,5.9,0,0,0-4.57-.71,1,1,0,0,1-1.12-.41,1,1,0,0,1,.06-1.18,17.3,17.3,0,0,0,2.67-17.78c-1.62,1.54-5.21,4-12.27,5-4.83.69-9.43-2.79-14.77-6.83-6.49-4.91-13.83-10.47-23.47-10-11,.58-16.48,10.45-16.27,19.9a1,1,0,0,1-1.09,1c-6.14-.5-11.18-.48-15.47,4.67-2.39,2.89-3.6,6.46-4.87,10.25-.48,1.43-1,2.91-1.54,4.34-1.11,2.79-4.08,8.87-9.53,10.79a26.09,26.09,0,0,0,15.89,3.11,1,1,0,0,1,1,.57,1,1,0,0,1-.23,1.16A13.25,13.25,0,0,1,154.79,113Z"
            fill="#093f68" />
        <rect x="234.08" y="100.3" width="26.01" height="50.11" rx="5.16"
            transform="translate(-26.71 82.92) rotate(-18.09)" fill="#fff" />
        <path
            d="M245.82,152.86a6.18,6.18,0,0,1-5.87-4.25L227.6,110.79a6.16,6.16,0,0,1,3.94-7.77l14.92-4.87a6.17,6.17,0,0,1,7.77,3.95l12.35,37.81a6.16,6.16,0,0,1-3.94,7.78l-14.91,4.87A6.39,6.39,0,0,1,245.82,152.86Zm2.55-53a4.09,4.09,0,0,0-1.29.2l-14.91,4.87a4.17,4.17,0,0,0-2.67,5.25L241.85,148a4.18,4.18,0,0,0,5.25,2.67L262,145.79h0a4.21,4.21,0,0,0,2.42-2.08,4.13,4.13,0,0,0,.24-3.18l-12.35-37.81A4.17,4.17,0,0,0,248.37,99.85Z"
            fill="#093f68" />
        <rect x="236.66" y="105.38" width="19.17" height="36.93" rx="1.81"
            transform="translate(-26.28 82.58) rotate(-18.09)" fill="#dfeaef" />
        <ellipse cx="175.04" cy="131.59" rx="11.2" ry="9.65" fill="#ffc9b0" />
        <path
            d="M175,142.24c-6.73,0-12.2-4.78-12.2-10.65s5.47-10.65,12.2-10.65,12.19,4.78,12.19,10.65S181.76,142.24,175,142.24Zm0-19.3c-5.63,0-10.2,3.88-10.2,8.65s4.57,8.65,10.2,8.65,10.19-3.88,10.19-8.65S180.66,122.94,175,122.94Z"
            fill="#093f68" />
        <ellipse cx="240.32" cy="131.59" rx="11.2" ry="9.65" fill="#ffc9b0" />
        <path
            d="M240.32,142.24c-6.73,0-12.2-4.78-12.2-10.65s5.47-10.65,12.2-10.65,12.2,4.78,12.2,10.65S247,142.24,240.32,142.24Zm0-19.3c-5.63,0-10.2,3.88-10.2,8.65s4.57,8.65,10.2,8.65,10.2-3.88,10.2-8.65S245.94,122.94,240.32,122.94Z"
            fill="#093f68" />
        <path
            d="M208,163h0a33.77,33.77,0,0,1-33.78-33.77V104.75c2,3.24,8.53,2,18.14-14.53,36,18.22,49.41,7.78,49.41,7.78v31.27A33.77,33.77,0,0,1,208,163Z"
            fill="#ffc9b0" />
        <path
            d="M208,164a34.81,34.81,0,0,1-34.78-34.77V104.75a1,1,0,0,1,1.86-.52,1.89,1.89,0,0,0,1.73.94h0c1.33,0,6.32-1.16,14.66-15.46a1,1,0,0,1,1.31-.38c34.82,17.64,48.22,8,48.35,7.87a1,1,0,0,1,1.05-.1,1,1,0,0,1,.56.9v31.27A34.81,34.81,0,0,1,208,164ZM175.2,106.88v22.39A32.81,32.81,0,0,0,208,162h0a32.81,32.81,0,0,0,32.77-32.77V99.73c-4.53,2.2-18.9,6.34-48-8.2-6,10.06-11.61,15.6-15.89,15.64A4.2,4.2,0,0,1,175.2,106.88Z"
            fill="#093f68" />
        <circle cx="195.47" cy="124.35" r="3.13" fill="#093f68" />
        <circle cx="224.59" cy="124.35" r="3.13" fill="#093f68" />
        <path
            d="M210.71,138.28a19.21,19.21,0,0,1-3.06-.25,1,1,0,0,1-.81-1.16,1,1,0,0,1,1.16-.81,14.39,14.39,0,0,0,4.61.05c.18-.91-1-4.24-2.63-7.36a1,1,0,1,1,1.77-.92c1.1,2.1,3.55,7.21,2.65,9.21a1.69,1.69,0,0,1-1.15,1A10.74,10.74,0,0,1,210.71,138.28Z"
            fill="#093f68" />
        <path d="M202.88,115.87l-.23,0-14.82-1.67a2,2,0,0,1,.45-4l14.82,1.67a2,2,0,0,1-.22,4Z" fill="#093f68" />
        <path d="M218.18,116.88a2,2,0,0,1-.27-4l14.77-2a2,2,0,1,1,.55,4l-14.77,2A1.37,1.37,0,0,1,218.18,116.88Z"
            fill="#093f68" />
        <path
            d="M204.6,133.2h-15a4.35,4.35,0,0,1-4.34-4.34v-9.31a1,1,0,0,1,1-1h21.71a1,1,0,0,1,1,1v9.31A4.35,4.35,0,0,1,204.6,133.2Zm-17.37-12.65v8.31a2.34,2.34,0,0,0,2.34,2.34h15a2.34,2.34,0,0,0,2.34-2.34v-8.31Z"
            fill="#093f68" />
        <path
            d="M231.55,133.2h-15a4.35,4.35,0,0,1-4.34-4.34v-9.31a1,1,0,0,1,1-1h21.7a1,1,0,0,1,1,1v9.31A4.34,4.34,0,0,1,231.55,133.2Zm-17.36-12.65v8.31a2.34,2.34,0,0,0,2.34,2.34h15a2.34,2.34,0,0,0,2.34-2.34v-8.31Z"
            fill="#093f68" />
        <path d="M186.23,124.12h-14.7a1,1,0,1,1,0-2h14.7a1,1,0,1,1,0,2Z" fill="#093f68" />
        <path d="M240.32,124.12H235a1,1,0,0,1,0-2h5.36a1,1,0,0,1,0,2Z" fill="#093f68" />
        <path
            d="M204.87,144.57a14.62,14.62,0,0,0-.09,1.64c0,4.41,2,8,4.48,8s4.48-3.57,4.48-8a14.59,14.59,0,0,0-.1-1.64Z"
            fill="#fff" />
        <path
            d="M209.26,155.19c-3.07,0-5.48-3.94-5.48-9a14.84,14.84,0,0,1,.1-1.76,1,1,0,0,1,1-.88h8.77a1,1,0,0,1,1,.88,17.3,17.3,0,0,1,.1,1.76C214.74,151.25,212.33,155.19,209.26,155.19Zm-3.47-9.62c0,.21,0,.43,0,.64,0,4.11,1.83,7,3.48,7s3.48-2.87,3.48-7c0-.21,0-.43,0-.64Z"
            fill="#093f68" />
        <rect x="204.54" y="175.18" width="8.54" height="6.72" rx="2.48" fill="#f56132" />
        <path
            d="M210.6,182.9H207a3.49,3.49,0,0,1-3.48-3.48v-1.76a3.49,3.49,0,0,1,3.48-3.49h3.58a3.49,3.49,0,0,1,3.48,3.49v1.76A3.49,3.49,0,0,1,210.6,182.9ZM207,176.17a1.49,1.49,0,0,0-1.48,1.49v1.76A1.49,1.49,0,0,0,207,180.9h3.58a1.48,1.48,0,0,0,1.48-1.48v-1.76a1.49,1.49,0,0,0-1.48-1.49Z"
            fill="#093f68" />
        <polygon points="212.61 201.91 208.81 222.72 204.22 203.94 206.36 181.9 211.25 181.9 212.61 201.91"
            fill="#f56132" />
        <path
            d="M208.81,223.72a1,1,0,0,1-1-.76l-4.59-18.79a.91.91,0,0,1,0-.33l2.15-22a1,1,0,0,1,1-.9h4.89a1,1,0,0,1,1,.93l1.35,20a1,1,0,0,1,0,.25L209.8,222.9a1,1,0,0,1-1,.82Zm-3.58-19.85,3.44,14.06,2.93-16.07-1.28-19h-3Z"
            fill="#093f68" />
        <path d="M176.16,192.35a1,1,0,0,1-1-1v-9.57a1,1,0,0,1,2,0v9.57A1,1,0,0,1,176.16,192.35Z" fill="#093f68" />
        <path
            d="M187.12,210.41h31.06a0,0,0,0,1,0,0v27.1a9.68,9.68,0,0,1-9.68,9.68H196.8a9.68,9.68,0,0,1-9.68-9.68v-27.1A0,0,0,0,1,187.12,210.41Z"
            fill="#ffbc0e" />
        <path
            d="M208.5,248.19H196.8a10.7,10.7,0,0,1-10.68-10.69V210.41a1,1,0,0,1,1-1h31.06a1,1,0,0,1,1,1V237.5A10.7,10.7,0,0,1,208.5,248.19Zm-20.38-36.78V237.5a8.7,8.7,0,0,0,8.68,8.69h11.7a8.69,8.69,0,0,0,8.68-8.69V211.41Z"
            fill="#093f68" />
        <path
            d="M218.19,210.4c0,1.1-.9,2.13-2.45,3-2.76,1.54-7.59,2.56-13.09,2.56s-10.32-1-13.08-2.56c-1.55-.87-2.45-1.9-2.45-3,0-3.07,7-5.56,15.53-5.56S218.19,207.33,218.19,210.4Z"
            fill="#ffbc0e" />
        <path
            d="M202.65,217c-5.48,0-10.55-1-13.57-2.68-2.45-1.38-3-2.87-3-3.88,0-4.26,8.51-6.56,16.53-6.56s16.54,2.3,16.54,6.56c0,1-.52,2.5-3,3.88C213.21,216,208.13,217,202.65,217Zm0-11.12c-9,0-14.53,2.66-14.53,4.56,0,.66.71,1.44,1.94,2.13,2.68,1.5,7.51,2.43,12.59,2.43s9.87-.91,12.6-2.43c1.23-.69,1.94-1.47,1.94-2.13C217.19,208.5,211.66,205.84,202.65,205.84Z"
            fill="#093f68" />
        <path
            d="M215.74,213.4c-2.76,1.54-7.59,2.56-13.09,2.56s-10.32-1-13.08-2.56c2.76-1.55,7.59-2.57,13.08-2.57S213,211.85,215.74,213.4Z"
            fill="#725858" />
        <path
            d="M202.65,217c-5.48,0-10.55-1-13.57-2.68a1,1,0,0,1,0-1.75c3-1.69,8.08-2.7,13.57-2.7s10.57,1,13.58,2.7a1,1,0,0,1,0,1.75C213.21,216,208.13,217,202.65,217ZM192,213.4A33.45,33.45,0,0,0,202.65,215a33,33,0,0,0,10.65-1.56,36.84,36.84,0,0,0-21.28,0Z"
            fill="#093f68" />
        <path
            d="M191.17,239.2a11.91,11.91,0,0,1-11-6.28c-2.47-4.55-2.45-11,.06-14.8a5.63,5.63,0,0,1,4.17-2.7c3.79-.36,7.53,3.33,7.69,3.49a1,1,0,1,1-1.41,1.41s-3.24-3.2-6.09-2.91a3.68,3.68,0,0,0-2.7,1.82c-1.82,2.73-2.33,8.38,0,12.73,1.33,2.44,4,5.3,9.44,5.24h0a1,1,0,0,1,0,2Z"
            fill="#093f68" />
        <rect x="167.67" y="218.8" width="14.93" height="16.99" rx="4.54" fill="#ffc9b0" />
        <path
            d="M178.06,236.79h-5.85a5.55,5.55,0,0,1-5.54-5.54v-7.9a5.55,5.55,0,0,1,5.54-5.55h5.85a5.55,5.55,0,0,1,5.54,5.55v7.9A5.55,5.55,0,0,1,178.06,236.79Zm-5.85-17a3.55,3.55,0,0,0-3.54,3.55v7.9a3.55,3.55,0,0,0,3.54,3.54h5.85a3.55,3.55,0,0,0,3.54-3.54v-7.9a3.55,3.55,0,0,0-3.54-3.55Z"
            fill="#093f68" />
        <rect x="182.86" y="219.97" width="4" height="10" rx="2" fill="#ffc9b0" />
        <path
            d="M184.86,231a3,3,0,0,1-3-3v-6a3,3,0,0,1,6,0v6A3,3,0,0,1,184.86,231Zm0-10a1,1,0,0,0-1,1v6a1,1,0,1,0,2,0v-6A1,1,0,0,0,184.86,221Z"
            fill="#093f68" />
        <path d="M182.6,224.35h-7a1,1,0,0,1,0-2h7a1,1,0,0,1,0,2Z" fill="#093f68" />
        <path d="M182.6,228.39h-7a1,1,0,0,1,0-2h7a1,1,0,1,1,0,2Z" fill="#093f68" />
        <path d="M182.6,232.44h-7a1,1,0,0,1,0-2h7a1,1,0,0,1,0,2Z" fill="#093f68" />
        <path
            d="M145.26,167.92a11.08,11.08,0,0,1-4.54-1.16c-5.78-2.92-10.31-7-12.52-13.31a8.11,8.11,0,0,1-.61-4.61,6.42,6.42,0,0,1,3.92-4.35c.82-.38,1.14-.21,1.61.55.86,1.41,1.73,2.82,2.58,4.24.44.72.42,1-.18,1.62s-1.22,1-1.82,1.59c-.82.72-.93,1-.43,2a12.08,12.08,0,0,0,1.63,2.44,30.57,30.57,0,0,0,6.19,5.2c.87.56,1.17.51,1.84-.28.48-.57.91-1.17,1.4-1.73.64-.73,1-.78,1.81-.3,1.45.84,2.88,1.72,4.35,2.54a.91.91,0,0,1,.48,1.19,5.9,5.9,0,0,1-4.62,4.24C146,167.86,145.53,167.88,145.26,167.92Z"
            fill="#dfeaef" />
    </g>
</svg>