<svg xmlns="http://www.w3.org/2000/svg" width="800" height="310" viewBox="0 0 800 310">
	<g id="Laptop">
		<path transform="matrix(0.6,0,0,0.6,184.3,63.1)" style="fill: #38454f"
			d="M 646.4 288.8 v 17.7 h 141.2 V 288.8 H 937.7 V 6.3 c 0 -9.8 -7.9 -17.7 -17.7 -17.7 H 514 c -9.8 0 -17.7 7.9 -17.7 17.7 V 288.8 H 646.4 z" />
		<polygon transform="matrix(0.6,0,0,0.6,184.3,60.4)" style="fill: #546a79"
			points="514,275.3 920.1,275.3 920.1,10.5 514,10.5" />
		<g transform="matrix(0.6,0,0,0.6,146.4,60.4)">
			<path style="fill: #ea6148"
				d="M 598.8 222.3 c -4.9 0 -8.8 -4 -8.8 -8.8 V 72.3 c 0 -4.9 4 -8.8 8.8 -8.8 c 4.9 0 8.8 4 8.8 8.8 v 141.2 C 607.6 218.4 603.6 222.3 598.8 222.3" />
			<path style="fill: #ea6148"
				d="M 669.4 98.7 h -35.3 c -4.9 0 -8.8 -4 -8.8 -8.8 s 4 -8.8 8.8 -8.8 h 35.3 c 4.9 0 8.8 4 8.8 8.8 S 674.3 98.7 669.4 98.7" />
			<path style="fill: #ea6148"
				d="M 651.7 134.1 h -17.7 c -4.9 0 -8.8 -4 -8.8 -8.8 c 0 -4.9 4 -8.8 8.8 -8.8 h 17.7 c 4.9 0 8.8 4 8.8 8.8 C 660.6 130.1 656.6 134.1 651.7 134.1" />
			<path style="fill: #ea6148"
				d="M 669.4 169.4 h -35.3 c -4.9 0 -8.8 -4 -8.8 -8.8 s 4 -8.8 8.8 -8.8 h 35.3 c 4.9 0 8.8 4 8.8 8.8 S 674.3 169.4 669.4 169.4" />
			<path style="fill: #ea6148"
				d="M 651.7 204.7 h -17.7 c -4.9 0 -8.8 -4 -8.8 -8.8 s 4 -8.8 8.8 -8.8 h 17.7 c 4.9 0 8.8 4 8.8 8.8 S 656.6 204.7 651.7 204.7" />
		</g>
		<path transform="matrix(0.6,0,0,0.6,184.3,111)" style="fill: #b0b6bb"
			d="M 787.7 211.3 v 17.7 H 646.4 V 211.3 H 461 v 26.5 c 0 9.8 7.9 17.7 17.7 17.7 h 476.7 c 9.8 0 17.7 -7.9 17.7 -17.7 V 211.3 H 787.7 z" />
	</g>
	<g id="Glasses">
		<path transform="matrix(1.4,0,0,1.5,-188.7,-114.4)"
			d="M 513.1 218.3 c -0.5 0 -1 0.4 -1.1 0.9 c 0 0.6 0.4 1 0.9 1.1 c 2.7 0.2 4 1.6 4.4 4.5 c 0.1 0.5 0.5 0.9 1 0.9 c 0 0 0.1 0 0.1 0 c 0.5 -0.1 0.9 -0.6 0.9 -1.1 C 518.8 220.6 516.7 218.6 513.1 218.3 z" />
		<path transform="matrix(1.4,0,0,1.5,-176.2,-114.3)"
			d="M 473.2 218.2 C 472.6 218.1 472.1 218.5 472.1 219.1 c 0 0.6 0.4 1 0.9 1.1 c 2.7 0.2 4 1.6 4.4 4.5 c 0.1 0.5 0.5 0.9 1 0.9 c 0 0 0.1 0 0.1 0 c 0.5 -0.1 0.9 -0.6 0.9 -1.1 C 478.9 220.5 476.8 218.5 473.2 218.2 z" />
		<path transform="matrix(1.4,0,0,1.5,-181.4,-115.5)"
			d="M 523.3 221.6 h -5 c -1.3 -4.7 -5.6 -8.1 -10.7 -8.1 c -4.3 0 -8.1 2.5 -9.9 6.1 c -0.9 -1.8 -2.6 -3.6 -5.4 -3.6 c -2.9 0 -4.5 1.8 -5.4 3.6 c -1.8 -3.6 -5.6 -6.1 -9.9 -6.1 c -5.1 0 -9.4 3.4 -10.7 8.1 H 461.3 c -0.6 0 -1 0.4 -1 1 s 0.4 1 1 1 h 4.5 c 0 0.4 -0.1 0.7 -0.1 1.1 c 0 6.2 5 11.2 11.2 11.2 c 6.2 0 11.2 -5 11.2 -11.2 c 0 -0.6 -0.1 -1.2 -0.2 -1.8 c 0.1 -0.1 0.1 -0.3 0.2 -0.4 c 0 -0.2 0.6 -4.4 4.2 -4.4 c 3.6 0 4.2 4.2 4.2 4.3 c 0 0.2 0.1 0.3 0.2 0.4 c -0.1 0.6 -0.2 1.2 -0.2 1.9 c 0 6.2 5 11.2 11.2 11.2 s 11.2 -5 11.2 -11.2 c 0 -0.4 0 -0.7 -0.1 -1.1 H 523.3 c 0.6 0 1 -0.4 1 -1 S 523.9 221.6 523.3 221.6 z M 476.9 233.9 c -5 0 -9.2 -4.1 -9.2 -9.2 s 4.1 -9.2 9.2 -9.2 c 5 0 9.2 4.1 9.2 9.2 S 481.9 233.9 476.9 233.9 z M 507.6 233.9 c -5 0 -9.2 -4.1 -9.2 -9.2 s 4.1 -9.2 9.2 -9.2 s 9.2 4.1 9.2 9.2 S 512.7 233.9 507.6 233.9 z" />
	</g>
	<g id="Image">
		<g transform="matrix(1.6,0,0,1.5,-400,-88.9)">
			<g>
				<rect x="643.4" y="149.3" style="fill: #ecf0f1" width="55" height="42" />
				<path style="fill: #545e73"
					d="M 699.4 192.3 H 642.4 v -44 h 57 V 192.3 z M 644.4 190.3 h 53 v -40 H 644.4 V 190.3 z" />
			</g>
			<g>
				<rect x="647.4" y="153.3" style="fill: #545e73" width="47" height="34" />
				<path style="fill: #ecf0f1"
					d="M 695.4 188.3 H 646.4 v -36 h 49 V 188.3 z M 648.4 186.3 h 45 v -32 H 648.4 V 186.3 z" />
			</g>
			<circle style="fill: #f3d55a" cx="657.4" cy="161.9" r="4.6" />
			<polygon style="fill: #11a085"
				points="693.4,177.4 692.4,176.3 680.4,165.3 669.9,176.8 675.4,182.3 679.4,186.3 693.4,186.3" />
			<polygon style="fill: #26b999" points="648.4,186.3 679.4,186.3 675.4,182.3 664.4,171.3 648.4,185.3" />
		</g>
		<g transform="matrix(1.6,0,0,1.5,-413.5,-100.6)">
			<circle style="fill: #26b999" cx="698.9" cy="196.9" r="12" />
			<path style="fill: #ffffff"
				d="M 705.5 191.1 c -0.5 -0.3 -1.1 -0.2 -1.4 0.3 l -5.6 8 l -3.9 -3.2 c -0.4 -0.4 -1.1 -0.3 -1.4 0.1 c -0.4 0.4 -0.3 1.1 0.1 1.4 l 4.8 3.9 c 0.2 0.1 0.4 0.2 0.6 0.2 c 0 0 0.1 0 0.1 0 c 0.3 0 0.5 -0.2 0.7 -0.4 l 6.2 -8.9 C 706 192 705.9 191.4 705.5 191.1 z" />
		</g>
	</g>
	<g id="MUI">
		<polygon fill="#00B0FF" points="0 110.848 0 0 96 55.424 96 92.3733333 32 55.424 32 129.322667"></polygon>
		<polygon fill="#0081CB"
			points="96 55.424 192 0 192 110.848 128 147.797333 96 129.322667 160 92.3733333 160 55.424 96 92.3733333">
		</polygon>
		<polygon fill="#00B0FF" points="96 129.322667 96 166.272 160 203.221333 160 166.272"></polygon>
		<path
			d="M160,203.221333 L256,147.797333 L256,73.8986667 L224,92.3733333 L224,129.322667 L160,166.272 L160,203.221333 Z M224,55.424 L224,18.4746667 L256,5.68434189e-14 L256,36.9493333 L224,55.424 Z"
			fill="#0081CB"></path>
	</g>
	<g id="Google">
		<path style="fill:#167EE6;"
			d="M492.668,211.489l-208.84-0.01c-9.222,0-16.697,7.474-16.697,16.696v66.715
		c0,9.22,7.475,16.696,16.696,16.696h117.606c-12.878,33.421-36.914,61.41-67.58,79.194L384,477.589
		c80.442-46.523,128-128.152,128-219.53c0-13.011-0.959-22.312-2.877-32.785C507.665,217.317,500.757,211.489,492.668,211.489z" />
		<path style="fill:#12B347;" d="M256,411.826c-57.554,0-107.798-31.446-134.783-77.979l-86.806,50.034
		C78.586,460.443,161.34,512,256,512c46.437,0,90.254-12.503,128-34.292v-0.119l-50.147-86.81
		C310.915,404.083,284.371,411.826,256,411.826z" />
		<path style="fill:#0F993E;" d="M384,477.708v-0.119l-50.147-86.81c-22.938,13.303-49.48,21.047-77.853,21.047V512
		C302.437,512,346.256,499.497,384,477.708z" />
		<path style="fill:#FFD500;" d="M100.174,256c0-28.369,7.742-54.91,21.043-77.847l-86.806-50.034C12.502,165.746,0,209.444,0,256
		s12.502,90.254,34.411,127.881l86.806-50.034C107.916,310.91,100.174,284.369,100.174,256z" />
		<path style="fill:#FF4B26;" d="M256,100.174c37.531,0,72.005,13.336,98.932,35.519c6.643,5.472,16.298,5.077,22.383-1.008
		l47.27-47.27c6.904-6.904,6.412-18.205-0.963-24.603C378.507,23.673,319.807,0,256,0C161.34,0,78.586,51.557,34.411,128.119
		l86.806,50.034C148.202,131.62,198.446,100.174,256,100.174z" />
		<path style="fill:#D93F21;"
			d="M354.932,135.693c6.643,5.472,16.299,5.077,22.383-1.008l47.27-47.27
		c6.903-6.904,6.411-18.205-0.963-24.603C378.507,23.672,319.807,0,256,0v100.174C293.53,100.174,328.005,113.51,354.932,135.693z" />
	</g>
	<g id="world">
		<path fill="none" stroke="#000000" stroke-width="2" stroke-miterlimit="10"
			d="M32.001,0.887c17.184,0,31.113,13.929,31.112,31.113
				C63.114,49.185,49.184,63.115,32,63.113C14.815,63.114,0.887,49.185,0.888,32.001C0.885,14.816,14.815,0.887,32.001,0.887z" />
		<line fill="none" stroke="#000000" stroke-width="2" stroke-miterlimit="10" x1="32" y1="1" x2="32" y2="63" />
		<line fill="none" stroke="#000000" stroke-width="2" stroke-miterlimit="10" x1="63" y1="32" x2="1" y2="32" />
		<path fill="none" stroke="#000000" stroke-width="2" stroke-miterlimit="10"
			d="M30,1c0,0-14,11-14,31s14,31,14,31" />
		<path fill="none" stroke="#000000" stroke-width="2" stroke-miterlimit="10"
			d="M34,1c0,0,14,11,14,31S34,63,34,63" />
		<path fill="none" stroke="#000000" stroke-width="2" stroke-miterlimit="10"
			d="M8,12c0,0,5,10,24,10s24-10,24-10" />
		<path fill="none" stroke="#000000" stroke-width="2" stroke-miterlimit="10"
			d="M8,52c0,0,5-10,24-10s24,10,24,10" />
	</g>
	<g id="cloud">
		<path d="M489.579,254.766c-12.942-16.932-30.829-29.887-50.839-36.933c-0.828-48.454-40.501-87.618-89.148-87.618
				c-7.618,0-15.213,0.993-22.647,2.958c-12.102-15.076-27.37-27.615-44.441-36.457c-19.642-10.173-40.881-15.331-63.127-15.331
				c-74.705,0-135.736,59.676-137.931,133.859C33.885,227.82,0,271.349,0,321.107c0,60.383,49.125,109.508,109.508,109.508h292.983
				C462.875,430.615,512,381.49,512,321.107C512,296.896,504.246,273.956,489.579,254.766z M402.491,415.061H109.508
				c-51.806,0-93.953-42.147-93.953-93.953c0-44.549,31.647-83.274,75.248-92.079l6.342-1.281l-0.106-6.47
				c-0.008-0.465-0.036-0.923-0.069-1.38c-0.012-0.173-0.031-0.344-0.031-0.52c0-67.512,54.925-122.437,122.436-122.437
				c39.135,0,75.005,18.162,98.411,49.828l3.349,4.53l5.348-1.769c7.542-2.494,15.317-3.759,23.108-3.759
				c40.587,0,73.606,33.019,73.606,73.607c0,0.645-0.05,1.382-0.103,2.164c-0.034,0.505-0.067,1.011-0.093,1.518l-0.303,6.145
				l5.911,1.709c19.171,5.544,36.435,17.369,48.61,33.297c12.577,16.453,19.224,36.127,19.224,56.895
				C496.445,372.913,454.297,415.061,402.491,415.061z" />
		<path
			d="M135.62,193.401h15.555c0-26.66,21.69-48.35,48.351-48.35v-15.555C164.289,129.495,135.62,158.163,135.62,193.401z" />
	</g>
	<g id="pen">
		<path style="fill:#EFCE4A;" d="M32.598,8.426l14.746,14.746l-4.47,4.47c-3.93,3.93-3.93,10.301,0,14.231l3.417,3.417L1,54.77
		l9.479-45.29l3.417,3.417c3.93,3.93,10.301,3.93,14.231,0L32.598,8.426z" />

		<rect x="32.177" y="9.442" transform="matrix(-0.7071 -0.7071 0.7071 -0.7071 63.4196 52.6008)"
			style="fill:#7383BF;" width="20.853" height="7.448" />

		<rect x="40.422" y="4.176" transform="matrix(-0.7071 -0.7071 0.7071 -0.7071 76.1336 47.3345)"
			style="fill:#434C6D;" width="14.895" height="7.448" />
		<path style="fill:#F7E6A1;" d="M31.198,24.571c-1.033-1.033-2.406-1.602-3.867-1.602s-2.834,0.568-3.867,1.602
		c-1.033,1.033-1.602,2.406-1.602,3.867c0,1.121,0.341,2.186,0.964,3.09L0.293,54.063c-0.391,0.391-0.391,1.023,0,1.414
		C0.488,55.672,0.744,55.77,1,55.77s0.512-0.098,0.707-0.293l22.534-22.534c0.904,0.623,1.97,0.964,3.091,0.964
		c1.46,0,2.834-0.568,3.867-1.602c1.033-1.033,1.602-2.406,1.602-3.866C32.8,26.978,32.231,25.605,31.198,24.571z M29.784,30.891
		c-1.311,1.311-3.595,1.311-4.905,0c-1.352-1.353-1.352-3.553,0-4.905c0.655-0.655,1.526-1.016,2.453-1.016s1.797,0.36,2.453,1.016
		C31.136,27.338,31.136,29.538,29.784,30.891z" />
	</g>
	<g id="man">
		<g>
			<path style="fill:#FFB657;"
				d="M198.402,222.484c0,0-2.066,19.837-0.834,21.069s6.896,4.681,8.253,4.681
				c1.357,0,11.279-3.8,12.436-6.398c0.995-2.235,0.267-7.883-2.563-11.278c-3.25-3.9-2.83-10.753-2.83-10.753L198.402,222.484z" />
			<path style="fill:#FFB657;" d="M225.531,83.814c-2.376-0.251-16.441,2.484-19.157,24.065c-0.979,7.777-3.119,37.982-4.134,63.951
				c-1.163,29.756-3.837,50.654-3.837,50.654c0,6.791,11.953,11.875,16.934,6.893c0.746-0.746,0.929-28.942,6.947-69.587
				C227.974,121.349,242.074,85.564,225.531,83.814z" />
		</g>
		<g>
			<path style="fill:#884D01;" d="M221.315,444.179c0,0-33.569,32.796-26.287,37.378c10.143,6.381,51.365-19.952,51.365-22.065
				s-2.92-22.637-2.92-22.637L221.315,444.179z" />
			<path style="fill:#884D01;" d="M266.818,469.413c0,0-32.405,35.366-23.03,41.646c9.955,6.669,48.109-24.219,48.109-26.332
				s-2.92-22.637-2.92-22.637L266.818,469.413z" />
		</g>
		<path style="fill:#01544C;" d="M214.121,240.839l-0.743,206.923c0,0-0.477,6.069,15.703,6.069s17.035-7.741,17.035-7.741
				l4.311-149.897l0.786,0.113l8.47,177.227c0,0-1.001,4.75,15.18,4.75c16.18,0,17.035-7.741,17.035-7.741l1.564-222.7L214.121,240.839
				z" />
		<path style="fill:#FF9911;" d="M211.614,239.313c0,0-2.1-34.806-1.568-66.877c0.446-26.913-2.236-53.482-2.114-60.179
				c0.303-16.601,10.748-28.353,16.854-28.457c0,0,42.722,3.517,78.404,31.27c0,0-3.752,139.067-8.498,140.677
				C255.56,269.023,213.199,246.56,211.614,239.313z" />
		<path style="fill:#FFB657;" d="M241.287,75.883c0,0-2.248,16.979-3.32,26.307c-0.794,6.902,11.4,11.349,20.721,8.418
				c9.319-2.931,13.085-9.823,13.085-9.823c-4.396-14.805-4.11-36.267-4.11-36.267L241.287,75.883z" />
		<path style="fill:#5E4C36;" d="M216.439,25.247c-1.803,11.482-0.345,23.457,4.158,34.17c2.219-10.101,3.618-20.381,4.177-30.709
				c0.164-3.022,4.695-16.864,0.45-17.646C220.877,10.261,216.89,22.377,216.439,25.247z" />
		<path style="fill:#FEC377;" d="M219.085,47.98c0,0,2.128,31.894,9.796,37.591s31.704,0.235,45.073-22.524
				c11.153-18.986,6.499-56.226-17.474-60.175C228.479-1.739,217.405,19.438,219.085,47.98z" />
		<path style="fill:#5E4C36;"
			d="M219.761,21.946c-1.56,9.113,4.737,19.024,13.852,20.573c-0.594-4.16-1.187-8.321-1.781-12.48
				c5.648,7.561,16.27,8.868,25.683,9.546c-1.608-2.736-2.463-5.91-2.447-9.084c14.35,2.404,9.424,27.901,9.594,35.31
				c0.081-6.172,6.049-9.797,8.55-15.442c2.874,2.845-1.081,13.656-2.414,17.474c7.142-5.103,9.906-21.547,10.032-31.183
				c0.089-6.739-0.941-17.128-4.532-22.831c-3.396-5.393-8.042-9.308-14.075-11.364C233.94-7.173,221.12,14.003,219.761,21.946z" />
		<g>
			<path style="fill:#FFB657;" d="M294.152,269.81c0,0-0.37,12.134-0.029,14.448c0.341,2.314,2.839,4.613,2.839,4.613
			s-0.225,5.607,1.947,7.221c2.173,1.614,14.765-4.503,16.698-6.485c2.716-2.787-0.615-22.869-0.615-22.869
			S297.298,259.673,294.152,269.81z" />
			<path style="fill:#FFB657;" d="M303.191,115.07c0,0-13.286,3.153-13.918,18.965c-0.632,15.813,2.937,28.622,3.672,80.654
			c0.65,45.989,1.156,57.011,1.156,57.011s6.502,10.267,21.449-1.203c0,0-0.235-74.394-0.392-83.72
			C314.182,128.692,313.698,121.403,303.191,115.07z" />
		</g>
		<path style="fill:#F18700;" d="M292.945,214.689c-0.453-32.077-1.983-49.239-2.942-61.396l-1.892,104.346
			c1.854-0.445,3.706-0.977,5.553-1.573C293.469,247.315,293.22,234.139,292.945,214.689z" />
		<path style="fill:#FEC377;" d="M264.662,61.122c0,0,2.503-17.587,7.714-17.821c3.674-0.164,5.274,7.427,2.573,13.263
			c-2.701,5.836-10.287,11.279-10.287,11.279L264.662,61.122L264.662,61.122z" />
		<g>
			<path style="fill:#FF9911;" d="M288.111,134.035c0,15.664,0,40.357,0,40.357s23.892,3.202,29.656-2.562
			c0,0,3.284-48.812-14.577-56.761C296.81,112.229,288.111,125.698,288.111,134.035z" />
			<path style="fill:#FF9911;" d="M214.281,135.965c-11.832-4.168-11.125-11.125-11.125-11.125
			c0.918-42.771,19.805-40.71,19.805-40.71L214.281,135.965z" />
		</g>
	</g>
	<g id="chart1">
		<path style="fill: #6e8193" d="M 373.6 455.3 H 153.5 c -13.1 0 -23.7 10.6 -23.7 23.7 h 267.4 C 397.3 465.9 386.7 455.3 373.6 455.3 z"/>
		<path style="fill: #d2314b" d="M 141 134.7 c -23.3 7.5 -40.1 29.2 -40.1 55 c 0 4.3 0.5 8.6 1.4 12.6 l 56.3 -12.6 L 141 134.7 z"/>
		<path style="fill: #4a7cf0" d="M 158.6 188.6 l 40.5 -41.1 c -10.4 -10.3 -24.7 -16.6 -40.5 -16.6 c -7.6 0 -14.8 1.5 -21.4 4.1 L 158.6 188.6 z"/>
		<path style="fill: #e1a932" d="M 189.6 141 l -31 48.6 l 53.5 21.7 c 2.7 -6.7 4.2 -14 4.2 -21.7 C 216.3 169.2 205.7 151.3 189.6 141 z"/>
		<path style="fill: #6cbb48" d="M 102.3 202.3 c 5.8 25.8 28.8 45.1 56.3 45.1 c 24.2 0 44.9 -14.9 53.5 -36 l -53.5 -21.7 L 102.3 202.3 z"/>
	</g>
</svg>