<svg xmlns="http://www.w3.org/2000/svg" width="800" height="310" viewBox="0 0 800 310">
	<g id="Laptop">
		<path transform="matrix(0.6,0,0,0.6,184.3,63.1)" style="fill: #38454f"
			d="M 646.4 288.8 v 17.7 h 141.2 V 288.8 H 937.7 V 6.3 c 0 -9.8 -7.9 -17.7 -17.7 -17.7 H 514 c -9.8 0 -17.7 7.9 -17.7 17.7 V 288.8 H 646.4 z" />
		<polygon transform="matrix(0.6,0,0,0.6,184.3,60.4)" style="fill: #546a79"
			points="514,275.3 920.1,275.3 920.1,10.5 514,10.5" />
		<g transform="matrix(0.6,0,0,0.6,146.4,60.4)">
			<path style="fill: #ea6148"
				d="M 598.8 222.3 c -4.9 0 -8.8 -4 -8.8 -8.8 V 72.3 c 0 -4.9 4 -8.8 8.8 -8.8 c 4.9 0 8.8 4 8.8 8.8 v 141.2 C 607.6 218.4 603.6 222.3 598.8 222.3" />
			<path style="fill: #ea6148"
				d="M 669.4 98.7 h -35.3 c -4.9 0 -8.8 -4 -8.8 -8.8 s 4 -8.8 8.8 -8.8 h 35.3 c 4.9 0 8.8 4 8.8 8.8 S 674.3 98.7 669.4 98.7" />
			<path style="fill: #ea6148"
				d="M 651.7 134.1 h -17.7 c -4.9 0 -8.8 -4 -8.8 -8.8 c 0 -4.9 4 -8.8 8.8 -8.8 h 17.7 c 4.9 0 8.8 4 8.8 8.8 C 660.6 130.1 656.6 134.1 651.7 134.1" />
			<path style="fill: #ea6148"
				d="M 669.4 169.4 h -35.3 c -4.9 0 -8.8 -4 -8.8 -8.8 s 4 -8.8 8.8 -8.8 h 35.3 c 4.9 0 8.8 4 8.8 8.8 S 674.3 169.4 669.4 169.4" />
			<path style="fill: #ea6148"
				d="M 651.7 204.7 h -17.7 c -4.9 0 -8.8 -4 -8.8 -8.8 s 4 -8.8 8.8 -8.8 h 17.7 c 4.9 0 8.8 4 8.8 8.8 S 656.6 204.7 651.7 204.7" />
		</g>
		<path transform="matrix(0.6,0,0,0.6,184.3,111)" style="fill: #b0b6bb"
			d="M 787.7 211.3 v 17.7 H 646.4 V 211.3 H 461 v 26.5 c 0 9.8 7.9 17.7 17.7 17.7 h 476.7 c 9.8 0 17.7 -7.9 17.7 -17.7 V 211.3 H 787.7 z" />
	</g>
	<g id="Glasses">
		<path transform="matrix(1.4,0,0,1.5,-188.7,-114.4)"
			d="M 513.1 218.3 c -0.5 0 -1 0.4 -1.1 0.9 c 0 0.6 0.4 1 0.9 1.1 c 2.7 0.2 4 1.6 4.4 4.5 c 0.1 0.5 0.5 0.9 1 0.9 c 0 0 0.1 0 0.1 0 c 0.5 -0.1 0.9 -0.6 0.9 -1.1 C 518.8 220.6 516.7 218.6 513.1 218.3 z" />
		<path transform="matrix(1.4,0,0,1.5,-176.2,-114.3)"
			d="M 473.2 218.2 C 472.6 218.1 472.1 218.5 472.1 219.1 c 0 0.6 0.4 1 0.9 1.1 c 2.7 0.2 4 1.6 4.4 4.5 c 0.1 0.5 0.5 0.9 1 0.9 c 0 0 0.1 0 0.1 0 c 0.5 -0.1 0.9 -0.6 0.9 -1.1 C 478.9 220.5 476.8 218.5 473.2 218.2 z" />
		<path transform="matrix(1.4,0,0,1.5,-181.4,-115.5)"
			d="M 523.3 221.6 h -5 c -1.3 -4.7 -5.6 -8.1 -10.7 -8.1 c -4.3 0 -8.1 2.5 -9.9 6.1 c -0.9 -1.8 -2.6 -3.6 -5.4 -3.6 c -2.9 0 -4.5 1.8 -5.4 3.6 c -1.8 -3.6 -5.6 -6.1 -9.9 -6.1 c -5.1 0 -9.4 3.4 -10.7 8.1 H 461.3 c -0.6 0 -1 0.4 -1 1 s 0.4 1 1 1 h 4.5 c 0 0.4 -0.1 0.7 -0.1 1.1 c 0 6.2 5 11.2 11.2 11.2 c 6.2 0 11.2 -5 11.2 -11.2 c 0 -0.6 -0.1 -1.2 -0.2 -1.8 c 0.1 -0.1 0.1 -0.3 0.2 -0.4 c 0 -0.2 0.6 -4.4 4.2 -4.4 c 3.6 0 4.2 4.2 4.2 4.3 c 0 0.2 0.1 0.3 0.2 0.4 c -0.1 0.6 -0.2 1.2 -0.2 1.9 c 0 6.2 5 11.2 11.2 11.2 s 11.2 -5 11.2 -11.2 c 0 -0.4 0 -0.7 -0.1 -1.1 H 523.3 c 0.6 0 1 -0.4 1 -1 S 523.9 221.6 523.3 221.6 z M 476.9 233.9 c -5 0 -9.2 -4.1 -9.2 -9.2 s 4.1 -9.2 9.2 -9.2 c 5 0 9.2 4.1 9.2 9.2 S 481.9 233.9 476.9 233.9 z M 507.6 233.9 c -5 0 -9.2 -4.1 -9.2 -9.2 s 4.1 -9.2 9.2 -9.2 s 9.2 4.1 9.2 9.2 S 512.7 233.9 507.6 233.9 z" />
	</g>
	<g id="Image">
		<g transform="matrix(1.6,0,0,1.5,-400,-88.9)">
			<g>
				<rect x="643.4" y="149.3" style="fill: #ecf0f1" width="55" height="42" />
				<path style="fill: #545e73"
					d="M 699.4 192.3 H 642.4 v -44 h 57 V 192.3 z M 644.4 190.3 h 53 v -40 H 644.4 V 190.3 z" />
			</g>
			<g>
				<rect x="647.4" y="153.3" style="fill: #545e73" width="47" height="34" />
				<path style="fill: #ecf0f1"
					d="M 695.4 188.3 H 646.4 v -36 h 49 V 188.3 z M 648.4 186.3 h 45 v -32 H 648.4 V 186.3 z" />
			</g>
			<circle style="fill: #f3d55a" cx="657.4" cy="161.9" r="4.6" />
			<polygon style="fill: #11a085"
				points="693.4,177.4 692.4,176.3 680.4,165.3 669.9,176.8 675.4,182.3 679.4,186.3 693.4,186.3" />
			<polygon style="fill: #26b999" points="648.4,186.3 679.4,186.3 675.4,182.3 664.4,171.3 648.4,185.3" />
		</g>
		<g transform="matrix(1.6,0,0,1.5,-413.5,-100.6)">
			<circle style="fill: #26b999" cx="698.9" cy="196.9" r="12" />
			<path style="fill: #ffffff"
				d="M 705.5 191.1 c -0.5 -0.3 -1.1 -0.2 -1.4 0.3 l -5.6 8 l -3.9 -3.2 c -0.4 -0.4 -1.1 -0.3 -1.4 0.1 c -0.4 0.4 -0.3 1.1 0.1 1.4 l 4.8 3.9 c 0.2 0.1 0.4 0.2 0.6 0.2 c 0 0 0.1 0 0.1 0 c 0.3 0 0.5 -0.2 0.7 -0.4 l 6.2 -8.9 C 706 192 705.9 191.4 705.5 191.1 z" />
		</g>
	</g>
	<g id="MUI">
		<polygon transform="matrix(0.5,0,0,0.6,56.6,57)" fill="#00b0ff"
			points="19.4,28.3 19.4,-82.5 115.4,-27.1 115.4,9.9 51.4,-27.1 51.4,46.8"></polygon>
		<polygon transform="matrix(0.5,0,0,0.6,87.5,60)" fill="#0081cb"
			points="50.4,-32.8 146.4,-88.2 146.4,22.6 82.4,59.6 50.4,41.1 114.4,4.2 114.4,-32.8 50.4,4.2">
		</polygon>
		<polygon transform="matrix(0.5,0,0,0.6,82.3,89.7)" fill="#00b0ff" points="61.2,-14.8 61.2,22.2 125.2,59.1 125.2,22.2">
		</polygon>
		<path transform="matrix(0.5,0,0,0.6,108,68.9)"
			d="M 71.1 98.3 L 167.1 42.9 L 167.1 -31 L 135.1 -12.5 L 135.1 24.4 L 71.1 61.4 L 71.1 98.3 Z M 135.1 -49.5 L 135.1 -86.4 L 167.1 -104.9 L 167.1 -68 L 135.1 -49.5 Z"
			fill="#0081cb"></path>
	</g>
	<g id="Google">
		<path transform="matrix(0.2,0,0,0.2,170.7,198.4)" style="fill: #167ee6"
			d="M 39.5 150.2 l -208.8 0 c -9.2 0 -16.7 7.5 -16.7 16.7 v 66.7 c 0 9.2 7.5 16.7 16.7 16.7 h 117.6 c -12.9 33.4 -36.9 61.4 -67.6 79.2 L -69.2 416.3 c 80.4 -46.5 128 -128.2 128 -219.5 c 0 -13 -1 -22.3 -2.9 -32.8 C 54.5 156 47.6 150.2 39.5 150.2 z" />
		<path transform="matrix(0.2,0,0,0.2,130.9,215.2)" style="fill: #12b347" d="M -21.8 273.8 c -57.6 0 -107.8 -31.4 -134.8 -78 l -86.8 50 C -199.2 322.4 -116.5 374 -21.8 374 c 46.4 0 90.3 -12.5 128 -34.3 v -0.1 l -50.1 -86.8 C 33.1 266.1 6.6 273.8 -21.8 273.8 z" />
		<path transform="matrix(0.2,0,0,0.2,155.4,221.3)" style="fill: #0f993e" d="M -1.6 311.8 v -0.1 l -50.1 -86.8 c -22.9 13.3 -49.5 21 -77.9 21 V 346.1 C -83.2 346.1 -39.3 333.6 -1.6 311.8 z" />
		<path transform="matrix(0.2,0,0,0.2,98.2,179.5)" style="fill: #ffd500" d="M -33.1 281.3 c 0 -28.4 7.7 -54.9 21 -77.8 l -86.8 -50 C -120.8 191 -133.3 234.7 -133.3 281.3 s 12.5 90.3 34.4 127.9 l 86.8 -50 C -25.4 336.2 -33.1 309.7 -33.1 281.3 z" />
		<path transform="matrix(0.2,0,0,0.2,136.2,143.7)" style="fill: #ff4b26" d="M -44.9 289 c 37.5 0 72 13.3 98.9 35.5 c 6.6 5.5 16.3 5.1 22.4 -1 l 47.3 -47.3 c 6.9 -6.9 6.4 -18.2 -1 -24.6 C 77.6 212.5 18.9 188.8 -44.9 188.8 C -139.6 188.8 -222.3 240.4 -266.5 316.9 l 86.8 50 C -152.7 320.4 -102.5 289 -44.9 289 z" />
		<path transform="matrix(0.2,0,0,0.2,160.6,139.8)" style="fill: #d93f21"
			d="M -53.7 342.5 c 6.6 5.5 16.3 5.1 22.4 -1 l 47.3 -47.3 c 6.9 -6.9 6.4 -18.2 -1 -24.6 C -30.1 230.5 -88.8 206.8 -152.6 206.8 v 100.2 C -115.1 307 -80.6 320.3 -53.7 342.5 z" />
	</g>
</svg>