<?xml version="1.0" encoding="iso-8859-1"?>
<!-- Generator: Adobe Illustrator 19.0.0, SVG Export Plug-In . SVG Version: 6.00 Build 0)  -->
<svg version="1.1" id="Layer_1" xmlns="http://www.w3.org/2000/svg" xmlns:xlink="http://www.w3.org/1999/xlink" x="0px" y="0px"
	 viewBox="0 0 503.06 503.06" style="enable-background:new 0 0 503.06 503.06;" xml:space="preserve">
<g id="XMLID_1396_">
	<g id="XMLID_1445_">
		<polygon style="fill:#FAC15C;" points="487.582,480.106 439.571,448.099 271.534,448.099 271.534,8.002 487.582,8.002 		"/>
	</g>
	<g id="XMLID_1444_">
		<polygon style="fill:#F9B233;" points="487.582,8.002 375.557,448.099 271.534,448.099 271.534,8.002 		"/>
	</g>
	<g id="XMLID_1443_">
		<polygon style="fill:#A48A7B;" points="15.478,480.106 63.488,448.099 231.525,448.099 231.525,8.002 15.478,8.002 		"/>
	</g>
	<g id="XMLID_1442_">
		<polygon style="fill:#CBBBA0;" points="15.478,8.002 127.503,448.099 231.525,448.099 231.525,8.002 		"/>
	</g>
	<g id="XMLID_1441_">
		<path style="fill:#1D1D1B;" d="M7.476,503.06V0h232.051v464.103H65.908L7.476,503.06z M23.48,16.004v457.151l37.582-25.057
			h162.461V16.004H23.48z"/>
	</g>
	<g id="XMLID_1440_">
		<path style="fill:#1D1D1B;" d="M495.583,495.058L437.151,456.1H263.533V0h232.051L495.583,495.058L495.583,495.058z
			 M279.537,440.097h162.461l37.582,25.057V16.004H279.537V440.097z"/>
	</g>
	<g id="XMLID_1439_">
		<rect x="55.487" y="64.014" style="fill:#1D1D1B;" width="136.029" height="16.004"/>
	</g>
	<g id="XMLID_1438_">
		<rect x="55.487" y="104.023" style="fill:#1D1D1B;" width="48.011" height="16.004"/>
	</g>
	<g id="XMLID_1437_">
		<rect x="119.501" y="104.023" style="fill:#1D1D1B;" width="72.016" height="16.004"/>
	</g>
	<g id="XMLID_1436_">
		<rect x="55.487" y="144.032" style="fill:#1D1D1B;" width="88.02" height="16.004"/>
	</g>
	<g id="XMLID_1434_">
		<rect x="159.509" y="144.032" style="fill:#1D1D1B;" width="32.007" height="16.004"/>
	</g>
	<g id="XMLID_1433_">
		<rect x="55.487" y="184.04" style="fill:#1D1D1B;" width="24.005" height="16.004"/>
	</g>
	<g id="XMLID_1432_">
		<rect x="95.496" y="184.04" style="fill:#1D1D1B;" width="64.014" height="16.004"/>
	</g>
	<g id="XMLID_1430_">
		<rect x="175.513" y="184.04" style="fill:#1D1D1B;" width="16.003" height="16.004"/>
	</g>
	<g id="XMLID_1427_">
		<rect x="55.487" y="224.049" style="fill:#1D1D1B;" width="72.016" height="16.004"/>
	</g>
	<g id="XMLID_1426_">
		<rect x="143.506" y="224.049" style="fill:#1D1D1B;" width="48.01" height="16.004"/>
	</g>
	<g id="XMLID_1425_">
		<rect x="55.487" y="264.058" style="fill:#1D1D1B;" width="136.029" height="16.004"/>
	</g>
	<g id="XMLID_1424_">
		<rect x="55.487" y="304.067" style="fill:#1D1D1B;" width="32.007" height="16.004"/>
	</g>
	<g id="XMLID_1423_">
		<rect x="103.498" y="304.067" style="fill:#1D1D1B;" width="88.019" height="16.004"/>
	</g>
	<g id="XMLID_1422_">
		<rect x="55.487" y="344.076" style="fill:#1D1D1B;" width="104.022" height="16.004"/>
	</g>
	<g id="XMLID_1421_">
		<rect x="175.513" y="344.076" style="fill:#1D1D1B;" width="16.003" height="16.004"/>
	</g>
	<g id="XMLID_1420_">
		<rect x="55.487" y="384.085" style="fill:#1D1D1B;" width="136.029" height="16.004"/>
	</g>
	<g id="XMLID_1419_">
		<rect x="311.543" y="384.085" style="fill:#1D1D1B;" width="136.029" height="16.004"/>
	</g>
	<g id="XMLID_1418_">
		<rect x="399.562" y="344.076" style="fill:#1D1D1B;" width="48.011" height="16.004"/>
	</g>
	<g id="XMLID_1417_">
		<rect x="311.543" y="344.076" style="fill:#1D1D1B;" width="72.016" height="16.004"/>
	</g>
	<g id="XMLID_1415_">
		<rect x="359.553" y="304.067" style="fill:#1D1D1B;" width="88.02" height="16.004"/>
	</g>
	<g id="XMLID_1413_">
		<rect x="311.543" y="304.067" style="fill:#1D1D1B;" width="32.007" height="16.004"/>
	</g>
	<g id="XMLID_1410_">
		<rect x="423.568" y="264.058" style="fill:#1D1D1B;" width="24.005" height="16.004"/>
	</g>
	<g id="XMLID_1409_">
		<rect x="343.55" y="264.058" style="fill:#1D1D1B;" width="64.014" height="16.004"/>
	</g>
	<g id="XMLID_1408_">
		<rect x="311.543" y="264.058" style="fill:#1D1D1B;" width="16.003" height="16.004"/>
	</g>
	<g id="XMLID_1406_">
		<rect x="375.557" y="224.049" style="fill:#1D1D1B;" width="72.016" height="16.004"/>
	</g>
	<g id="XMLID_1405_">
		<rect x="311.544" y="224.049" style="fill:#1D1D1B;" width="48.01" height="16.004"/>
	</g>
	<g id="XMLID_1404_">
		<rect x="311.543" y="184.04" style="fill:#1D1D1B;" width="136.029" height="16.004"/>
	</g>
	<g id="XMLID_1403_">
		<rect x="415.566" y="144.032" style="fill:#1D1D1B;" width="32.007" height="16.004"/>
	</g>
	<g id="XMLID_1402_">
		<rect x="311.543" y="144.032" style="fill:#1D1D1B;" width="88.019" height="16.004"/>
	</g>
	<g id="XMLID_1401_">
		<rect x="343.55" y="104.023" style="fill:#1D1D1B;" width="104.022" height="16.004"/>
	</g>
	<g id="XMLID_1400_">
		<rect x="311.543" y="104.023" style="fill:#1D1D1B;" width="16.003" height="16.004"/>
	</g>
	<g id="XMLID_1397_">
		<rect x="311.543" y="64.014" style="fill:#1D1D1B;" width="136.029" height="16.004"/>
	</g>
</g>
<g>
</g>
<g>
</g>
<g>
</g>
<g>
</g>
<g>
</g>
<g>
</g>
<g>
</g>
<g>
</g>
<g>
</g>
<g>
</g>
<g>
</g>
<g>
</g>
<g>
</g>
<g>
</g>
<g>
</g>
</svg>
