<?xml version="1.0" ?><!DOCTYPE svg  PUBLIC '-//W3C//DTD SVG 1.1//EN'  'http://www.w3.org/Graphics/SVG/1.1/DTD/svg11.dtd'><svg width="512px" height="512px" viewBox="0 0 512 512" enable-background="new 0 0 512 512" id="Layer_1" version="1.1" xml:space="preserve" xmlns="http://www.w3.org/2000/svg" xmlns:xlink="http://www.w3.org/1999/xlink"><g><g><path d="M458.439,375.223H53.561c-5.522,0-10-4.478-10-10V97.733c0-5.522,4.478-10,10-10h404.879    c5.522,0,10,4.478,10,10v267.489C468.439,370.745,463.962,375.223,458.439,375.223z M63.561,355.223h384.879V107.733H63.561    V355.223z" fill="#444B54"/></g><g><path d="M458.439,375.223H53.561c-5.522,0-10-4.478-10-10v-48.194c0-5.522,4.478-10,10-10h404.879    c5.522,0,10,4.478,10,10v48.194C468.439,370.745,463.962,375.223,458.439,375.223z M63.561,355.223h384.879v-28.194H63.561    V355.223z" fill="#444B54"/></g><g><path d="M286.396,424.267h-60.793c-5.522,0-10-4.478-10-10v-49.044c0-5.522,4.478-10,10-10h60.793    c5.522,0,10,4.478,10,10v49.044C296.396,419.789,291.919,424.267,286.396,424.267z M235.604,404.267h40.793v-29.044h-40.793    V404.267z" fill="#444B54"/></g><g><path d="M319.629,424.267H192.371c-5.522,0-10-4.478-10-10s4.478-10,10-10h127.258c5.522,0,10,4.478,10,10    S325.151,424.267,319.629,424.267z" fill="#444B54"/></g><g><path d="M240.819,244.64c-2.63,0-5.21-1.07-7.069-2.93c-1.86-1.86-2.931-4.44-2.931-7.07s1.07-5.21,2.931-7.07    c1.859-1.859,4.439-2.93,7.069-2.93c2.631,0,5.211,1.07,7.07,2.93c1.86,1.86,2.93,4.44,2.93,7.07s-1.069,5.21-2.93,7.07    C246.03,243.569,243.45,244.64,240.819,244.64z" fill="#444B54"/></g><g><path d="M270.859,244.64c-2.63,0-5.21-1.07-7.069-2.93c-1.86-1.86-2.931-4.44-2.931-7.07s1.07-5.21,2.931-7.07    c1.859-1.859,4.439-2.93,7.069-2.93c2.631,0,5.21,1.07,7.07,2.93c1.86,1.86,2.93,4.44,2.93,7.07c0,2.641-1.069,5.21-2.93,7.07    C276.069,243.569,273.49,244.64,270.859,244.64z" fill="#444B54"/></g><g><path d="M271.707,284.625h-30.889c-5.522,0-10-4.478-10-10c0-14.031,11.413-25.446,25.442-25.446    c14.031,0,25.446,11.415,25.446,25.446C281.707,280.147,277.229,284.625,271.707,284.625z" fill="#444B54"/></g><g><path d="M109.31,244.64c-2.63,0-5.21-1.07-7.069-2.93c-1.86-1.86-2.931-4.44-2.931-7.07s1.07-5.21,2.931-7.07    c1.859-1.859,4.439-2.93,7.069-2.93s5.21,1.07,7.07,2.93c1.86,1.86,2.93,4.44,2.93,7.07s-1.069,5.21-2.93,7.07    C114.52,243.569,111.939,244.64,109.31,244.64z" fill="#444B54"/></g><g><path d="M139.359,244.64c-2.64,0-5.22-1.07-7.079-2.93c-1.86-1.86-2.931-4.44-2.931-7.07s1.07-5.21,2.931-7.07    c1.859-1.859,4.439-2.93,7.079-2.93c2.631,0,5.2,1.07,7.061,2.93c1.87,1.86,2.93,4.44,2.93,7.07s-1.06,5.21-2.93,7.07    C144.56,243.569,141.99,244.64,139.359,244.64z" fill="#444B54"/></g><g><path d="M126.297,288.23c-13.569,0-24.609-11.038-24.609-24.606c0-5.522,4.478-10,10-10h29.215    c5.522,0,10,4.478,10,10C150.902,277.192,139.864,288.23,126.297,288.23z" fill="#444B54"/></g><g><path d="M366.17,246.939c-2.63,0-5.21-1.06-7.07-2.93c-1.859-1.86-2.93-4.43-2.93-7.07    c0-2.63,1.07-5.21,2.93-7.069c1.86-1.86,4.44-2.931,7.07-2.931s5.21,1.07,7.07,2.931c1.859,1.859,2.93,4.439,2.93,7.069    c0,2.641-1.07,5.21-2.93,7.07C371.38,245.88,368.8,246.939,366.17,246.939z" fill="#444B54"/></g><g><path d="M402.54,246.939c-2.63,0-5.21-1.06-7.07-2.93c-1.86-1.86-2.93-4.43-2.93-7.07    c0-2.63,1.069-5.21,2.93-7.069c1.86-1.86,4.43-2.931,7.07-2.931c2.63,0,5.21,1.07,7.069,2.931c1.86,1.859,2.931,4.439,2.931,7.069    c0,2.641-1.07,5.21-2.931,7.07C407.75,245.88,405.17,246.939,402.54,246.939z" fill="#444B54"/></g><g><path d="M407.633,281.979h-45.681c-5.522,0-10-4.478-10-10v-7.432c0-5.522,4.478-10,10-10h45.681    c5.522,0,10,4.478,10,10v7.432C417.633,277.501,413.155,281.979,407.633,281.979z" fill="#444B54"/></g><g><path d="M144.531,214.951h-35.221c-5.522,0-10-4.478-10-10v-74.271c0-5.522,4.478-10,10-10h35.221    c5.522,0,10,4.478,10,10v74.271C154.531,210.474,150.054,214.951,144.531,214.951z M119.311,194.951h15.221v-54.271h-15.221    V194.951z" fill="#444B54"/></g><g><path d="M273.873,214.951h-35.221c-5.522,0-10-4.478-10-10v-51.16c0-5.522,4.478-10,10-10h35.221    c5.522,0,10,4.478,10,10v51.16C283.873,210.474,279.396,214.951,273.873,214.951z M248.652,194.951h15.221v-31.16h-15.221V194.951    z" fill="#444B54"/></g><g><path d="M402.402,214.951h-35.221c-5.522,0-10-4.478-10-10v-31.988c0-5.522,4.478-10,10-10h35.221    c5.522,0,10,4.478,10,10v31.988C412.402,210.474,407.925,214.951,402.402,214.951z M377.182,194.951h15.221v-11.988h-15.221    V194.951z" fill="#444B54"/></g><g><rect fill="#D9DCE1" height="267.489" width="404.879" x="53.561" y="97.733"/><path d="M458.439,375.223H53.561c-5.522,0-10-4.478-10-10V97.733c0-5.522,4.478-10,10-10h404.879    c5.522,0,10,4.478,10,10v267.489C468.439,370.745,463.962,375.223,458.439,375.223z M63.561,355.223h384.879V107.733H63.561    V355.223z" fill="#444B54"/></g><g><rect fill="#65A0D6" height="48.194" width="404.879" x="53.561" y="317.028"/><path d="M458.439,375.223H53.561c-5.522,0-10-4.478-10-10v-48.194c0-5.522,4.478-10,10-10h404.879    c5.522,0,10,4.478,10,10v48.194C468.439,370.745,463.962,375.223,458.439,375.223z M63.561,355.223h384.879v-28.194H63.561    V355.223z" fill="#444B54"/></g><g><path d="M286.396,424.267h-60.793c-5.522,0-10-4.478-10-10v-49.044c0-5.522,4.478-10,10-10h60.793    c5.522,0,10,4.478,10,10v49.044C296.396,419.789,291.919,424.267,286.396,424.267z M235.604,404.267h40.793v-29.044h-40.793    V404.267z" fill="#444B54"/></g><g><path d="M319.629,424.267H192.371c-5.522,0-10-4.478-10-10s4.478-10,10-10h127.258c5.522,0,10,4.478,10,10    S325.151,424.267,319.629,424.267z" fill="#444B54"/></g><g><path d="M240.819,244.64c-2.63,0-5.21-1.07-7.069-2.93c-1.86-1.86-2.931-4.44-2.931-7.07s1.07-5.21,2.931-7.07    c1.859-1.859,4.439-2.93,7.069-2.93c2.631,0,5.211,1.07,7.07,2.93c1.86,1.86,2.93,4.44,2.93,7.07s-1.069,5.21-2.93,7.07    C246.03,243.569,243.45,244.64,240.819,244.64z" fill="#444B54"/></g><g><path d="M270.859,244.64c-2.63,0-5.21-1.07-7.069-2.93c-1.86-1.86-2.931-4.44-2.931-7.07s1.07-5.21,2.931-7.07    c1.859-1.859,4.439-2.93,7.069-2.93c2.631,0,5.21,1.07,7.07,2.93c1.86,1.86,2.93,4.44,2.93,7.07c0,2.641-1.069,5.21-2.93,7.07    C276.069,243.569,273.49,244.64,270.859,244.64z" fill="#444B54"/></g><g><path d="M271.707,284.625h-30.889c-5.522,0-10-4.478-10-10c0-14.031,11.413-25.446,25.442-25.446    c14.031,0,25.446,11.415,25.446,25.446C281.707,280.147,277.229,284.625,271.707,284.625z" fill="#444B54"/></g><g><path d="M109.31,244.64c-2.63,0-5.21-1.07-7.069-2.93c-1.86-1.86-2.931-4.44-2.931-7.07s1.07-5.21,2.931-7.07    c1.859-1.859,4.439-2.93,7.069-2.93s5.21,1.07,7.07,2.93c1.86,1.86,2.93,4.44,2.93,7.07s-1.069,5.21-2.93,7.07    C114.52,243.569,111.939,244.64,109.31,244.64z" fill="#444B54"/></g><g><path d="M139.359,244.64c-2.64,0-5.22-1.07-7.079-2.93c-1.86-1.86-2.931-4.44-2.931-7.07s1.07-5.21,2.931-7.07    c1.859-1.859,4.439-2.93,7.079-2.93c2.631,0,5.2,1.07,7.061,2.93c1.87,1.86,2.93,4.44,2.93,7.07s-1.06,5.21-2.93,7.07    C144.56,243.569,141.99,244.64,139.359,244.64z" fill="#444B54"/></g><g><path d="M126.297,288.23c-13.569,0-24.609-11.038-24.609-24.606c0-5.522,4.478-10,10-10h29.215    c5.522,0,10,4.478,10,10C150.902,277.192,139.864,288.23,126.297,288.23z" fill="#444B54"/></g><g><path d="M366.17,246.939c-2.63,0-5.21-1.06-7.07-2.93c-1.859-1.86-2.93-4.43-2.93-7.07    c0-2.63,1.07-5.21,2.93-7.069c1.86-1.86,4.44-2.931,7.07-2.931s5.21,1.07,7.07,2.931c1.859,1.859,2.93,4.439,2.93,7.069    c0,2.641-1.07,5.21-2.93,7.07C371.38,245.88,368.8,246.939,366.17,246.939z" fill="#444B54"/></g><g><path d="M402.54,246.939c-2.63,0-5.21-1.06-7.07-2.93c-1.86-1.86-2.93-4.43-2.93-7.07    c0-2.63,1.069-5.21,2.93-7.069c1.86-1.86,4.43-2.931,7.07-2.931c2.63,0,5.21,1.07,7.069,2.931c1.86,1.859,2.931,4.439,2.931,7.069    c0,2.641-1.07,5.21-2.931,7.07C407.75,245.88,405.17,246.939,402.54,246.939z" fill="#444B54"/></g><g><path d="M407.633,281.979h-45.681c-5.522,0-10-4.478-10-10v-7.432c0-5.522,4.478-10,10-10h45.681    c5.522,0,10,4.478,10,10v7.432C417.633,277.501,413.155,281.979,407.633,281.979z" fill="#444B54"/></g><g><rect fill="#3C74BA" height="74.271" width="35.221" x="109.311" y="130.681"/><path d="M144.531,214.951h-35.221c-5.522,0-10-4.478-10-10v-74.271c0-5.522,4.478-10,10-10h35.221    c5.522,0,10,4.478,10,10v74.271C154.531,210.474,150.054,214.951,144.531,214.951z M119.311,194.951h15.221v-54.271h-15.221    V194.951z" fill="#444B54"/></g><g><rect fill="#3C74BA" height="51.16" width="35.221" x="238.652" y="153.791"/><path d="M273.873,214.951h-35.221c-5.522,0-10-4.478-10-10v-51.16c0-5.522,4.478-10,10-10h35.221    c5.522,0,10,4.478,10,10v51.16C283.873,210.474,279.396,214.951,273.873,214.951z M248.652,194.951h15.221v-31.16h-15.221V194.951    z" fill="#444B54"/></g><g><rect fill="#3C74BA" height="31.988" width="35.221" x="367.182" y="172.963"/><path d="M402.402,214.951h-35.221c-5.522,0-10-4.478-10-10v-31.988c0-5.522,4.478-10,10-10h35.221    c5.522,0,10,4.478,10,10v31.988C412.402,210.474,407.925,214.951,402.402,214.951z M377.182,194.951h15.221v-11.988h-15.221    V194.951z" fill="#444B54"/></g></g></svg>