<?xml version="1.0" encoding="iso-8859-1"?>
<!-- Generator: Adobe Illustrator 19.0.0, SVG Export Plug-In . SVG Version: 6.00 Build 0)  -->
<svg version="1.1" id="Layer_1" xmlns="http://www.w3.org/2000/svg" xmlns:xlink="http://www.w3.org/1999/xlink" x="0px" y="0px"
	 viewBox="0 0 512 512" style="enable-background:new 0 0 512 512;" xml:space="preserve">
<path style="fill:#53626F;" d="M297.875,404.473c0-27.115,0-38.318,0-38.318h-68.597c0,0,0,11.203,0,38.318
	c0,38.439-52.984,53.837-52.984,53.837h174.564C350.859,458.31,297.875,442.912,297.875,404.473z"/>
<path style="fill:#6E8193;" d="M512,379.648c0,5.054-4.098,9.152-9.152,9.152H9.152C4.098,388.8,0,384.702,0,379.648V42.188
	c0-5.054,4.098-9.152,9.152-9.152h493.693c5.054,0,9.152,4.098,9.152,9.152v337.46H512z"/>
<rect x="30.306" y="62.065" style="fill:#FBF5E2;" width="451.382" height="272.541"/>
<g>
	<circle style="fill:#596977;" cx="263.589" cy="47.571" r="4.755"/>
	<circle style="fill:#596977;" cx="263.589" cy="363.128" r="13.698"/>
</g>
<g>
	<path style="fill:#89A1BA;" d="M236.74,363.134c0,2.163-1.754,3.914-3.914,3.914h-19.411c-2.163,0-3.914-1.751-3.914-3.914l0,0
		c0-2.163,1.751-3.914,3.914-3.914h19.411C234.986,359.22,236.74,360.971,236.74,363.134L236.74,363.134z"/>
	<path style="fill:#89A1BA;" d="M197.164,363.134c0,2.163-1.751,3.914-3.914,3.914h-19.411c-2.16,0-3.914-1.751-3.914-3.914l0,0
		c0-2.163,1.754-3.914,3.914-3.914h19.411C195.409,359.22,197.164,360.971,197.164,363.134L197.164,363.134z"/>
	<path style="fill:#89A1BA;" d="M357.228,363.134c0,2.163-1.751,3.914-3.914,3.914h-19.411c-2.163,0-3.914-1.751-3.914-3.914l0,0
		c0-2.163,1.754-3.914,3.914-3.914h19.411C355.477,359.22,357.228,360.971,357.228,363.134L357.228,363.134z"/>
	<path style="fill:#89A1BA;" d="M317.652,363.134c0,2.163-1.754,3.914-3.914,3.914h-19.411c-2.163,0-3.914-1.751-3.914-3.914l0,0
		c0-2.163,1.751-3.914,3.914-3.914h19.411C315.901,359.22,317.652,360.971,317.652,363.134L317.652,363.134z"/>
</g>
<path style="fill:#6E8193;" d="M373.606,455.285H153.547c-13.078,0-23.679,10.601-23.679,23.679h267.415
	C397.285,465.886,386.684,455.285,373.606,455.285z"/>
<path style="fill:#D2314B;" d="M140.959,134.672c-23.25,7.452-40.081,29.235-40.081,54.959c0,4.34,0.496,8.562,1.403,12.627
	l56.311-12.627L140.959,134.672z"/>
<path style="fill:#4A7CF0;" d="M158.592,189.631l40.496-41.107c-10.417-10.265-24.714-16.608-40.496-16.608
	c-7.561,0-14.772,1.467-21.387,4.11L158.592,189.631z"/>
<path style="fill:#E1A932;" d="M189.639,140.993l-31.047,48.638l53.468,21.725c2.728-6.708,4.243-14.037,4.243-21.725
	C216.303,169.191,205.669,151.25,189.639,140.993z"/>
<path style="fill:#6CBB48;" d="M102.281,202.258c5.762,25.796,28.775,45.084,56.311,45.084c24.184,0,44.884-14.884,53.468-35.986
	l-53.468-21.725L102.281,202.258z"/>
<g style="opacity:0.2;">
	<path d="M204.078,269.79c0,1.703-1.382,3.085-3.085,3.085h-84.808c-1.703,0-3.085-1.379-3.085-3.085l0,0
		c0-1.703,1.382-3.085,2.653-3.085h84.808C202.699,266.708,204.078,268.088,204.078,269.79L204.078,269.79z"/>
</g>
<g style="opacity:0.2;">
	<path d="M203.645,287.387c0,1.703-1.382,3.088-3.085,3.088h-84.808c-1.703,0-3.085-1.382-3.085-3.088l0,0
		c0-1.703,1.382-3.085,3.085-3.085h84.808C202.266,284.302,203.645,285.684,203.645,287.387L203.645,287.387z"/>
</g>
<g style="opacity:0.2;">
	<path d="M204.078,304.984c0,1.703-1.382,3.085-3.085,3.085h-84.808c-1.703,0-3.085-1.379-3.085-3.085l0,0
		c0-1.703,1.382-3.085,3.085-3.085h84.808C202.699,301.899,204.078,303.278,204.078,304.984L204.078,304.984z"/>
</g>
<g style="opacity:0.2;">
	<path d="M402.968,269.79c0,1.703-1.382,3.085-3.085,3.085h-132.06c-1.703,0-3.085-1.379-3.085-3.085l0,0
		c0-1.703,1.382-3.085,2.653-3.085h132.06C401.586,266.708,402.968,268.088,402.968,269.79L402.968,269.79z"/>
</g>
<g style="opacity:0.2;">
	<path d="M402.533,287.387c0,1.703-1.379,3.088-3.085,3.088H267.39c-1.703,0-3.085-1.382-3.085-3.088l0,0
		c0-1.703,1.382-3.085,3.085-3.085h132.06C401.154,284.302,402.533,285.684,402.533,287.387L402.533,287.387z"/>
</g>
<g style="opacity:0.2;">
	<path d="M402.968,304.984c0,1.703-1.382,3.085-3.085,3.085h-132.06c-1.703,0-3.085-1.379-3.085-3.085l0,0
		c0-1.703,1.382-3.085,3.085-3.085h132.06C401.586,301.899,402.968,303.278,402.968,304.984L402.968,304.984z"/>
</g>
<rect x="273.842" y="145.845" style="fill:#4A7CF0;" width="19.393" height="95.675"/>
<rect x="307.233" y="193.693" style="fill:#D2314B;" width="19.393" height="47.836"/>
<rect x="340.624" y="131.92" style="fill:#E1A932;" width="19.396" height="109.609"/>
<rect x="374.045" y="156.836" style="fill:#6CBB48;" width="19.393" height="84.684"/>
<path style="fill:#808080;" d="M411.123,243.788H256.151c-1.252,0-2.268-1.016-2.268-2.268s1.016-2.268,2.268-2.268H411.12
	c1.252,0,2.268,1.016,2.268,2.268S412.375,243.788,411.123,243.788z"/>
<g style="opacity:0.4;">
	<path style="fill:#515763;" d="M389.158,95.498c0,4.706-3.817,8.523-8.523,8.523H131.362c-4.706,0-8.523-3.817-8.523-8.523l0,0
		c0-4.706,3.817-8.523,8.523-8.523h249.273C385.344,86.975,389.158,90.792,389.158,95.498L389.158,95.498z"/>
</g>
<g>
</g>
<g>
</g>
<g>
</g>
<g>
</g>
<g>
</g>
<g>
</g>
<g>
</g>
<g>
</g>
<g>
</g>
<g>
</g>
<g>
</g>
<g>
</g>
<g>
</g>
<g>
</g>
<g>
</g>
</svg>
