<?xml version="1.0" encoding="iso-8859-1"?>
<!-- Generator: Adobe Illustrator 19.0.0, SVG Export Plug-In . SVG Version: 6.00 Build 0)  -->
<svg version="1.1" id="Layer_1" xmlns="http://www.w3.org/2000/svg" xmlns:xlink="http://www.w3.org/1999/xlink" x="0px" y="0px"
	 viewBox="0 0 512 512" style="enable-background: new 0 0 512 512" xml:space="preserve">
<path style="fill: #53626f" d="M 297.9 404.5 c 0 -27.1 0 -38.3 0 -38.3 h -68.6 c 0 0 0 11.2 0 38.3 c 0 38.4 -53 53.8 -53 53.8 h 174.6 C 350.9 458.3 297.9 442.9 297.9 404.5 z"/>
<path style="fill: #6e8193" d="M 512 379.6 c 0 5.1 -4.1 9.2 -9.2 9.2 H 9.2 C 4.1 388.8 0 384.7 0 379.6 V 42.2 c 0 -5.1 4.1 -9.2 9.2 -9.2 h 493.7 c 5.1 0 9.2 4.1 9.2 9.2 v 337.5 H 512 z"/>
<rect x="30.3" y="62.1" style="fill: #fbf5e2" width="451.4" height="272.5"/>
<g>
	<circle style="fill: #596977" cx="263.6" cy="47.6" r="4.8"/>
	<circle style="fill: #596977" cx="263.6" cy="363.1" r="13.7"/>
</g>
<g>
	<path style="fill: #89a1ba" d="M 236.7 363.1 c 0 2.2 -1.8 3.9 -3.9 3.9 h -19.4 c -2.2 0 -3.9 -1.8 -3.9 -3.9 l 0 0 c 0 -2.2 1.8 -3.9 3.9 -3.9 h 19.4 C 235 359.2 236.7 361 236.7 363.1 L 236.7 363.1 z"/>
	<path style="fill: #89a1ba" d="M 197.2 363.1 c 0 2.2 -1.8 3.9 -3.9 3.9 h -19.4 c -2.2 0 -3.9 -1.8 -3.9 -3.9 l 0 0 c 0 -2.2 1.8 -3.9 3.9 -3.9 h 19.4 C 195.4 359.2 197.2 361 197.2 363.1 L 197.2 363.1 z"/>
	<path style="fill: #89a1ba" d="M 357.2 363.1 c 0 2.2 -1.8 3.9 -3.9 3.9 h -19.4 c -2.2 0 -3.9 -1.8 -3.9 -3.9 l 0 0 c 0 -2.2 1.8 -3.9 3.9 -3.9 h 19.4 C 355.5 359.2 357.2 361 357.2 363.1 L 357.2 363.1 z"/>
	<path style="fill: #89a1ba" d="M 317.7 363.1 c 0 2.2 -1.8 3.9 -3.9 3.9 h -19.4 c -2.2 0 -3.9 -1.8 -3.9 -3.9 l 0 0 c 0 -2.2 1.8 -3.9 3.9 -3.9 h 19.4 C 315.9 359.2 317.7 361 317.7 363.1 L 317.7 363.1 z"/>
</g>
<path style="fill: #6e8193" d="M 373.6 455.3 H 153.5 c -13.1 0 -23.7 10.6 -23.7 23.7 h 267.4 C 397.3 465.9 386.7 455.3 373.6 455.3 z"/>
<path style="fill: #d2314b" d="M 141 134.7 c -23.3 7.5 -40.1 29.2 -40.1 55 c 0 4.3 0.5 8.6 1.4 12.6 l 56.3 -12.6 L 141 134.7 z"/>
<path style="fill: #4a7cf0" d="M 158.6 188.6 l 40.5 -41.1 c -10.4 -10.3 -24.7 -16.6 -40.5 -16.6 c -7.6 0 -14.8 1.5 -21.4 4.1 L 158.6 188.6 z"/>
<path style="fill: #e1a932" d="M 189.6 141 l -31 48.6 l 53.5 21.7 c 2.7 -6.7 4.2 -14 4.2 -21.7 C 216.3 169.2 205.7 151.3 189.6 141 z"/>
<path style="fill: #6cbb48" d="M 102.3 202.3 c 5.8 25.8 28.8 45.1 56.3 45.1 c 24.2 0 44.9 -14.9 53.5 -36 l -53.5 -21.7 L 102.3 202.3 z"/>
<g style="opacity: 0.2">
	<path d="M 204.1 269.8 c 0 1.7 -1.4 3.1 -3.1 3.1 h -84.8 c -1.7 0 -3.1 -1.4 -3.1 -3.1 l 0 0 c 0 -1.7 1.4 -3.1 2.7 -3.1 h 84.8 C 202.7 266.7 204.1 268.1 204.1 269.8 L 204.1 269.8 z"/>
</g>
<g style="opacity: 0.2">
	<path d="M 203.6 287.4 c 0 1.7 -1.4 3.1 -3.1 3.1 h -84.8 c -1.7 0 -3.1 -1.4 -3.1 -3.1 l 0 0 c 0 -1.7 1.4 -3.1 3.1 -3.1 h 84.8 C 202.3 284.3 203.6 285.7 203.6 287.4 L 203.6 287.4 z"/>
</g>
<g style="opacity: 0.2">
	<path d="M 204.1 305 c 0 1.7 -1.4 3.1 -3.1 3.1 h -84.8 c -1.7 0 -3.1 -1.4 -3.1 -3.1 l 0 0 c 0 -1.7 1.4 -3.1 3.1 -3.1 h 84.8 C 202.7 301.9 204.1 303.3 204.1 305 L 204.1 305 z"/>
</g>
<g style="opacity: 0.2">
	<path d="M 403 269.8 c 0 1.7 -1.4 3.1 -3.1 3.1 h -132.1 c -1.7 0 -3.1 -1.4 -3.1 -3.1 l 0 0 c 0 -1.7 1.4 -3.1 2.7 -3.1 h 132.1 C 401.6 266.7 403 268.1 403 269.8 L 403 269.8 z"/>
</g>
<g style="opacity: 0.2">
	<path d="M 402.5 287.4 c 0 1.7 -1.4 3.1 -3.1 3.1 H 267.4 c -1.7 0 -3.1 -1.4 -3.1 -3.1 l 0 0 c 0 -1.7 1.4 -3.1 3.1 -3.1 h 132.1 C 401.2 284.3 402.5 285.7 402.5 287.4 L 402.5 287.4 z"/>
</g>
<g style="opacity: 0.2">
	<path d="M 403 305 c 0 1.7 -1.4 3.1 -3.1 3.1 h -132.1 c -1.7 0 -3.1 -1.4 -3.1 -3.1 l 0 0 c 0 -1.7 1.4 -3.1 3.1 -3.1 h 132.1 C 401.6 301.9 403 303.3 403 305 L 403 305 z"/>
</g>
<rect x="273.8" y="145.8" style="fill: #4a7cf0" width="19.4" height="95.7"/>
<rect x="307.2" y="193.7" style="fill: #d2314b" width="19.4" height="47.8"/>
<rect x="340.6" y="131.9" style="fill: #e1a932" width="19.4" height="109.6"/>
<rect x="374" y="156.8" style="fill: #6cbb48" width="19.4" height="84.7"/>
<path style="fill: #808080" d="M 411.1 243.8 H 256.2 c -1.3 0 -2.3 -1 -2.3 -2.3 s 1 -2.3 2.3 -2.3 H 411.1 c 1.3 0 2.3 1 2.3 2.3 S 412.4 243.8 411.1 243.8 z"/>
<g style="opacity: 0.4">
	<path style="fill: #515763" d="M 389.2 95.5 c 0 4.7 -3.8 8.5 -8.5 8.5 H 131.4 c -4.7 0 -8.5 -3.8 -8.5 -8.5 l 0 0 c 0 -4.7 3.8 -8.5 8.5 -8.5 h 249.3 C 385.3 87 389.2 90.8 389.2 95.5 L 389.2 95.5 z"/>
</g>
</svg>
