<?xml version="1.0" encoding="utf-8"?>
<!-- Generator: Adobe Illustrator 19.1.0, SVG Export Plug-In . SVG Version: 6.00 Build 0)  -->
<svg version="1.1" id="Layer_1" xmlns="http://www.w3.org/2000/svg" xmlns:xlink="http://www.w3.org/1999/xlink" x="0px"
	y="0px" viewBox="0 0 64 64" enable-background="new 0 0 64 64" xml:space="preserve">
	<g id="Glasses_2_">
		<path
			d="M47.4043007,26.2632008c-0.5321999-0.0370998-1.0321999,0.3680992-1.0762024,0.9179001
		c-0.0438995,0.5507984,0.3672028,1.032299,0.9180031,1.0761986c2.6620979,0.2119007,4.0214996,1.5860004,4.4062996,4.4540997
		c0.0672989,0.5030022,0.4969978,0.8672028,0.9902,0.8672028c0.0438995,0,0.0888977-0.002903,0.1337967-0.0088005
		c0.547802-0.0732002,0.9316025-0.5771027,0.8584023-1.1240005C53.1231003,28.6313,51.0263977,26.5513,47.4043007,26.2632008z" />
		<path
			d="M16.652401,26.2632008C16.1035004,26.2261009,15.6201,26.6313,15.5762005,27.1811008
		c-0.0439997,0.5507984,0.3671999,1.032299,0.9179993,1.0761986c2.6630001,0.2119007,4.0214005,1.585001,4.405201,4.4540997
		c0.0674,0.5020027,0.4960995,0.8672028,0.9902992,0.8672028c0.0438995,0,0.0888004-0.002903,0.1338005-0.0088005
		c0.5468006-0.0732002,0.9316006-0.5762024,0.858408-1.1240005C22.3721008,28.6322994,20.2763996,26.5522003,16.652401,26.2632008z" />
		<path
			d="M63,28.9204006h-4.9604988c-1.3409004-4.6570015-5.6318016-8.0771008-10.7143021-8.0771008
		c-4.3419991,0-8.1032906,2.4990005-9.9459,6.1293011c-0.8866005-1.8055-2.5682983-3.5776005-5.4309998-3.5776005
		c-2.8613911,0-4.5425987,1.7719994-5.4291992,3.5774994c-1.8425999-3.6301994-5.603899-6.1292-9.9457989-6.1292
		c-5.0825005,0-9.3735008,3.4200993-10.7143002,8.0771008H1.0000008c-0.5527,0-1,0.4473-1,1s0.4473,1,1,1h4.4716997
		c-0.0342999,0.3554001-0.0546999,0.7147999-0.0546999,1.0790997c0,6.152401,5.0049086,11.1571999,11.1563005,11.1571999
		c6.1512985,0,11.1561985-5.0047989,11.1561985-11.1571999c0-0.6299-0.0650005-1.2437-0.1658001-1.8455009
		c0.0778008-0.1209984,0.1365013-0.2558994,0.1569996-0.4083996c0.0244007-0.1777,0.6299-4.3505993,4.2276001-4.3505993
		c3.5996094,0,4.2050018,4.1728992,4.2285004,4.3477001c0.0196991,0.1521988,0.0807991,0.2852001,0.1587982,0.4062996
		c-0.1013985,0.6033001-0.1665993,1.2187996-0.1665993,1.8505001c0,6.152401,5.0048027,11.1571999,11.1562004,11.1571999
		s11.1562996-5.0047989,11.1562996-11.1571999c0-0.3642998-0.020401-0.7236996-0.0546989-1.0790997H63c0.5527992,0,1-0.4473,1-1
		S63.5527992,28.9204006,63,28.9204006z M16.5733013,41.1567001c-5.0489006,0-9.1563005-4.1083984-9.1563005-9.1571999
		s4.1073999-9.1562004,9.1563005-9.1562004c5.0487995,0,9.1561985,4.1074009,9.1561985,9.1562004
		S21.6221008,41.1567001,16.5733013,41.1567001z M47.3251991,41.1567001c-5.0487976,0-9.1562004-4.1083984-9.1562004-9.1571999
		s4.1074028-9.1562004,9.1562004-9.1562004s9.1562996,4.1074009,9.1562996,9.1562004S52.3740005,41.1567001,47.3251991,41.1567001z" />
	</g>
</svg>