<?xml version="1.0" encoding="iso-8859-1"?>
<!-- Generator: Adobe Illustrator 18.0.0, SVG Export Plug-In . SVG Version: 6.00 Build 0)  -->
<!DOCTYPE svg PUBLIC "-//W3C//DTD SVG 1.1//EN" "http://www.w3.org/Graphics/SVG/1.1/DTD/svg11.dtd">
<svg version="1.1" id="Capa_1" xmlns="http://www.w3.org/2000/svg" xmlns:xlink="http://www.w3.org/1999/xlink" x="0px" y="0px"
	 viewBox="0 0 60 60" style="enable-background: new 0 0 60 60" xml:space="preserve">
<g>
	<g>
		<g>
			<rect x="1" y="4.5" style="fill: #ecf0f1" width="55" height="42"/>
			<path style="fill: #545e73" d="M 57 47.5 H 0 v -44 h 57 V 47.5 z M 2 45.5 h 53 v -40 H 2 V 45.5 z"/>
		</g>
		<g>
			<rect x="5" y="8.5" style="fill: #545e73" width="47" height="34"/>
			<path style="fill: #ecf0f1" d="M 53 43.5 H 4 v -36 h 49 V 43.5 z M 6 41.5 h 45 v -32 H 6 V 41.5 z"/>
		</g>
		<circle style="fill: #f3d55a" cx="15" cy="17.1" r="4.6"/>
		<polygon style="fill: #11a085" points="51,32.6 50,31.5 38,20.5 27.5,32 33,37.5 37,41.5 51,41.5"/>
		<polygon style="fill: #26b999" points="6,41.5 37,41.5 33,37.5 22,26.5 6,40.5"/>
	</g>
	<g>
		<circle style="fill: #26b999" cx="48" cy="44.5" r="12"/>
		<path style="fill: #ffffff" d="M 54.6 38.7 c -0.5 -0.3 -1.1 -0.2 -1.4 0.3 l -5.6 8 l -3.9 -3.2 c -0.4 -0.4 -1.1 -0.3 -1.4 0.1 c -0.4 0.4 -0.3 1.1 0.1 1.4 l 4.8 3.9 c 0.2 0.1 0.4 0.2 0.6 0.2 c 0 0 0.1 0 0.1 0 c 0.3 0 0.5 -0.2 0.7 -0.4 l 6.2 -8.9 C 55.1 39.6 55 39 54.6 38.7 z"/>
	</g>
</g>
</svg>
