<?xml version="1.0" encoding="iso-8859-1"?>
<!-- Generator: Adobe Illustrator 19.0.0, SVG Export Plug-In . SVG Version: 6.00 Build 0)  -->
<svg version="1.1" id="Layer_1" xmlns="http://www.w3.org/2000/svg" xmlns:xlink="http://www.w3.org/1999/xlink" x="0px" y="0px"
	 viewBox="0 0 512 512" style="enable-background:new 0 0 512 512;" xml:space="preserve">
<path style="fill:#FEC377;" d="M198.451,221.771c0,0-2.071,19.885-0.836,21.12c1.235,1.235,6.913,4.693,8.273,4.693
	c1.36,0,11.307-3.81,12.466-6.413c0.999-2.241,0.267-7.902-2.569-11.306c-3.258-3.91-2.837-10.779-2.837-10.779L198.451,221.771z"/>
<g>
	<path style="fill:#884D01;" d="M221.421,444.012c0,0-33.651,32.877-26.351,37.47c10.168,6.397,51.492-20.001,51.492-22.119
		c0-2.118-2.927-22.694-2.927-22.694L221.421,444.012z"/>
	<path style="fill:#884D01;" d="M267.035,469.308c0,0-32.484,35.453-23.087,41.748c9.98,6.685,48.228-24.28,48.228-26.398
		s-2.927-22.694-2.927-22.694L267.035,469.308z"/>
</g>
<path style="fill:#57565C;" d="M214.208,240.172l-0.745,207.432c0,0-0.478,6.084,15.742,6.084s17.077-7.759,17.077-7.759
	l4.322-150.267l0.788,0.113l8.491,177.664c0,0-1.003,4.762,15.217,4.762s17.077-7.759,17.077-7.759l1.568-223.248L214.208,240.172z"
	/>
<path style="fill:#FEC377;" d="M225.646,82.759c-2.382-0.252-16.482,2.49-19.205,24.124c-0.981,7.796-2.904,35.427-3.921,61.46
	c-1.166,29.829-4.069,53.428-4.069,53.428c0,6.808,11.983,11.903,16.976,6.91c0.748-0.748,9.274-36.64,9.625-67.097
	C225.501,122.632,242.23,84.513,225.646,82.759z"/>
<g>
	<path style="fill:#008778;" d="M225.555,82.759c-2.412-0.255-16.977,1.801-19.443,24.424c-0.862,7.908-2.939,35.867-3.97,62.224
		c-0.005,0.12-0.01,0.237-0.015,0.357c6.207,4.599,14.726,5.999,22.378,3.877c0.246-3.724,0.406-7.439,0.448-11.077
		C225.408,123.127,242.344,84.535,225.555,82.759z"/>
	<path style="fill:#008778;" d="M211.696,238.641c0,0-2.104-34.892-1.573-67.043c0.446-26.979-2.241-53.614-2.119-60.327
		c0.303-16.642,10.774-28.422,16.897-28.526c0,0,42.827,3.525,78.597,31.348c0,0-3.762,139.41-8.519,141.024
		C255.749,268.424,213.284,245.905,211.696,238.641z"/>
</g>
<path style="fill:#02665A;" d="M293.743,215.271c-0.027-1.973-0.06-3.874-0.096-5.742c-0.219-0.048-0.427-0.096-0.622-0.143
	c-0.503-25.493-1.811-40.765-2.841-51.819l-1.803,99.446c1.937-0.465,3.872-1.02,5.8-1.649
	C294.112,246.214,293.984,232.963,293.743,215.271z"/>
<path style="fill:#FFB657;" d="M241.441,74.81c0,0-2.253,17.02-3.329,26.372c-0.795,6.918,3.646,11.661,13.224,9.618
	c13.774-2.938,20.666-11.027,20.666-11.027c-4.407-14.842-4.121-36.356-4.121-36.356L241.441,74.81z"/>
<g>
	<path style="fill:#00AB95;" d="M270.823,95.208c0,0,0.467,1.524-0.652,2.644c-2.614,2.614-10.957,10.688-21.92,13.387l4.37,14.472
		c0,0,22.494-16.868,22.122-24.524c-0.307-6.317-4.665-9.751-4.665-9.751L270.823,95.208z"/>
	<path style="fill:#00AB95;" d="M238.91,94.535c0,0-3.129,3.668-5.235,10.687c-2.105,7.02,2.617,16.847,2.617,16.847l5.766-11.914
		c0,0-3.344-5.433-3.645-7.543C238.112,100.501,238.91,94.535,238.91,94.535z"/>
</g>
<path style="fill:#FEC377;" d="M219.185,46.837c0,0,2.133,31.972,9.821,37.683c7.688,5.71,31.782,0.235,45.184-22.579
	c11.18-19.033,6.515-56.365-17.517-60.323C228.602-3.005,217.501,18.225,219.185,46.837z"/>
<g>
	<path style="fill:#806749;" d="M256.673,25.202c-6.558,2.824-13.965,3.011-21.063,2.228c-10.199-1.125-19.464-6.475-23.676-15.832
		c2.07-1.22,34.47-13.806,45.546-11.258c5.295,1.218,15.764,4.829,14.264,11.522C270.432,17.715,261.872,22.962,256.673,25.202z"/>
	<path style="fill:#806749;" d="M261.151,20.431c-2.401,6.905,1.034,14.283,3.066,21.304c1.73,5.978,0.97,12.247,0.638,18.461
		c0.957-4.229,1.308-5.221,2.953-9.234c1.241-3.027,3.064-6.222,5.43-6.225c2.604-0.004,2.586,3.124,2.594,5.728
		c0.023,7.43-2.919,12.735-6.45,19.272c7.426-6.095,14.272-15.212,15.552-24.734c1.281-9.53-0.676-20.205-5.65-28.497
		c-2.159-3.601-4.973-6.965-9.366-5.224C266.206,12.753,262.449,16.699,261.151,20.431z"/>
</g>
<g>
	<path style="fill:#FEC377;" d="M294.437,269.213c0,0-0.372,12.163-0.029,14.483c0.342,2.32,2.846,4.625,2.846,4.625
		s-0.226,5.62,1.952,7.239c2.179,1.619,14.802-4.513,16.739-6.501c2.723-2.794-0.616-22.926-0.616-22.926
		S297.59,259.052,294.437,269.213z"/>
	<path style="fill:#FEC377;" d="M303.497,114.092c0,0-13.318,3.161-13.952,19.013s3.499,30.552,4.198,82.168
		c0.519,38.315,0.519,55.85,0.519,55.85s6.081,6.511,21.066-4.987c0,0,2.446-70.81,2.289-80.158
		C316.639,127.748,314.031,120.442,303.497,114.092z"/>
</g>
<path style="fill:#008778;" d="M317.868,206.078c0.207-7.998,0.032-15.351-0.007-17.721c-1.011-60.157-1.32-67.705-14.588-74.265
	c0,0-13.76,3.265-14.414,19.642c-0.629,15.72,3.214,27.342,4.168,75.654C299.16,210.866,317.967,213.139,317.868,206.078z"/>
<path style="fill:#FEC377;" d="M264.874,60.012c0,0,2.51-17.63,7.732-17.864c3.683-0.165,5.287,7.445,2.58,13.295
	c-2.707,5.85-10.312,11.307-10.312,11.307V60.012z"/>
<g>
</g>
<g>
</g>
<g>
</g>
<g>
</g>
<g>
</g>
<g>
</g>
<g>
</g>
<g>
</g>
<g>
</g>
<g>
</g>
<g>
</g>
<g>
</g>
<g>
</g>
<g>
</g>
<g>
</g>
</svg>
