<?xml version="1.0" encoding="iso-8859-1"?>
<!-- Generator: Adobe Illustrator 19.0.0, SVG Export Plug-In . SVG Version: 6.00 Build 0)  -->
<svg version="1.1" id="Layer_1" xmlns="http://www.w3.org/2000/svg" xmlns:xlink="http://www.w3.org/1999/xlink" x="0px" y="0px"
	 viewBox="0 0 511.999 511.999" style="enable-background:new 0 0 511.999 511.999;" xml:space="preserve">
<g>
	<path style="fill:#FFB657;" d="M198.402,222.484c0,0-2.066,19.837-0.834,21.069s6.896,4.681,8.253,4.681
		c1.357,0,11.279-3.8,12.436-6.398c0.995-2.235,0.267-7.883-2.563-11.278c-3.25-3.9-2.83-10.753-2.83-10.753L198.402,222.484z"/>
	<path style="fill:#FFB657;" d="M225.531,83.814c-2.376-0.251-16.441,2.484-19.157,24.065c-0.979,7.777-3.119,37.982-4.134,63.951
		c-1.163,29.756-3.837,50.654-3.837,50.654c0,6.791,11.953,11.875,16.934,6.893c0.746-0.746,0.929-28.942,6.947-69.587
		C227.974,121.349,242.074,85.564,225.531,83.814z"/>
</g>
<g>
	<path style="fill:#884D01;" d="M221.315,444.179c0,0-33.569,32.796-26.287,37.378c10.143,6.381,51.365-19.952,51.365-22.065
		s-2.92-22.637-2.92-22.637L221.315,444.179z"/>
	<path style="fill:#884D01;" d="M266.818,469.413c0,0-32.405,35.366-23.03,41.646c9.955,6.669,48.109-24.219,48.109-26.332
		s-2.92-22.637-2.92-22.637L266.818,469.413z"/>
</g>
<path style="fill:#01544C;" d="M214.121,240.839l-0.743,206.923c0,0-0.477,6.069,15.703,6.069s17.035-7.741,17.035-7.741
	l4.311-149.897l0.786,0.113l8.47,177.227c0,0-1.001,4.75,15.18,4.75c16.18,0,17.035-7.741,17.035-7.741l1.564-222.7L214.121,240.839
	z"/>
<path style="fill:#FF9911;" d="M211.614,239.313c0,0-2.1-34.806-1.568-66.877c0.446-26.913-2.236-53.482-2.114-60.179
	c0.303-16.601,10.748-28.353,16.854-28.457c0,0,42.722,3.517,78.404,31.27c0,0-3.752,139.067-8.498,140.677
	C255.56,269.023,213.199,246.56,211.614,239.313z"/>
<path style="fill:#FFB657;" d="M241.287,75.883c0,0-2.248,16.979-3.32,26.307c-0.794,6.902,11.4,11.349,20.721,8.418
	c9.319-2.931,13.085-9.823,13.085-9.823c-4.396-14.805-4.11-36.267-4.11-36.267L241.287,75.883z"/>
<path style="fill:#5E4C36;" d="M216.439,25.247c-1.803,11.482-0.345,23.457,4.158,34.17c2.219-10.101,3.618-20.381,4.177-30.709
	c0.164-3.022,4.695-16.864,0.45-17.646C220.877,10.261,216.89,22.377,216.439,25.247z"/>
<path style="fill:#FEC377;" d="M219.085,47.98c0,0,2.128,31.894,9.796,37.591s31.704,0.235,45.073-22.524
	c11.153-18.986,6.499-56.226-17.474-60.175C228.479-1.739,217.405,19.438,219.085,47.98z"/>
<path style="fill:#5E4C36;" d="M219.761,21.946c-1.56,9.113,4.737,19.024,13.852,20.573c-0.594-4.16-1.187-8.321-1.781-12.48
	c5.648,7.561,16.27,8.868,25.683,9.546c-1.608-2.736-2.463-5.91-2.447-9.084c14.35,2.404,9.424,27.901,9.594,35.31
	c0.081-6.172,6.049-9.797,8.55-15.442c2.874,2.845-1.081,13.656-2.414,17.474c7.142-5.103,9.906-21.547,10.032-31.183
	c0.089-6.739-0.941-17.128-4.532-22.831c-3.396-5.393-8.042-9.308-14.075-11.364C233.94-7.173,221.12,14.003,219.761,21.946z"/>
<g>
	<path style="fill:#FFB657;" d="M294.152,269.81c0,0-0.37,12.134-0.029,14.448c0.341,2.314,2.839,4.613,2.839,4.613
		s-0.225,5.607,1.947,7.221c2.173,1.614,14.765-4.503,16.698-6.485c2.716-2.787-0.615-22.869-0.615-22.869
		S297.298,259.673,294.152,269.81z"/>
	<path style="fill:#FFB657;" d="M303.191,115.07c0,0-13.286,3.153-13.918,18.965c-0.632,15.813,2.937,28.622,3.672,80.654
		c0.65,45.989,1.156,57.011,1.156,57.011s6.502,10.267,21.449-1.203c0,0-0.235-74.394-0.392-83.72
		C314.182,128.692,313.698,121.403,303.191,115.07z"/>
</g>
<path style="fill:#F18700;" d="M292.945,214.689c-0.453-32.077-1.983-49.239-2.942-61.396l-1.892,104.346
	c1.854-0.445,3.706-0.977,5.553-1.573C293.469,247.315,293.22,234.139,292.945,214.689z"/>
<path style="fill:#FEC377;" d="M264.662,61.122c0,0,2.503-17.587,7.714-17.821c3.674-0.164,5.274,7.427,2.573,13.263
	c-2.701,5.836-10.287,11.279-10.287,11.279L264.662,61.122L264.662,61.122z"/>
<g>
	<path style="fill:#FF9911;" d="M288.111,134.035c0,15.664,0,40.357,0,40.357s23.892,3.202,29.656-2.562
		c0,0,3.284-48.812-14.577-56.761C296.81,112.229,288.111,125.698,288.111,134.035z"/>
	<path style="fill:#FF9911;" d="M214.281,135.965c-11.832-4.168-11.125-11.125-11.125-11.125
		c0.918-42.771,19.805-40.71,19.805-40.71L214.281,135.965z"/>
</g>
<g>
</g>
<g>
</g>
<g>
</g>
<g>
</g>
<g>
</g>
<g>
</g>
<g>
</g>
<g>
</g>
<g>
</g>
<g>
</g>
<g>
</g>
<g>
</g>
<g>
</g>
<g>
</g>
<g>
</g>
</svg>
