<?xml version="1.0" encoding="utf-8"?>
<svg width="800" height="310" viewBox="0 0 800 310" xmlns="http://www.w3.org/2000/svg">
  <defs>
    <path id="path-0" d="M 52.771 105.984 C 51.53 84.309 41.081 99.146 32.285 104.743 C 25.053 114.969 28.201 116.82 38.493 109.709 C 59.148 95.439 64.548 88.417 78.224 72.461 C 81.762 63.522 90.763 39.312 82.57 55.699 C 75.389 76.687 69.788 90.319 65.808 102.26 C 64.567 109.114 61.463 113.475 61.463 118.4 C 73.367 109.843 83.34 99.712 94.986 91.706 C 95.626 91.266 104.068 84.256 104.919 84.256 C 109.322 83.015 112.643 79.911 116.714 79.911 C 124.703 76.847 133.611 74.944 139.063 74.944 C 143.155 72.714 147.16 73.703 150.237 73.703 C 158.291 73.703 168.546 74.944 172.586 74.944 C 172.586 96.904 159.219 104.842 140.925 110.33 C 129.156 111.875 99.023 118.095 96.227 111.572 C 93.958 106.277 94.365 99.115 94.365 93.568 C 103.022 81.186 110.444 76.147 119.197 72.461 C 123.179 70.784 129.681 64.872 131.613 68.736 C 133.729 72.969 130.042 70.523 131.613 76.807 C 121.253 91.607 117.356 96.215 108.643 100.397 C 96.002 106.465 91.723 102.768 100.573 91.706 C 113.687 89.843 105.926 107.012 106.781 107.226 C 107.584 107.427 109.264 106.398 109.264 107.226 C 141.536 91.378 165.598 80.611 188.106 69.357 C 201.332 60.126 209.797 49.519 219.767 42.042 C 224.72 38.944 212.972 44.198 211.076 45.146 C 204.619 48.374 198.435 52.165 191.831 55.079 C 175.554 62.26 157.153 66.621 141.546 74.944 C 120.946 81.453 108.565 89.41 98.711 97.293 C 90.305 104.017 100.216 95.122 90.019 102.26 C 88.821 103.099 85.463 105.182 86.915 105.364 C 88.763 105.595 93.819 104.047 92.503 105.364 C 121.953 97.724 147.319 88.014 171.965 84.877 C 177.251 84.204 207.351 78.799 207.351 87.981 C 186.019 111.89 155.022 125.251 129.13 128.333 C 115.664 129.936 99.331 126.588 99.331 108.468 C 99.331 90.121 126.054 78.584 119.197 99.156 C 115.94 108.925 113.95 105.198 109.264 112.813 C 89.255 127.18 55.843 145.585 36.631 129.575 C 27.608 122.056 29.181 105.672 29.181 95.431 C 29.181 74.448 46.255 54.145 58.979 41.421 C 81.607 26.727 94.039 22.797 117.335 22.797 C 147.855 28.94 170.705 32.088 165.136 51.975 C 161 66.748 159.58 57.053 152.099 73.082 C 128.536 88.924 115.86 91.706 98.711 91.706 C 91.305 91.706 78.937 92.21 73.258 85.498 C 64.672 75.351 78.224 62.765 78.224 55.079 C 89.504 48.342 108.744 36.838 110.506 54.458 C 110.876 58.164 112.081 62.257 110.506 65.632 C 109.576 67.626 106.16 68.399 106.16 70.599 C 87.547 78.82 99.475 61.84 104.298 58.803 C 115.818 51.55 126.409 48.871 139.683 48.871 C 144.377 52.323 141.024 57.452 137.821 60.045 C 131.572 65.103 122.519 67.093 114.851 68.115 C 113.401 68.309 110.969 70.124 110.506 68.736 C 109.831 66.713 109.414 59.081 109.264 58.183 C 115.455 45.925 130.929 27.243 127.888 47.008 C 127.4 50.183 127.117 53.602 125.405 56.32 C 115.648 71.817 103.895 73.169 88.157 79.29 C 66.82 80.531 52.688 82.149 47.184 76.186 C 36.339 64.437 52.315 44.525 63.946 44.525 C 74.695 57.235 85.115 79.679 70.775 87.981 C 61.294 93.47 48.75 89.223 38.493 89.223 C 38.493 63.6 75.686 39.091 95.607 47.629 C 97.661 48.51 96.941 54.736 97.469 56.32 C 89.436 75.024 81.507 77.298 66.429 78.669 C 59.821 79.27 50.125 83.025 46.563 77.427 C 39.338 66.073 49.357 52.844 52.771 43.283 C 60.428 37.489 63.075 35.959 65.808 34.592 C 87.21 23.891 71.668 38.796 60.842 41.421 C 45.106 45.236 55.657 41.301 44.08 42.663 C 42.839 14.22 95.653 26.744 111.747 32.109 L 117.955 34.592 C 129.239 37.669 140.875 45.512 152.099 47.008 C 154.727 47.359 162.653 45.786 162.653 50.733" style="fill: none;"/>
  </defs>
  <g id="Laptop" transform="matrix(0.918614, 0, 0, 0.931954, -150.612106, 27.526787)" style="">
    <title>laptop</title>
    <path style="fill: #38454f" d="M 646.4 288.8 v 17.7 h 141.2 V 288.8 H 937.7 V 6.3 c 0 -9.8 -7.9 -17.7 -17.7 -17.7 H 514 c -9.8 0 -17.7 7.9 -17.7 17.7 V 288.8 H 646.4 z" transform="matrix(0.6,0,0,0.6,184.3,63.1)"/>
    <polygon style="fill: #546a79" points="514,275.3 920.1,275.3 920.1,10.5 514,10.5" transform="matrix(0.6,0,0,0.6,184.3,60.4)"/>
    <g transform="matrix(0.6,0,0,0.6,146.4,60.4)">
      <path style="fill: #ea6148" d="M 598.8 222.3 c -4.9 0 -8.8 -4 -8.8 -8.8 V 72.3 c 0 -4.9 4 -8.8 8.8 -8.8 c 4.9 0 8.8 4 8.8 8.8 v 141.2 C 607.6 218.4 603.6 222.3 598.8 222.3" id="li01"/>
      <path style="fill: #ea6148" d="M 669.4 98.7 h -35.3 c -4.9 0 -8.8 -4 -8.8 -8.8 s 4 -8.8 8.8 -8.8 h 35.3 c 4.9 0 8.8 4 8.8 8.8 S 674.3 98.7 669.4 98.7" id="li02"/>
      <path style="fill: #ea6148" d="M 651.7 134.1 h -17.7 c -4.9 0 -8.8 -4 -8.8 -8.8 c 0 -4.9 4 -8.8 8.8 -8.8 h 17.7 c 4.9 0 8.8 4 8.8 8.8 C 660.6 130.1 656.6 134.1 651.7 134.1" id="li03"/>
      <path style="fill: #ea6148" d="M 669.4 169.4 h -35.3 c -4.9 0 -8.8 -4 -8.8 -8.8 s 4 -8.8 8.8 -8.8 h 35.3 c 4.9 0 8.8 4 8.8 8.8 S 674.3 169.4 669.4 169.4" id="li04"/>
      <path style="fill: #ea6148" d="M 651.7 204.7 h -17.7 c -4.9 0 -8.8 -4 -8.8 -8.8 s 4 -8.8 8.8 -8.8 h 17.7 c 4.9 0 8.8 4 8.8 8.8 S 656.6 204.7 651.7 204.7" id="li05"/>
    </g>
    <path style="fill: #b0b6bb" d="M 787.7 211.3 v 17.7 H 646.4 V 211.3 H 461 v 26.5 c 0 9.8 7.9 17.7 17.7 17.7 h 476.7 c 9.8 0 17.7 -7.9 17.7 -17.7 V 211.3 H 787.7 z" transform="matrix(0.6,0,0,0.6,184.3,111)"/>
  </g>
  <line style="stroke: rgb(0, 0, 0); fill: none; stroke-width: 8px; stroke-linecap: round;" x1="257.808" y1="277.049" x2="569.006" y2="277.049"/>
  <g id="Glasses" transform="matrix(0.918614, 0, 0, 0.931954, -164.134109, 26.333887)" style="">
    <title>Glasses</title>
    <path transform="matrix(1.4,0,0,1.5,-188.7,-114.4)" d="M 513.1 218.3 c -0.5 0 -1 0.4 -1.1 0.9 c 0 0.6 0.4 1 0.9 1.1 c 2.7 0.2 4 1.6 4.4 4.5 c 0.1 0.5 0.5 0.9 1 0.9 c 0 0 0.1 0 0.1 0 c 0.5 -0.1 0.9 -0.6 0.9 -1.1 C 518.8 220.6 516.7 218.6 513.1 218.3 z"/>
    <path transform="matrix(1.4,0,0,1.5,-176.2,-114.3)" d="M 473.2 218.2 C 472.6 218.1 472.1 218.5 472.1 219.1 c 0 0.6 0.4 1 0.9 1.1 c 2.7 0.2 4 1.6 4.4 4.5 c 0.1 0.5 0.5 0.9 1 0.9 c 0 0 0.1 0 0.1 0 c 0.5 -0.1 0.9 -0.6 0.9 -1.1 C 478.9 220.5 476.8 218.5 473.2 218.2 z"/>
    <path transform="matrix(1.4,0,0,1.5,-181.4,-115.5)" d="M 523.3 221.6 h -5 c -1.3 -4.7 -5.6 -8.1 -10.7 -8.1 c -4.3 0 -8.1 2.5 -9.9 6.1 c -0.9 -1.8 -2.6 -3.6 -5.4 -3.6 c -2.9 0 -4.5 1.8 -5.4 3.6 c -1.8 -3.6 -5.6 -6.1 -9.9 -6.1 c -5.1 0 -9.4 3.4 -10.7 8.1 H 461.3 c -0.6 0 -1 0.4 -1 1 s 0.4 1 1 1 h 4.5 c 0 0.4 -0.1 0.7 -0.1 1.1 c 0 6.2 5 11.2 11.2 11.2 c 6.2 0 11.2 -5 11.2 -11.2 c 0 -0.6 -0.1 -1.2 -0.2 -1.8 c 0.1 -0.1 0.1 -0.3 0.2 -0.4 c 0 -0.2 0.6 -4.4 4.2 -4.4 c 3.6 0 4.2 4.2 4.2 4.3 c 0 0.2 0.1 0.3 0.2 0.4 c -0.1 0.6 -0.2 1.2 -0.2 1.9 c 0 6.2 5 11.2 11.2 11.2 s 11.2 -5 11.2 -11.2 c 0 -0.4 0 -0.7 -0.1 -1.1 H 523.3 c 0.6 0 1 -0.4 1 -1 S 523.9 221.6 523.3 221.6 z M 476.9 233.9 c -5 0 -9.2 -4.1 -9.2 -9.2 s 4.1 -9.2 9.2 -9.2 c 5 0 9.2 4.1 9.2 9.2 S 481.9 233.9 476.9 233.9 z M 507.6 233.9 c -5 0 -9.2 -4.1 -9.2 -9.2 s 4.1 -9.2 9.2 -9.2 s 9.2 4.1 9.2 9.2 S 512.7 233.9 507.6 233.9 z"/>
  </g>
  <g id="Image" transform="matrix(1.364016, 0, 0, 1.404509, -466.117584, -82.852768)" style="">
    <title>Image</title>
    <g transform="matrix(1.6,0,0,1.5,-400,-88.9)">
      <g>
        <rect x="643.4" y="149.3" style="fill: #ecf0f1" width="55" height="42"/>
        <path style="fill: #545e73" d="M 699.4 192.3 H 642.4 v -44 h 57 V 192.3 z M 644.4 190.3 h 53 v -40 H 644.4 V 190.3 z"/>
      </g>
      <g>
        <rect x="647.4" y="153.3" style="fill: #545e73" width="47" height="34"/>
        <path style="fill: #ecf0f1" d="M 695.4 188.3 H 646.4 v -36 h 49 V 188.3 z M 648.4 186.3 h 45 v -32 H 648.4 V 186.3 z"/>
      </g>
      <circle style="fill: #f3d55a" cx="657.4" cy="161.9" r="4.6"/>
      <polygon style="fill: #11a085" points="693.4,177.4 692.4,176.3 680.4,165.3 669.9,176.8 675.4,182.3 679.4,186.3 693.4,186.3"/>
      <polygon style="fill: #26b999" points="648.4,186.3 679.4,186.3 675.4,182.3 664.4,171.3 648.4,185.3"/>
    </g>
    <g transform="matrix(1.6,0,0,1.5,-413.5,-100.6)">
      <circle style="fill: #26b999" cx="698.9" cy="196.9" r="12"/>
      <path style="fill: #ffffff" d="M 705.5 191.1 c -0.5 -0.3 -1.1 -0.2 -1.4 0.3 l -5.6 8 l -3.9 -3.2 c -0.4 -0.4 -1.1 -0.3 -1.4 0.1 c -0.4 0.4 -0.3 1.1 0.1 1.4 l 4.8 3.9 c 0.2 0.1 0.4 0.2 0.6 0.2 c 0 0 0.1 0 0.1 0 c 0.3 0 0.5 -0.2 0.7 -0.4 l 6.2 -8.9 C 706 192 705.9 191.4 705.5 191.1 z"/>
    </g>
  </g>
  <g id="world" transform="matrix(1, 0, 0, 1, -103.869415, 4.347528)">
    <title>world</title>
    <g id="world" transform="matrix(0.687353, 0, 0, 0.704073, 417.692322, 13.99214)" style="">
      <path fill="none" stroke="#000000" stroke-width="2" stroke-miterlimit="10" d="M32.001,0.887c17.184,0,31.113,13.929,31.112,31.113 C63.114,49.185,49.184,63.115,32,63.113C14.815,63.114,0.887,49.185,0.888,32.001C0.885,14.816,14.815,0.887,32.001,0.887z"/>
      <line fill="none" stroke="#000000" stroke-width="2" stroke-miterlimit="10" x1="32" y1="1" x2="32" y2="63"/>
      <line fill="none" stroke="#000000" stroke-width="2" stroke-miterlimit="10" x1="63" y1="32" x2="1" y2="32"/>
      <path fill="none" stroke="#000000" stroke-width="2" stroke-miterlimit="10" d="M30,1c0,0-14,11-14,31s14,31,14,31"/>
      <path fill="none" stroke="#000000" stroke-width="2" stroke-miterlimit="10" d="M34,1c0,0,14,11,14,31S34,63,34,63"/>
      <path fill="none" stroke="#000000" stroke-width="2" stroke-miterlimit="10" d="M8,12c0,0,5,10,24,10s24-10,24-10"/>
      <path fill="none" stroke="#000000" stroke-width="2" stroke-miterlimit="10" d="M8,52c0,0,5-10,24-10s24,10,24,10"/>
    </g>
    <ellipse style="stroke: rgb(1, 1, 1); fill-rule: evenodd; fill: none; stroke-dasharray: 2px;" cx="439.595" cy="36.299" rx="26.329" ry="26.525"/>
    <ellipse style="stroke: rgb(0, 0, 0);" cx="428.629" cy="36.292" rx="2.474" ry="2.325" id="dot01">
      <title>dot01</title>
    </ellipse>
    <ellipse style="stroke: rgb(0, 0, 0);" cx="439.51" cy="36.277" rx="2.474" ry="2.325" id="dot02">
      <title>dot02</title>
    </ellipse>
    <ellipse style="stroke: rgb(0, 0, 0);" cx="449.279" cy="45.445" rx="2.474" ry="2.325" id="dot03">
      <title>dot03</title>
    </ellipse>
    <ellipse style="stroke: rgb(0, 0, 0);" cx="459.05" cy="18.715" rx="2.474" ry="2.325" id="dot04">
      <title>dot04</title>
    </ellipse>
    <ellipse style="stroke: rgb(0, 0, 0);" cx="439.174" cy="9.61" rx="2.474" ry="2.325" id="dot05">
      <title>dot05</title>
    </ellipse>
    <ellipse style="fill: none; stroke: rgb(0, 0, 0);" cx="439.174" cy="36.088" rx="31.004" ry="31.598"/>
  </g>
  <g id="cloud" style="" transform="matrix(0.105641, 0, 0, 0.095083, 563.13147, 185.178452)">
    <title>cloud</title>
    <path d="M489.579,254.766c-12.942-16.932-30.829-29.887-50.839-36.933c-0.828-48.454-40.501-87.618-89.148-87.618 c-7.618,0-15.213,0.993-22.647,2.958c-12.102-15.076-27.37-27.615-44.441-36.457c-19.642-10.173-40.881-15.331-63.127-15.331 c-74.705,0-135.736,59.676-137.931,133.859C33.885,227.82,0,271.349,0,321.107c0,60.383,49.125,109.508,109.508,109.508h292.983 C462.875,430.615,512,381.49,512,321.107C512,296.896,504.246,273.956,489.579,254.766z M402.491,415.061H109.508 c-51.806,0-93.953-42.147-93.953-93.953c0-44.549,31.647-83.274,75.248-92.079l6.342-1.281l-0.106-6.47 c-0.008-0.465-0.036-0.923-0.069-1.38c-0.012-0.173-0.031-0.344-0.031-0.52c0-67.512,54.925-122.437,122.436-122.437 c39.135,0,75.005,18.162,98.411,49.828l3.349,4.53l5.348-1.769c7.542-2.494,15.317-3.759,23.108-3.759 c40.587,0,73.606,33.019,73.606,73.607c0,0.645-0.05,1.382-0.103,2.164c-0.034,0.505-0.067,1.011-0.093,1.518l-0.303,6.145 l5.911,1.709c19.171,5.544,36.435,17.369,48.61,33.297c12.577,16.453,19.224,36.127,19.224,56.895 C496.445,372.913,454.297,415.061,402.491,415.061z" style="fill: rgb(182, 41, 41); stroke: rgb(150, 166, 99);"/>
    <path d="M135.62,193.401h15.555c0-26.66,21.69-48.35,48.351-48.35v-15.555C164.289,129.495,135.62,158.163,135.62,193.401z" style="stroke: rgb(186, 223, 65); fill: rgb(197, 76, 76);"/>
  </g>
  <g transform="matrix(1, 0, 0, 1, -103.869415, 4.347528)">
    <title>penToWorld</title>
    <g>
      <polyline style="stroke: rgb(0, 0, 0); fill: none; stroke-dasharray: 4;" points="439.37 68.358 439.37 68.358 438.912 101.211 645.845 101.597 665.495 81.556 674.703 91.417"/>
      <g id="pen" transform="matrix(0.650142, 0, 0, 0.632726, 674.637146, 53.467194)" style="">
        <path style="fill:#EFCE4A;" d="M32.598,8.426l14.746,14.746l-4.47,4.47c-3.93,3.93-3.93,10.301,0,14.231l3.417,3.417L1,54.77 l9.479-45.29l3.417,3.417c3.93,3.93,10.301,3.93,14.231,0L32.598,8.426z"/>
        <rect x="32.177" y="9.442" transform="matrix(-0.7071 -0.7071 0.7071 -0.7071 63.4196 52.6008)" style="fill:#7383BF;" width="20.853" height="7.448"/>
        <rect x="40.422" y="4.176" transform="matrix(-0.7071 -0.7071 0.7071 -0.7071 76.1336 47.3345)" style="fill:#434C6D;" width="14.895" height="7.448"/>
        <path style="fill:#F7E6A1;" d="M31.198,24.571c-1.033-1.033-2.406-1.602-3.867-1.602s-2.834,0.568-3.867,1.602 c-1.033,1.033-1.602,2.406-1.602,3.867c0,1.121,0.341,2.186,0.964,3.09L0.293,54.063c-0.391,0.391-0.391,1.023,0,1.414 C0.488,55.672,0.744,55.77,1,55.77s0.512-0.098,0.707-0.293l22.534-22.534c0.904,0.623,1.97,0.964,3.091,0.964 c1.46,0,2.834-0.568,3.867-1.602c1.033-1.033,1.602-2.406,1.602-3.866C32.8,26.978,32.231,25.605,31.198,24.571z M29.784,30.891 c-1.311,1.311-3.595,1.311-4.905,0c-1.352-1.353-1.352-3.553,0-4.905c0.655-0.655,1.526-1.016,2.453-1.016s1.797,0.36,2.453,1.016 C31.136,27.338,31.136,29.538,29.784,30.891z"/>
      </g>
    </g>
    <ellipse style="fill: rgb(31, 219, 50);" cx="665.274" cy="81.636" rx="2.237" ry="2.14"/>
    <ellipse style="fill: rgb(31, 219, 50);" cx="673.724" cy="89.426" rx="2.237" ry="2.14"/>
    <ellipse style="fill: rgb(31, 219, 50);" cx="618.296" cy="101.532" rx="2.237" ry="2.14"/>
    <ellipse style="fill: rgb(31, 219, 50);" cx="645.604" cy="101.243" rx="2.237" ry="2.14"/>
  </g>
  <path stroke-width="0" d="M 221.704 256.623 C 225.228 256.043 229.333 256.142 233.114 257.675 C 237.465 259.44 243.539 263.062 246.079 267.672 C 248.769 272.554 249.308 281.565 248.154 286.614 C 247.191 290.827 245.269 294.257 241.412 296.611 C 236.294 299.736 223.635 302.067 217.555 300.821 C 212.759 299.839 209.025 296.893 206.664 292.928 C 203.951 288.375 202.407 279.477 203.552 273.986 C 204.614 268.894 209.02 263.741 212.369 260.833 C 215.19 258.382 218.338 257.177 221.704 256.623 Z" style="stroke-width: 2px; fill-opacity: 0.56; fill: rgb(52, 209, 131);"/>
  <path stroke-width="0" d="M 594.243 264.068 C 596.608 263.64 599.363 263.712 601.901 264.846 C 604.821 266.151 608.897 268.829 610.602 272.238 C 612.407 275.847 612.769 282.51 611.994 286.243 C 611.348 289.358 610.058 291.895 607.469 293.635 C 604.035 295.946 595.539 297.669 591.459 296.747 C 588.24 296.021 585.734 293.843 584.149 290.911 C 582.329 287.545 581.292 280.967 582.06 276.906 C 582.773 273.141 585.731 269.331 587.978 267.18 C 589.871 265.368 591.984 264.478 594.243 264.068 Z" style="stroke-width: 2px; fill-opacity: 0.56; fill: rgb(52, 209, 131);"/>
  <line style="fill: rgb(216, 216, 216); stroke: rgb(0, 0, 0); stroke-width: 8px; stroke-linecap: round;" x1="584.433" y1="277.344" x2="612.73" y2="276.865"/>
  <line style="fill: rgb(216, 216, 216); stroke: rgb(0, 0, 0); stroke-width: 8px; stroke-linecap: round;" x1="211.467" y1="277.344" x2="239.764" y2="276.865"/>
  <line style="fill: rgb(216, 216, 216); stroke: rgb(0, 0, 0); stroke-dasharray: 8px; stroke-linecap: round;" x1="271.7" y1="216.857" x2="271.7" y2="121.767"/>
  <line style="fill: rgb(216, 216, 216); stroke: rgb(0, 0, 0);" x1="265.426" y1="217.47" x2="277.902" y2="217.257"/>
  <line style="fill: rgb(216, 216, 216); stroke: rgb(0, 0, 0);" x1="265.407" y1="121.144" x2="277.883" y2="120.931"/>
  <g id="XMLID_1396_" transform="matrix(0.163896, 0, 0, 0.187073, 181.555084, 122.285187)" style="">
    <g id="XMLID_1445_">
      <polygon style="fill:#FAC15C;" points="487.582,480.106 439.571,448.099 271.534,448.099 271.534,8.002 487.582,8.002 &#9;&#9;"/>
    </g>
    <g id="XMLID_1444_">
      <polygon style="fill:#F9B233;" points="487.582,8.002 375.557,448.099 271.534,448.099 271.534,8.002 &#9;&#9;"/>
    </g>
    <g id="XMLID_1443_">
      <polygon style="fill:#A48A7B;" points="15.478,480.106 63.488,448.099 231.525,448.099 231.525,8.002 15.478,8.002 &#9;&#9;"/>
    </g>
    <g id="XMLID_1442_">
      <polygon style="fill:#CBBBA0;" points="15.478,8.002 127.503,448.099 231.525,448.099 231.525,8.002 &#9;&#9;"/>
    </g>
    <g id="XMLID_1441_">
      <path style="fill:#1D1D1B;" d="M7.476,503.06V0h232.051v464.103H65.908L7.476,503.06z M23.48,16.004v457.151l37.582-25.057 h162.461V16.004H23.48z"/>
    </g>
    <g id="XMLID_1440_">
      <path style="fill:#1D1D1B;" d="M495.583,495.058L437.151,456.1H263.533V0h232.051L495.583,495.058L495.583,495.058z M279.537,440.097h162.461l37.582,25.057V16.004H279.537V440.097z"/>
    </g>
    <g id="XMLID_1439_">
      <rect x="55.487" y="64.014" style="fill:#1D1D1B;" width="136.029" height="16.004"/>
    </g>
    <g id="XMLID_1438_">
      <rect x="55.487" y="104.023" style="fill:#1D1D1B;" width="48.011" height="16.004"/>
    </g>
    <g id="XMLID_1437_">
      <rect x="119.501" y="104.023" style="fill:#1D1D1B;" width="72.016" height="16.004"/>
    </g>
    <g id="XMLID_1436_">
      <rect x="55.487" y="144.032" style="fill:#1D1D1B;" width="88.02" height="16.004"/>
    </g>
    <g id="XMLID_1434_">
      <rect x="159.509" y="144.032" style="fill:#1D1D1B;" width="32.007" height="16.004"/>
    </g>
    <g id="XMLID_1433_">
      <rect x="55.487" y="184.04" style="fill:#1D1D1B;" width="24.005" height="16.004"/>
    </g>
    <g id="XMLID_1432_">
      <rect x="95.496" y="184.04" style="fill:#1D1D1B;" width="64.014" height="16.004"/>
    </g>
    <g id="XMLID_1430_">
      <rect x="175.513" y="184.04" style="fill:#1D1D1B;" width="16.003" height="16.004"/>
    </g>
    <g id="XMLID_1427_">
      <rect x="55.487" y="224.049" style="fill:#1D1D1B;" width="72.016" height="16.004"/>
    </g>
    <g id="XMLID_1426_">
      <rect x="143.506" y="224.049" style="fill:#1D1D1B;" width="48.01" height="16.004"/>
    </g>
    <g id="XMLID_1425_">
      <rect x="55.487" y="264.058" style="fill:#1D1D1B;" width="136.029" height="16.004"/>
    </g>
    <g id="XMLID_1424_">
      <rect x="55.487" y="304.067" style="fill:#1D1D1B;" width="32.007" height="16.004"/>
    </g>
    <g id="XMLID_1423_">
      <rect x="103.498" y="304.067" style="fill:#1D1D1B;" width="88.019" height="16.004"/>
    </g>
    <g id="XMLID_1422_">
      <rect x="55.487" y="344.076" style="fill:#1D1D1B;" width="104.022" height="16.004"/>
    </g>
    <g id="XMLID_1421_">
      <rect x="175.513" y="344.076" style="fill:#1D1D1B;" width="16.003" height="16.004"/>
    </g>
    <g id="XMLID_1420_">
      <rect x="55.487" y="384.085" style="fill:#1D1D1B;" width="136.029" height="16.004"/>
    </g>
    <g id="XMLID_1419_">
      <rect x="311.543" y="384.085" style="fill:#1D1D1B;" width="136.029" height="16.004"/>
    </g>
    <g id="XMLID_1418_">
      <rect x="399.562" y="344.076" style="fill:#1D1D1B;" width="48.011" height="16.004"/>
    </g>
    <g id="XMLID_1417_">
      <rect x="311.543" y="344.076" style="fill:#1D1D1B;" width="72.016" height="16.004"/>
    </g>
    <g id="XMLID_1415_">
      <rect x="359.553" y="304.067" style="fill:#1D1D1B;" width="88.02" height="16.004"/>
    </g>
    <g id="XMLID_1413_">
      <rect x="311.543" y="304.067" style="fill:#1D1D1B;" width="32.007" height="16.004"/>
    </g>
    <g id="XMLID_1410_">
      <rect x="423.568" y="264.058" style="fill:#1D1D1B;" width="24.005" height="16.004"/>
    </g>
    <g id="XMLID_1409_">
      <rect x="343.55" y="264.058" style="fill:#1D1D1B;" width="64.014" height="16.004"/>
    </g>
    <g id="XMLID_1408_">
      <rect x="311.543" y="264.058" style="fill:#1D1D1B;" width="16.003" height="16.004"/>
    </g>
    <g id="XMLID_1406_">
      <rect x="375.557" y="224.049" style="fill:#1D1D1B;" width="72.016" height="16.004"/>
    </g>
    <g id="XMLID_1405_">
      <rect x="311.544" y="224.049" style="fill:#1D1D1B;" width="48.01" height="16.004"/>
    </g>
    <g id="XMLID_1404_">
      <rect x="311.543" y="184.04" style="fill:#1D1D1B;" width="136.029" height="16.004"/>
    </g>
    <g id="XMLID_1403_">
      <rect x="415.566" y="144.032" style="fill:#1D1D1B;" width="32.007" height="16.004"/>
    </g>
    <g id="XMLID_1402_">
      <rect x="311.543" y="144.032" style="fill:#1D1D1B;" width="88.019" height="16.004"/>
    </g>
    <g id="XMLID_1401_">
      <rect x="343.55" y="104.023" style="fill:#1D1D1B;" width="104.022" height="16.004"/>
    </g>
    <g id="XMLID_1400_">
      <rect x="311.543" y="104.023" style="fill:#1D1D1B;" width="16.003" height="16.004"/>
    </g>
    <g id="XMLID_1397_">
      <rect x="311.543" y="64.014" style="fill:#1D1D1B;" width="136.029" height="16.004"/>
    </g>
  </g>
  <g id="MUI" style="" transform="matrix(0.153898, 0, 0, 0.184502, 473.810638, 25.683414)">
    <title>MUI</title>
    <polygon fill="#00B0FF" points="0 110.848 0 0 96 55.424 96 92.3733333 32 55.424 32 129.322667"/>
    <polygon fill="#0081CB" points="96 55.424 192 0 192 110.848 128 147.797333 96 129.322667 160 92.3733333 160 55.424 96 92.3733333"/>
    <polygon fill="#00B0FF" points="96 129.322667 96 166.272 160 203.221333 160 166.272"/>
    <path d="M160,203.221333 L256,147.797333 L256,73.8986667 L224,92.3733333 L224,129.322667 L160,166.272 L160,203.221333 Z M224,55.424 L224,18.4746667 L256,5.68434189e-14 L256,36.9493333 L224,55.424 Z" fill="#0081CB"/>
  </g>
  <path stroke-width="0" d="M 392.36 29.631 C 393.843 29.359 395.57 29.405 397.161 30.123 C 398.992 30.95 401.547 32.647 402.616 34.808 C 403.748 37.096 403.975 41.318 403.489 43.684 C 403.084 45.657 402.275 47.265 400.652 48.369 C 398.498 49.833 393.172 50.925 390.614 50.341 C 388.597 49.881 387.025 48.501 386.032 46.643 C 384.89 44.509 384.24 40.34 384.722 37.767 C 385.168 35.38 387.023 32.966 388.432 31.603 C 389.619 30.455 390.944 29.89 392.36 29.631 Z" style="stroke-width: 2px; fill-opacity: 0.56; fill: rgb(52, 209, 131);"/>
</svg>