<?xml version="1.0" encoding="utf-8"?>
<svg width="800" height="310" viewBox="0 0 800 310" xmlns="http://www.w3.org/2000/svg">
  <g id="Laptop" transform="matrix(1, 0, 0, 1, -96.279999, 3.2)">
    <path style="fill: #38454f" d="M 646.4 288.8 v 17.7 h 141.2 V 288.8 H 937.7 V 6.3 c 0 -9.8 -7.9 -17.7 -17.7 -17.7 H 514 c -9.8 0 -17.7 7.9 -17.7 17.7 V 288.8 H 646.4 z" transform="matrix(0.6,0,0,0.6,184.3,63.1)"/>
    <polygon style="fill: #546a79" points="514,275.3 920.1,275.3 920.1,10.5 514,10.5" transform="matrix(0.6,0,0,0.6,184.3,60.4)"/>
    <g transform="matrix(0.6,0,0,0.6,146.4,60.4)">
      <path style="fill: #ea6148" d="M 598.8 222.3 c -4.9 0 -8.8 -4 -8.8 -8.8 V 72.3 c 0 -4.9 4 -8.8 8.8 -8.8 c 4.9 0 8.8 4 8.8 8.8 v 141.2 C 607.6 218.4 603.6 222.3 598.8 222.3"/>
      <path style="fill: #ea6148" d="M 669.4 98.7 h -35.3 c -4.9 0 -8.8 -4 -8.8 -8.8 s 4 -8.8 8.8 -8.8 h 35.3 c 4.9 0 8.8 4 8.8 8.8 S 674.3 98.7 669.4 98.7"/>
      <path style="fill: #ea6148" d="M 651.7 134.1 h -17.7 c -4.9 0 -8.8 -4 -8.8 -8.8 c 0 -4.9 4 -8.8 8.8 -8.8 h 17.7 c 4.9 0 8.8 4 8.8 8.8 C 660.6 130.1 656.6 134.1 651.7 134.1"/>
      <path style="fill: #ea6148" d="M 669.4 169.4 h -35.3 c -4.9 0 -8.8 -4 -8.8 -8.8 s 4 -8.8 8.8 -8.8 h 35.3 c 4.9 0 8.8 4 8.8 8.8 S 674.3 169.4 669.4 169.4"/>
      <path style="fill: #ea6148" d="M 651.7 204.7 h -17.7 c -4.9 0 -8.8 -4 -8.8 -8.8 s 4 -8.8 8.8 -8.8 h 17.7 c 4.9 0 8.8 4 8.8 8.8 S 656.6 204.7 651.7 204.7"/>
    </g>
    <path style="fill: #b0b6bb" d="M 787.7 211.3 v 17.7 H 646.4 V 211.3 H 461 v 26.5 c 0 9.8 7.9 17.7 17.7 17.7 h 476.7 c 9.8 0 17.7 -7.9 17.7 -17.7 V 211.3 H 787.7 z" transform="matrix(0.6,0,0,0.6,184.3,111)"/>
  </g>
  <g id="Glasses" transform="matrix(1, 0, 0, 1, -111, 1.92)">
    <path transform="matrix(1.4,0,0,1.5,-188.7,-114.4)" d="M 513.1 218.3 c -0.5 0 -1 0.4 -1.1 0.9 c 0 0.6 0.4 1 0.9 1.1 c 2.7 0.2 4 1.6 4.4 4.5 c 0.1 0.5 0.5 0.9 1 0.9 c 0 0 0.1 0 0.1 0 c 0.5 -0.1 0.9 -0.6 0.9 -1.1 C 518.8 220.6 516.7 218.6 513.1 218.3 z"/>
    <path transform="matrix(1.4,0,0,1.5,-176.2,-114.3)" d="M 473.2 218.2 C 472.6 218.1 472.1 218.5 472.1 219.1 c 0 0.6 0.4 1 0.9 1.1 c 2.7 0.2 4 1.6 4.4 4.5 c 0.1 0.5 0.5 0.9 1 0.9 c 0 0 0.1 0 0.1 0 c 0.5 -0.1 0.9 -0.6 0.9 -1.1 C 478.9 220.5 476.8 218.5 473.2 218.2 z"/>
    <path transform="matrix(1.4,0,0,1.5,-181.4,-115.5)" d="M 523.3 221.6 h -5 c -1.3 -4.7 -5.6 -8.1 -10.7 -8.1 c -4.3 0 -8.1 2.5 -9.9 6.1 c -0.9 -1.8 -2.6 -3.6 -5.4 -3.6 c -2.9 0 -4.5 1.8 -5.4 3.6 c -1.8 -3.6 -5.6 -6.1 -9.9 -6.1 c -5.1 0 -9.4 3.4 -10.7 8.1 H 461.3 c -0.6 0 -1 0.4 -1 1 s 0.4 1 1 1 h 4.5 c 0 0.4 -0.1 0.7 -0.1 1.1 c 0 6.2 5 11.2 11.2 11.2 c 6.2 0 11.2 -5 11.2 -11.2 c 0 -0.6 -0.1 -1.2 -0.2 -1.8 c 0.1 -0.1 0.1 -0.3 0.2 -0.4 c 0 -0.2 0.6 -4.4 4.2 -4.4 c 3.6 0 4.2 4.2 4.2 4.3 c 0 0.2 0.1 0.3 0.2 0.4 c -0.1 0.6 -0.2 1.2 -0.2 1.9 c 0 6.2 5 11.2 11.2 11.2 s 11.2 -5 11.2 -11.2 c 0 -0.4 0 -0.7 -0.1 -1.1 H 523.3 c 0.6 0 1 -0.4 1 -1 S 523.9 221.6 523.3 221.6 z M 476.9 233.9 c -5 0 -9.2 -4.1 -9.2 -9.2 s 4.1 -9.2 9.2 -9.2 c 5 0 9.2 4.1 9.2 9.2 S 481.9 233.9 476.9 233.9 z M 507.6 233.9 c -5 0 -9.2 -4.1 -9.2 -9.2 s 4.1 -9.2 9.2 -9.2 s 9.2 4.1 9.2 9.2 S 512.7 233.9 507.6 233.9 z"/>
  </g>
  <polyline style="stroke: rgb(0, 0, 0); fill: none; stroke-dasharray: 4;" points="433.319 49.525 433.319 49.525 432.822 86.904 657.72 87.343 679.076 64.542 689.083 75.761"/>
  <g id="Image" transform="matrix(1.484862, 0, 0, 1.507058, -439.738037, -115.238815)" style="">
    <g transform="matrix(1.6,0,0,1.5,-400,-88.9)">
      <g>
        <rect x="643.4" y="149.3" style="fill: #ecf0f1" width="55" height="42"/>
        <path style="fill: #545e73" d="M 699.4 192.3 H 642.4 v -44 h 57 V 192.3 z M 644.4 190.3 h 53 v -40 H 644.4 V 190.3 z"/>
      </g>
      <g>
        <rect x="647.4" y="153.3" style="fill: #545e73" width="47" height="34"/>
        <path style="fill: #ecf0f1" d="M 695.4 188.3 H 646.4 v -36 h 49 V 188.3 z M 648.4 186.3 h 45 v -32 H 648.4 V 186.3 z"/>
      </g>
      <circle style="fill: #f3d55a" cx="657.4" cy="161.9" r="4.6"/>
      <polygon style="fill: #11a085" points="693.4,177.4 692.4,176.3 680.4,165.3 669.9,176.8 675.4,182.3 679.4,186.3 693.4,186.3"/>
      <polygon style="fill: #26b999" points="648.4,186.3 679.4,186.3 675.4,182.3 664.4,171.3 648.4,185.3"/>
    </g>
    <g transform="matrix(1.6,0,0,1.5,-413.5,-100.6)">
      <circle style="fill: #26b999" cx="698.9" cy="196.9" r="12"/>
      <path style="fill: #ffffff" d="M 705.5 191.1 c -0.5 -0.3 -1.1 -0.2 -1.4 0.3 l -5.6 8 l -3.9 -3.2 c -0.4 -0.4 -1.1 -0.3 -1.4 0.1 c -0.4 0.4 -0.3 1.1 0.1 1.4 l 4.8 3.9 c 0.2 0.1 0.4 0.2 0.6 0.2 c 0 0 0.1 0 0.1 0 c 0.3 0 0.5 -0.2 0.7 -0.4 l 6.2 -8.9 C 706 192 705.9 191.4 705.5 191.1 z"/>
    </g>
  </g>
  <g id="MUI" style="" transform="matrix(0.429787, 0, 0, 0.514943, 71.412468, 11.078782)">
    <polygon fill="#00B0FF" points="0 110.848 0 0 96 55.424 96 92.3733333 32 55.424 32 129.322667"/>
    <polygon fill="#0081CB" points="96 55.424 192 0 192 110.848 128 147.797333 96 129.322667 160 92.3733333 160 55.424 96 92.3733333"/>
    <polygon fill="#00B0FF" points="96 129.322667 96 166.272 160 203.221333 160 166.272"/>
    <path d="M160,203.221333 L256,147.797333 L256,73.8986667 L224,92.3733333 L224,129.322667 L160,166.272 L160,203.221333 Z M224,55.424 L224,18.4746667 L256,5.68434189e-14 L256,36.9493333 L224,55.424 Z" fill="#0081CB"/>
  </g>
  <g id="Google" style="" transform="matrix(0.216871, 0, 0, 0.214881, 68.513931, 180.292648)">
    <path style="fill:#167EE6;" d="M492.668,211.489l-208.84-0.01c-9.222,0-16.697,7.474-16.697,16.696v66.715 c0,9.22,7.475,16.696,16.696,16.696h117.606c-12.878,33.421-36.914,61.41-67.58,79.194L384,477.589 c80.442-46.523,128-128.152,128-219.53c0-13.011-0.959-22.312-2.877-32.785C507.665,217.317,500.757,211.489,492.668,211.489z"/>
    <path style="fill:#12B347;" d="M256,411.826c-57.554,0-107.798-31.446-134.783-77.979l-86.806,50.034 C78.586,460.443,161.34,512,256,512c46.437,0,90.254-12.503,128-34.292v-0.119l-50.147-86.81 C310.915,404.083,284.371,411.826,256,411.826z"/>
    <path style="fill:#0F993E;" d="M384,477.708v-0.119l-50.147-86.81c-22.938,13.303-49.48,21.047-77.853,21.047V512 C302.437,512,346.256,499.497,384,477.708z"/>
    <path style="fill:#FFD500;" d="M100.174,256c0-28.369,7.742-54.91,21.043-77.847l-86.806-50.034C12.502,165.746,0,209.444,0,256 s12.502,90.254,34.411,127.881l86.806-50.034C107.916,310.91,100.174,284.369,100.174,256z"/>
    <path style="fill:#FF4B26;" d="M256,100.174c37.531,0,72.005,13.336,98.932,35.519c6.643,5.472,16.298,5.077,22.383-1.008 l47.27-47.27c6.904-6.904,6.412-18.205-0.963-24.603C378.507,23.673,319.807,0,256,0C161.34,0,78.586,51.557,34.411,128.119 l86.806,50.034C148.202,131.62,198.446,100.174,256,100.174z"/>
    <path style="fill:#D93F21;" d="M354.932,135.693c6.643,5.472,16.299,5.077,22.383-1.008l47.27-47.27 c6.903-6.904,6.411-18.205-0.963-24.603C378.507,23.672,319.807,0,256,0v100.174C293.53,100.174,328.005,113.51,354.932,135.693z"/>
  </g>
  <g id="world" transform="matrix(0.444597, 0, 0, 0.465175, 419.413177, 14.554382)" style="">
    <path fill="none" stroke="#000000" stroke-width="2" stroke-miterlimit="10" d="M32.001,0.887c17.184,0,31.113,13.929,31.112,31.113 C63.114,49.185,49.184,63.115,32,63.113C14.815,63.114,0.887,49.185,0.888,32.001C0.885,14.816,14.815,0.887,32.001,0.887z"/>
    <line fill="none" stroke="#000000" stroke-width="2" stroke-miterlimit="10" x1="32" y1="1" x2="32" y2="63"/>
    <line fill="none" stroke="#000000" stroke-width="2" stroke-miterlimit="10" x1="63" y1="32" x2="1" y2="32"/>
    <path fill="none" stroke="#000000" stroke-width="2" stroke-miterlimit="10" d="M30,1c0,0-14,11-14,31s14,31,14,31"/>
    <path fill="none" stroke="#000000" stroke-width="2" stroke-miterlimit="10" d="M34,1c0,0,14,11,14,31S34,63,34,63"/>
    <path fill="none" stroke="#000000" stroke-width="2" stroke-miterlimit="10" d="M8,12c0,0,5,10,24,10s24-10,24-10"/>
    <path fill="none" stroke="#000000" stroke-width="2" stroke-miterlimit="10" d="M8,52c0,0,5-10,24-10s24,10,24,10"/>
  </g>
  <g id="cloud" style="" transform="matrix(0.115, 0, 0, 0.102025, 680.698486, 172.362442)">
    <path d="M489.579,254.766c-12.942-16.932-30.829-29.887-50.839-36.933c-0.828-48.454-40.501-87.618-89.148-87.618 c-7.618,0-15.213,0.993-22.647,2.958c-12.102-15.076-27.37-27.615-44.441-36.457c-19.642-10.173-40.881-15.331-63.127-15.331 c-74.705,0-135.736,59.676-137.931,133.859C33.885,227.82,0,271.349,0,321.107c0,60.383,49.125,109.508,109.508,109.508h292.983 C462.875,430.615,512,381.49,512,321.107C512,296.896,504.246,273.956,489.579,254.766z M402.491,415.061H109.508 c-51.806,0-93.953-42.147-93.953-93.953c0-44.549,31.647-83.274,75.248-92.079l6.342-1.281l-0.106-6.47 c-0.008-0.465-0.036-0.923-0.069-1.38c-0.012-0.173-0.031-0.344-0.031-0.52c0-67.512,54.925-122.437,122.436-122.437 c39.135,0,75.005,18.162,98.411,49.828l3.349,4.53l5.348-1.769c7.542-2.494,15.317-3.759,23.108-3.759 c40.587,0,73.606,33.019,73.606,73.607c0,0.645-0.05,1.382-0.103,2.164c-0.034,0.505-0.067,1.011-0.093,1.518l-0.303,6.145 l5.911,1.709c19.171,5.544,36.435,17.369,48.61,33.297c12.577,16.453,19.224,36.127,19.224,56.895 C496.445,372.913,454.297,415.061,402.491,415.061z" style="fill: rgb(182, 41, 41); stroke: rgb(150, 166, 99);"/>
    <path d="M135.62,193.401h15.555c0-26.66,21.69-48.35,48.351-48.35v-15.555C164.289,129.495,135.62,158.163,135.62,193.401z" style="stroke: rgb(186, 223, 65); fill: rgb(197, 76, 76);"/>
  </g>
  <g id="pen" transform="matrix(0.707742, 0, 0, 0.678924, 689.011353, 35.699379)" style="">
    <path style="fill:#EFCE4A;" d="M32.598,8.426l14.746,14.746l-4.47,4.47c-3.93,3.93-3.93,10.301,0,14.231l3.417,3.417L1,54.77 l9.479-45.29l3.417,3.417c3.93,3.93,10.301,3.93,14.231,0L32.598,8.426z"/>
    <rect x="32.177" y="9.442" transform="matrix(-0.7071 -0.7071 0.7071 -0.7071 63.4196 52.6008)" style="fill:#7383BF;" width="20.853" height="7.448"/>
    <rect x="40.422" y="4.176" transform="matrix(-0.7071 -0.7071 0.7071 -0.7071 76.1336 47.3345)" style="fill:#434C6D;" width="14.895" height="7.448"/>
    <path style="fill:#F7E6A1;" d="M31.198,24.571c-1.033-1.033-2.406-1.602-3.867-1.602s-2.834,0.568-3.867,1.602 c-1.033,1.033-1.602,2.406-1.602,3.867c0,1.121,0.341,2.186,0.964,3.09L0.293,54.063c-0.391,0.391-0.391,1.023,0,1.414 C0.488,55.672,0.744,55.77,1,55.77s0.512-0.098,0.707-0.293l22.534-22.534c0.904,0.623,1.97,0.964,3.091,0.964 c1.46,0,2.834-0.568,3.867-1.602c1.033-1.033,1.602-2.406,1.602-3.866C32.8,26.978,32.231,25.605,31.198,24.571z M29.784,30.891 c-1.311,1.311-3.595,1.311-4.905,0c-1.352-1.353-1.352-3.553,0-4.905c0.655-0.655,1.526-1.016,2.453-1.016s1.797,0.36,2.453,1.016 C31.136,27.338,31.136,29.538,29.784,30.891z"/>
  </g>
  <ellipse style="stroke: rgb(1, 1, 1); fill-rule: evenodd; fill: none; stroke-dasharray: 2px;" cx="433.581" cy="29.293" rx="17.03" ry="17.525"/>
  <ellipse style="stroke: rgb(0, 0, 0);" cx="426.488" cy="29.288" rx="1.6" ry="1.536"/>
  <ellipse style="stroke: rgb(0, 0, 0);" cx="433.526" cy="29.277" rx="1.6" ry="1.536"/>
  <ellipse style="stroke: rgb(0, 0, 0);" cx="439.844" cy="35.335" rx="1.6" ry="1.536"/>
  <ellipse style="stroke: rgb(0, 0, 0);" cx="446.165" cy="17.675" rx="1.6" ry="1.536"/>
  <ellipse style="stroke: rgb(0, 0, 0);" cx="433.309" cy="11.659" rx="1.6" ry="1.536"/>
  <ellipse style="fill: none; stroke: rgb(0, 0, 0);" cx="433.309" cy="29.153" rx="20.054" ry="20.877"/>
  <ellipse style="fill: rgb(31, 219, 50);" cx="678.819" cy="65.925" rx="2.435" ry="2.296"/>
  <ellipse style="fill: rgb(31, 219, 50);" cx="688.017" cy="74.284" rx="2.435" ry="2.296"/>
  <ellipse style="fill: rgb(31, 219, 50);" cx="657.406" cy="86.964" rx="2.435" ry="2.296"/>
  <ellipse style="fill: rgb(31, 219, 50);" cx="627.679" cy="87.274" rx="2.435" ry="2.296"/>
  <path stroke-width="0" d="M 305.416 258.756 C 309.253 258.134 313.721 258.24 317.837 259.885 C 322.574 261.779 329.186 265.665 331.951 270.612 C 334.879 275.85 335.466 285.519 334.21 290.937 C 333.161 295.457 331.069 299.138 326.87 301.664 C 321.299 305.017 307.518 307.518 300.9 306.181 C 295.679 305.127 291.614 301.966 289.044 297.712 C 286.091 292.826 284.41 283.279 285.656 277.387 C 286.812 271.923 291.609 266.394 295.254 263.273 C 298.325 260.643 301.752 259.35 305.416 258.756 Z" style="stroke-width: 2px; fill-opacity: 0.56; fill: rgb(52, 209, 131);"/>
  <path stroke-width="0" d="M 714.566 257.012 C 717.141 256.552 720.14 256.63 722.902 257.846 C 726.081 259.247 730.518 262.12 732.374 265.778 C 734.339 269.651 734.733 276.8 733.89 280.806 C 733.186 284.148 731.782 286.87 728.964 288.737 C 725.225 291.217 715.977 293.066 711.535 292.077 C 708.031 291.298 705.303 288.961 703.578 285.815 C 701.596 282.203 700.468 275.144 701.304 270.787 C 702.08 266.747 705.3 262.659 707.746 260.351 C 709.807 258.407 712.107 257.451 714.566 257.012 Z" style="stroke-width: 2px; fill-opacity: 0.56; fill: rgb(52, 209, 131);"/>
  <line style="stroke: rgb(0, 0, 0); fill: none; stroke-width: 8px; stroke-linecap: round;" x1="348.324" y1="270.94" x2="687.093" y2="270.94"/>
  <line style="fill: rgb(216, 216, 216); stroke: rgb(0, 0, 0); stroke-width: 8px; stroke-linecap: round;" x1="703.887" y1="271.257" x2="734.691" y2="270.743"/>
  <line style="fill: rgb(216, 216, 216); stroke: rgb(0, 0, 0); stroke-width: 8px; stroke-linecap: round;" x1="297.878" y1="271.257" x2="328.682" y2="270.743"/>
  <line style="fill: rgb(216, 216, 216); stroke: rgb(0, 0, 0); stroke-dasharray: 8px; stroke-linecap: round;" x1="363.447" y1="206.354" x2="363.447" y2="104.321"/>
  <line style="fill: rgb(216, 216, 216); stroke: rgb(0, 0, 0);" x1="356.617" y1="207.011" x2="370.198" y2="206.783"/>
  <line style="fill: rgb(216, 216, 216); stroke: rgb(0, 0, 0);" x1="356.617" y1="207.011" x2="370.198" y2="206.783" transform="matrix(1, 0, 0, 1, -0.020768, -103.359409)"/>
  <g id="XMLID_1396_" transform="matrix(0.178416, 0, 0, 0.200732, 265.315948, 104.877098)" style="">
    <g id="XMLID_1445_">
      <polygon style="fill:#FAC15C;" points="487.582,480.106 439.571,448.099 271.534,448.099 271.534,8.002 487.582,8.002 &#9;&#9;"/>
    </g>
    <g id="XMLID_1444_">
      <polygon style="fill:#F9B233;" points="487.582,8.002 375.557,448.099 271.534,448.099 271.534,8.002 &#9;&#9;"/>
    </g>
    <g id="XMLID_1443_">
      <polygon style="fill:#A48A7B;" points="15.478,480.106 63.488,448.099 231.525,448.099 231.525,8.002 15.478,8.002 &#9;&#9;"/>
    </g>
    <g id="XMLID_1442_">
      <polygon style="fill:#CBBBA0;" points="15.478,8.002 127.503,448.099 231.525,448.099 231.525,8.002 &#9;&#9;"/>
    </g>
    <g id="XMLID_1441_">
      <path style="fill:#1D1D1B;" d="M7.476,503.06V0h232.051v464.103H65.908L7.476,503.06z M23.48,16.004v457.151l37.582-25.057 h162.461V16.004H23.48z"/>
    </g>
    <g id="XMLID_1440_">
      <path style="fill:#1D1D1B;" d="M495.583,495.058L437.151,456.1H263.533V0h232.051L495.583,495.058L495.583,495.058z M279.537,440.097h162.461l37.582,25.057V16.004H279.537V440.097z"/>
    </g>
    <g id="XMLID_1439_">
      <rect x="55.487" y="64.014" style="fill:#1D1D1B;" width="136.029" height="16.004"/>
    </g>
    <g id="XMLID_1438_">
      <rect x="55.487" y="104.023" style="fill:#1D1D1B;" width="48.011" height="16.004"/>
    </g>
    <g id="XMLID_1437_">
      <rect x="119.501" y="104.023" style="fill:#1D1D1B;" width="72.016" height="16.004"/>
    </g>
    <g id="XMLID_1436_">
      <rect x="55.487" y="144.032" style="fill:#1D1D1B;" width="88.02" height="16.004"/>
    </g>
    <g id="XMLID_1434_">
      <rect x="159.509" y="144.032" style="fill:#1D1D1B;" width="32.007" height="16.004"/>
    </g>
    <g id="XMLID_1433_">
      <rect x="55.487" y="184.04" style="fill:#1D1D1B;" width="24.005" height="16.004"/>
    </g>
    <g id="XMLID_1432_">
      <rect x="95.496" y="184.04" style="fill:#1D1D1B;" width="64.014" height="16.004"/>
    </g>
    <g id="XMLID_1430_">
      <rect x="175.513" y="184.04" style="fill:#1D1D1B;" width="16.003" height="16.004"/>
    </g>
    <g id="XMLID_1427_">
      <rect x="55.487" y="224.049" style="fill:#1D1D1B;" width="72.016" height="16.004"/>
    </g>
    <g id="XMLID_1426_">
      <rect x="143.506" y="224.049" style="fill:#1D1D1B;" width="48.01" height="16.004"/>
    </g>
    <g id="XMLID_1425_">
      <rect x="55.487" y="264.058" style="fill:#1D1D1B;" width="136.029" height="16.004"/>
    </g>
    <g id="XMLID_1424_">
      <rect x="55.487" y="304.067" style="fill:#1D1D1B;" width="32.007" height="16.004"/>
    </g>
    <g id="XMLID_1423_">
      <rect x="103.498" y="304.067" style="fill:#1D1D1B;" width="88.019" height="16.004"/>
    </g>
    <g id="XMLID_1422_">
      <rect x="55.487" y="344.076" style="fill:#1D1D1B;" width="104.022" height="16.004"/>
    </g>
    <g id="XMLID_1421_">
      <rect x="175.513" y="344.076" style="fill:#1D1D1B;" width="16.003" height="16.004"/>
    </g>
    <g id="XMLID_1420_">
      <rect x="55.487" y="384.085" style="fill:#1D1D1B;" width="136.029" height="16.004"/>
    </g>
    <g id="XMLID_1419_">
      <rect x="311.543" y="384.085" style="fill:#1D1D1B;" width="136.029" height="16.004"/>
    </g>
    <g id="XMLID_1418_">
      <rect x="399.562" y="344.076" style="fill:#1D1D1B;" width="48.011" height="16.004"/>
    </g>
    <g id="XMLID_1417_">
      <rect x="311.543" y="344.076" style="fill:#1D1D1B;" width="72.016" height="16.004"/>
    </g>
    <g id="XMLID_1415_">
      <rect x="359.553" y="304.067" style="fill:#1D1D1B;" width="88.02" height="16.004"/>
    </g>
    <g id="XMLID_1413_">
      <rect x="311.543" y="304.067" style="fill:#1D1D1B;" width="32.007" height="16.004"/>
    </g>
    <g id="XMLID_1410_">
      <rect x="423.568" y="264.058" style="fill:#1D1D1B;" width="24.005" height="16.004"/>
    </g>
    <g id="XMLID_1409_">
      <rect x="343.55" y="264.058" style="fill:#1D1D1B;" width="64.014" height="16.004"/>
    </g>
    <g id="XMLID_1408_">
      <rect x="311.543" y="264.058" style="fill:#1D1D1B;" width="16.003" height="16.004"/>
    </g>
    <g id="XMLID_1406_">
      <rect x="375.557" y="224.049" style="fill:#1D1D1B;" width="72.016" height="16.004"/>
    </g>
    <g id="XMLID_1405_">
      <rect x="311.544" y="224.049" style="fill:#1D1D1B;" width="48.01" height="16.004"/>
    </g>
    <g id="XMLID_1404_">
      <rect x="311.543" y="184.04" style="fill:#1D1D1B;" width="136.029" height="16.004"/>
    </g>
    <g id="XMLID_1403_">
      <rect x="415.566" y="144.032" style="fill:#1D1D1B;" width="32.007" height="16.004"/>
    </g>
    <g id="XMLID_1402_">
      <rect x="311.543" y="144.032" style="fill:#1D1D1B;" width="88.019" height="16.004"/>
    </g>
    <g id="XMLID_1401_">
      <rect x="343.55" y="104.023" style="fill:#1D1D1B;" width="104.022" height="16.004"/>
    </g>
    <g id="XMLID_1400_">
      <rect x="311.543" y="104.023" style="fill:#1D1D1B;" width="16.003" height="16.004"/>
    </g>
    <g id="XMLID_1397_">
      <rect x="311.543" y="64.014" style="fill:#1D1D1B;" width="136.029" height="16.004"/>
    </g>
  </g>
  <g transform="matrix(0.178416, 0, 0, 0.200732, 265.315948, 105.604187)" style=""/>
  <g transform="matrix(0.178416, 0, 0, 0.200732, 265.315948, 105.604187)" style=""/>
  <g transform="matrix(0.178416, 0, 0, 0.200732, 265.315948, 105.604187)" style=""/>
  <g transform="matrix(0.178416, 0, 0, 0.200732, 265.315948, 105.604187)" style=""/>
  <g transform="matrix(0.178416, 0, 0, 0.200732, 265.315948, 105.604187)" style=""/>
  <g transform="matrix(0.178416, 0, 0, 0.200732, 265.315948, 105.604187)" style=""/>
  <g transform="matrix(0.178416, 0, 0, 0.200732, 265.315948, 105.604187)" style=""/>
  <g transform="matrix(0.178416, 0, 0, 0.200732, 265.315948, 105.604187)" style=""/>
  <g transform="matrix(0.178416, 0, 0, 0.200732, 265.315948, 105.604187)" style=""/>
  <g transform="matrix(0.178416, 0, 0, 0.200732, 265.315948, 105.604187)" style=""/>
  <g transform="matrix(0.178416, 0, 0, 0.200732, 265.315948, 105.604187)" style=""/>
  <g transform="matrix(0.178416, 0, 0, 0.200732, 265.315948, 105.604187)" style=""/>
  <g transform="matrix(0.178416, 0, 0, 0.200732, 265.315948, 105.604187)" style=""/>
  <g transform="matrix(0.178416, 0, 0, 0.200732, 265.315948, 105.604187)" style=""/>
  <g transform="matrix(0.178416, 0, 0, 0.200732, 265.315948, 105.604187)" style=""/>
</svg>