<?xml version="1.0" encoding="iso-8859-1"?>
<!-- Generator: Adobe Illustrator 18.0.0, SVG Export Plug-In . SVG Version: 6.00 Build 0)  -->
<!DOCTYPE svg PUBLIC "-//W3C//DTD SVG 1.1//EN" "http://www.w3.org/Graphics/SVG/1.1/DTD/svg11.dtd">
<svg version="1.1" id="Capa_1" xmlns="http://www.w3.org/2000/svg" xmlns:xlink="http://www.w3.org/1999/xlink" x="0px" y="0px"
	 viewBox="0 0 55.77 55.77" style="enable-background:new 0 0 55.77 55.77;" xml:space="preserve">
<g>
	<path style="fill:#EFCE4A;" d="M32.598,8.426l14.746,14.746l-4.47,4.47c-3.93,3.93-3.93,10.301,0,14.231l3.417,3.417L1,54.77
		l9.479-45.29l3.417,3.417c3.93,3.93,10.301,3.93,14.231,0L32.598,8.426z"/>
	
		<rect x="32.177" y="9.442" transform="matrix(-0.7071 -0.7071 0.7071 -0.7071 63.4196 52.6008)" style="fill:#7383BF;" width="20.853" height="7.448"/>
	
		<rect x="40.422" y="4.176" transform="matrix(-0.7071 -0.7071 0.7071 -0.7071 76.1336 47.3345)" style="fill:#434C6D;" width="14.895" height="7.448"/>
	<path style="fill:#F7E6A1;" d="M31.198,24.571c-1.033-1.033-2.406-1.602-3.867-1.602s-2.834,0.568-3.867,1.602
		c-1.033,1.033-1.602,2.406-1.602,3.867c0,1.121,0.341,2.186,0.964,3.09L0.293,54.063c-0.391,0.391-0.391,1.023,0,1.414
		C0.488,55.672,0.744,55.77,1,55.77s0.512-0.098,0.707-0.293l22.534-22.534c0.904,0.623,1.97,0.964,3.091,0.964
		c1.46,0,2.834-0.568,3.867-1.602c1.033-1.033,1.602-2.406,1.602-3.866C32.8,26.978,32.231,25.605,31.198,24.571z M29.784,30.891
		c-1.311,1.311-3.595,1.311-4.905,0c-1.352-1.353-1.352-3.553,0-4.905c0.655-0.655,1.526-1.016,2.453-1.016s1.797,0.36,2.453,1.016
		C31.136,27.338,31.136,29.538,29.784,30.891z"/>
</g>
<g>
</g>
<g>
</g>
<g>
</g>
<g>
</g>
<g>
</g>
<g>
</g>
<g>
</g>
<g>
</g>
<g>
</g>
<g>
</g>
<g>
</g>
<g>
</g>
<g>
</g>
<g>
</g>
<g>
</g>
</svg>
