<?xml version="1.0" encoding="utf-8"?>
<svg enable-background="new 0 0 1920 1080" viewBox="0 0 1920 1080" xmlns="http://www.w3.org/2000/svg">
  <g opacity=".1">
    <path fill="#2a94f4" d="M466.3 715.7c-.7-3.7-1.8-7.3-3.3-10.7-.9-2.1-.6-4.5.9-6.3l6.1-7.5-9.2-11.2-8.5 4.5c-2 1.1-4.5.9-6.4-.4-3.1-2.1-6.4-3.9-9.9-5.3-2.1-.8-3.6-2.8-3.8-5.1l-.9-9.6-14.4-1.4-2.8 9.3c-.7 2.2-2.5 3.8-4.8 4.2-3.7.7-7.3 1.8-10.7 3.3-2.1.9-4.5.6-6.3-.9l-7.5-6.1-11.2 9.2 4.5 8.5c1.1 2 .9 4.5-.4 6.4-2.1 3.1-3.9 6.4-5.3 9.9-.8 2.1-2.8 3.6-5.1 3.8l-9.6.9-1.4 14.4 9.3 2.8c2.2.7 3.8 2.5 4.2 4.8.7 3.7 1.8 7.3 3.3 10.7.9 2.1.6 4.6-.9 6.3l-6.1 7.5 9.2 11.2 8.5-4.5c2-1.1 4.5-.9 6.4.4 3.1 2.1 6.4 3.9 9.9 5.3 2.1.8 3.6 2.8 3.8 5.1l.9 9.6 14.4 1.4 2.8-9.3c.7-2.2 2.5-3.8 4.8-4.2 3.7-.7 7.3-1.8 10.7-3.3 2.1-.9 4.5-.6 6.3.9l7.5 6.1 11.2-9.2-4.5-8.5c-1.1-2-.9-4.5.4-6.4 2.1-3.1 3.9-6.4 5.3-9.9.8-2.1 2.8-3.6 5.1-3.8l9.6-.9 1.4-14.4-9.3-2.8c-2.1-.7-3.8-2.6-4.2-4.8zm-51.8 45.4c-20.2-2-35-20-33-40.2 2-20.2 20-35 40.2-33 20.2 2 35 20 33 40.2-2 20.2-20 34.9-40.2 33z"/>
    <path fill="#2a94f4" d="M393.7 722c1.3-13.5 13.3-23.3 26.8-22 13.5 1.3 23.3 13.3 22 26.8-1.3 13.5-13.3 23.3-26.8 22-13.5-1.3-23.3-13.3-22-26.8z"/>
  </g>
  <ellipse cx="914" cy="1005.2" fill="#2a94f4" opacity=".1" rx="452.5" ry="36.6"/>
  <path fill="#ffbe55" d="M776.8 888.5c0 8.5 6.9 15.4 15.4 15.4h553.3c8.5 0 15.4-6.9 15.4-15.4V412.1h-584v476.4z" opacity=".19"/>
  <g id="mainsecondary">
    <path fill="#ffbe55" d="M 950.6 691.8 C 953.2 700.8 956.8 709.5 961.4 717.8 C 964.2 722.8 964 729 960.8 733.8 L 947.4 753.9 L 973.1 779.6 L 993.2 766.2 C 998 763 1004.2 762.8 1009.2 765.6 C 1017.4 770.2 1026.1 773.8 1035.2 776.4 C 1040.7 778 1044.9 782.5 1046.1 788.2 L 1050.8 811.9 L 1087.1 811.9 L 1091.9 788.1 C 1093 782.5 1097.2 777.9 1102.8 776.3 C 1111.8 773.7 1120.5 770.1 1128.8 765.5 C 1133.8 762.7 1140 762.9 1144.8 766.1 L 1164.9 779.5 L 1190.6 753.8 L 1177.2 733.7 C 1174 728.9 1173.8 722.7 1176.6 717.7 C 1181.2 709.5 1184.8 700.8 1187.4 691.7 C 1189 686.2 1193.5 682 1199.2 680.8 L 1222.9 676.1 L 1222.9 639.8 L 1199.1 635 C 1193.5 633.9 1188.9 629.7 1187.3 624.1 C 1184.7 615.1 1181.1 606.4 1176.5 598.1 C 1173.7 593.1 1173.9 586.9 1177.1 582.1 L 1190.5 562 L 1164.8 536.3 L 1144.7 549.7 C 1139.9 552.9 1133.7 553.1 1128.7 550.3 C 1120.5 545.7 1111.8 542.1 1102.7 539.5 C 1097.2 537.9 1093 533.4 1091.8 527.7 L 1087.1 504 L 1050.8 504 L 1046 527.8 C 1044.9 533.4 1040.7 538 1035.1 539.6 C 1026.1 542.2 1017.4 545.8 1009.1 550.4 C 1004.1 553.2 997.9 553 993.1 549.8 L 973 536.4 L 947.3 562.1 L 960.7 582.2 C 963.9 587 964.1 593.2 961.3 598.2 C 956.7 606.4 953.1 615.1 950.5 624.2 C 948.9 629.7 944.4 633.9 938.7 635.1 L 915 639.8 L 915 676.1 L 938.8 680.9 C 944.5 682 949.1 686.2 950.6 691.8 L 950.6 691.8 Z M 1068.8 565.7 C 1119.7 565.7 1161 607 1161 657.9 C 1161 708.8 1119.7 750.1 1068.8 750.1 C 1017.9 750.1 976.6 708.8 976.6 657.9 C 976.6 607.1 1017.9 565.8 1068.8 565.7 Z M 776.8 335.2 L 776.8 381.3 L 1360.8 381.3 L 1360.8 335.2 C 1360.8 326.7 1353.9 319.8 1345.4 319.8 L 792.1 319.8 C 783.6 319.8 776.8 326.7 776.8 335.2 L 776.8 335.2 Z M 930.5 335.2 L 961.2 335.2 L 961.2 366 L 930.5 366 L 930.5 335.2 Z M 869 335.2 L 899.7 335.2 L 899.7 366 L 869 366 L 869 335.2 Z M 807.5 335.2 L 838.2 335.2 L 838.2 366 L 807.5 366 L 807.5 335.2 Z"/>
    <path fill="#ffbe55" d="M 1130.3 658 C 1130.3 691.9 1102.8 719.5 1068.8 719.5 C 1034.8 719.5 1007.3 692 1007.3 658 C 1007.3 624.1 1034.8 596.5 1068.8 596.5 C 1102.7 596.5 1130.3 624 1130.3 658 Z M 1084.2 58.6 C 1084.2 50.1 1077.3 43.2 1068.8 43.2 L 515.5 43.2 C 507 43.2 500.1 50.1 500.1 58.6 L 500.1 104.7 L 1084.1 104.7 L 1084.1 58.6 L 1084.2 58.6 Z M 561.6 89.3 L 530.9 89.3 L 530.9 58.6 L 561.6 58.6 L 561.6 89.3 Z M 623.1 89.3 L 592.4 89.3 L 592.4 58.6 L 623.1 58.6 L 623.1 89.3 Z M 684.6 89.3 L 653.9 89.3 L 653.9 58.6 L 684.6 58.6 L 684.6 89.3 Z"/>
    <path fill="#ffbe55" d="M 557.4 819.5 C 555.6 814.9 553.4 810.4 550.6 806.3 C 548.9 803.8 548.8 800.5 550.2 797.9 L 556.4 786.7 L 541.8 774.3 L 531.8 782.3 C 529.4 784.2 526.2 784.6 523.4 783.3 C 518.9 781.3 514.1 779.7 509.3 778.8 C 506.3 778.2 503.9 776 503.1 773.1 L 499.6 760.9 L 480.5 762.5 L 479 775.2 C 478.7 778.2 476.6 780.8 473.8 781.9 C 469.2 783.7 464.7 785.9 460.6 788.7 C 458.1 790.4 454.8 790.5 452.2 789.1 L 441 782.9 L 428.6 797.5 L 436.6 807.5 C 438.5 809.9 438.9 813.1 437.6 815.9 C 435.6 820.4 434 825.2 433.1 830 C 432.5 833 430.3 835.4 427.4 836.2 L 415.1 839.7 L 416.7 858.8 L 429.4 860.3 C 432.4 860.6 435 862.7 436.1 865.5 C 437.9 870.1 440.1 874.6 442.9 878.7 C 444.6 881.2 444.7 884.5 443.3 887.1 L 437.1 898.3 L 451.7 910.7 L 461.7 902.7 C 464.1 900.8 467.3 900.4 470.1 901.7 C 474.6 903.7 479.4 905.3 484.2 906.2 C 487.2 906.8 489.6 909 490.4 911.9 L 493.9 924.2 L 513 922.6 L 514.5 909.9 C 514.8 906.9 516.9 904.3 519.7 903.2 C 524.3 901.4 528.8 899.2 532.9 896.4 C 535.4 894.7 538.7 894.6 541.3 896 L 552.5 902.2 L 564.9 887.6 L 556.9 877.6 C 555 875.2 554.6 872 555.9 869.2 C 557.9 864.7 559.5 859.9 560.4 855.1 C 561 852.1 563.2 849.7 566.1 848.9 L 578.4 845.4 L 576.8 826.3 L 564.1 824.8 C 561.1 824.4 558.5 822.3 557.4 819.5 L 557.4 819.5 Z M 500.8 891 C 474 893.2 450.5 873.3 448.2 846.5 C 446 819.7 465.9 796.2 492.7 793.9 C 519.5 791.7 543 811.6 545.3 838.4 C 547.5 865.2 527.6 888.7 500.8 891 L 500.8 891 Z"/>
    <path fill="#ffbe55" d="M 464.4 845.2 C 462.9 827.3 476.2 811.6 494 810.1 C 511.9 808.6 527.6 821.9 529.1 839.7 C 530.6 857.6 517.3 873.3 499.5 874.8 C 481.6 876.3 465.9 863.1 464.4 845.2 Z"/>
    <path fill="#ffbe55" d="M 1412.8 222.4 C 1408.9 227.4 1405.7 232.8 1403.1 238.6 C 1401.5 242.1 1398.1 244.5 1394.2 244.7 L 1377.9 245.5 L 1374.3 269.6 L 1389.6 275.1 C 1393.2 276.4 1395.8 279.7 1396.3 283.5 C 1397.1 289.8 1398.6 295.9 1400.9 301.8 C 1402.3 305.4 1401.5 309.5 1398.9 312.4 L 1388 324.4 L 1402.5 344 L 1417.3 337.1 C 1420.8 335.5 1424.9 335.9 1428 338.3 C 1433 342.2 1438.4 345.4 1444.2 348 C 1447.7 349.6 1450.1 353 1450.3 356.9 L 1451.1 373.2 L 1475.2 376.8 L 1480.7 361.5 C 1482 357.9 1485.3 355.3 1489.1 354.8 C 1495.4 354 1501.5 352.5 1507.4 350.2 C 1511 348.8 1515.1 349.6 1518 352.2 L 1530 363.2 L 1549.6 348.7 L 1542.7 333.9 C 1541.1 330.4 1541.5 326.3 1543.9 323.2 C 1547.8 318.2 1551 312.8 1553.6 307 C 1555.2 303.5 1558.6 301.1 1562.5 300.9 L 1578.8 300.1 L 1582.4 276 L 1567.1 270.5 C 1563.5 269.2 1560.9 265.9 1560.4 262.1 C 1559.6 255.8 1558.1 249.7 1555.8 243.8 C 1554.4 240.2 1555.2 236.1 1557.8 233.2 L 1568.8 221.2 L 1554.3 201.6 L 1539.5 208.5 C 1536 210.1 1531.9 209.7 1528.8 207.3 C 1523.8 203.4 1518.4 200.2 1512.6 197.6 C 1509.1 196 1506.7 192.6 1506.5 188.7 L 1505.7 172.4 L 1481.6 168.8 L 1476.1 184.1 C 1474.8 187.7 1471.5 190.3 1467.7 190.8 C 1461.4 191.6 1455.3 193.1 1449.4 195.4 C 1445.8 196.8 1441.7 196 1438.8 193.4 L 1426.8 182.4 L 1407.2 196.9 L 1414.1 211.7 C 1415.6 215.2 1415.2 219.3 1412.8 222.4 L 1412.8 222.4 Z M 1528.1 235.9 C 1548.4 263.4 1542.6 302.3 1515.1 322.6 C 1487.6 342.9 1448.7 337.1 1428.4 309.6 C 1408.1 282.1 1413.9 243.2 1441.4 222.9 C 1469 202.6 1507.8 208.4 1528.1 235.9 L 1528.1 235.9 Z"/>
    <path fill="#ffbe55" d="M 1502.8 306 C 1484.4 319.6 1458.6 315.7 1445 297.3 C 1431.4 278.9 1435.3 253.1 1453.7 239.5 C 1472.1 225.9 1497.9 229.8 1511.5 248.2 C 1525.1 266.5 1521.2 292.4 1502.8 306 Z"/>
  </g>
  <path fill="#ffbe55" d="M746 335.2c0-25.5 20.6-46.1 46.1-46.1h292V135.4h-584v476.4c0 8.5 6.9 15.4 15.4 15.4H746v-292zm123-122.9h30.7V243H869v-30.7zm-61.5 0h30.7V243h-30.7v-30.7zm-61.5 0h30.7V243H746v-30.7zm-61.4 368.8h-123v-30.7h123v30.7zm0-61.5h-123v-30.7h123v30.7zm0-61.4h-123v-30.7h123v30.7zm0-61.5h-123V366h123v30.7zm0-61.5h-123v-30.7h123v30.7zm0-92.2v-30.7h30.7V243h-30.7z" opacity=".19"/>
  <path fill="#fcd2b1" d="m866.3 767.1.6-16.2 11.5 3.5 2.2 20.2s-11 .7-14.3-7.5z"/>
  <path fill="#0e538c" d="M867.3 767.2c2.7 1.1 7.2 2.1 12.8.8l-.7-4.6s3.2 1.9 4 6.1c.8 4.1 1 3 6.2 6.2 5.3 3.2 4.9 10.4 4.9 10.4l-39.2-1s-1.1-7.9 6-16.3c1.4-1.8 3.9-2.5 6-1.6z"/>
  <path fill="#ffbe55" d="M804 529s-5.1 19.9 2.1 32.4 20.2-15.2 20.2-15.2S824 519.6 804 529z"/>
  <path fill="#ffe3ca" d="M800.4 434.6s-26.4 35.9-30.8 57.6c-4.5 21.7.3 69.1.3 69.1h10.8s5.7-60.5 9.3-69.1c3.6-8.8 27-49.4 27-49.4l-16.6-8.2z"/>
  <path fill="#d3d3d3" d="M795.9 784.3h100.2v11.5H795.9zM774.5 863.7h107.7v11.5H774.5zM764.8 940.5h107.7V952H764.8z"/>
  <path fill="#d3d3d3" d="M754 1016.9h-12l88.4-415.8h6.7zM879.3 1016.9h-12l70.1-427.5 5.9 2.8z"/>
  <path fill="#f7f7f7" d="m855 1016.9 64.5-415.1-89.1-.7-88.4 415.8h-13.8L818 589.4h119.4l-66.3 427.5H853"/>
  <path fill="#fcd2b1" d="m814.5 767.1.6-16.2 11.5 3.5 2.2 20.2c-.1 0-11 .7-14.3-7.5z"/>
  <path fill="#ffe3ca" d="M928 401.6s28.5-2.1 31.9-15.3c3.4-13.2 2.8-48.8 2.8-48.8h9.9s6.8 33.1 6.4 48.8c-.4 15.7-19.5 42.5-51 40.8-31.4-1.7 0-25.5 0-25.5z"/>
  <path fill="#0b4870" d="M809.9 522.2s-7.1 21-.4 44 6.7 69.4 6.1 81.5-11.9 47.1-2.3 108.9h14.8s9-64.8 14.2-92.4c4.9-25.9 11.1-90.5 11.1-90.5s18.6 61.3 15.5 77.1c-3.4 17.4-3.8 105.7-3.8 105.7H880s16.7-76 17.7-96.4c1.1-20.4-1.2-134.8-1.2-134.8s-49.6-33.7-86.6-3.1z"/>
  <path fill="#fcd2b1" d="m860.7 360-15.1 46.2 27.3 5.4 6-47.9z"/>
  <g id="darkprimary">
    <path fill="#2a94f4" d="M 835.7 399.9 C 835.7 399.9 819.2 401.6 812.4 408.8 C 809.1 412.3 788.6 437.7 789.4 443.2 L 813.5 458.2 L 833.2 430.9 L 835.7 399.9 L 835.7 399.9 Z"/>
    <path fill="#2a94f4" d="M 876.2 397.3 C 876.2 397.3 894.7 401.1 896.6 425.3 C 898.5 449.5 901.1 552.7 901.1 561.6 C 900.5 565.7 828.6 579.4 807.2 558.6 C 801.8 553.3 819.5 463.5 817 439.9 C 814.4 416.4 828.4 386.5 876.2 397.3 Z"/>
    <path fill="#2a94f4" d="M 897.7 445.7 C 897.7 445.7 905.1 428.8 928 427.1 C 928 427.1 933.5 411.4 928 401.6 C 928 401.6 886.5 393.1 870.7 396.3 C 854.9 399.5 897.7 445.7 897.7 445.7 L 897.7 445.7 Z"/>
  </g>
  <path fill="#ffe3ca" d="M972.5 346.4s3.1-16.6-2.4-26c-3.3-5.6-6.9-8.2-10.5-7.2-2.4.7-3.4 4.9-2.8 7.3.8 3.1 3.4 11.6 4.8 14 0 0-2.5 0-5.1-5.6-2.5-5.5-4.4 2.6-2.4 6.4 3 5.5 12.9 20.6 18.4 11.1z"/>
  <path fill="#0e538c" d="M815.4 767.2c2.7 1.1 7.2 2.1 12.8.8l-.7-4.6s3.2 1.9 4 6.1c.8 4.1 1 3 6.2 6.2 5.3 3.2 4.9 10.4 4.9 10.4l-39.2-1s-1.1-7.9 6-16.3c1.5-1.8 3.9-2.5 6-1.6z"/>
  <path fill="#0b4870" d="M899.4 353.1c-.7-5.8 11.9-9.7-12.2-26.7-12.3-8.6-33.7-4.8-40.3 8.2s-3.1 14.3-8.2 15.2c-5.1 1 .3 41.2 31.1 40.7 30.9-.5 29.6-37.4 29.6-37.4z"/>
  <path fill="#ffe3ca" d="M780 555.7s-1.8 21.3 5.1 27.1c6.9 5.9-12.2 8.5-16.9-2.3s1.7-24.8 1.7-24.8H780z"/>
  <path fill="#ffe3ca" d="M778.2 558.5s6.4 1.1 8.8 8c1.4 3.9 2.2 8.1 2.6 11 .3 1.9-1.9 3.2-3.5 2-1.6-1.2-3.1-3-2.9-6.1.5-6.5-7.3-4.6-7.3-4.6s-2.6-7.7 2.3-10.3z"/>
  <path fill="#ffbe55" d="M 805.7 515 L 899.5 515 C 903.3 515 906.4 517.8 906.8 521.5 C 908.4 535.6 910.1 567.6 893.6 569.9 C 872.4 572.9 865.6 550 865.6 528.7 L 804 529 C 804 529 801.9 518.8 805.7 515 Z"/>
  <path fill="#f7f7f7" d="M882.9 529.7H878v-14.5c0-.8.7-1.5 1.5-1.5h2c.8 0 1.5.7 1.5 1.5v14.5zM890.2 529.7h-4.9v-9.6c0-.8.7-1.5 1.5-1.5h2c.8 0 1.5.7 1.5 1.5v9.6zM899.5 529.7h-6.8v-20.9c0-1.1.9-2 2-2h2.8c1.1 0 2 .9 2 2v20.9z"/>
  <path fill="#161616" d="M867.2 529.7H905v3.2h-37.8z" opacity=".32"/>
  <g id="mainprimary">
    <path fill="#cce9ff" d="M 713.1 687.9 C 708.3 683.6 703.1 679.8 697.4 676.7 C 693.9 674.8 691.9 671.1 692 667.2 L 692.5 650.6 L 668.3 645 L 661.5 660.1 C 659.9 663.7 656.4 666.1 652.4 666.3 C 646 666.6 639.6 667.7 633.4 669.5 C 629.6 670.6 625.5 669.5 622.8 666.6 L 611.5 654.5 L 590.4 667.6 L 596.2 683.2 C 597.6 686.9 596.8 691.1 594.1 694 C 589.8 698.8 586 704 582.9 709.7 C 581 713.2 577.3 715.2 573.4 715.1 L 556.8 714.6 L 551.2 738.8 L 566.3 745.6 C 569.9 747.2 572.3 750.7 572.5 754.7 C 572.8 761.1 573.9 767.5 575.6 773.7 C 576.7 777.5 575.6 781.6 572.7 784.3 L 560.6 795.6 L 573.7 816.7 L 589.3 810.8 C 593 809.4 597.1 810.2 600.1 812.9 C 604.9 817.2 610.1 821 615.8 824.1 C 619.3 826 621.4 829.7 621.2 833.6 L 620.7 850.2 L 644.9 855.8 L 651.7 840.7 C 653.3 837.1 656.8 834.7 660.8 834.5 C 667.2 834.2 673.6 833.1 679.8 831.4 C 683.6 830.3 687.7 831.4 690.4 834.3 L 701.7 846.4 L 722.8 833.3 L 717 817.7 C 715.6 814 716.4 809.8 719.1 806.9 C 723.4 802.1 727.2 796.9 730.3 791.2 C 732.2 787.7 735.9 785.7 739.8 785.8 L 756.4 786.3 L 762 762.1 L 746.9 755.3 C 743.3 753.7 740.9 750.2 740.7 746.2 C 740.4 739.8 739.3 733.4 737.6 727.2 C 736.5 723.4 737.6 719.3 740.5 716.6 L 752.6 705.3 L 739.5 684.2 L 723.9 690 C 720.2 691.3 716.1 690.5 713.1 687.9 Z M 690.1 804 C 660.5 822.5 621.5 813.4 603 783.8 C 584.5 754.2 593.6 715.2 623.2 696.7 C 652.8 678.2 691.8 687.3 710.3 716.9 C 728.7 746.6 719.7 785.5 690.1 804 Z"/>
    <path fill="#cce9ff" d="M 620.9 772.6 C 608.6 752.9 614.6 726.9 634.4 714.6 C 654.2 702.3 680.1 708.3 692.4 728.1 C 704.7 747.8 698.7 773.8 678.9 786.1 C 659.2 798.4 633.2 792.4 620.9 772.6 Z"/>
    <path fill="#cce9ff" d="M 1166 141.6 C 1164.5 149.7 1164 157.9 1164.3 166.1 C 1164.5 171.1 1162 175.9 1157.6 178.4 L 1139.3 188.9 L 1149.4 218.9 L 1170.4 216.2 C 1175.4 215.6 1180.3 217.8 1183.1 221.9 C 1187.8 228.7 1193.2 234.9 1199.2 240.4 C 1202.9 243.8 1204.4 249 1203.1 253.8 L 1197.6 274.1 L 1225.9 288.2 L 1238.9 271.5 C 1242 267.5 1247 265.6 1251.9 266.5 C 1260 268 1268.2 268.6 1276.4 268.2 C 1281.4 268 1286.2 270.5 1288.7 274.9 L 1299.2 293.2 L 1329.2 283.1 L 1326.5 262.1 C 1325.9 257.1 1328.1 252.2 1332.2 249.4 C 1339 244.8 1345.2 239.3 1350.7 233.3 C 1354.1 229.6 1359.3 228.1 1364.1 229.4 L 1384.5 234.9 L 1398.6 206.5 L 1381.8 193.5 C 1377.8 190.4 1375.9 185.4 1376.8 180.5 C 1378.3 172.4 1378.9 164.2 1378.5 156 C 1378.3 151 1380.9 146.2 1385.2 143.7 L 1403.5 133.2 L 1393.4 103.2 L 1372.4 105.9 C 1367.4 106.5 1362.5 104.3 1359.7 100.2 C 1355.1 93.4 1349.6 87.2 1343.6 81.7 C 1339.9 78.3 1338.4 73.1 1339.7 68.3 L 1345.2 47.9 L 1317 33.8 L 1304 50.5 C 1300.9 54.5 1295.9 56.4 1291 55.5 C 1282.9 54 1274.7 53.4 1266.5 53.8 C 1261.5 54 1256.7 51.5 1254.2 47.1 L 1243.7 28.8 L 1213.7 38.9 L 1216.4 59.9 C 1217 64.9 1214.8 69.8 1210.7 72.6 C 1203.9 77.2 1197.7 82.7 1192.2 88.7 C 1188.8 92.4 1183.6 93.9 1178.8 92.6 L 1158.4 87.1 L 1144.3 115.5 L 1161 128.5 C 1165.1 131.6 1167 136.6 1166 141.6 L 1166 141.6 Z M 1307.3 88.9 C 1347.1 108.7 1363.3 157 1343.6 196.8 C 1323.8 236.6 1275.5 252.8 1235.7 233.1 C 1195.9 213.3 1179.7 165 1199.4 125.2 C 1219.2 85.4 1267.5 69.2 1307.3 88.9 L 1307.3 88.9 Z"/>
    <path fill="#cce9ff" d="M 1319.5 184.9 C 1306.3 211.4 1274.1 222.3 1247.6 209.1 C 1221.1 195.9 1210.2 163.7 1223.4 137.2 C 1236.6 110.7 1268.8 99.8 1295.3 113 C 1321.9 126.1 1332.7 158.3 1319.5 184.9 L 1319.5 184.9 Z"/>
  </g>
</svg>