<?xml version="1.0" encoding="utf-8"?>
<svg version="1.1" id="Layer_1" x="0px" y="0px" viewBox="0 0 885 495" enable-background="new 0 0 1080 1080" xmlns="http://www.w3.org/2000/svg">
  <path opacity="0.07" fill="#2A94F4" d="M 105.198 442.144 C 105.198 252.858 258.645 99.411 447.931 99.411 C 637.217 99.411 790.664 252.858 790.664 442.144"/>
  <g opacity="0.2" transform="matrix(1, 0, 0, 1, -111.663002, -326.455017)">
    <g>
      <path fill="#2A94F4" d="M224.499,770.302c0,0,79.44-189.446,107.912-171.925c28.472,17.521,95.727,171.925,95.727,171.925H224.499    z"/>
    </g>
  </g>
  <g opacity="0.2" transform="matrix(1, 0, 0, 1, -111.663002, -326.455017)">
    <g>
      <path fill="#2A94F4" d="M908.92,770.302c0,0-72.622-181.361-98.65-164.587c-26.028,16.773-87.511,164.587-87.511,164.587H908.92z"/>
    </g>
  </g>
  <g transform="matrix(1, 0, 0, 1, -111.663002, -326.455017)">
    <path fill="#5E349D" d="M574.925,773.586h-50.373c-1.815,0-3.285-1.472-3.285-3.285c0-1.814,1.47-3.285,3.285-3.285h50.373   c1.814,0,3.285,1.471,3.285,3.285C578.21,772.115,576.739,773.586,574.925,773.586z"/>
  </g>
  <g transform="matrix(1, 0, 0, 1, -111.663002, -326.455017)">
    <path fill="#D3D3D3" d="M546.591,513.852c0,1.228-0.996,2.224-2.224,2.224c-1.228,0-2.224-0.996-2.224-2.224   c0-1.228,0.996-2.224,2.224-2.224C545.595,511.628,546.591,512.624,546.591,513.852z"/>
  </g>
  <g opacity="0.4" transform="matrix(1, 0, 0, 1, -111.663002, -326.455017)">
    <path fill="#D3D3D3" d="M906.013,422.177H678.659c-7.83,0-14.236-6.406-14.236-14.236l0,0c0-7.83,6.406-14.236,14.236-14.236   h227.355c7.83,0,14.236,6.406,14.236,14.236l0,0C920.249,415.771,913.843,422.177,906.013,422.177z"/>
  </g>
  <g opacity="0.4" transform="matrix(1, 0, 0, 1, -111.663002, -326.455017)">
    <path fill="#D3D3D3" d="M402.144,384.162H264.576c-7.83,0-14.236-6.406-14.236-14.236l0,0c0-7.83,6.406-14.236,14.236-14.236   h137.567c7.83,0,14.236,6.406,14.236,14.236l0,0C416.379,377.756,409.973,384.162,402.144,384.162z"/>
  </g>
  <g opacity="0.4" transform="matrix(1, 0, 0, 1, -111.663002, -326.455017)">
    <path fill="#D3D3D3" d="M845.123,369.927H707.556c-7.83,0-14.236-6.406-14.236-14.236l0,0c0-7.83,6.406-14.236,14.236-14.236   h137.567c7.83,0,14.236,6.406,14.236,14.236l0,0C859.359,363.52,852.953,369.927,845.123,369.927z"/>
  </g>
  <g opacity="0.4" transform="matrix(1, 0, 0, 1, -111.663002, -326.455017)">
    <path fill="#D3D3D3" d="M278.466,436.413H140.899c-7.83,0-14.236-6.406-14.236-14.236l0,0c0-7.83,6.406-14.236,14.236-14.236   h137.567c7.83,0,14.236,6.406,14.236,14.236l0,0C292.702,430.007,286.296,436.413,278.466,436.413z"/>
  </g>
  <g opacity="0.4" transform="matrix(1, 0, 0, 1, -111.663002, -326.455017)">
    <path fill="#D3D3D3" d="M869.087,540H731.519c-7.83,0-14.236-6.406-14.236-14.236l0,0c0-7.83,6.406-14.236,14.236-14.236h137.567   c7.83,0,14.236,6.406,14.236,14.236l0,0C883.323,533.594,876.916,540,869.087,540z"/>
  </g>
  <g opacity="0.4" transform="matrix(1, 0, 0, 1, -111.663002, -326.455017)">
    <path fill="#D3D3D3" d="M387.179,554.236H212.134c-6.927,0-12.594-5.667-12.594-12.594v-3.283c0-6.927,5.667-12.595,12.594-12.595   h175.045c6.927,0,12.595,5.668,12.595,12.595v3.283C399.774,548.568,394.106,554.236,387.179,554.236z"/>
  </g>
  <path fill="#D3D3D3" d="M 869.405 457.14 C 869.405 467.9 860.682 476.623 849.922 476.623 L 68.429 476.623 C 57.669 476.623 48.946 467.9 48.946 457.14 C 48.946 446.38 57.669 437.657 68.429 437.657 L 849.923 437.657 C 860.683 437.657 869.405 446.38 869.405 457.14 Z"/>
  <path opacity="0.4" fill="#2A94F4" d="M 151.835 357.504 C 151.835 357.504 136.312 412.407 174.385 414.278 C 212.458 416.149 206.534 377.974 199.919 363.008 C 193.304 348.042 243.49 295.322 188.885 266.866 C 134.281 238.412 115.26 344.368 151.835 357.504 Z"/>
  <path opacity="0.4" fill="#2A94F4" d="M 86.368 378.949 C 86.368 378.949 75.221 410.763 97.605 413.248 C 119.989 415.734 117.882 393.006 114.524 383.94 C 111.166 374.874 142.676 345.606 111.507 326.843 C 80.338 308.08 65.276 369.874 86.368 378.949 Z"/>
  <line fill="none" stroke="#4D4D4D" stroke-miterlimit="10" x1="99.41" y1="349.748" x2="99.777" y2="440.561"/>
  <polyline fill="none" stroke="#4D4D4D" stroke-miterlimit="10" points="109.399 371.326 99.546 383.488 89.105 372.623"/>
  <line fill="none" stroke="#4D4D4D" stroke-miterlimit="10" x1="171.44" y1="300.054" x2="172.862" y2="437.657"/>
  <polyline fill="none" stroke="#4D4D4D" stroke-miterlimit="10" points="188.682 317.741 171.784 333.324 156.478 319.022"/>
  <polyline fill="none" stroke="#4D4D4D" stroke-miterlimit="10" points="188.589 346.669 171.691 362.253 156.385 347.95"/>
  <path opacity="0.4" fill="#2A94F4" d="M 779.442 357.504 C 779.442 357.504 763.919 412.407 801.992 414.278 C 840.065 416.149 834.141 377.974 827.526 363.008 C 820.911 348.042 871.097 295.322 816.492 266.866 C 761.888 238.412 742.867 344.368 779.442 357.504 Z"/>
  <path opacity="0.4" fill="#2A94F4" d="M 713.975 378.949 C 713.975 378.949 702.828 410.763 725.212 413.248 C 747.596 415.734 745.489 393.006 742.131 383.94 C 738.773 374.874 770.283 345.606 739.114 326.843 C 707.945 308.08 692.883 369.874 713.975 378.949 Z"/>
  <line fill="none" stroke="#4D4D4D" stroke-miterlimit="10" x1="727.016" y1="349.748" x2="727.384" y2="440.561"/>
  <polyline fill="none" stroke="#4D4D4D" stroke-miterlimit="10" points="737.005 371.326 727.153 383.488 716.712 372.623"/>
  <line fill="none" stroke="#4D4D4D" stroke-miterlimit="10" x1="799.046" y1="300.054" x2="800.469" y2="437.657"/>
  <polyline fill="none" stroke="#4D4D4D" stroke-miterlimit="10" points="816.288 317.741 799.39 333.324 784.085 319.022"/>
  <polyline fill="none" stroke="#4D4D4D" stroke-miterlimit="10" points="816.195 346.669 799.297 362.253 783.992 347.95"/>
  <g transform="matrix(1, 0, 0, 1, -111.663002, -326.455017)">
    <g>
      <polygon fill="#FAB9AF" points="587.396,638.962 577.079,566.468 549.245,562.648 534.768,638.438   "/>
      <path fill="#0E538C" d="M565.882,751.291l0.03,8.171c0.006,1.662-0.22,3.317-0.671,4.917l-0.71,2.517    c-0.583,2.066,0.97,4.117,3.117,4.109c5.565-0.02,15.077-0.005,17.529-0.001c0.401,0.001,0.794-0.27,0.829-0.67    c0.207-2.386-6.684-3.983-11.874-5.992c-3.953-1.53-3.742-8.636-3.255-12.785c0.184-1.568-1.123-2.902-2.696-2.771l0,0    C566.878,748.894,565.878,749.985,565.882,751.291z"/>
      <path fill="#0E538C" d="M527.632,748.999l-2.816,9.348c-0.124,0.413-0.31,0.805-0.551,1.163l-1.996,2.964    c-1.267,1.882-0.355,4.452,1.815,5.114c0,0,4.024,1.416,8.173,2.779c4.247,1.395,9.588,0.229,9.588-0.891    c0-2.49-2.321-0.514-6.209-3.114c-1.303-0.871-2.648-1.783-3.847-2.724c-3.346-2.627-0.424-9.277,1.624-13.023    c0.737-1.347-0.045-3.019-1.547-3.339l-0.97-0.207C529.472,746.765,528.052,747.605,527.632,748.999z"/>
      <path fill="#FFBE55" d="M556.39,639.663l30.843-2.589c0,0,3.106,22.448-4.689,63.085c-3.656,19.056-11.274,55.471-11.274,55.471    c-1.888,0.826-3.808,1.034-5.763,0.546c0,0-0.579-16.063-0.932-33.361c-0.339-16.59-0.431-34.317-1.488-40.117    C560.927,670.851,556.39,639.663,556.39,639.663z"/>
      <g id="pant">
        <path opacity="0.07" d="M 556.39 639.663 L 587.233 637.074 C 587.233 637.074 590.339 659.522 582.544 700.159 C 578.888 719.215 571.27 755.63 571.27 755.63 C 569.382 756.456 567.462 756.664 565.507 756.176 C 565.507 756.176 564.928 740.113 564.575 722.815 C 564.236 706.225 564.144 688.498 563.087 682.698 C 560.927 670.851 556.39 639.663 556.39 639.663 Z"/>
        <path opacity="0.07" d="M 562.757 640.054 C 565.941 657.144 573.055 682.699 559.352 706.707 C 545.649 730.714 531.258 755.673 531.258 755.673 C 529.404 755.749 527.722 755.076 526.159 753.89 C 526.159 753.89 528.562 743.006 532.035 730.298 C 536.008 715.76 541.041 698.659 539.607 689.743 C 536.92 673.033 533.833 650.779 534.769 639.971 C 535.704 629.165 561.082 631.068 562.757 640.054 Z"/>
      </g>
      <path fill="#FFBE55" d="M562.757,640.054c3.184,17.09,10.298,42.645-3.405,66.653c-13.703,24.007-28.094,48.966-28.094,48.966    c-1.854,0.076-3.536-0.597-5.099-1.783c0,0,2.403-10.884,5.876-23.592c3.973-14.538,9.006-31.639,7.572-40.555    c-2.687-16.71-5.774-38.964-4.838-49.772C535.704,629.165,561.082,631.068,562.757,640.054z"/>
      <path fill="#FFFFFF" d="M588.462,637.116l-11.382-70.647l-27.834-3.82l-14.959,74.599c-0.281,1.402,0.627,2.763,2.032,3.03    c5.182,0.982,17.682,3.034,31.671,3.034c10.443,0,16.312-2.031,18.982-3.316C588.053,639.473,588.653,638.301,588.462,637.116z" id="shirt"/>
      <g>
        <path fill="#FAB9AF" d="M565.642,533.098c-6.212,0-8.53,4.422-8.648,12.602c-0.044,3.063,1.334,6.099,2.443,8.037     c0.824,1.44,1.05,3.145,0.58,4.736l-1.364,4.617c-0.927,4.283,1.107,6.632,4.109,7.485c1.487,0.422,3.27,0.095,4.568-0.744     c1.544-0.998,1.671-3.144,1.384-4.961l-0.352-1.316c-0.475-1.773,0.553-3.685,2.347-4.077c4.783-1.046,5.468-6.032,6.75-13.776     C578.794,537.629,571.854,533.098,565.642,533.098z"/>
        <path fill="#0E538C" d="M565.413,528.551c-4.308,0-11.424,2.433-10.525,8.65l0.794,4.397c0.317,1.756,1.782,3.071,3.56,3.223l0,0     c0.165,0.608,0.716,1.03,1.346,1.03c0.77,0,1.394-0.624,1.394-1.394l0,0c0-1.983,1.392-3.675,3.327-4.11     c2.373-0.533,4.908-0.66,7.561,0.053c4.866,1.307,10.642-6.75,10.65-6.831c0,0-2.464,1.886-7.338,0.096     C571.309,531.875,573.341,528.31,565.413,528.551z"/>
        <path fill="#FAB9AF" d="M560.418,545.851c0,1.897-0.706,3.434-2.532,3.434s-2.998-2.608-2.998-4.505     c0-1.897,1.172-2.363,2.998-2.363S560.418,543.954,560.418,545.851z"/>
      </g>
      <g id="coat">
        <path fill="#FFBE55" d="M 557.941 567.048 C 557.941 572.137 557.016 577.178 555.278 581.961 C 551.877 591.319 546.776 609.013 549.807 624.603 C 554.172 647.052 559.784 656.127 552.509 661.358 C 545.234 666.59 531.281 657.86 530.879 654.95 C 530.476 652.04 533.594 616.292 537.128 600.805 C 540.662 585.318 550.559 563.053 550.559 563.053 L 554.752 563.501 C 556.565 563.695 557.941 565.225 557.941 567.048 Z"/>
        <path fill="#FFBE55" d="M 569.528 565.432 C 569.528 565.432 574.355 575.865 572.672 590.854 C 570.988 605.843 567.087 651.487 580.727 658.379 C 585.046 660.562 594.91 650.896 594.91 647.311 C 594.91 643.725 591.618 631.722 588.499 620.809 C 585.38 609.896 577.862 566.575 577.862 566.575 L 569.528 565.432 Z"/>
        <path fill="#FFBE55" d="M 551.007 542.954 C 551.007 542.954 550.348 544.51 548.776 546.699 C 547.993 547.798 546.976 549.049 545.728 550.389 C 544.497 551.748 543.106 553.269 541.566 554.896 C 540.038 556.534 538.352 558.271 536.657 560.175 C 534.945 562.06 533.261 564.15 531.689 566.386 C 530.155 568.641 528.666 571.018 527.549 573.447 C 527.004 574.658 526.532 575.882 526.26 577.019 C 525.977 578.148 525.897 579.211 526.041 579.855 C 526.113 580.173 526.219 580.381 526.315 580.5 C 526.426 580.609 526.535 580.653 526.668 580.743 C 526.941 580.903 527.536 581.23 528.51 581.421 L 529.056 581.557 C 529.139 581.575 529.256 581.612 529.311 581.615 L 529.469 581.622 L 530.098 581.67 L 530.833 581.702 L 531.536 581.655 C 532.451 581.528 533.249 581.256 533.935 580.87 C 535.301 580.09 536.299 579.114 537.522 578.13 C 538.717 577.117 540.038 575.956 541.244 574.64 C 543.656 572.004 545.723 569.03 547.269 566.791 C 548.069 565.614 548.698 564.69 549.127 564.06 C 549.583 563.399 549.861 563.031 549.861 563.031 L 551.26 563.076 C 551.26 563.076 551.499 563.466 551.881 564.227 C 552.232 564.986 552.73 566.125 553.117 567.633 C 553.886 570.623 554.375 575.22 552.513 580.67 C 551.567 583.36 550.028 586.307 547.389 588.852 C 546.063 590.108 544.466 591.242 542.632 592.094 C 540.805 592.955 538.743 593.5 536.648 593.719 C 532.437 594.14 528.194 593.196 524.821 591.612 C 523.93 591.213 522.894 590.713 521.926 590.082 C 520.941 589.408 519.947 588.639 519.076 587.571 C 518.205 586.532 517.5 585.272 517.064 583.963 C 516.644 582.652 516.496 581.347 516.512 580.149 C 516.571 577.746 517.204 575.802 517.915 574.082 C 518.638 572.359 519.509 570.87 520.412 569.468 C 522.22 566.677 524.176 564.259 526.152 562.032 C 528.105 559.793 530.042 557.729 531.86 555.768 C 533.697 553.826 535.459 552.029 537.165 550.457 C 538.863 548.877 540.495 547.517 541.976 546.355 C 543.439 545.173 544.819 544.263 546.025 543.598 C 548.431 542.26 550.112 541.878 550.112 541.878 L 551.007 542.954 Z"/>
        <path fill="#FFBE55" d="M 599.345 643.368 C 599.345 643.368 598.411 642.136 597.643 639.901 C 597.235 638.786 596.963 637.409 596.632 635.833 C 596.325 634.254 596.01 632.471 595.744 630.517 C 595.46 628.566 595.186 626.448 594.78 624.227 C 594.371 622.007 593.818 619.686 593.255 617.298 C 592.674 614.913 592.009 612.466 591.288 610.032 C 590.946 608.803 590.526 607.616 590.163 606.405 C 589.759 605.222 589.387 604.097 588.909 602.822 C 588.466 601.617 587.988 600.408 587.514 599.222 C 587 598.049 586.489 596.889 585.936 595.772 C 584.847 593.529 583.697 591.421 582.745 589.378 C 581.772 587.339 580.95 585.372 580.166 583.49 C 579.356 581.627 578.582 579.859 577.801 578.222 C 577.017 576.59 576.272 575.054 575.547 573.686 C 574.823 572.32 574.174 571.069 573.597 570.041 C 573.018 568.972 572.563 568.133 572.252 567.56 C 571.933 566.972 571.772 566.631 571.772 566.631 L 572.464 565.65 C 572.464 565.65 572.837 565.698 573.518 565.84 C 573.868 565.899 574.277 566.007 574.756 566.147 C 575.239 566.282 575.803 566.435 576.4 566.666 C 577.614 567.1 579.053 567.733 580.608 568.642 C 582.158 569.552 583.854 570.717 585.505 572.214 C 587.158 573.704 588.824 575.481 590.312 577.537 C 591.815 579.579 593.177 581.883 594.172 584.392 C 595.209 586.888 595.85 589.583 596.414 592.272 C 596.938 594.926 597.47 597.622 598.002 600.319 C 598.25 601.586 598.5 603.03 598.736 604.4 C 598.927 605.762 599.114 607.127 599.244 608.457 C 599.539 611.126 599.733 613.727 599.929 616.236 C 600.15 618.74 600.282 621.16 600.496 623.439 C 600.711 625.718 600.99 627.858 601.194 629.841 C 601.417 631.821 601.53 633.646 601.587 635.267 C 601.624 636.891 601.659 638.305 601.495 639.49 C 601.219 641.853 600.538 643.252 600.538 643.252 L 599.345 643.368 Z"/>
      </g>
      <path fill="#FAB9AF" d="M558.623,542.232c-1.669,0.849-3.25,1.884-3.946,2.152c-0.29,0.112-1.157,0.175-1.407,0.211    c-0.734,0.105-1.887,0.152-2.454,0.63l-2.418,1.969c-1.153,0.971-2.496,1.15-3.467-0.002l0,0    c-1.052-1.248-0.464-2.713,0.897-3.613l1.669-1.406c1.09-0.721,1.75-1.863,2.458-2.961c1.44-2.234,4.155-3.673,6.44-4.624    c1.434-0.597,3.342,0.262,5.819,1.544c1.217,0.63,2.916,1.97,1.227,2.329c-1.415,0.301-5.291-1.393-7.633,2.064    c-0.115,0.17-0.379,0.627-0.223,0.824c0.466,0.588,1.828-0.38,2.681-0.628c1.197-0.349,2.065-0.035,2.287,0.417    C560.791,541.616,559.815,541.625,558.623,542.232z"/>
      <path fill="#FAB9AF" d="M597.181,651.546c0.037-1.873-0.132-3.754-0.04-4.494c0.038-0.309,0.39-1.103,0.477-1.34    c0.253-0.697,0.755-1.736,0.6-2.462l-0.598-3.06c-0.314-1.474,0.161-2.744,1.635-3.057l0,0c1.596-0.34,2.612,0.868,2.765,2.493    l0.454,2.135c0.123,1.301,0.819,2.421,1.454,3.563c1.292,2.323,1.283,5.395,1.045,7.859c-0.149,1.546-1.805,2.825-4.102,4.406    c-1.129,0.777-3.111,1.644-2.633-0.014c0.401-1.39,3.72-4.011,1.773-7.706c-0.096-0.182-0.375-0.63-0.622-0.585    c-0.739,0.134-0.526,1.792-0.709,2.661c-0.256,1.22-0.942,1.838-1.445,1.822C596.703,653.748,597.155,652.883,597.181,651.546z"/>
    </g>
    <path fill="#E8948B" d="M559.663,554.176c0,0,4.64,6.378,10.413,5.514c0,0-1.199,0.573-1.49,1.505   C568.585,561.195,563.102,560.79,559.663,554.176z"/>
  </g>
  <g transform="matrix(1, 0, 0, 1, -111.663002, -326.455017)" id="qmark">
    <path fill="#FFBE55" d="M564.661,504.723c0.164-0.666,0.61-0.936,1.275-0.773l4.815,1.183c0.667,0.164,0.938,0.61,0.773,1.276   l-1.157,4.713c-0.164,0.666-0.61,0.937-1.277,0.773l-4.815-1.183c-0.665-0.164-0.936-0.61-0.771-1.276L564.661,504.723z    M580.387,471.216c4.764,1.17,6.748,4.374,5.565,9.188l-2.479,10.092c-0.138,0.563-0.38,0.884-0.878,1.142l-8.041,4.652   c-0.446,0.271-0.688,0.591-0.826,1.155l-0.554,2.253c-0.163,0.667-0.609,0.937-1.276,0.773l-4.815-1.183   c-0.665-0.164-0.936-0.61-0.772-1.276l1.107-4.507c0.126-0.513,0.367-0.833,0.813-1.104l8.666-5.205l1.736-7.07   c0.327-1.332-0.266-2.237-1.547-2.552l-2.458-0.604c-1.384-0.34-2.225,0.214-2.552,1.546l-0.981,3.996   c-0.126,0.512-0.509,0.744-1.021,0.618l-5.328-1.309c-0.563-0.138-0.744-0.508-0.618-1.021l1.334-5.43   c1.183-4.815,4.373-6.747,9.188-5.564L580.387,471.216z"/>
  </g>
</svg>